<svg width="129" height="45" viewBox="0 0 129 45" fill="none" xmlns="http://www.w3.org/2000/svg">
<path d="M43.1016 23.9099C42.5661 25.0389 42.3276 25.4193 42.313 26.7078C40.6337 28.4794 37.3139 31.2175 35.0797 32.1699C33.5512 32.0138 33.9991 32.0838 32.6848 31.0623C33.6048 30.3745 33.7265 29.2796 34.0088 28.153C34.223 28.9493 34.3885 29.1147 34.8753 29.7626C38.2486 26.2559 38.1268 24.6974 43.1016 23.9099Z" fill="#3D2B1F"/>
<path d="M50.7487 27.436L51.5859 28.0119C51.1478 29.1405 51.3571 28.7751 50.2814 29.5768C47.3803 27.0761 46.2802 26.4106 42.313 26.7078C42.3276 25.4193 42.5662 25.0389 43.1016 23.9099C47.171 24.7242 47.4387 26.2263 50.7487 27.436Z" fill="#3D2B1F"/>
<path d="M114.798 11.0163L115.625 11.2196C115.299 12.2212 115.114 12.1229 114.184 12.8676L114.286 12.9717C114.647 13.337 114.715 13.3643 114.841 13.8366C111.711 12.9985 99.7954 13.5063 97.1279 10.5479C100.214 8.44165 111.142 10.7775 114.798 11.0163Z" fill="#3D2B1F"/>
<path d="M112.397 0C116.768 3.78821 119.815 8.74089 125.053 10.3203C127.248 10.9828 128.431 11.0173 128.791 13.2285C127.506 16.0025 122.624 18.9145 121.553 20.7061C115.045 31.5903 117.454 35.5071 103.971 40.6895C103.07 39.022 102.136 37.3383 101.255 35.6621C98.2906 36.8451 95.2875 38.0791 92.3135 39.2266C92.2356 37.1614 92.357 34.1283 91.3789 32.418C84.7151 27.2098 70.219 63.5367 50.2861 29.5771C50.0601 29.3823 49.8451 29.1984 49.6387 29.0254C49.8452 29.1985 50.0608 29.3821 50.2871 29.5771C51.3629 28.7755 51.1537 29.1402 51.5918 28.0117L50.7549 27.4365C45.9602 18.6955 37.568 18.3567 34.0146 28.1533C33.7324 29.2797 33.6111 30.3747 32.6914 31.0625C33.1902 31.4502 33.435 31.68 33.6309 31.8242C33.4347 31.6803 33.1894 31.4511 32.6895 31.0625C31.565 28.6133 32.5533 25.5702 34.3105 23.627C37.7471 19.8305 41.8114 18.8281 46.7568 18.4287L48.9717 18.7422C50.2469 20.4792 51.9553 24.146 52.9775 26.2109C52.8169 28.0783 54.2578 29.1595 55.5186 30.2559C55.0026 25.8649 55.0026 23.1424 56.4678 19.0156L54.6475 18.1367C58.2008 13.2914 63.3315 5.33918 70.3555 10.5352C71.5281 11.4035 71.3867 11.1281 71.6885 12.5303C69.1716 18.5806 56.2393 18.6781 61.2383 30.2393C63.6137 35.7398 67.99 35.7291 73.1885 33.8408C79.9104 31.3988 82.1058 23.7432 86.2529 18.2783L84.291 13.3516C86.5788 12.1681 92.8002 8.94128 94.1875 7.24512C93.8076 5.93933 91.9678 5.60011 92.5615 4.85742C96.5238 -0.0759039 106.921 0.15517 112.397 0ZM66.8457 12.1768C62.5768 11.1348 58.2834 15.5416 56.4727 19.0166C55.0076 23.1432 55.0075 25.8651 55.5234 30.2559C56.0978 31.7648 56.7256 33.2289 57.3584 34.7275C60.0455 41.0907 70.3406 40.9238 75.5781 38.3691C77.5785 37.3925 78.4837 36.5431 79.209 34.4209L78.8438 33.7715C70.009 37.4935 57.6409 39.8828 57.6602 26.0225C57.6748 15.2344 66.7669 15.0918 67.9746 13.085L66.8457 12.1768ZM113.22 18.2988L112.763 19.6943C105.641 25.369 104.847 26.1379 101.017 34.3711C110.518 30.7959 112.29 28.3216 118.506 20.5498C113.648 24.3953 110.766 26.6666 105.611 30.0029C108.342 26.0864 114.062 20.9502 115.503 18.3828L115.298 17.8271L113.22 18.2988ZM114.804 11.0166C110.082 8.73626 97.3973 4.72798 94.1699 10.5498C95.4161 13.9191 101.471 15.0546 104.684 15.6787V15.6797C92.4274 18.8282 90.3975 18.9793 84.1816 30.4717C94.7735 27.6013 102.888 24.3197 112.76 19.6943L113.217 18.2988C106.991 19.906 96.5942 24.1654 89.5605 26.3184C96.1559 20.1197 98.2934 19.2601 106.841 16.667L106.84 16.666L114.848 13.8369C114.721 13.3646 114.652 13.337 114.292 12.9717L114.19 12.8672C115.12 12.1228 115.305 12.221 115.631 11.2197L114.804 11.0166ZM46.7559 27.1143C47.041 27.2285 47.318 27.3655 47.5967 27.5264C47.3067 27.359 47.018 27.2186 46.7207 27.1016C46.7323 27.1061 46.7443 27.1096 46.7559 27.1143ZM46.3799 26.9785C46.3917 26.9824 46.4032 26.9873 46.415 26.9912C46.3782 26.979 46.341 26.9676 46.3037 26.9561C46.329 26.9639 46.3547 26.9704 46.3799 26.9785ZM45.582 26.7783C45.6079 26.7831 45.6335 26.7889 45.6592 26.7939C45.6214 26.7865 45.5833 26.7793 45.5449 26.7725L45.582 26.7783Z" fill="#3D2B1F"/>
<path d="M6.94336 0.910645C11.7767 1.01 10.083 6.71685 12.2441 9.42041C18.6938 14.2428 26.7009 4.61379 34.1436 4.09814C47.437 3.17686 49.4574 14.1069 54.5635 18.0747L54.6465 18.1372L56.4668 19.0161C55.0016 23.1429 55.0016 25.8654 55.5176 30.2563C54.2569 29.1599 52.8159 28.0788 52.9766 26.2114C51.9544 24.1466 50.246 20.4798 48.9707 18.7427L46.7559 18.4292C41.124 12.307 35.7205 12.2318 28.1367 13.23C25.5033 14.8775 22.3245 18.2189 21.1562 21.1987C18.4791 26.5217 28.2491 31.816 26.3994 36.0708C24.1992 41.1288 17.5154 40.9012 15.5342 35.4233C12.672 27.5083 13.2133 23.1561 16.1338 15.8472C14.0116 15.9542 12.1615 16.1535 9.84473 15.5981C2.42156 13.8193 -6.49135 0.634841 6.94336 0.910645ZM34.3252 7.21924C23.1297 7.53221 12.8937 17.8562 17.6348 29.5229L18.1113 29.7593C19.0118 23.3284 17.4984 18.0889 24.1768 13.2632C32.4176 7.30385 42.6488 9.99004 48.4072 17.937C48.6019 18.2026 48.7877 18.4713 48.9727 18.7427C50.2479 20.4798 51.9564 24.1466 52.9785 26.2114C52.8325 21.0419 50.8805 15.6566 47.0889 12.0435C43.6426 8.81213 39.0517 7.0772 34.3252 7.21924ZM18.0332 12.7134C16.1786 12.4818 9.46584 11.1758 8.53125 11.8257C10.7801 13.4674 15.9206 15.0395 18.0332 12.7134Z" fill="#3D2B1F"/>
</svg>
