<svg width="21" height="22" viewBox="0 0 21 22" fill="none" xmlns="http://www.w3.org/2000/svg">
<path d="M19.9926 9.99707C20.5732 10.3084 20.9644 10.6243 20.8402 10.9443C20.3655 12.1807 18.6463 13.4368 17.2543 14.6631C16.0191 15.755 14.9954 16.8613 13.9076 17.9561C12.889 18.9772 12.5853 20.5043 10.4281 21.4512L10.1049 21.4248C9.69019 21.0026 9.39566 20.5778 9.21133 20.1533C7.79664 19.9271 6.93448 18.0329 6.52871 17.6533C5.35793 16.5647 4.33426 15.4676 3.04824 14.3818C1.78066 13.3127 -0.154795 12.1274 0.0111336 11.0469C0.16831 10.0248 1.74367 8.93198 2.87734 7.91895C4.56896 6.4012 5.9519 4.87228 7.42227 3.35059C8.20125 2.54784 9.3957 1.73063 9.67227 0.923828L9.69473 0.854492L11.0688 0.827148C11.6498 1.88705 14.1842 2.92866 13.9906 4C15.9312 4.83171 16.6878 5.91578 16.7523 6.78418C18.8169 7.7718 19.5639 8.97764 19.9926 9.99707ZM13.6078 10.8691C13.4506 9.85626 11.2987 8.85464 10.9389 7.8457L10.9252 7.78613L9.8002 7.83594C9.86429 8.78242 7.78137 9.77445 7.39883 10.7305C7.16381 11.3092 7.38021 11.9939 8.08535 12.5664C8.27434 12.7201 8.98488 12.8345 9.11856 12.9922C9.43192 13.3613 9.03079 13.8595 10.2426 14.1943C11.2935 13.9435 11.1371 13.47 11.4506 13.1797C12.248 12.4392 13.7184 11.6146 13.6078 10.8691Z" fill="#B16335"/>
</svg>
