<svg width="57" height="41" viewBox="0 0 57 41" fill="none" xmlns="http://www.w3.org/2000/svg">
<path d="M41.8516 10.9577L42.791 11.1596C43.38 12.365 43.3216 11.8479 42.8543 13.2921C42.5282 13.5144 42.2167 13.7926 41.8565 13.8369C38.4296 13.1058 25.9246 13.3899 23.8413 10.5803C26.5136 8.46723 38.4296 10.6717 41.8516 10.9577Z" fill="#3D2B1F"/>
<path d="M33.7119 0.0604858C42.1961 -0.611743 42.6538 4.44889 48.3584 8.71869C50.4806 10.3083 53.7959 10.368 56.3076 12.7177C55.5142 15.4018 47.1463 19.7206 45.5059 26.0956C43.5734 33.6002 38.0295 37.8408 30.874 40.5449C29.9346 39.1697 28.8881 37.1299 28.0654 35.6269L18.9873 39.3808C18.9873 36.1952 18.6803 34.0767 18.2373 30.9091C14.5768 32.0164 8.10831 35.7489 6.49219 35.7685L6 35.121L6.5166 32.6474C7.0618 26.3035 9.34499 23.1577 13.1855 18.3251L11.043 13.4648C13.1166 12.33 20.2825 8.62997 20.6914 6.74994L19.0508 5.24603C20.2096 1.6121 30.5188 0.313427 33.7119 0.0604858ZM41.8506 10.9579C36.6033 8.62897 26.4834 5.41682 21.46 9.67084C20.5351 12.9221 26.5761 14.536 29.0635 15.1699C29.8275 15.3644 30.5964 15.5495 31.3652 15.7265C21.1629 18.4202 17.8627 18.4003 12.3672 27.8388C11.8464 28.7313 11.3353 29.6275 10.8291 30.5273C21.6931 27.3122 29.2519 24.8883 39.3027 19.6113C38.7407 20.2879 36.214 22.4092 35.4404 23.1152C31.1522 27.0429 30.1294 29.2511 27.8125 34.4511C36.1798 31.0973 39.1444 28.8712 44.4014 21.2753C39.8842 24.8194 37.4597 26.684 32.6748 29.7529C35.2351 25.8558 41.5338 20.2495 42.5078 17.913C41.364 17.5239 41.4371 17.7311 40.1279 18.1415L39.6846 18.9326L40.127 18.1415C31.9836 20.8377 24.9794 23.5455 16.5391 26.1386C24.4831 18.422 31.4728 17.1533 41.8555 13.8369C42.2157 13.7926 42.5274 13.5142 42.8535 13.2919C43.3207 11.8483 43.3788 12.365 42.79 11.1601L41.8506 10.9579Z" fill="#3D2B1F"/>
</svg>
