<svg width="177" height="45" viewBox="0 0 177 45" fill="none" xmlns="http://www.w3.org/2000/svg">
<path d="M41.8516 12.6854L42.791 12.8873C43.38 14.0926 43.3216 13.5756 42.8543 15.0197C42.5282 15.242 42.2167 15.5203 41.8565 15.5645C38.4296 14.8334 25.9246 15.1175 23.8413 12.3079C26.5136 10.1949 38.4296 12.3994 41.8516 12.6854Z" fill="#3D2B1F"/>
<path d="M33.7119 1.78815C42.1961 1.11592 42.6538 6.17655 48.3584 10.4464C50.4806 12.0359 53.7959 12.0957 56.3076 14.4454C55.5142 17.1295 47.1463 21.4483 45.5059 27.8233C43.5734 35.3279 38.0295 39.5685 30.874 42.2725C29.9346 40.8974 28.8881 38.8576 28.0654 37.3546L18.9873 41.1085C18.9873 37.9229 18.6803 35.8044 18.2373 32.6368C14.5768 33.744 8.10831 37.4766 6.49219 37.4962L6 36.8487L6.5166 34.3751C7.0618 28.0312 9.34499 24.8854 13.1855 20.0528L11.043 15.1924C13.1166 14.0576 20.2825 10.3576 20.6914 8.4776L19.0508 6.97369C20.2096 3.33976 30.5188 2.04109 33.7119 1.78815ZM41.8506 12.6856C36.6033 10.3566 26.4834 7.14448 21.46 11.3985C20.5351 14.6498 26.5761 16.2637 29.0635 16.8975C29.8275 17.092 30.5964 17.2772 31.3652 17.4542C21.1629 20.1479 17.8627 20.128 12.3672 29.5665C11.8464 30.4589 11.3353 31.3552 10.8291 32.2549C21.6931 29.0399 29.2519 26.616 39.3027 21.3389C38.7407 22.0155 36.214 24.1369 35.4404 24.8428C31.1522 28.7706 30.1294 30.9787 27.8125 36.1788C36.1798 32.8249 39.1444 30.5989 44.4014 23.003C39.8842 26.5471 37.4597 28.4117 32.6748 31.4805C35.2351 27.5835 41.5338 21.9772 42.5078 19.6407C41.364 19.2516 41.4371 19.4587 40.1279 19.8692L39.6846 20.6602L40.127 19.8692C31.9836 22.5654 24.9794 25.2732 16.5391 27.8663C24.4831 20.1496 31.4728 18.881 41.8555 15.5645C42.2157 15.5202 42.5274 15.2419 42.8535 15.0196C43.3207 13.5759 43.3788 14.0927 42.79 12.8878L41.8506 12.6856Z" fill="#3D2B1F"/>
<path d="M90.7188 23.9099C90.1833 25.0389 89.9448 25.4193 89.9302 26.7078C88.2509 28.4794 84.9311 31.2175 82.6969 32.1699C81.1684 32.0138 81.6163 32.0838 80.302 31.0623C81.222 30.3745 81.3437 29.2796 81.626 28.153C81.8402 28.9493 82.0057 29.1147 82.4925 29.7626C85.8658 26.2559 85.744 24.6974 90.7188 23.9099Z" fill="#3D2B1F"/>
<path d="M98.3659 27.436L99.2031 28.0119C98.765 29.1405 98.9743 28.7751 97.8986 29.5768C94.9974 27.0761 93.8974 26.4106 89.9302 26.7078C89.9448 25.4193 90.1833 25.0389 90.7188 23.9099C94.7881 24.7242 95.0559 26.2263 98.3659 27.436Z" fill="#3D2B1F"/>
<path d="M162.415 11.0163L163.242 11.2196C162.916 12.2212 162.731 12.1229 161.801 12.8676L161.904 12.9717C162.264 13.337 162.332 13.3643 162.459 13.8366C159.329 12.9985 147.413 13.5063 144.745 10.5479C147.831 8.44165 158.759 10.7775 162.415 11.0163Z" fill="#3D2B1F"/>
<path d="M160.014 0C164.385 3.78827 167.432 8.7409 172.67 10.3203C174.865 10.9827 176.048 11.0173 176.408 13.2285C175.123 16.0024 170.241 18.9145 169.17 20.7061C162.662 31.5903 165.071 35.5071 151.588 40.6895C150.687 39.022 149.753 37.3383 148.872 35.6621C145.908 36.8451 142.904 38.0791 139.93 39.2266C139.852 37.1613 139.973 34.1283 138.995 32.418C132.331 27.2098 117.835 63.5371 97.9023 29.5771C97.3646 29.1136 96.888 28.7141 96.4443 28.3711C96.8884 28.7143 97.3661 29.1132 97.9043 29.5771C98.98 28.7755 98.7709 29.1402 99.209 28.0117L98.3711 27.4365C93.5765 18.6955 85.1852 18.3567 81.6318 28.1533C81.3495 29.2798 81.2276 30.3747 80.3076 31.0625C80.7614 31.4152 81.0054 31.6367 81.1934 31.7822C81.005 31.637 80.7605 31.416 80.3057 31.0625C79.1813 28.6134 80.1696 25.5702 81.9268 23.627C85.3632 19.8305 89.4277 18.8281 94.373 18.4287L96.5879 18.7422C97.8632 20.4792 99.5725 24.146 100.595 26.2109C100.434 28.0782 101.874 29.1595 103.135 30.2559C102.619 25.8649 102.619 23.1424 104.084 19.0156L102.264 18.1367C105.817 13.2914 110.948 5.33916 117.972 10.5352C119.145 11.4038 119.004 11.1279 119.306 12.5303C116.789 18.5808 103.855 18.678 108.854 30.2393C111.23 35.74 115.606 35.7291 120.805 33.8408C127.527 31.399 129.722 23.7433 133.869 18.2783L131.908 13.3516C134.196 12.168 140.416 8.94126 141.804 7.24512C141.424 5.93959 139.585 5.59991 140.178 4.85742C144.14 -0.0758852 154.538 0.155166 160.014 0ZM114.462 12.1768C110.193 11.135 105.9 15.5416 104.089 19.0166C102.624 23.1431 102.624 25.8652 103.14 30.2559C103.714 31.7648 104.342 33.2289 104.975 34.7275C107.662 41.0908 117.957 40.9238 123.194 38.3691C125.195 37.3924 126.101 36.5432 126.826 34.4209L126.461 33.7715C117.626 37.4936 105.257 39.8828 105.276 26.0225C105.291 15.234 114.385 15.092 115.592 13.085L114.462 12.1768ZM160.837 18.2988L160.379 19.6943C153.258 25.3689 152.465 26.1379 148.634 34.3711C158.135 30.7959 159.907 28.3218 166.123 20.5498C161.265 24.3955 158.383 26.6665 153.229 30.0029C155.959 26.0865 161.678 20.9503 163.119 18.3828L162.915 17.8271L160.837 18.2988ZM152.301 15.6797C140.044 18.8283 138.014 18.9789 131.798 30.4717C142.39 27.6013 150.504 24.3197 160.376 19.6943L160.834 18.2988C154.608 19.906 144.211 24.1654 137.177 26.3184C143.772 20.1195 145.91 19.2601 154.457 16.667L152.301 15.6797ZM94.3652 27.1123C94.8632 27.3111 95.3358 27.5793 95.835 27.9238C95.3359 27.5792 94.863 27.3112 94.3652 27.1123ZM94.0898 27.0098C94.1112 27.0171 94.1321 27.0256 94.1533 27.0332C94.1263 27.0236 94.0995 27.0131 94.0723 27.0039L94.0898 27.0098ZM162.42 11.0166C157.698 8.73622 145.013 4.72786 141.786 10.5498C143.032 13.9193 149.088 15.0546 152.301 15.6787L154.457 16.667L162.464 13.8369C162.337 13.3646 162.269 13.337 161.909 12.9717L161.807 12.8672C162.736 12.1225 162.922 12.2212 163.248 11.2197L162.42 11.0166Z" fill="#3D2B1F"/>
<path d="M54.5605 0.911316C59.3937 1.01078 57.7001 6.71759 59.8613 9.42108C66.3109 14.2429 74.3182 4.61344 81.7607 4.09784C95.0542 3.17661 97.0745 14.1076 102.181 18.0754L102.264 18.1369L104.084 19.0168C102.619 23.1434 102.619 25.8653 103.135 30.256C101.874 29.1596 100.433 28.0785 100.594 26.2111C99.5715 24.1462 97.8631 20.4793 96.5879 18.7424L94.373 18.4289C88.7412 12.3068 83.3377 12.2325 75.7539 13.2307C73.1205 14.8782 69.9417 18.2196 68.7734 21.1994C66.097 26.5222 75.866 31.8159 74.0166 36.0705C71.8164 41.1288 65.1325 40.9012 63.1514 35.423C60.2892 27.508 60.8295 23.1558 63.75 15.8469C61.6279 15.9539 59.7778 16.1533 57.4609 15.5978C50.0379 13.8185 41.1261 0.635519 54.5605 0.911316ZM81.9424 7.21991C70.747 7.53282 60.5102 17.8559 65.251 29.5226L65.7285 29.7599C66.629 23.3289 65.1155 18.0897 71.7939 13.2639C80.0347 7.30437 90.266 9.98981 96.0244 17.9367C96.219 18.2022 96.404 18.4711 96.5889 18.7424C97.8642 20.4794 99.5735 24.1472 100.596 26.2121C100.45 21.0425 98.4978 15.6563 94.7061 12.0432C91.2598 8.81183 86.6689 7.07787 81.9424 7.21991ZM65.6504 12.7131C63.7959 12.4815 57.0834 11.1757 56.1484 11.8254C58.3973 13.4671 63.5378 15.0392 65.6504 12.7131Z" fill="#3D2B1F"/>
</svg>
