<svg width="38" height="42" viewBox="0 0 38 42" fill="none" xmlns="http://www.w3.org/2000/svg">
<path d="M20.3406 4.29202C20.8468 6.1273 20.3065 8.09197 18.929 9.40824C17.5563 10.725 15.5654 11.1808 13.7547 10.5956C11.939 10.0104 10.5956 8.4782 10.25 6.60643C9.74862 3.87953 11.4815 1.24068 14.1879 0.620484C16.8943 0.00029172 19.6056 1.61862 20.3406 4.29202Z" fill="#3D2B1F"/>
<path d="M19.7722 34.1401C20.5413 35.8416 20.332 37.8243 19.2222 39.3283C18.1172 40.8318 16.287 41.6233 14.4324 41.399C12.5778 41.1743 10.991 39.9689 10.2754 38.245C9.18993 35.6349 10.4068 32.6399 13.0013 31.5187C15.5957 30.397 18.6088 31.5645 19.7722 34.1401Z" fill="#3D2B1F"/>
<path d="M37.8685 36.1744C38.1265 38.9611 36.0967 41.4375 33.3124 41.7366C30.5281 42.0353 28.0164 40.0468 27.6756 37.2693C27.4517 35.4345 28.2306 33.6201 29.7201 32.5223C31.2096 31.4244 33.1712 31.2133 34.8603 31.9697C36.5494 32.7266 37.6982 34.3332 37.8685 36.1744Z" fill="#3D2B1F"/>
<path d="M12.5437 18.9168C13.5221 21.544 12.2078 24.4694 9.58902 25.4802C6.97509 26.491 4.03019 25.2127 2.98364 22.6112C2.2973 20.8981 2.58452 18.948 3.73815 17.5057C4.88692 16.0635 6.72684 15.3528 8.5522 15.6447C10.3776 15.937 11.9012 17.1866 12.5437 18.9168Z" fill="#3D2B1F"/>
<path d="M29.6156 20.6171C30.2971 23.3377 28.6519 26.0991 25.9357 26.7967C23.2147 27.4937 20.445 25.8656 19.7295 23.1524C19.0139 20.4186 20.6592 17.6232 23.3996 16.9203C26.1353 16.2179 28.9244 17.8761 29.6156 20.6171Z" fill="#3D2B1F"/>
</svg>
