<svg width="89" height="90" viewBox="0 0 89 90" fill="none" xmlns="http://www.w3.org/2000/svg">
<path d="M72.1666 65.8566C72.4754 66.6315 76.1583 69.4829 73.5356 70.0812C72.4478 69.6681 73.2867 69.0395 71.6826 68.6841C71.5628 67.8401 70.2583 66.9663 69.4194 66.1281L64.8561 61.5926C63.9941 60.7383 62.874 59.8692 62.4223 59.0104C62.1504 58.4972 62.8694 58.0115 62.8233 57.5058C65.1142 56.5658 65.1696 55.4178 66.2113 54.4401L69.3318 51.3366C70.0186 50.6903 71.1986 50.0023 71.2447 49.3538C71.6319 49.0583 71.6734 48.6675 72.7105 48.4006C73.2267 48.9538 74.1532 49.5504 74.061 50.1035C73.9872 50.2812 74.1301 50.5223 73.6093 50.6863C73.1069 50.3978 72.7243 50.1086 72.3417 49.8172L71.6964 49.8201C71.4244 49.9909 72.6413 50.4001 72.0744 50.5024C71.4337 50.6184 70.982 50.7275 70.7561 50.8658C70.203 51.2046 68.0043 53.5332 68.3224 53.8001C68.3454 53.8183 68.3961 53.8366 68.4284 53.8555C69.0783 53.7081 68.9907 53.5778 69.3963 53.4241C69.7282 53.8761 69.0322 54.3104 68.8524 54.7595C68.3085 56.1149 67.1378 57.4521 66.4325 58.8058C64.4874 58.3446 67.1793 57.0435 64.8377 56.7446C64.0403 57.0989 63.8559 57.6281 64.3905 57.9915C65.5844 58.8023 66.6077 61.6749 68.5759 62.2086C69.6545 62.2132 69.1152 62.2001 70.1753 62.2521C70.4565 62.4783 70.6824 62.6601 70.309 62.8863L70.3827 62.6823C69.6268 63.2241 69.0322 63.9086 70.7054 64.4321C70.7054 64.3035 70.7008 64.2566 71.1433 64.1366C72.0652 64.2258 72.2633 64.5223 72.4477 64.6692C72.9133 65.0383 73.978 65.5469 72.1666 65.8566Z" fill="#FDE8C8"/>
<path d="M70.7046 64.4321C70.7046 64.3036 70.6999 64.2567 71.1424 64.1367C72.0643 64.2259 72.2625 64.5224 72.4469 64.6693C72.9124 65.0384 73.9772 65.547 72.1657 65.8567C71.8984 65.3979 71.585 64.879 70.7046 64.4321Z" fill="#F7D8B4"/>
<path d="M59.3687 63.1882C59.5623 63.4888 59.885 63.7945 59.6453 64.0951L59.5716 64.1876C59.1659 64.6271 58.2256 65.0791 56.9488 65.4916C55.4784 65.9682 53.0585 68.4951 53.1599 69.0756L53.6762 68.7454C53.6854 70.0899 51.2747 71.4271 51.4591 72.7716C51.6573 74.2488 54.4828 75.7419 54.2155 77.2145L53.0585 76.4396C53.0447 77.4402 60.0878 83.0128 58.6543 83.3042C57.3406 83.0282 51.6619 76.8265 50.9935 76.1036C50.3298 75.3836 50.4404 74.4271 48.4353 73.7494C48.1864 73.2471 47.8315 72.7459 47.9514 72.2419C48.9101 72.0956 56.6493 64.1002 57.2346 63.1682C57.5942 62.9991 57.5849 62.8156 57.6771 62.6414L58.7281 62.6848L59.3687 63.1882Z" fill="#FEEDCF"/>
<path d="M73.9501 71.7726C75.8953 72.5572 74.4756 74.0538 71.5164 74.7909C71.4519 74.8075 71.3228 74.8184 71.2306 74.8326L70.9172 74.6789C70.0875 74.5115 70.0644 74.3675 69.9676 74.1778C68.972 73.0252 61.0762 64.3127 59.6427 64.0949C59.8824 63.7944 59.5597 63.4887 59.3661 63.1881L59.4859 62.8418L59.9561 62.8766L59.6519 62.7126C59.9469 62.8406 59.91 62.9446 60.8549 63.0155C60.9656 62.9189 61.0439 62.8246 61.113 62.7275C61.1868 62.8646 61.2606 62.9526 61.7814 63.0755C62.2101 63.1772 62.4682 63.2658 62.6941 63.3778C62.4544 63.4504 62.2331 63.5144 62.2285 63.5944C62.1963 64.2029 64.524 65.5926 65.2845 66.2652C66.1557 67.0326 66.3631 67.8098 67.285 68.5766C67.5616 68.8098 68.3083 69.0218 68.6079 69.2435C69.0596 69.5795 68.0225 69.9858 68.6356 70.3098C68.9536 70.4784 69.9538 70.5144 71.0416 70.5978C71.5072 70.9429 71.0555 71.3064 71.6824 71.6521C71.9267 71.5612 72.1479 71.5012 72.6226 71.4258L74.0654 71.4292L73.9501 71.7726Z" fill="#AB5D2D"/>
<path d="M73.9501 71.7727C75.8953 72.5573 74.4756 74.0538 71.5164 74.791C71.4519 74.8076 71.3228 74.8184 71.2306 74.8327L70.9172 74.679C70.0875 74.5116 70.0644 74.3676 69.9676 74.1778L71.4104 74.1458C71.8943 73.3618 72.3829 72.535 73.9501 71.7727Z" fill="#FDE8C8"/>
<path d="M71.4102 74.1458L70.917 74.6789C70.0873 74.5115 70.0642 74.3675 69.9674 74.1777L71.4102 74.1458Z" fill="#C8875E"/>
<path d="M58.6529 83.3041L58.6575 83.367C58.7543 84.043 60.174 84.7156 59.9435 85.391C59.5932 86.4253 57.4867 87.4413 56.9843 88.475L55.878 88.4036C55.5738 87.5533 54.3984 86.691 53.5319 85.8464L49.1622 81.5727C48.3878 80.8133 47.0372 79.9927 47.0419 79.2316C47.1525 79.1178 47.2355 79.003 47.2908 78.8887C49.5309 79.7453 49.3788 80.6664 50.2362 81.5567C51.1488 82.5041 52.4764 83.4527 53.2 84.4018C53.6886 85.039 53.9744 85.9424 55.4678 86.539C56.1454 86.8087 55.5692 87.1767 56.422 87.399L57.1088 87.3276C57.3116 87.2298 57.3715 87.1801 57.2148 87.0778C57.0442 86.9636 56.8276 86.9756 56.1039 86.9156C56.0117 86.7853 56.0993 86.6938 56.3574 86.567L57.2055 86.695L58.0906 86.6281L56.9797 86.651L58.1413 86.591C58.6852 86.0847 57.33 85.663 57.0672 85.1693L56.8829 84.835L56.74 85.1367L56.4081 85.1361C56.4773 84.6058 56.2145 84.0858 56.1224 83.5567C56.0532 83.1533 56.3805 82.7498 56.1224 82.3458C55.7628 81.7847 55.0529 81.2173 54.5874 80.655C54.2509 80.2493 54.2049 79.767 53.1908 79.379C52.8405 79.2458 51.9877 79.1716 51.4807 79.0533C50.3744 78.7973 50.356 78.2247 51.1719 77.9544C51.006 78.2767 51.5821 78.571 52.1767 78.8813C52.7621 77.6887 49.66 76.4281 48.4616 75.2447C47.9684 74.7573 48.2956 74.2498 47.9914 73.7561L48.4339 73.7493C50.439 74.427 50.3284 75.3836 50.9921 76.1036C51.6605 76.8264 57.3392 83.0281 58.6529 83.3041Z" fill="#AD5C30"/>
<path d="M40.1045 72.3842C40.335 72.5899 40.5286 72.799 40.4087 73.007C39.5836 74.4642 37.3619 75.9425 35.9422 77.395L33.3702 79.947C33.0014 80.3025 32.9139 80.731 32.1072 81.0693L31.4665 81.0133C30.812 80.731 32.476 79.3299 32.4575 78.8842L32.0888 79.163C32.1764 77.4402 34.4626 75.727 36.0252 74.0179C36.818 73.1528 36.6198 72.2236 38.7171 71.3899C39.7772 71.6322 39.7357 72.1048 40.1045 72.3842Z" fill="#FEEDCF"/>
<path d="M14.4907 17.52L15.0439 17.5305C15.4495 17.9025 14.6982 18.4426 15.7169 18.7829C16.8047 19.1481 16.777 19.6728 17.1734 20.0665C18.1322 21.0119 18.9987 21.9613 20.4415 22.8976L20.4138 22.6256C22.6125 23.4825 25.8621 27.488 25.4012 28.4576L24.6729 28.4807C23.4791 28.1028 13.5689 17.7957 14.145 17.5979C14.2234 17.57 14.3755 17.546 14.4907 17.52Z" fill="#AD5C30"/>
<path d="M45.6697 78.3888C45.6328 78.4219 45.5959 78.4557 45.5637 78.4894C45.3286 78.7334 45.7665 78.9494 45.3793 79.2019C45.0474 78.7854 44.2454 78.3848 44.0933 77.9654L43.6278 77.9105C43.4618 77.9225 43.5356 77.9151 43.4341 77.9625C42.7013 78.2911 43.2037 78.7625 42.9179 79.1157L38.728 84.2768L38.3638 84.3002L37.8522 84.1871C37.1147 84.2631 37.2207 84.4808 37.1285 84.6019C36.7828 85.0511 37.0271 85.7077 35.7688 86.1185C35.5291 85.9979 35.3954 85.8859 35.317 85.7625C35.2202 85.4065 35.7503 85.0454 35.8517 84.6865C36.4786 84.5511 43.3235 77.6922 43.66 76.9248L44.757 77.0031C44.7939 77.4677 45.7895 77.9185 45.6697 78.3888Z" fill="#FEEDCF"/>
<path d="M33.4267 65.4945C33.4359 65.4728 33.4404 65.4511 33.4451 65.4294C33.4865 65.3202 33.3805 65.0774 34.0212 65.0054L34.1411 65.3848L35.6853 65.4659C35.8051 65.5345 35.9157 65.6037 36.0171 65.6722C36.7546 66.1825 36.7546 66.7185 37.3031 67.2339C38.6536 68.5134 41.9356 70.7785 41.1981 72.0145C41.0874 72.1979 40.9768 72.2328 40.1056 72.3842C39.7369 72.1048 39.7784 71.6322 38.7182 71.3899C38.9349 70.8357 37.9669 70.2419 37.4138 69.6905L34.5191 66.8157C34.1042 66.3997 33.2192 65.9094 33.4267 65.4945Z" fill="#AD5C30"/>
<path d="M35.392 11.4771C36.9823 12.0289 40.1719 15.6971 40.195 16.3952C40.2088 16.8255 39.7939 17.4444 38.6232 17.8504C38.2821 17.4381 38.4757 17.0297 38.0747 16.6133C37.3971 15.9063 32.7877 12.8855 33.7695 12.4038L35.1201 12.3676C35.8944 12.0765 34.9588 11.7783 35.392 11.4771Z" fill="#F7D8B4"/>
<path d="M71.2461 49.3539C71.2 50.0024 70.02 50.6904 69.3332 51.3367L66.2127 54.4402C65.171 55.4179 65.1156 56.5659 62.8248 57.5059L62.115 57.4596C62.8617 56.4139 63.0046 55.3573 64.4703 54.3207L65.466 54.2516C65.4014 53.0796 66.4432 51.911 67.7614 50.7516C67.9596 50.859 68.1855 50.951 68.5404 51.0516C68.5634 50.9973 68.5957 50.9424 68.6095 50.8876C68.7063 50.3019 70.0016 49.4842 70.6838 48.8699C71.3152 49.0064 71.1723 49.1973 71.2461 49.3539Z" fill="#AD5C30"/>
<path d="M53.4706 10.9963C55.6924 11.4395 51.9357 14.3311 51.4747 14.9869C51.0645 15.5729 51.2305 16.2294 50.4745 16.804C50.3962 16.865 50.2764 16.8906 50.0874 16.9418C48.8705 16.5842 51.0046 16.0274 49.1977 15.6941C46.9115 16.2166 52.2814 17.6111 49.4282 17.9192C48.1238 17.3992 47.8518 16.7563 47.9209 16.2115C48.0085 15.5778 49.1286 14.9383 49.7232 14.3093C50.5391 13.4474 51.1844 11.7696 53.4706 10.9963Z" fill="#FDE8C8"/>
<path d="M57.2305 63.1681C56.6451 64.1001 48.9059 72.0955 47.9472 72.2418C47.265 72.4184 47.3111 72.6075 47.2235 72.7995C46.5966 72.6738 46.569 72.4686 46.7856 72.3258C47.3203 71.9732 47.3802 71.6115 47.7904 71.2561C49.164 70.0669 51.9112 68.6304 51.3443 67.4372C51.2936 67.3361 51.1875 67.3184 51.5517 67.2252L52.3583 67.2378L52.704 67.1789C52.6533 66.8418 53.2433 66.5201 53.354 66.1846C53.4876 65.7549 53.1465 65.3138 53.5706 64.8869C53.8886 64.5686 54.8428 64.2715 55.3544 63.9601C56.0136 63.5601 56.1242 63.1178 56.4607 62.7092L56.8202 62.7464L56.5713 62.6875C57.3503 62.8201 57.1475 63.0058 57.2305 63.1681Z" fill="#AD5C30"/>
<path d="M28.8759 63.4709C30.4938 64.1561 24.414 68.6212 23.6258 69.7041C23.2202 70.2589 23.9669 70.8195 23.257 71.3715C23.0035 71.2915 22.6025 71.0367 22.1877 71.0007C22.1877 71.0252 22.1877 71.0498 22.183 71.0744C22.1508 71.4132 21.4363 71.7081 21.1183 72.0401C20.3577 72.8367 19.8553 73.6395 19.1363 74.4372L18.3158 74.4058L18.9104 74.5584L18.6338 74.5567C18.3388 74.3984 18.2651 74.2521 18.2236 74.0909C18.3942 73.4835 19.3068 72.8538 19.9198 72.2492L23.5013 68.7487L26.9169 65.2698C27.5069 64.6744 27.8664 64.0578 28.8759 63.4709Z" fill="#FDE8C8"/>
<path d="M66.1336 26.1611C66.8389 26.0352 66.7605 25.9886 66.825 25.833C67.6593 26.1655 65.3224 27.8255 64.9997 28.2746C64.6264 28.7904 63.9027 31.9375 66.0092 32.198C65.9262 32.4854 66.0414 32.7871 65.3224 33.0616C65.1795 33.1153 65.0643 33.1699 64.9352 33.2239C63.58 32.294 62.2433 31.3168 62.2479 30.3687C62.2525 29.0617 64.631 27.4739 66.1336 26.1611Z" fill="#FEEDCF"/>
<path d="M66.0089 32.198C66.433 32.4703 66.6911 32.7453 66.9722 33.0203L66.9768 32.8805C68.2951 33.3887 68.3966 35.3713 68.8713 36.0596C69.701 37.2631 71.2267 38.4511 72.144 39.6525C72.3007 39.8534 72.2223 39.9601 71.6554 40.1497C70.3325 38.8561 69.2724 37.5547 67.8803 36.2633C66.8109 35.2715 65.0087 34.2262 64.9349 33.2239C65.064 33.1698 65.1792 33.1153 65.3221 33.0616C66.0412 32.7871 65.9259 32.4854 66.0089 32.198Z" fill="#FDE8C8"/>
<path d="M85.5977 34.9057C85.5147 35.4927 79.3889 41.7339 78.4255 42.0165C78.384 42.0095 78.3287 42.0029 78.2918 41.9954C78.2872 41.9945 77.5359 41.8428 77.522 41.8398C76.9136 41.6537 79.0616 39.0659 79.5455 38.8228C79.8912 38.6491 80.2232 38.649 81.4216 38.5631C81.7903 37.817 81.9286 37.0461 82.7214 36.3061C83.3621 35.7033 84.8602 35.148 85.2197 34.5283L85.5977 34.9057Z" fill="#AD5C30"/>
<path d="M35.8555 84.6863C35.7541 85.0451 35.224 85.4063 35.3208 85.7623C33.1267 86.2086 32.5275 88.2337 32.1449 88.8469L31.0663 88.9194C31.1493 88.4834 29.8771 88.0297 30.2597 87.6086C30.4855 87.3006 30.6653 86.9794 31.4857 86.6857C31.6194 86.8291 31.4304 86.9457 32.3523 87.0411L32.7211 86.9754C32.6243 86.9406 32.4629 86.8874 32.4076 86.8491C31.9513 86.5337 34.3712 84.0931 35.7264 83.8674C35.6803 84.1046 35.5328 84.3509 35.754 84.5863C35.7817 84.62 35.8232 84.6531 35.8555 84.6863Z" fill="#AD5C30"/>
<path d="M71.1478 14.6389C71.4659 16.0488 76.2227 17.4613 73.0607 18.8699C71.8484 18.5748 70.3827 16.8127 70.2951 16.3961C70.2582 16.1997 70.9035 15.9221 70.6085 15.7407C70.4748 15.6559 70.1337 15.6001 69.765 15.531L69.8065 15.2426C70.0922 15.1273 70.0185 15.1744 70.1338 15.0655C70.3043 14.9001 70.3366 14.7798 71.1478 14.6389Z" fill="#AD5C30"/>
<path d="M3.75938 35.829C3.84235 35.6924 3.85156 35.5856 4.33555 35.4602C4.39547 35.5767 4.30789 35.7141 4.74118 35.8182L5.52013 35.5063C5.81052 35.808 6.0502 36.1138 6.48348 36.4128C7.64043 37.2064 7.39155 37.9648 7.77874 38.7601C7.94468 39.1016 8.67754 39.4627 8.61762 39.8018C8.59457 39.9196 8.40099 39.9766 7.94006 40.0766C6.52498 39.2453 3.61188 36.6599 3.75938 35.829Z" fill="#AD5C30"/>
<path d="M20.9335 52.8846C20.998 52.7457 21.0579 52.6492 21.4912 52.5183L22.1181 52.5355C22.4039 52.62 22.6574 52.7006 22.8463 52.7897C24.137 53.4 26.1421 55.2172 23.7544 55.7355C22.3209 55.1955 20.7491 53.4663 20.9335 52.8846Z" fill="#AD5C30"/>
<path d="M86.6059 55.6477C89.2932 56.8414 87.832 58.2037 86.0113 59.4043L85.2876 59.3363C84.6331 58.9374 85.8638 58.3963 85.9836 57.9768C86.1726 57.3003 85.3475 56.6111 85.8269 55.9369C85.9191 55.8077 86.062 55.754 86.6059 55.6477Z" fill="#AD5C30"/>
<path d="M73.5377 70.0812C73.0722 70.5178 74.3674 70.9778 74.0678 71.4292L72.625 71.4258C72.1503 71.5012 71.9291 71.5612 71.6848 71.6521C71.0579 71.3064 71.5096 70.9429 71.044 70.5978C70.7352 70.1081 72.3346 69.6464 71.4681 69.1567C71.2007 69.0047 71.1316 68.8698 71.1362 68.7144L71.6848 68.6841C73.2888 69.0395 72.4499 69.6681 73.5377 70.0812Z" fill="#AD5C30"/>
<path d="M86.9974 30.9124C88.6015 31.2933 88.5784 32.6308 87.3938 33.0611C87.3109 33.0913 87.168 33.1187 87.0574 33.1475C86.7024 33.083 86.6333 33.0797 86.4259 32.9923C85.7483 32.7091 85.9419 31.1621 86.9974 30.9124Z" fill="#AD5C30"/>
<path d="M18.7435 15.6274C18.7205 15.932 19.0339 16.3054 18.3241 16.5966C18.0198 16.4763 17.7525 16.3581 17.499 16.2362C17.2086 16.0983 17.3837 16.1692 16.7983 16.0421C16.2037 15.9121 16.2821 15.8468 16.3052 15.7015C16.3743 15.3754 17.2086 15.0782 17.2962 14.7521L18.1443 14.738C18.2319 15.0335 18.5499 15.3322 18.7435 15.6274Z" fill="#B2663A"/>
<path d="M57.75 1.26997L57.1646 1.34826C56.6391 1.42008 56.3672 1.47026 56.1643 1.56591L56.3533 1.51511L56.0814 1.48403C56.0261 1.25734 56.0261 1.02843 55.8832 0.802427L55.9984 0.476027L56.8834 0.469971C57.2107 0.736656 57.2614 1.00648 57.75 1.26997Z" fill="#B2663A"/>
<path d="M30.8242 63.0373L29.0542 63.0979C29.2524 62.9122 29.1879 62.7864 30.0959 62.6333C30.8334 62.7744 30.732 62.8716 30.8242 63.0373Z" fill="#F7D8B4"/>
<path d="M14.854 48.8042C14.9231 48.6293 14.8079 48.4773 15.7436 48.3396C16.4719 48.4859 16.3612 48.579 16.4258 48.7487L14.854 48.8042Z" fill="#F7D8B4"/>
<path d="M44.7695 11.9856L44.7372 12.3992L43.548 12.3983L43.1931 11.9468L44.7695 11.9856Z" fill="#E0AF89"/>
<path d="M44.7371 12.3994C44.7233 12.5563 44.9722 12.6859 44.2162 12.8156C43.4695 12.6898 43.5894 12.5479 43.5479 12.3984L44.7371 12.3994Z" fill="#AB5D2D"/>
<path d="M30.4907 26.187C30.4768 26.3403 30.6796 26.5112 29.8776 26.6378C29.1355 26.5165 29.2737 26.3688 29.2415 26.2232L30.4907 26.187Z" fill="#E0AF89"/>
<path d="M43.6608 76.9247C43.6885 76.7767 43.6562 76.6579 44.2278 76.5225C44.933 76.6716 44.7671 76.8362 44.7579 77.003L43.6608 76.9247Z" fill="#C8875E"/>
<path d="M73.2305 40.5559C73.0922 40.6802 73.1982 40.8401 72.4468 40.9256C72.032 40.7855 71.8845 40.6754 71.7831 40.5288L73.2305 40.5559Z" fill="#E0AF89"/>
<path d="M58.9258 26.246C58.8336 26.396 58.9765 26.5174 58.2667 26.6425C57.6214 26.5016 57.5568 26.3884 57.46 26.2314L58.9258 26.246Z" fill="#F7D8B4"/>
<path d="M16.3945 40.5507C16.3116 40.6925 16.4499 40.8075 15.7861 40.9265C15.2468 40.7884 15.2238 40.673 15.1731 40.5237L16.3945 40.5507Z" fill="#C8875E"/>
<path d="M57.6756 62.6414C57.7033 62.4899 57.7586 62.3831 58.178 62.2385C58.8095 62.3871 58.6897 62.5202 58.7266 62.6848L57.6756 62.6414Z" fill="#C8875E"/>
<path d="M86.9974 30.9121C88.6015 31.293 88.5785 32.6312 87.3939 33.0615C87.311 33.0917 87.1684 33.1187 87.0579 33.1475C87.104 33.4374 86.6011 34.7286 85.6009 34.9053C85.5179 35.4922 79.3928 41.7335 78.429 42.0166C78.3594 42.9627 75.9446 43.9151 76.5345 44.8643C78.1847 47.516 81.5628 50.1816 84.1302 52.8232C85.0152 53.7352 87.1266 54.728 86.6058 55.6475C89.2931 56.8412 87.8318 58.2037 86.0111 59.4043C85.8175 59.7402 85.5456 60.0751 85.1908 60.4082C84.269 60.2562 84.1906 60.1715 84.0247 59.9893L83.7806 59.9502C83.6237 58.5302 80.9734 56.9144 79.6322 55.4922L76.5531 52.3555C75.8939 51.6332 75.6954 50.8001 74.0638 50.1035C73.99 50.2812 74.1325 50.5225 73.6116 50.6865C73.1093 50.398 72.7266 50.1088 72.3441 49.8174L71.6995 49.8203C71.4277 49.9911 72.6433 50.3995 72.0775 50.502C71.4368 50.6179 70.985 50.7279 70.7591 50.8662C70.206 51.2051 68.0075 53.5329 68.3255 53.7998C68.3486 53.818 68.3988 53.8367 68.431 53.8555C69.0808 53.7081 68.9933 53.5775 69.3988 53.4238C69.7306 53.8758 69.0346 54.3106 68.8548 54.7598C68.3109 56.1151 67.1401 57.4521 66.4349 58.8057C64.4904 58.3445 67.1816 57.044 64.8402 56.7451C64.0432 57.0993 63.8587 57.6278 64.3929 57.9912C65.5867 58.8021 66.6103 61.6752 68.5784 62.209C69.657 62.2136 69.1179 62.2 70.1781 62.252C70.4592 62.4782 70.6852 62.6604 70.3118 62.8867L70.3851 62.6826C69.6293 63.2243 69.0354 63.9083 70.7083 64.4316C70.7083 64.3034 70.704 64.2565 71.1458 64.1367C72.0676 64.2258 72.2662 64.5221 72.4505 64.6689C72.9161 65.0381 73.9807 65.5467 72.1693 65.8564C72.4781 66.6313 76.1608 69.4827 73.5384 70.0811C73.0729 70.5176 74.3683 70.9783 74.0687 71.4297L73.9534 71.7725C75.8981 72.557 74.4786 74.0539 71.5199 74.791C71.4553 74.8076 71.3259 74.8187 71.2337 74.833L70.9202 74.6787C70.0908 74.5113 70.0678 74.3674 69.971 74.1777C68.9754 73.0252 61.0798 64.3131 59.6458 64.0947L59.5716 64.1875C59.166 64.6268 58.226 65.0787 56.9495 65.4912C55.4794 65.9677 53.0598 68.4941 53.1605 69.0752L53.6761 68.7451C53.6853 70.0897 51.275 71.4269 51.4593 72.7715C51.6575 74.2486 54.4835 75.7423 54.2161 77.2148L53.0589 76.4395C53.0451 77.44 60.0877 83.012 58.6546 83.3037L58.6595 83.3672C58.7566 84.043 60.1753 84.7154 59.9456 85.3906C59.5953 86.4249 57.4882 87.4409 56.9857 88.4746L55.8802 88.4033C55.576 87.5531 54.4001 86.6912 53.5335 85.8467L49.1644 81.5723C48.39 80.8128 47.0387 79.9926 47.0433 79.2314C46.4951 79.0046 46.6927 78.5515 45.6741 78.3887C45.6374 78.4217 45.6009 78.4556 45.5687 78.4893C45.3336 78.7333 45.7713 78.9496 45.3841 79.2021C45.0522 78.7856 44.2501 78.3843 44.098 77.9648L43.6331 77.9102C43.4672 77.9222 43.5402 77.9145 43.4388 77.9619C42.7062 78.2904 43.2083 78.7621 42.9232 79.1152L38.7327 84.2764L38.3685 84.2998L37.8568 84.1865C37.1196 84.2625 37.2253 84.4804 37.1331 84.6016C36.7874 85.0507 37.0319 85.7073 35.7738 86.1182C35.5341 85.9976 35.4 85.8861 35.3216 85.7627C33.1279 86.2091 32.5284 88.2335 32.1458 88.8467L31.0677 88.9199C31.1507 88.4839 29.8785 88.0295 30.2611 87.6084C29.3716 86.8914 28.2053 86.1392 28.2923 85.4131C28.4721 83.9915 31.4823 82.5799 32.0726 81.1611L32.1097 81.0693L31.4681 81.0137C30.8141 80.7312 32.4777 79.3295 32.4593 78.8838L32.0911 79.1631C32.1787 77.4402 34.4651 75.7267 36.0277 74.0176C36.8201 73.1525 36.6221 72.2232 38.7191 71.3896C38.9355 70.8354 37.9675 70.2418 37.4144 69.6904L34.5199 66.8154C34.105 66.3994 33.2197 65.909 33.4271 65.4941C32.0124 64.6919 31.9152 63.8485 30.8275 63.0371L29.0579 63.0977C28.975 63.2216 28.8415 63.3468 28.8783 63.4707C30.4957 64.156 24.4168 68.621 23.6283 69.7041C23.2227 70.2589 23.9687 70.8191 23.2591 71.3711C23.0056 71.291 22.6045 71.037 22.1898 71.001C22.1898 71.0254 22.1895 71.0498 22.1849 71.0742C22.1526 71.4131 21.4385 71.7081 21.1204 72.04C20.3599 72.8366 19.8571 73.6398 19.138 74.4375L18.4202 74.4092C18.2997 74.3037 18.2544 74.2016 18.2259 74.0908C17.9677 74.2009 17.863 74.3157 17.7269 74.4287L17.0921 74.4736C15.8107 73.4102 14.1608 72.2238 14.2484 71.1523C14.3317 70.1068 16.2948 69.0341 17.3226 67.9971C18.9266 66.3759 20.1157 64.7448 21.8304 63.126C23.3054 61.7374 25.435 60.2062 26.2923 58.8193C26.9186 57.8023 23.3654 56.7576 23.7572 55.7354C22.3238 55.1954 20.7518 53.4666 20.9359 52.8848C19.143 52.5109 17.6817 49.4794 16.4281 48.749L14.8568 48.8037C14.5479 49.6346 13.2849 50.4599 12.5013 51.2861C10.3626 53.5461 7.80371 55.8054 5.98763 58.0693C5.49453 58.6852 4.31545 59.3381 4.23665 59.9512C3.81265 60.0637 3.7798 60.152 3.73372 60.2754L2.88118 60.3379C3.15313 59.2562 -0.483311 58.0634 0.0559855 56.916C0.627625 55.6909 2.16715 54.4569 3.39778 53.2393L9.09017 47.584C10.035 46.6499 11.5601 45.6843 11.9476 44.7471C12.5238 43.3495 7.36653 41.4238 7.9427 40.0762C6.52764 39.2449 3.61458 36.66 3.76204 35.8291C3.72056 35.8226 3.66931 35.8169 3.63704 35.8096C2.54951 35.5443 2.54025 35.0035 2.24544 34.6992C0.277236 32.6736 -0.220614 31.6289 2.27767 29.5703C2.66482 29.2498 2.65084 28.937 3.22688 28.6172L3.60481 28.6113C3.99659 29.176 4.90441 29.7204 5.41145 30.2822L12.6439 37.8242C13.4781 38.7263 14.8284 39.6146 15.1741 40.5234L16.3958 40.5508C16.4972 39.7213 17.811 38.8545 18.6038 38.0293C20.065 36.4799 21.6274 34.9319 23.2913 33.3857C24.2915 32.4579 25.5962 31.517 26.2415 30.5859C26.7163 29.8989 24.4071 29.2198 24.6468 28.5352C24.6514 28.517 24.6649 28.4986 24.6741 28.4805C23.4795 28.1016 13.5707 17.7955 14.1468 17.5977C14.2253 17.5698 14.3775 17.5454 14.4925 17.5195C14.8103 16.9559 14.875 16.2319 16.3079 15.7012C16.3773 15.3751 17.2116 15.078 17.2991 14.752L18.1478 14.7383C18.2355 15.0335 18.5529 15.332 18.7464 15.627C19.6406 16.0242 19.719 16.5009 20.1292 16.9141L23.0472 19.8975L27.1312 23.8936C27.9194 24.6624 29.0305 25.4496 29.2425 26.2236L30.4915 26.1875C31.8974 25.559 32.6949 24.0362 33.4232 23.3066C34.7275 22.0303 35.9539 20.7524 37.097 19.4736C37.604 18.934 38.544 18.3942 38.6273 17.8506C38.2862 17.4384 38.4793 17.0296 38.0784 16.6133C37.4009 15.9063 32.7918 12.8853 33.7728 12.4033L35.1234 12.3672C35.8977 12.076 34.9625 11.7778 35.3958 11.4766C35.2712 10.7805 34.2617 10.0698 33.5658 9.37891L29.8646 5.75391C29.247 5.14851 28.293 4.51536 28.2835 3.90625C28.2697 3.18656 29.3939 2.42292 30.2327 1.70996C30.7029 1.65676 30.8556 1.56293 30.9847 1.49121C31.2475 1.3484 31.8972 1.33467 32.8509 1.25586C34.5609 2.55457 35.3538 3.90643 36.5706 5.21582C38.6494 7.45717 40.7979 9.71031 43.1947 11.9463L44.7708 11.9854C46.7483 9.34712 49.6617 6.69551 52.5472 4.07031C53.7409 2.98161 54.3218 1.88527 55.8841 0.802734L55.9993 0.475586L56.8851 0.469727C57.2122 0.736352 57.2629 1.00611 57.7513 1.26953C58.5625 2.10719 59.7788 2.99767 59.7327 3.83887C59.654 5.24312 56.8103 7.10035 55.4691 8.53613C54.7359 9.31877 52.7827 10.214 53.474 10.9961C55.6952 11.4394 51.9388 14.3316 51.4779 14.9873C51.0679 15.5732 51.2333 16.2292 50.4779 16.8037C50.3995 16.8647 50.2791 16.8903 50.0902 16.9414C48.874 16.5838 51.0072 16.0277 49.2005 15.6943C46.915 16.217 52.2841 17.6109 49.431 17.9189C52.4317 20.6847 55.1105 23.456 57.4613 26.2314L58.9261 26.2461C60.1706 25.7494 59.8486 25.0637 60.4525 24.5342C63.0336 22.2736 65.0757 20.0025 67.514 17.7393C68.2926 17.0176 68.224 16.2317 69.7679 15.5313L69.8089 15.2422C70.0947 15.1268 70.0218 15.1743 70.137 15.0654C70.3074 14.9001 70.3399 14.7795 71.1507 14.6387C71.4688 16.0485 76.2256 17.4615 73.0638 18.8701C73.0543 19.5087 72.0445 20.1739 71.4085 20.8086C69.6662 22.5469 66.9565 24.4295 66.1361 26.1611C66.8408 26.0353 66.763 25.9885 66.8275 25.833C67.6605 26.1659 65.3239 27.8254 65.0013 28.2744C64.6279 28.7906 63.9048 31.9377 66.0111 32.1982C66.4351 32.4705 66.6938 32.7455 66.9749 33.0205L66.9788 32.8809C68.2971 33.3891 68.3986 35.3712 68.8734 36.0596C69.703 37.263 71.2285 38.451 72.1458 39.6523C72.3025 39.8533 72.2245 39.9599 71.6575 40.1494C71.5793 40.2746 71.7172 40.4031 71.7865 40.5283L73.2337 40.5557C73.7177 39.5347 74.9445 38.5254 75.9124 37.5107L80.7884 32.5693C82.0145 31.4148 84.0658 30.1513 84.0335 28.9912L85.7025 28.9854C85.5089 29.6272 87.08 30.2656 86.9974 30.9121ZM17.7054 74.4473C17.7128 74.4413 17.7197 74.4347 17.7269 74.4287L17.8753 74.4189L17.7054 74.4473ZM18.3177 74.4063L18.4202 74.4092C18.4321 74.4196 18.4439 74.4309 18.4574 74.4414L18.3177 74.4063ZM18.6361 74.5566C18.564 74.518 18.5058 74.479 18.4574 74.4414L18.9124 74.5586L18.6361 74.5566ZM68.4984 44.4668C68.5535 43.703 67.1798 42.8761 66.3548 42.1162C64.9537 40.8468 63.631 39.5758 62.3958 38.3037L50.2044 26.0059C48.5865 24.3909 46.7973 22.772 45.4652 21.1543C45.2297 20.8704 44.4878 20.6007 44.2943 20.3135C42.8706 20.5842 42.6308 21.0804 42.2806 21.3984C41.6123 22.0063 41.5018 22.6236 40.8704 23.2344L29.5355 34.6846C29.1483 35.0887 28.3828 35.4867 27.9495 35.8906C27.0692 36.7198 26.5022 37.5538 25.6126 38.3828C25.11 38.8566 23.714 39.5163 24.2025 39.9834C22.7136 41.4641 20.1281 43.0063 20.0267 44.4961C19.9945 45.0158 20.8422 45.5212 21.1234 46.0371C21.0456 46.6821 22.3769 47.3705 23.0775 48.0098C24.2482 49.08 25.253 50.1609 26.3177 51.2334L37.722 62.7588C38.4272 63.4365 39.2063 65.2785 41.0316 65.7871C41.1284 66.7368 42.7366 67.6947 43.5433 68.6387L44.8431 68.5957C44.8298 68.205 45.5119 67.8001 45.8851 67.4111C46.6641 66.5734 47.494 65.7364 48.3743 64.9004L55.514 57.7373C56.4451 56.8242 58.2794 55.8156 58.2611 54.9014C60.9575 52.8608 62.4737 50.7838 64.5433 48.7324C65.9123 47.3701 68.3924 45.8269 68.4984 44.4668Z" fill="#B16335"/>
<path d="M54.4895 44.6172C54.5817 45.817 52.2584 47.0539 50.9632 48.2373C50.4469 48.707 50.5895 49.1866 50.055 49.6592L46.6585 52.8867C46.0132 53.5021 45.0315 54.1351 44.7825 54.7539L43.6438 54.8008C43.4548 54.1894 42.3482 53.5681 41.8089 52.959C40.0066 50.9184 37.7341 48.8831 35.8167 46.8438C35.0608 46.0423 33.8165 45.1945 33.8714 44.3887C33.9497 43.3179 35.7984 42.1846 36.9231 41.1211C38.6331 39.5086 40.0386 37.8919 41.638 36.2783C42.3339 35.578 43.7816 34.8165 43.7034 34.1162L44.6624 34.0713C44.9851 35.0204 46.3449 35.9411 47.2161 36.8818C48.5251 38.2874 49.6867 39.7032 51.2307 41.1045C52.5028 42.2587 54.397 43.4507 54.4895 44.6172ZM47.513 44.8643C47.8264 44.1865 46.2998 43.502 45.719 42.8311C45.4568 42.5273 45.8849 42.1307 44.8118 41.8604C44.4017 41.7578 43.9913 41.6513 43.7239 41.542L43.9036 41.6523C43.8115 41.6875 43.7101 41.7223 43.6272 41.7578C41.2488 42.7981 40.4924 44.2296 41.4788 45.2891C41.5707 45.3864 41.5484 45.3428 41.5208 45.4502C42.0091 45.6215 42 45.7976 42.0784 45.9775C42.2952 46.4648 42.9633 46.9554 43.4563 47.4404L44.7796 47.4131L45.1428 47.4111C45.1382 47.3947 45.1298 47.3787 45.1253 47.3623C44.9271 46.5395 47.135 45.6888 47.513 44.8643Z" fill="#AD5C30"/>
<path d="M44.8334 40.966C44.8749 41.0837 45.1791 41.2219 44.5937 41.316C44.271 41.2466 44.1834 41.1456 44.0405 41.0672L43.3676 41.0463C43.3353 40.5601 42.2014 40.1148 42.6485 39.6226L43.1325 39.5876C44.6859 39.8821 44.8196 40.612 44.8334 40.966Z" fill="#AC5D32"/>
<path d="M32.2346 0.459412C32.4558 0.724727 32.6587 0.99027 32.8477 1.25598C31.8935 1.33484 31.2436 1.34833 30.9808 1.49124C30.8518 1.56296 30.6997 1.65673 30.2295 1.70993C29.6579 1.31764 31.1145 0.828442 31.1145 0.412842L32.2346 0.459412Z" fill="#AB5D2D"/>
</svg>
