<svg width="60" height="42" viewBox="0 0 60 42" fill="none" xmlns="http://www.w3.org/2000/svg">
<path d="M38.8694 23.1734C40.1089 22.6996 53.9075 22.4548 55.7192 22.6217C56.5673 23.2142 57.9764 24.284 58.3697 25.2795C58.4517 25.7477 58.6381 26.634 58.625 27.0727C58.8468 29.155 59.4787 34.6939 58.3231 36.5795C57.9913 37.1183 56.5673 37.2935 55.9429 37.3103C53.1992 37.3793 50.6755 37.1574 48.038 38.1866C47.8982 38.2406 47.8516 38.222 47.6634 38.2257C46.8917 38.634 46.1126 39.1187 45.3614 39.5699C45.8703 38.7309 46.4388 37.8678 46.9681 37.0344C45.0278 37.2674 40.9179 38.1269 39.1975 37.5564C38.3792 36.0146 39.8704 30.6407 39.4864 28.3062C39.3019 27.1905 38.7147 24.0355 38.8694 23.1734Z" fill="#EFEBE7"/>
<path d="M58.0713 25.5443L58.3714 25.2795C58.4534 25.7477 58.6398 26.634 58.6268 27.0727C58.8486 29.155 59.4804 34.6938 58.3248 36.5795C57.993 37.1183 56.569 37.2935 55.9446 37.3103C53.2009 37.3793 50.6772 37.1574 48.0398 38.1866C47.9 38.2406 47.8534 38.222 47.6651 38.2257C46.8935 38.634 46.1143 39.1187 45.3632 39.5699C45.872 38.7309 46.4405 37.8677 46.9699 37.0344C45.0295 37.2674 40.9196 38.1269 39.1992 37.5564L39.777 37.0027C39.777 36.1861 39.6838 35.4348 40.1554 34.8111C40.3642 34.7796 42.6754 34.3083 42.7462 34.2712C45.4508 32.833 54.8002 34.2218 56.6305 33.1682C57.0126 30.8754 55.6091 27.1478 57.0984 25.3746L58.0713 25.5443Z" fill="#EFEBE7"/>
<path d="M58.6257 27.0725C58.8475 29.1548 59.4794 34.6937 58.3238 36.5793C57.992 37.1181 56.568 37.2933 55.9435 37.3101C53.1999 37.3791 50.6761 37.1572 48.0387 38.1864C47.8989 38.2404 47.8523 38.2218 47.6641 38.2255C47.8542 37.9776 47.7703 38.0615 47.8001 37.6513C49.5913 35.3469 55.9696 37.353 57.787 36.0461C58.6294 35.442 58.1001 29.241 58.0572 27.7784L58.6257 27.0725Z" fill="#A23207"/>
<path d="M39.777 37.0027C41.421 36.9299 46.1143 36.132 47.0612 36.3315C47.4564 36.8516 47.5346 37.0511 47.8012 37.6515C47.7714 38.0616 47.8552 37.9777 47.6651 38.2257C46.8935 38.634 46.1143 39.1187 45.3632 39.5699C45.872 38.7309 46.4405 37.8677 46.9699 37.0343C45.0295 37.2674 40.9196 38.1269 39.1992 37.5564L39.777 37.0027Z" fill="#9C4517"/>
<path d="M58.0716 25.5443L58.3717 25.2795C58.4537 25.7477 58.6401 26.634 58.6271 27.0727L58.0586 27.7785L58.0716 25.5443Z" fill="#9D3005"/>
<path d="M48.3672 34.274C49.0624 34.2466 49.575 34.2688 50.1752 34.613C50.643 35.2612 50.5238 34.9536 50.5536 35.828C49.8211 35.8429 49.4539 35.9156 48.7978 35.5931C48.315 34.9219 48.4585 35.2183 48.3672 34.274Z" fill="#8C2102"/>
<path d="M38.8711 23.1734C40.1106 22.6996 53.9091 22.4548 55.7209 22.6217C56.5689 23.2142 57.9781 24.284 58.3713 25.2795L58.0713 25.5443L57.0983 25.3746L57.1095 25.2281L57.1971 24.8302C56.7982 24.1947 56.226 23.9255 55.5792 23.5162C50.2466 23.5828 44.9381 23.6663 39.6073 23.4527L39.5607 23.3391L38.8711 23.1734Z" fill="#9C4517"/>
<path d="M38.8694 23.1733L39.5591 23.3391L39.6057 23.4526C39.5535 24.5944 40.5264 26.6543 40.7091 28.1001C40.9831 30.2557 40.3494 32.1551 40.3307 34.0901L40.1537 34.8111C39.6821 35.4347 39.7753 36.1861 39.7753 37.0027L39.1975 37.5564C38.3792 36.0145 39.8704 30.6407 39.4864 28.3061C39.3019 27.1905 38.7147 24.0354 38.8694 23.1733Z" fill="#983403"/>
<path d="M54.2568 32.3143L54.3238 32.7508L56.1132 32.8325L56.6314 33.1682C54.801 34.2218 45.4516 32.833 42.7471 34.2712C42.6763 34.3083 40.365 34.7796 40.1562 34.8111L40.3333 34.0902C43.282 32.9962 48.3891 32.6033 51.5168 32.5131C52.0629 32.489 52.678 32.5107 53.1701 32.3132L54.2568 32.3143Z" fill="#9C4517"/>
<path d="M54.2556 32.3143L54.3227 32.7508C53.3628 32.6962 52.4718 32.6119 51.5156 32.5131C52.0618 32.489 52.6768 32.5107 53.1689 32.3132L54.2556 32.3143Z" fill="#EFEBE7"/>
<path d="M56.1111 32.8325C55.9788 31.0932 54.2826 25.9744 56.4522 24.9419L57.1083 25.2281L57.0971 25.3746C55.6079 27.1478 57.0114 30.8754 56.6293 33.1682L56.1111 32.8325Z" fill="#983403"/>
<path d="M53.168 32.3131C53.4271 31.6529 53.8539 30.973 54.6423 31.1684C54.6889 31.8166 54.6535 31.638 54.2546 32.3142L53.168 32.3131Z" fill="#9D3005"/>
<path d="M49.9827 24.3624C51.2818 24.2259 54.2958 24.0775 55.3713 24.7634L55.2483 24.9501C53.0563 25.0138 49.4627 24.7631 47.5354 24.99L47.308 25.0185C45.9846 25.0325 41.9362 25.187 40.9297 24.8095C42.514 24.2711 47.6565 24.5666 49.759 24.3831L49.9827 24.3624Z" fill="#9D3005"/>
<path d="M47.9113 26.0862L48.1331 26.3504C47.9151 27.1496 44.0996 31.0788 43.2516 31.9929L43.0391 31.7278C43.3168 30.7065 47.0036 27.048 47.9113 26.0862Z" fill="#9D3005"/>
<path d="M53.5525 26.3062L53.5712 26.5925C53.1779 27.6615 49.8489 31.1392 48.9133 31.8668L48.8555 31.4203C49.2562 30.2575 52.5088 27.2693 53.5525 26.3062Z" fill="#9D3005"/>
<path d="M50.7396 26.1191L50.9186 26.3509C50.8235 27.1375 46.7471 31.193 45.9401 31.9356L45.7891 31.7693C45.9363 30.8699 49.7983 27.1211 50.7396 26.1191Z" fill="#9D3005"/>
<path d="M45.1383 26.1023L45.3061 26.2736C45.2464 27.1525 42.6873 29.567 41.9715 30.3025L41.7852 30.0682C41.9026 29.1884 44.4133 26.8404 45.1383 26.1023Z" fill="#9D3005"/>
<path d="M54.0913 28.7246C54.2442 28.9282 54.1771 28.8469 54.2143 29.1579L51.8751 31.9199C51.5937 31.5571 51.6738 31.7615 51.6626 31.2747C52.2367 30.1315 53.0979 29.5203 54.0913 28.7246Z" fill="#9C4517"/>
<path d="M42.1632 25.9998C42.3067 26.0579 42.5509 26.2089 42.6963 26.2913C42.6907 26.8706 42.454 26.9491 42.0029 27.486C41.6711 27.4726 41.8277 27.4892 41.4922 27.2774C41.5779 26.6111 41.7345 26.5846 42.1632 25.9998Z" fill="#9D3005"/>
<path d="M3.76419 11.3193C3.33623 10.6308 2.54761 9.47044 2.36196 8.73364C0.565897 1.60393 11.4323 -0.762879 13.3495 6.07469C13.9837 8.33654 12.5527 10.969 11.3602 12.8752C13.6217 15.3896 13.6444 16.7312 14.1598 19.9832C14.6222 22.9008 14.6757 25.3851 11.6338 26.7802C10.7386 27.1909 9.45826 27.9476 8.43832 27.6533L8.2456 27.2863C8.43012 26.3972 10.1992 22.937 10.7028 21.4846C10.2333 21.2357 9.626 20.9924 9.12983 20.7771L9.05341 20.8757C9.13561 22.7526 7.80422 24.0287 7.07096 25.7052C6.30582 27.4551 6.89519 26.4582 7.1662 27.3443C4.7379 28.4365 0.997392 25.212 1 22.6353C1.00224 20.3626 1.90344 18.6288 3.34741 16.9378C2.47901 14.475 2.63484 13.6867 3.76419 11.3193Z" fill="#983403"/>
<path d="M3.64209 17.0745C5.73731 19.1426 6.7701 19.2353 9.12814 20.7769L9.05172 20.8755C7.78818 21.3964 6.21652 26.4086 5.51774 26.7669L4.94627 26.4933C3.75318 24.5731 7.00944 22.6176 7.19061 20.1665L7.00756 20.0071C5.38968 20.9734 4.43015 25.395 3.21246 25.5411L2.89428 25.2234C2.44657 23.6122 5.17739 21.1382 5.42678 19.1888C4.32801 19.2233 3.0803 23.1497 1.9653 23.7817C1.34835 22.6821 3.18338 18.4698 3.64209 17.0745Z" fill="#EFEBE7"/>
<path d="M7.33531 2.52588C7.50232 2.53464 7.81098 2.53277 7.94947 2.58777C11.8469 3.64822 10.8741 6.86556 10.1189 9.95631C10.0015 8.96801 9.96324 7.74667 9.84079 6.86985L9.7295 8.62608L9.50024 8.8211C9.3886 9.09871 9.17183 9.71152 9.00631 9.91175L8.47453 9.92033L8.27454 10.1843C7.63391 9.94252 7.98675 9.42459 7.33046 8.78866L7.26113 9.21746L7.05368 9.36549C6.16608 8.98591 4.00003 7.58577 2.70703 6.94032C3.17897 4.84794 3.34784 4.59476 4.93999 3.1029C5.85611 2.92634 6.44809 2.80796 7.33531 2.52588Z" fill="#EFEBE7"/>
<path d="M7.94922 2.58789C11.8467 3.64834 10.8739 6.86568 10.1186 9.95643C10.0012 8.96813 9.963 7.74679 9.84054 6.86997C9.72609 4.93029 9.13001 4.03632 7.94922 2.58789Z" fill="#EFEBE7"/>
<path d="M8.47352 9.92053C8.22898 8.88655 7.81873 6.86129 7.24577 5.9925C6.85136 5.39403 5.09611 4.33917 5.25641 3.7998C7.83737 3.96928 8.58182 8.05448 9.0053 9.91195L8.47352 9.92053Z" fill="#9D3005"/>
<path d="M7.33594 2.52588C7.50294 2.53464 7.8116 2.53277 7.95009 2.58777C9.13088 4.0362 9.72697 4.93017 9.84141 6.86985L9.73013 8.62608L9.50087 8.8211C9.15083 7.64468 9.27235 5.89274 8.69081 4.67419C8.28895 3.83224 7.71319 3.42357 7.33594 2.52588Z" fill="#8C2102"/>
<path d="M3.53516 5.27319C5.35359 5.74395 5.98825 6.39965 6.94444 8.02053C7.09244 8.26625 7.22123 8.52316 7.32934 8.78883C6.92748 8.58133 3.61251 5.526 3.53516 5.27319Z" fill="#9C4517"/>
<path d="M2.75781 7.66284C3.1209 7.82225 3.4702 8.01167 3.80197 8.22887C6.14584 9.73751 10.6996 13.263 12.4755 15.4785C12.7419 15.8107 12.9213 16.6601 13.0164 17.11C12.9698 17.088 12.715 16.97 12.6817 16.9467C9.67479 14.8461 3.76936 11.3424 2.75781 7.66284Z" fill="#EFEBE7"/>
<path d="M3.80624 12.6909L4.111 12.9903C4.29478 17.3802 15.3202 19.3663 13.6481 22.73C12.8533 21.9056 11.4242 20.8856 10.4269 20.3235C6.82169 18.292 2.73636 17.8397 3.80624 12.6909Z" fill="#F7F2E6"/>
<path d="M3.80469 12.6909C4.0552 12.2332 4.12454 11.9116 4.52323 11.708C5.66376 12.8395 6.211 13.4404 7.45852 14.4401C9.05701 15.7212 12.5571 17.5343 13.5863 19.0877L13.4245 19.5001C12.6262 19.3029 7.10233 15.9278 6.19386 15.1246C5.51838 14.5277 4.72136 13.5733 4.10944 12.9903L3.80469 12.6909Z" fill="#EFEBE7"/>
<path d="M12.0795 7.47876L12.664 7.63331C12.3125 9.88733 11.6596 10.6646 10.8225 12.6485L9.11719 11.2746L11.0434 9.19919C11.3311 8.61639 11.3412 8.79854 11.2957 8.22823L12.0795 7.47876Z" fill="#EFEBE7"/>
<path d="M12.0791 7.47876L12.6636 7.63331C12.0266 8.19318 11.6225 8.58059 11.043 9.19919C11.3308 8.61639 11.3408 8.79854 11.2953 8.22823L12.0791 7.47876Z" fill="#9D3005"/>
<path d="M11.0113 21.6448C11.958 22.0999 12.0862 22.3549 11.8695 23.3964C11.5839 24.7676 10.8417 26.2112 9.79381 27.1348L9.40631 26.958C9.39512 25.6824 11.0527 24.0599 11.0113 21.6448Z" fill="#EFEBE7"/>
<path d="M11.2969 8.22811C11.3561 7.28474 11.2454 5.33369 11.526 4.64331L11.8003 4.67277C12.6486 5.82961 12.8682 6.31733 12.0807 7.47864L11.2969 8.22811Z" fill="#EFEBE7"/>
<path d="M12.6189 22.5725C14.1037 23.739 13.1125 24.8877 12.1492 25.8445L11.9246 25.8792L11.7812 25.7102C12.1451 24.5622 12.3647 23.7493 12.6189 22.5725Z" fill="#EFEBE7"/>
<path d="M27.6134 21.5225C27.6488 20.2398 28.0179 9.86781 28.2155 9.53223C30.0831 10.5444 28.7206 18.8986 28.879 21.2341L28.8977 21.4668C29.4457 20.8275 29.4531 20.5905 30.1484 20.4091C30.2229 20.8312 29.7998 21.3859 29.496 21.6838C29.2518 22.2394 28.8865 22.8666 28.9405 23.4352C29.3674 23.1296 29.4662 22.9946 29.8185 22.5958C29.6973 23.528 29.1959 24.9973 28.9741 26.019C28.6293 27.6121 28.4503 29.3616 28.0906 30.9117C27.8558 29.3892 27.3805 25.2953 26.8194 24.0965C26.6051 23.496 26.4615 23.4193 26.6032 22.8776C27.1698 23.1175 27.0524 23.152 27.4755 23.7506C27.496 23.449 27.4867 23.026 27.4886 22.7131C27.1903 22.2414 26.3684 20.9451 26.4466 20.4477C26.9536 20.6381 27.2481 21.0928 27.6134 21.5225Z" fill="#9D3005"/>
<path d="M28.8945 21.4668C29.4425 20.8276 29.45 20.5906 30.1452 20.4092C30.2198 20.8313 29.7967 21.3859 29.4928 21.6839C29.2338 21.5121 29.2151 21.5478 28.8945 21.4668Z" fill="#9D3005"/>
<path d="M17.6115 10.2116C18.489 10.7796 20.2664 11.5586 20.5833 12.5465C19.6651 12.6408 15.8641 10.6596 15.4844 9.88996C15.9878 9.42703 17.105 9.11978 17.7973 8.87965L18.1516 9.14179C19.6526 9.20107 25.3831 8.55582 26.2777 8.9464V9.22364C25.7633 9.68842 18.6827 10.1277 17.6115 10.2116Z" fill="#9C4517"/>
<path d="M35.145 29.6623C34.4423 29.0959 34.5224 29.3125 34.2074 28.5414L34.4218 28.3511C35.6147 28.7282 37.2605 29.5495 36.8933 31.0365L36.3752 31.5764C35.5681 32.3248 34.6734 33.0016 33.8067 33.6824C34.2223 32.9652 34.7424 32.1915 35.1823 31.4562L34.9661 31.368L34.2112 30.9714L33.7862 31.1105C32.3286 31.2008 29.967 31.4571 28.707 30.7285C29.5327 29.7372 33.8384 30.0463 35.145 29.6623Z" fill="#983403"/>
<path d="M33.7843 31.1105L34.2093 30.9714L34.9642 31.368C34.2112 31.4914 33.4451 32.8682 32.4572 33.0075L32.2578 32.7519C32.4535 32.0065 33.3836 31.9217 33.7843 31.1105Z" fill="#9C4517"/>
<path d="M17.8008 8.87954C18.4586 8.46509 19.0119 8.02418 19.7633 7.91455C19.6365 8.37207 19.1913 8.56559 18.7458 8.81616C18.5497 8.92616 18.3527 9.03466 18.1551 9.14167L17.8008 8.87954Z" fill="#9C4517"/>
</svg>
