<svg width="60" height="42" viewBox="0 0 60 42" fill="none" xmlns="http://www.w3.org/2000/svg">
<path d="M24.7487 23.2386C21.03 20.8042 18.8722 18.0702 18.5747 13.4059C18.1474 6.70106 23.4931 1.27263 30.0876 1.0073C32.7868 0.898636 35.9788 2.00907 37.8893 3.95735C38.3655 4.44447 38.7989 4.75687 38.8101 5.47154C38.6799 5.52773 38.5497 5.58393 38.4194 5.64012C37.9674 5.19412 36.8383 4.18863 36.4067 3.86246C35.6775 3.30482 34.8702 2.85715 34.0108 2.53396C25.4669 -0.716961 16.3038 8.58533 20.7097 17.5354C22.0419 20.1777 24.3692 22.182 27.1802 23.1071C31.2224 24.4793 34.3791 23.3829 37.9655 21.6175C39.1021 22.6598 39.6006 23.1925 40.5865 24.3642L41.7008 23.4978C40.661 22.1844 40.2871 21.6774 39.4332 20.2095C40.6963 17.8735 41.6264 16.1252 41.7678 13.3633C41.9147 10.5353 40.9939 9.12882 39.8518 6.68208L40.0806 6.53416C41.5018 7.47192 42.1528 8.73976 42.4672 10.3903C43.228 14.4065 42.1026 17.0248 40.3503 20.4475C41.8068 22.5629 42.7611 22.8425 44.6753 24.4423C47.54 26.8388 50.6241 31.2571 53.1875 33.6006C57.758 37.779 54.6775 43.47 50.0177 39.8442C48.3622 38.5557 45.9662 33.8084 44.413 32.1591C43.1797 30.3485 41.2767 28.2105 40.274 26.3504C39.0426 24.07 39.1914 24.3096 37.5563 22.427C33.7838 24.7242 31.5423 25.2014 27.1969 24.0975C25.0354 23.5483 24.111 24.1723 22.0053 24.2458C22.0992 27.1307 22.2575 33.0645 22.7258 35.7375C24.071 35.8207 25.5116 35.849 26.7616 35.8696C28.3967 35.8968 33.8248 35.4339 35.0841 35.841C33.7522 36.8803 23.8409 36.9676 21.7133 36.5711C20.9961 33.4778 21.0984 29.9733 21.0897 26.8105C21.08 23.2917 21.7142 23.3985 24.7487 23.2386Z" fill="#9C4517"/>
<path d="M41.7017 23.4978L42.2374 23.9326C42.7582 23.9006 42.9964 23.8683 43.4037 24.3228C46.9251 28.2398 50.9338 31.7648 54.2431 35.845C54.8309 36.5683 55.5229 38.6533 54.6523 39.4595C53.0191 40.6113 51.6816 40.0309 50.5971 38.801C50.1172 38.3528 47.8068 35.1034 47.2804 34.3749C45.1877 31.4779 43.3089 28.9063 40.9408 26.2082C40.8534 26.0385 40.8367 25.5951 40.8162 25.3748L40.9055 25.0103L40.5391 24.6899L40.5874 24.3641L41.7017 23.4978Z" fill="#F7F2E6"/>
<path d="M40.9414 26.2083C42.703 26.4706 45.3259 29.6705 46.0086 31.1609C46.8643 32.2613 49.21 35.0711 49.5987 36.2109L49.6824 36.2712C50.0322 37.2076 50.54 37.9538 51.3938 38.5023L50.5977 38.8011C50.1177 38.3529 47.8074 35.1034 47.2809 34.375C45.1882 31.478 43.3094 28.9064 40.9414 26.2083Z" fill="#EFEBE7"/>
<path d="M46.0078 31.1609C46.8635 32.2613 49.2092 35.071 49.598 36.2109C48.7553 35.7001 46.1008 32.1342 46.0078 31.1609Z" fill="#9D3005"/>
<path d="M41.7017 23.4978L42.2374 23.9326C41.8709 24.3154 41.1957 25.0607 40.8162 25.3748L40.9055 25.0103L40.5391 24.6899L40.5874 24.3641L41.7017 23.4978Z" fill="#9D3005"/>
<path d="M49.6797 36.271C50.3401 36.8835 50.9893 37.4158 51.4562 38.1843L51.3911 38.5021C50.5372 37.9536 50.0294 37.2075 49.6797 36.271Z" fill="#9C4517"/>
<path d="M48.2046 19.8649C51.2553 19.4109 52.576 19.698 55.6268 19.9845C55.7942 21.5246 56.4285 26.0888 55.5375 27.3058C54.7822 28.3377 51.5492 28.019 50.2341 27.9741L48.8538 27.9693C47.8698 26.9432 48.0372 25.6134 48.0707 24.1206C48.106 22.7016 48.1506 21.2831 48.2046 19.8649Z" fill="#EFEBE7"/>
<path d="M48.2046 19.8649C51.2553 19.4109 52.576 19.698 55.6268 19.9845C55.7942 21.5246 56.4285 26.0888 55.5375 27.3058C54.7822 28.3377 51.5492 28.019 50.2341 27.9741L50.1503 27.6422C52.0217 27.4245 53.3648 27.3972 55.2584 27.3737C55.2882 25.225 55.1617 22.8617 55.0892 20.6983C53.707 20.6702 49.8192 20.1224 49.0063 20.6162L48.9821 21.191C48.9263 23.0064 49.0287 26.3571 48.8538 27.9693C47.8698 26.9432 48.0372 25.6134 48.0707 24.1206C48.106 22.7016 48.1506 21.2831 48.2046 19.8649Z" fill="#9D3005"/>
<path d="M48.9799 21.1909L49.0078 21.4014C49.1901 22.9161 48.7455 26.7617 49.3631 27.5376C49.5994 27.5714 49.9156 27.6274 50.1481 27.6421L50.2318 27.9741L48.8516 27.9693C49.0264 26.357 48.9241 23.0063 48.9799 21.1909Z" fill="#D58D5D"/>
<path d="M50.5742 24.6717C51.4206 24.5995 52.6539 24.4164 53.4222 24.639L53.5357 24.9099L53.1357 25.357C52.4084 25.8458 52.2968 25.8382 51.5564 25.7226C50.9928 25.323 50.9332 25.2617 50.5742 24.6717Z" fill="#F2D4BF"/>
<path d="M49.9336 22.058C50.9586 21.962 53.1778 21.7817 54.0186 22.2688L54.0632 22.5883C53.0922 22.6376 50.9027 22.8506 50.1289 22.5481L49.9336 22.058Z" fill="#F2D4BF"/>
<path d="M50.5772 23.3823C51.3715 23.4002 53.4456 23.3507 54.0018 23.7757L53.5517 23.9368C52.8485 23.9993 50.5381 24.2356 50.168 23.6454L50.5772 23.3823Z" fill="#F2D4BF"/>
<path d="M28.8306 8.13379C30.7317 8.34051 31.1372 8.52136 32.058 10.2547C32.3854 11.4731 32.7965 11.7006 33.7917 12.5061C34.4558 15.1672 34.6939 17.0889 34.2214 19.875L34.0484 20.0434C33.6317 18.9387 33.6485 15.9513 33.6392 14.697C29.7569 16.1275 29.011 16.882 25.3193 14.0441C24.6731 14.6165 24.9644 18.7748 24.9467 19.9403C24.6031 19.0401 24.2145 18.1854 24.1769 17.2234C24.014 16.4894 24.0464 15.4344 23.9701 14.6433C23.8533 13.4292 23.6336 13.7922 23.0781 12.8408L23.2684 12.4754C24.0289 11.9267 24.3274 11.8774 25.2207 11.6123C26.496 9.70957 26.8086 9.11695 28.8306 8.13379Z" fill="#C2897A"/>
<path d="M25.1914 12.8536C26.8392 12.1096 28.9988 6.78235 31.218 10.7316C31.6998 11.5869 31.0804 13.3988 31.5771 13.907L31.8375 14.2357C31.7054 14.2748 31.5734 14.3128 31.4413 14.3492C28.9058 15.0529 28.3403 14.787 26.1007 13.5032L25.1914 12.8536Z" fill="#F7F2E6"/>
<path d="M29.2936 9.92896C29.5391 9.939 29.7363 9.9991 29.9782 10.0538L30.1028 10.3601C29.7493 10.9998 28.464 11.9518 27.8073 12.5629L27.5655 12.6131C27.1562 12.2367 27.2939 12.4669 27.1953 11.8681C27.5655 10.9903 28.5086 10.4473 29.2936 9.92896Z" fill="#F2D4BF"/>
<path d="M25.1913 12.8538L26.1005 13.5033L25.3181 14.044C24.6719 14.6163 24.9632 18.7747 24.9455 19.9402C24.602 19.04 24.2134 18.1853 24.1758 17.2233C24.3493 15.7742 23.9431 13.8593 25.1913 12.8538Z" fill="#C07662"/>
<path d="M31.5781 13.9071C31.66 13.1515 31.5521 13.0335 31.965 12.4731C32.6849 12.4547 33.1481 12.9965 33.7062 13.5117L31.8386 14.2359L31.5781 13.9071Z" fill="#EFEBE7"/>
<path d="M3.66797 28.2442C5.86337 27.4516 8.15977 27.3961 10.4619 27.4335L10.6426 27.7381C11.901 27.8496 13.0543 27.8717 14.3099 27.9134C15.4863 29.1001 14.7227 33.4741 14.9604 35.2174C15.0661 35.9921 14.8537 37.6622 14.5354 38.4074C13.316 39.4713 6.0985 39.0715 4.41801 38.7706L4.92714 37.8799L5.22235 38.1421C7.84856 38.3568 11.754 38.1136 14.3594 37.7404C14.4941 35.0326 14.2688 31.3496 14.176 28.591C11.092 28.4347 6.51183 28.7038 3.66797 28.2442Z" fill="#9F370B"/>
<path d="M28.833 8.13364C28.4796 7.58457 27.7392 7.91242 27.0435 7.17188C26.7924 6.62504 26.7961 6.54838 26.8631 5.9472C27.8955 4.61014 33.3495 4.22331 33.45 6.0741C33.0091 6.97837 31.8484 7.74886 31.0318 8.34576C32.0307 9.29208 31.7535 8.84888 32.0604 10.2546C31.1396 8.52122 30.7341 8.34036 28.833 8.13364Z" fill="#F2D4BF"/>
<path d="M15.296 23.8694L15.5436 24.1121C15.7793 23.9169 16.0124 23.7185 16.243 23.5176C15.9945 24.2306 14.0875 26.6827 14.3075 27.9135C13.0519 27.8719 11.8986 27.8497 10.6402 27.7383L10.4595 27.4337C11.3896 27.3795 12.6426 27.4688 13.5967 27.509C13.7104 26.5527 13.9731 25.6365 14.2145 24.7045C10.3615 24.545 7.3638 24.8712 3.53516 24.094C5.97052 23.5433 12.7063 23.5864 15.296 23.8694Z" fill="#9C4517"/>
<path d="M3.41727 11.0283L4.01179 11.606C4.39629 13.231 4.37304 22.3012 3.88344 23.5426L3.66802 23.5235C2.61813 21.6932 3.02421 13.1415 3.41727 11.0283Z" fill="#9D3005"/>
<path d="M3.41797 11.0283C5.50919 9.7696 12.2872 10.8136 14.7988 11.2749L14.9606 11.5206C13.4388 12.9874 6.13776 10.2275 4.01249 11.6061L3.41797 11.0283Z" fill="#9C4517"/>
<path d="M15.2969 23.8693C15.4929 22.9115 15.418 21.067 15.4206 20.0411C15.4282 17.0825 15.2863 14.3938 15.7385 11.46C16.3023 14.2738 16.4336 18.0439 16.267 20.9033L16.373 21.1037L16.2439 23.5175C16.0132 23.7184 15.7802 23.9168 15.5445 24.112L15.2969 23.8693Z" fill="#983403"/>
<path d="M39.16 16.3735L39.3479 16.6316C38.9777 18.455 37.2236 20.013 35.6852 20.9477C33.2558 22.4234 30.7315 22.5775 28.0193 21.887L27.8594 21.6405L27.9896 21.4844C32.4503 22.6446 36.8962 20.204 39.16 16.3735Z" fill="#9C4517"/>
<path d="M25.6118 30.7597C26.9735 30.6771 30.9747 30.5077 31.8583 31.2885C31.8248 31.904 31.8918 31.674 31.3319 32.2177C30.4092 32.3501 29.2838 32.4292 28.3426 32.5213C26.8618 31.3236 26.9865 31.7994 25.4648 31.1952L25.6118 30.7597Z" fill="#F2D4BF"/>
<path d="M24.6849 26.8837C25.9679 26.8789 31.6526 26.4945 32.3186 27.2266L32.073 27.7148C30.6351 27.8991 25.4656 28.4563 24.5898 27.4019L24.6849 26.8837Z" fill="#F2D4BF"/>
<path d="M4.41951 38.7708C3.7757 37.9032 3.70389 29.4404 4.17694 28.6331L4.38044 28.76C4.77536 31.147 4.85423 35.3433 4.92864 37.8801L4.41951 38.7708Z" fill="#9D3005"/>
<path d="M8.41884 15.2913C8.95774 15.4271 9.35489 15.7335 9.82887 16.0348C10.042 16.0199 10.2558 16.013 10.4693 16.0145C11.4277 16.0115 12.023 15.9417 12.7014 16.6147C12.7929 17.8442 11.5077 19.0075 10.3192 19.1238L10.133 18.9009C10.4286 18.3368 11.0266 18.0921 11.6063 17.7548C11.7575 17.3289 11.8142 17.0436 11.5661 16.6903C11.1061 16.5589 10.6866 16.8036 10.223 16.9884C9.57942 16.8799 9.44715 16.6034 8.8824 16.1235C8.34425 16.0258 8.60375 15.987 8.09406 16.3241C7.71086 16.9694 7.73447 17.4982 7.66807 18.2527L7.47275 18.1883C7.07578 17.5629 7.08769 17.4524 7.11113 16.7048C7.35872 16.0545 7.87678 15.7246 8.41884 15.2913Z" fill="#9C4517"/>
<path d="M25.0175 28.707C26.4242 28.8585 31.3816 28.4216 32.0736 29.2111L31.7964 29.5882C30.4887 29.7877 25.8103 30.1127 24.6665 29.6018L24.5508 29.2702L25.0175 28.707Z" fill="#F2D4BF"/>
<path d="M35.0827 35.8409C34.7553 34.993 34.3777 26.0608 34.7125 24.7654C34.7367 24.6744 34.8706 24.5503 34.9525 24.4668C35.4026 25.8442 35.7598 34.8207 35.0827 35.8409Z" fill="#8C2102"/>
<path d="M8.27407 30.6403C9.44655 30.4991 11.6966 30.3642 12.6779 31.0046L12.5386 31.4508C12.1959 31.5956 11.7973 31.6116 11.4161 31.6585C9.93429 31.7327 7.69276 31.9072 6.34375 31.2707L6.45462 31.0084C7.05341 30.632 7.55585 30.6792 8.27407 30.6403Z" fill="#F2D4BF"/>
<path d="M6.8962 34.1441C7.95744 34.1138 11.4343 33.6365 11.7952 34.6777L11.3759 35.3578C10.2289 35.7593 7.51193 35.812 6.76953 34.6539L6.8962 34.1441Z" fill="#F2D4BF"/>
<path d="M7.17842 32.3011C8.3375 32.2799 11.4647 32.0572 12.3367 32.6303L12.333 32.9659L11.7269 33.3727C10.6467 33.5055 7.40926 33.7005 6.56641 33.1155L6.58148 32.7741L7.17842 32.3011Z" fill="#F2D4BF"/>
<path d="M21.2171 11.8738C21.8652 12.5284 21.6068 15.4449 22.5748 16.9991C23.6175 18.6726 24.5563 19.3236 25.6853 20.7481L25.7634 20.8479C24.236 19.9458 23.2624 19.2801 22.2727 17.7458C21.1706 16.0003 20.7918 13.8939 21.2171 11.8738Z" fill="#8C2102"/>
<path d="M29.1196 3.27094C32.3433 3.04562 33.6659 3.39951 36.352 5.1915C35.3047 4.99464 34.0193 4.51887 32.9869 4.17279C30.284 3.51189 28.3532 4.23885 25.6875 4.83016C27.0529 3.92272 27.531 3.70856 29.1196 3.27094Z" fill="#9D3005"/>
<path d="M38.2969 7.80493C40.4603 8.38601 40.3729 12.8497 40.0696 14.5215C39.8687 14.6878 39.9915 14.6344 39.6864 14.6389C39.5432 13.7785 39.6883 13.2525 39.6753 12.3953C39.6511 10.6378 39.0186 9.34387 38.2969 7.80493Z" fill="#9D3005"/>
<path d="M43.8711 12.9541C47.2957 12.6103 46.8437 14.2458 46.6316 16.9296L46.2466 16.7307C45.9638 15.8457 45.9657 14.7143 45.921 13.767C45.1565 13.5728 44.4626 13.4719 43.8711 12.9541Z" fill="#9D3005"/>
<path d="M16.2695 20.9033C17.4736 21.0258 19.1991 21.2012 19.9468 22.2605L19.7622 22.4547C18.2584 22.405 17.6563 21.7916 16.3756 21.1037L16.2695 20.9033Z" fill="#9C4517"/>
<path d="M34.9961 12.9623C35.9987 12.8077 38.3407 12.4569 38.9304 13.3692C37.8906 13.7036 35.7867 13.8597 34.9961 12.9623Z" fill="#C07662"/>
<path d="M24.6 5.3938L24.8621 5.56107C24.7473 6.13285 23.3754 7.50154 22.9012 8.02791C22.5865 7.87813 22.7314 7.98382 22.543 7.5901C22.8665 6.66332 23.8371 5.96874 24.6 5.3938Z" fill="#9D3005"/>
<path d="M25.2491 7.0769L25.3944 7.48327C25.1881 8.24539 24.3047 9.47528 23.8412 10.1864L23.6881 10.1172L23.582 9.73019C23.8322 8.6164 24.4279 7.83288 25.2491 7.0769Z" fill="#D58D5D"/>
<path d="M45.9375 17.9785L46.4732 18.1644C46.9755 18.7027 46.9662 19.0644 47.1057 19.7958C46.8397 19.7603 46.7411 19.7074 46.4807 19.6181C46.0287 19.1051 46.0417 18.6679 45.9375 17.9785Z" fill="#9D3005"/>
<path d="M22.0378 8.94482L22.1016 8.98725C22.2803 9.42673 21.6996 10.8691 21.5125 11.4628L21.276 11.1878C21.221 10.3027 21.5192 9.64368 22.0378 8.94482Z" fill="#9D3005"/>
</svg>
