<svg width="229" height="160" viewBox="0 0 229 160" fill="none" xmlns="http://www.w3.org/2000/svg">
<path d="M60.8662 24.4325C65.1538 23.6034 69.9332 26.7486 73.8241 27.0013C76.4416 26.803 78.7498 24.9292 81.3255 24.5111C86.8902 23.608 89.2913 27.0103 90.2415 31.9322C91.7601 31.5098 93.8779 31.0153 95.4232 30.8491C99.8035 30.378 102.081 33.9761 100.676 38.0236C98.2269 45.077 92.8515 50.9753 88.0344 56.5456C89.4171 59.2928 89.4516 60.1109 89.8215 63.1284C95.1708 66.4277 99.5041 69.7284 103.884 74.2239C105.291 75.6716 107.145 77.1019 108.375 78.6909C117.734 90.7877 124.252 105.58 123.173 121.152C123.061 122.76 123.082 124.429 121.347 124.841C120.168 125.122 119.588 124.369 119.431 123.357C119.078 121.075 119.522 118.748 119.391 116.447C119.157 111.493 118.022 106.638 116.482 101.938C112.297 88.4631 99.7288 73.135 87.1224 66.7828C84.6054 67.0659 82.2085 68.0027 79.7687 68.6559C70.1212 71.2384 60.7247 69.3755 51.3121 66.7905C48.9338 67.6623 47.4924 68.9606 45.4815 70.4325C31.9533 80.3345 20.3412 98.5873 18.5883 115.443C18.3063 118.769 18.7482 121.907 19.6092 125.082C21.8444 133.322 28.4408 139.364 35.6752 143.407C37.3952 144.369 39.3712 145.636 41.2482 146.33C48.7772 149.11 56.7174 151.209 64.7497 151.758C66.4547 151.875 69.2701 152.251 70.8712 152.172C76.1901 151.957 81.3566 151.326 86.5891 150.371C88.641 149.997 95.113 147.227 95.7185 150.203C95.8448 150.844 95.7027 151.509 95.3255 152.043C94.1127 153.792 85.0094 155.129 82.5708 155.516C68.1332 157.805 48.879 155.044 35.7852 148.499C34.1772 147.696 32.3226 146.907 30.8754 145.841C29.1012 144.534 27.4252 143.073 25.7729 141.618C19.6691 136.239 16.0343 131.367 14.8098 123.046C13.2475 112.429 16.7841 100.33 22.017 91.0763C23.0445 89.2594 24.3619 87.5617 25.5017 85.8095C27.1163 83.3275 28.6383 80.7636 30.5457 78.4894C32.9771 75.5903 35.9868 72.9227 38.704 70.2791C39.7354 69.2756 40.8077 68.1277 41.9913 67.3069C44.0346 65.8898 46.8921 64.8112 48.594 63.003C49.5158 62.0234 50.0368 60.587 50.7101 59.427C51.1244 58.7128 51.644 58.0442 52.136 57.3816C47.7443 52.6477 42.1055 42.5041 39.4921 36.4783C38.6107 34.4461 38.4987 33.6559 39.3163 31.6867C41.6822 29.6761 45.3815 29.9595 48.0441 30.7117C52.5257 31.9777 52.5663 30.9495 54.9512 27.4838C56.2618 25.5789 58.5091 24.7175 60.8662 24.4325ZM72.0751 58.29C72.9154 56.2542 73.7621 54.1892 74.4869 52.1612C74.9016 51.0014 76.0543 46.1411 76.5327 45.5391C78.4652 43.108 80.4723 45.4186 79.6048 48.4887C78.6626 51.8237 77.8416 54.4441 76.403 57.5616C78.1919 57.0842 80.1601 56.5748 81.7735 55.6602C87.2162 52.5752 90.8646 46.7141 94.3494 41.687C94.8898 40.9077 97.881 35.5933 96.3082 35.067C93.8746 34.2531 88.0416 38.6102 86.4715 34.9888C85.7747 32.6163 86.449 29.3813 82.9377 28.4647C79.3168 29.1973 77.604 31.0213 74.3437 31.2625C69.4932 31.5005 66.0118 28.1322 61.0013 28.7841C56.9312 29.3136 56.0707 34.9978 52.7633 35.2803C49.5801 35.5522 46.5558 34.1541 42.9605 34.3119C45.5808 37.6652 46.1026 40.1273 47.9783 43.6316C49.6468 46.7484 53.461 53.4495 56.2668 55.5547C57.6108 56.5631 62.1152 57.6984 63.8826 58.1244C62.5958 55.1695 61.9338 52.1714 61.4557 48.9997C61.3338 48.1906 61.066 46.3478 61.3638 45.6302C62.0266 44.0336 64.8421 44.0255 65.2704 45.9055C65.4557 46.7188 65.5727 47.4364 65.6957 48.2417C66.5801 52.4306 66.8879 54.2386 68.2799 58.3298C69.5313 58.3138 70.8279 58.2791 72.0751 58.29ZM55.1018 59.5241C54.2238 60.9733 53.7547 61.5972 53.3649 63.2584L55.0183 63.7966C63.9849 66.1627 70.9046 66.4659 79.9874 64.5395C81.8166 64.1516 84.3002 63.3545 85.8827 63.0658C85.5877 61.8322 85.1179 59.9672 84.1087 59.1389L83.7154 59.0584C72.0333 63.8452 66.7312 62.8569 55.1018 59.5241Z" fill="#864916"/>
<path d="M171.501 53.6794C173.675 51.6675 174.703 50.958 176.609 53.9016C178.139 53.8873 188.467 52.7858 185.537 57.1114C184.886 58.0723 177.753 57.6825 176.125 57.795C176.336 59.3681 176.245 61.798 176.237 63.4416C176.22 65.9472 176.245 68.4531 176.314 70.958C178.211 70.8952 184.509 70.6316 185.437 71.8048C188.784 76.0341 177.797 75.1441 176.587 75.077L176.462 75.0697C176.306 79.3595 176.415 83.6272 176.262 87.7914C178.862 87.8258 188.22 86.5458 185.497 91.315C185.142 91.9353 177.39 91.8792 176.27 91.9594C176.281 93.2398 176.637 101.042 175.758 101.708C171.27 105.105 172.22 94.1609 172.506 91.9906C169.47 91.7706 166.075 91.8441 163.004 91.8691C161.195 91.8836 158.451 91.8377 156.71 91.9928C156.711 93.203 157.01 101.216 156.176 101.787C151.719 104.842 152.811 94.2094 152.821 91.9203C148.151 91.9223 142.447 91.6509 137.83 92.0331C138.006 93.9884 137.993 99.9413 137.682 101.745C136.83 102.146 134.417 102.979 134.118 101.561C133.599 99.0941 133.423 94.4812 133.906 92.0458C131.867 91.9756 120.416 92.6589 124.339 88.507C124.981 87.8272 132.541 87.9595 133.943 87.9563C133.591 85.7175 134.093 78.108 133.768 75.4361C133.683 75.373 133.598 75.3097 133.512 75.2466L132.979 75.2989C132.119 75.1219 130.551 75.1689 129.643 75.1744C128.584 75.1492 124.586 75.3072 124.07 74.4392C121.386 69.9281 131.645 71.0505 133.483 71.1611C133.596 71.1677 133.708 71.1752 133.821 71.1838C133.678 68.7008 133.822 65.9077 133.81 63.3944C133.802 61.7866 133.693 59.4033 133.882 57.8877C131.962 57.785 124.993 58.3186 123.917 57.0631C123.593 56.6845 123.391 56.0466 123.458 55.5519C123.52 55.0966 123.809 54.7486 124.179 54.5002C126.087 53.2197 130.904 54.0094 133.214 53.8239C134.331 52.5934 134.471 52.3052 136.118 51.832C137.207 52.5431 137.472 52.6923 138.252 53.7667C141.42 53.8358 149.208 54.0058 152.207 53.6466C154.506 51.1713 155.13 51.4588 157.329 53.8805C161.518 53.718 167.581 54.1192 171.501 53.6794ZM156.668 57.7761C156.768 61.5978 156.628 65.4209 156.749 69.2422C156.767 69.7897 156.789 70.3375 156.767 70.885C159.04 70.9928 161.349 70.9683 163.628 70.9681C166.396 71.0197 169.494 70.9302 172.197 71.1639C172.165 67.267 172.228 63.3741 172.073 59.4794C172.05 58.8986 172.031 58.3186 172.045 57.7373C170.748 57.778 167.386 57.5528 166.342 57.7309C163.335 57.8802 159.716 57.7994 156.668 57.7761ZM156.747 87.9022C161.913 87.9619 166.992 87.8861 172.137 87.9166C172.579 87.3156 172.037 76.907 172.156 75.1436L162.524 75.1466C161.193 75.1502 157.975 75.2377 156.865 74.9972C156.48 76.4889 156.808 85.7092 156.747 87.9022ZM150.831 75.0822C146.592 75.1328 142.112 75.0398 137.915 75.1772C137.934 77.3719 137.878 79.5797 137.883 81.7831C137.887 83.6245 138.173 86.1702 138.008 87.9447L140.503 87.9605C144.613 87.9884 148.723 87.9628 152.833 87.8838C152.737 83.7394 152.988 79.0108 152.723 74.9711C152.13 75.0205 151.413 75.1005 150.831 75.0822ZM152.788 57.7544C149.014 57.6245 145.749 57.6675 141.997 57.7303C140.587 57.8448 139.208 57.8145 137.796 57.8036C138.049 61.6084 137.632 65.5331 138.017 69.355C138.069 69.8731 138.099 70.527 138.1 71.043L150.034 71.0622C150.913 71.0852 151.916 71.0836 152.778 71.2031C152.637 67.5238 152.569 61.3948 152.788 57.7544Z" fill="#864916"/>
<path d="M136.306 18.6592C136.731 8.16392 143.264 0.796932 154.195 0.994099C158.544 1.07255 162.794 3.48906 165.691 6.59399C169.155 10.3102 170.458 13.4765 170.749 18.5709C174.164 18.639 180.853 18.1968 183.292 20.8885C185.93 23.7993 185.828 33.4992 182.813 36.1757C179.611 39.0189 172.731 38.3757 168.538 38.384L150.859 38.3639C144.96 38.3548 139.064 38.7256 133.172 38.6176C125.335 38.4742 125.364 31.7542 125.322 25.9843C121.717 26.1351 112.186 25.4476 109.933 27.9281C109.876 27.9896 109.821 28.052 109.767 28.1149C109.125 31.6062 109.317 34.6993 109.128 38.1845C108.585 48.1815 108.821 58.1589 108.571 68.1584C108.535 69.614 107.901 70.4687 106.363 70.2615C105.289 69.956 104.937 69.942 104.389 69.0145C104.381 68.9279 104.374 68.8414 104.367 68.7548C104.09 65.1934 104.364 59.9004 104.333 56.1734C104.36 50.0275 104.373 43.889 104.733 37.7503C104.983 34.4951 104.816 31.0765 105.641 27.892C107.102 22.2549 111.419 22.4596 116.098 22.1581C117.731 22.1618 125.684 22.139 126.549 21.7707C129.618 18.6799 132.232 19.0399 136.306 18.6592ZM166.654 22.6812C165.891 18.8029 166.848 16.4374 164.736 12.4036C158.463 0.417048 141.605 4.1627 140.483 17.3753C140.377 18.6249 140.753 22.3046 139.199 22.8523C136.527 23.7942 130.976 21.8735 129.831 25.5345C129.4 27.1684 129.682 32.031 130.504 33.574C131.965 35.1059 135.202 34.6659 137.197 34.6434C140.799 34.6031 144.393 34.5024 147.987 34.266L169.152 34.2367C171.91 34.2262 177.024 34.7303 179.533 33.7135C181.335 32.9834 181.5 25.7306 180.502 24.2224C179.716 23.034 176.494 23.1548 175.189 23.1137C172.203 23.0557 169.577 23.204 166.654 22.6812Z" fill="#864916"/>
<path d="M152.104 11.962C154.441 11.3245 156.853 12.6968 157.499 15.0312C158.145 17.3655 156.781 19.7827 154.449 20.4371C152.105 21.0947 149.673 19.7227 149.024 17.3763C148.374 15.0301 149.755 12.6028 152.104 11.962Z" fill="#864916"/>
<path d="M130.326 129.115C138.149 128.886 157.138 130.167 163.423 135.433C164.982 136.739 165.653 138.942 165.606 140.836C165.521 144.31 166.631 150.086 163.853 152.671C158.084 158.039 144.853 159.369 137.347 159.659C128.65 159.863 109.168 159.431 102.624 151.626C100.976 149.659 101.627 140.057 102.245 137.291C102.923 136.497 103.637 135.627 104.528 135.022C109.68 131.528 117.056 130.487 123.15 129.704C125.574 129.393 127.759 129.558 130.326 129.115ZM105.908 139.08C109.316 142.885 114.733 143.05 119.48 143.866C120.855 144.102 124.261 144.78 125.408 144.798C129.222 144.858 132.769 145.372 136.539 144.895C140.085 144.544 160.964 143.218 161.446 139.057C160.155 135.874 145.479 133.639 142.133 133.533C139.13 133.437 133.76 132.96 130.817 133.177C128.688 133.513 126.458 133.344 124.638 133.593C119.294 134.327 109.878 135.236 105.908 139.08ZM110.613 152.393C113.163 153.244 122.505 155.95 124.993 155.526C124.31 154.07 123.165 150.446 125.183 149.58C125.479 149.451 125.815 149.45 126.112 149.576C127.947 150.358 127.143 153.998 126.524 155.394C126.073 154.901 125.423 155.159 124.993 155.526C125.443 155.807 126.261 155.674 126.741 155.501C128.95 156.152 142.394 156.237 143.468 155.166C142.121 153.646 142.062 149.329 144.027 149.282C145.435 150.151 145.255 153.721 144.582 155.091C146.972 155.463 155.751 152.901 157.934 151.679C157.858 150.33 157.404 145.996 159.308 145.844C160.696 146.577 160.846 149.184 160.99 150.591L162.339 149.125C162.839 146.846 162.617 145.14 162.684 142.869C158.392 146.32 153.85 147.062 148.627 147.832C137.836 149.423 127.239 149.088 116.487 147.378C114.359 147.039 112.1 146.706 110.025 146.035C111.04 148.255 110.588 149.978 110.613 152.393ZM105.197 143.335C105.101 145.039 105.018 147.26 105.429 148.925C106.065 149.575 107.207 150.807 107.9 151.28L108.095 151.214C108.094 151.003 108.118 150.934 108.041 150.747C107.703 149.264 107.575 147.99 108.435 146.644C108.615 146.366 108.803 146.093 108.998 145.825C107.912 144.982 106.464 143.721 105.197 143.335Z" fill="#864916"/>
<path d="M118.219 136.727C118.929 136.694 119.223 136.85 119.891 136.999C121.104 137.271 122.437 137.507 123.681 137.498C130.495 137.448 137.31 137.536 144.124 137.567C145.826 137.574 147.585 137.079 149.283 137.271C149.838 137.338 150.452 138.331 150.767 138.806C150.396 140.112 149.605 141.198 148.086 140.692C145.534 139.944 135.016 140.558 131.635 140.427C128.311 140.443 124.991 140.368 121.667 140.38C120.708 140.492 119.708 141.137 118.794 141.364C117.987 141.566 116.327 140.914 116.071 140.042C115.522 138.169 116.748 137.369 118.219 136.727Z" fill="#864916"/>
<path d="M124.994 155.526C124.311 154.07 123.167 150.446 125.184 149.58C125.48 149.452 125.817 149.45 126.114 149.576C127.948 150.358 127.144 153.998 126.525 155.394C126.074 154.901 125.424 155.16 124.994 155.526Z" fill="#864916"/>
<path d="M143.47 155.167C142.123 153.646 142.063 149.329 144.029 149.282C145.437 150.151 145.256 153.721 144.584 155.091L144.477 154.875C143.781 154.902 143.89 154.787 143.47 155.167Z" fill="#864916"/>
<path d="M124.992 155.526C125.422 155.16 126.073 154.901 126.524 155.394L126.74 155.501C126.261 155.674 125.442 155.807 124.992 155.526Z" fill="#A3662C" fill-opacity="0.984314"/>
<path d="M189.265 22.0672C192.085 21.9036 195.577 22.0624 198.384 22.0049C201.234 22.0283 203.965 22.2866 206.043 24.4424C208.29 26.7725 207.831 29.5789 208.16 32.5332C208.762 37.9169 208.762 43.2811 208.918 48.6835C209.146 59.6463 209.201 70.6121 209.079 81.5766C209.042 89.0061 208.999 96.4517 208.937 103.884C208.965 106.187 208.481 108.523 208.417 110.804C208.295 115.228 208.259 119.647 207.973 124.068C207.854 125.901 207.907 127.926 207.392 129.692C205.363 136.642 195.44 135.041 189.921 134.871C184.076 134.704 178.232 134.474 172.392 134.18C168.36 133.582 169.304 130.059 173.312 130.136C178.329 130.232 183.245 130.734 188.254 130.865C192.557 130.977 197.131 132.092 201.304 130.679C203.596 129.888 203.679 127.762 203.81 125.693C204.024 122.308 204.002 118.859 204.106 115.47L204.502 99.5444C204.585 96.9372 204.796 94.3777 204.848 91.7567C205.087 79.6642 204.617 67.6249 204.401 55.5416C204.331 50.4752 204.227 45.4092 204.095 40.3441C204.052 37.8627 204.284 29.4933 203.118 27.4903C200.596 25.2599 194.618 25.9846 191.227 26.1316C187.185 26.3067 185.195 23.4394 189.265 22.0672Z" fill="#864916"/>
<path d="M75.0191 87.4181C76.5464 87.3614 82.747 86.9122 83.51 88.0019C86.9792 92.9564 77.0645 91.7441 74.4836 91.7217C74.7067 92.6953 74.7753 95.5942 74.8086 96.6944C76.2573 96.6705 82.8738 96.3517 83.5886 97.4041C86.8755 102.243 77.1244 101.12 74.6672 101.109C74.1672 103.441 73.7077 105.825 72.0314 107.637C69.8956 109.947 66.7411 111.012 63.6839 111.207C65.8958 112.555 67.3641 114.853 69.1645 116.715C71.2464 119.029 73.5767 121.183 75.5917 123.551C77.3983 125.675 77.5241 127.479 74.6897 128.386C72.1538 127.556 69.0183 123.407 67.1205 121.259C63.7319 117.75 59.5992 114.391 57.1052 110.122C55.9044 108.067 56.6697 106.935 58.9658 106.811C61.3317 106.684 63.7497 106.902 66.0208 106.043C68.7292 105.056 69.4045 103.521 70.5323 101.12C67.4325 101.064 64.2878 101.14 61.2253 101.089C59.7923 101.065 56.7561 101.328 56.3738 99.6947C56.1806 98.87 56.2236 98.2566 56.6116 97.5297C57.6047 96.5681 68.2095 96.8528 70.5658 96.7316C70.3013 95.2622 70.2886 93.37 70.1195 91.7802C66.0403 91.5709 61.877 91.9423 57.8058 91.5888C55.7181 91.4073 56.1005 89.4208 56.3895 87.9783C58.4364 87.2525 61.5527 87.4802 63.7798 87.4731L75.0191 87.4181Z" fill="#864916"/>
</svg>
