<svg width="60" height="42" viewBox="0 0 60 42" fill="none" xmlns="http://www.w3.org/2000/svg">
<path d="M45.2478 16.7156C46.8046 14.9199 46.9589 15.1579 48.9906 14.3858C48.1647 14.3534 47.7136 14.4328 47.1421 13.8614C46.9165 13.2593 46.9199 13.5073 47.0929 12.9239C47.5389 12.5282 47.7339 12.5616 48.3444 12.4919L48.5513 12.6632C48.4852 12.9402 48.5225 13.0364 48.5564 13.3234C48.86 13.5592 49.0618 13.7486 49.4281 13.7622C49.9894 13.2382 49.8809 13.4657 50.0827 12.8376C49.9759 12.158 49.2873 11.4895 48.8396 10.8097C48.7667 9.4813 51.1443 8.79601 52.0974 9.73778C53.0267 10.6568 52.8945 10.9678 52.9657 12.2062C54.0239 13.2455 53.973 13.3119 53.7509 14.7567L53.8458 14.7859C54.7124 15.046 54.6599 14.7803 55.4807 15.3878C55.5247 15.6994 55.4722 15.7182 55.3365 16.0139C55.4077 16.5889 55.4332 16.6527 55.7656 17.127C56.5491 17.3397 56.8102 17.2106 57.2817 17.6794C57.3665 18.7758 55.8164 19.5747 56.8797 20.6325C57.5208 20.5935 58.0787 20.4849 58.6418 20.7475C59.7475 22.2179 57.921 22.6146 58.038 24.049L57.5598 23.8912L57.38 23.6348C56.7933 23.6694 56.7051 23.6675 56.2421 24.019C56.0098 25.1341 57.9736 30.1307 57.0748 30.971C56.4236 30.3507 56.7356 29.9687 56.1709 29.8067C55.1941 30.1895 54.2766 30.6007 53.3201 31.0273C54.0256 31.8431 54.7175 32.6166 55.3467 33.4968C53.8102 32.8235 53.2421 32.6035 52.2992 31.2156L49.5739 32.0344C50.0674 32.547 50.7034 33.0973 50.8967 33.7609L50.7475 33.9828C49.8147 33.7916 49.1669 32.9796 48.5852 32.2451C47.8153 32.4907 46.6689 32.8196 45.9499 33.1138C46.5536 33.8788 47.1523 34.606 47.6695 35.4346C46.6944 34.8806 45.8447 34.2377 44.99 33.4837C44.8509 33.3606 44.1641 33.645 43.8249 33.2422C44.6763 32.0975 52.791 30.234 55.0397 29.3792C53.6983 28.7543 52.289 28.1197 50.973 27.458C50.6373 26.82 50.8306 25.9573 50.9595 25.2825C48.6751 25.8148 46.3976 26.369 44.1234 26.9449C43.9369 28.6664 43.0771 34.6231 41.9408 35.9082C40.9148 37.0673 34.5078 36.82 34.769 34.2286C34.8351 33.9644 34.9335 33.8423 35.076 33.6094C35.9663 33.0647 36.492 33.195 37.496 33.3289L37.7639 32.7333L37.7249 32.5324L37.5587 32.4224C36.5056 32.715 36.4683 32.2171 35.5762 31.908L35.9493 31.6107L35.8086 31.0599L35.9663 30.8801C33.0172 29.4576 32.2947 30.7234 30.3343 30.2034L30.3072 29.9999C31.2552 29.2878 32.2574 29.2101 33.4174 29.0089L33.5022 25.994C32.3999 25.6751 30.4157 25.2415 29.5728 24.5686C28.6571 23.8381 29.8493 20.9865 29.7068 19.7304C29.3948 16.9604 27.5887 13.2805 29.5474 10.8227C29.8679 10.4217 30.7532 10.0039 31.2738 10.0038L31.2196 10.1924C28.0551 12.6208 29.1336 16.8696 30.9211 19.8656L31.0296 20.0459C34.5553 21.35 37.7741 19.4714 40.9759 21.0771C41.4643 21.3227 42.4191 20.5989 42.514 19.9386L43.0313 19.6865C43.9148 19.219 44.6135 18.5174 44.3829 17.4878C43.5485 16.3616 41.6424 16.0134 40.3382 15.7888C38.8086 12.9689 38.6458 12.2318 36.7498 9.35527C39.2376 10.9084 39.3716 12.2973 40.6401 14.9847C42.2495 15.4434 43.7554 15.9531 45.2478 16.7156Z" fill="#983403"/>
<path d="M45.2478 16.7156C46.8046 14.9199 46.9589 15.1579 48.9906 14.3858C48.1647 14.3534 47.7136 14.4328 47.1421 13.8614C46.9165 13.2593 46.9199 13.5073 47.0929 12.9239C47.5389 12.5282 47.7339 12.5616 48.3444 12.4919L48.5513 12.6632C48.4852 12.9402 48.5225 13.0364 48.5564 13.3234C48.86 13.5592 49.0618 13.7486 49.4281 13.7622C49.9894 13.2382 49.8809 13.4657 50.0827 12.8376C49.9759 12.158 49.2873 11.4895 48.8396 10.8097C48.7667 9.4813 51.1443 8.79601 52.0974 9.73778C53.0267 10.6568 52.8945 10.9678 52.9657 12.2062C54.0239 13.2455 53.973 13.3119 53.7509 14.7567L53.4863 14.875C52.4417 14.7274 51.7887 14.9038 50.8849 15.4605C50.6118 15.6157 50.3235 15.8319 50.042 15.8549C49.7147 16.1377 49.4366 16.3092 49.3009 16.7098L49.1534 16.7658L48.9617 17.2879L48.6005 17.2501L48.531 17.3071C48.2461 18.5425 47.9934 18.6984 47.0301 19.5588L47.912 19.5496C47.9086 20.2853 47.7017 20.9784 47.4032 21.6491L46.8741 21.7368C46.0821 22.2133 45.2156 22.8093 44.7458 23.6263L44.8866 23.9796C43.1839 24.3575 39.2359 25.4854 37.8301 25.5945L37.708 25.605C36.9991 25.6593 35.8849 25.2824 35.1777 25.0712C34.7588 25.174 34.6435 25.1224 34.4027 25.384C34.4247 25.6554 34.4061 26.1568 34.5519 26.295C35.5593 27.2521 35.1777 28.8422 35.3744 30.3916C35.7017 29.5319 35.8747 28.2907 36.2512 27.828C36.7226 27.7192 36.9787 27.8526 37.4637 28.1282L37.8301 28.3141C37.7266 29.3239 37.7283 30.1057 36.955 30.8141C36.3445 31.0165 36.6039 30.9978 35.9663 30.8801C33.0172 29.4576 32.2947 30.7234 30.3343 30.2034L30.3072 29.9999C31.2552 29.2878 32.2574 29.2101 33.4174 29.0089L33.5022 25.994C32.3999 25.6751 30.4157 25.2415 29.5728 24.5686C28.6571 23.8381 29.8493 20.9865 29.7068 19.7304C29.3948 16.9604 27.5887 13.2805 29.5474 10.8227C29.8679 10.4217 30.7532 10.0039 31.2738 10.0038L31.2196 10.1924C28.0551 12.6208 29.1336 16.8696 30.9211 19.8656L31.0296 20.0459C34.5553 21.35 37.7741 19.4714 40.9759 21.0771C41.4643 21.3227 42.4191 20.5989 42.514 19.9386L43.0313 19.6865C43.9148 19.219 44.6135 18.5174 44.3829 17.4878C43.5485 16.3616 41.6424 16.0134 40.3382 15.7888C38.8086 12.9689 38.6458 12.2318 36.7498 9.35527C39.2376 10.9084 39.3716 12.2973 40.6401 14.9847C42.2495 15.4434 43.7554 15.9531 45.2478 16.7156Z" fill="#9C4517"/>
<path d="M35.1797 25.0713C38.3968 22.7961 41.3866 24.6588 43.7811 21.7054C44.49 20.8308 45.8196 19.9468 46.1503 18.8153C45.6279 18.7142 42.7992 23.0236 41.5155 22.6254L41.3934 22.363C44.1254 20.0841 44.5002 19.2025 46.6607 16.4145C47.4493 15.3952 48.07 15.4235 49.2266 15.3684L48.6042 16.2043C48.7806 16.3723 49.0163 16.5773 49.1554 16.766L48.9637 17.2881L48.6025 17.2503L48.533 17.3073C48.2481 18.5427 47.9954 18.6986 47.0321 19.5589L47.914 19.5497C47.9106 20.2854 47.7037 20.9785 47.4052 21.6492L46.8761 21.7369C46.0841 22.2134 45.2175 22.8095 44.7478 23.6264L44.8885 23.9798C43.1859 24.3577 39.2379 25.4856 37.832 25.5946L37.7099 25.6051C37.0011 25.6594 35.8869 25.2825 35.1797 25.0713Z" fill="#EFEBE7"/>
<path d="M47.9108 19.5498C47.3529 19.9917 43.4371 23.659 43.4219 23.6626C43.4999 22.6761 45.9623 20.8397 46.8933 19.7221L47.029 19.559L47.9108 19.5498Z" fill="#9C4517"/>
<path d="M48.6016 16.2043C48.7779 16.3723 49.0137 16.5774 49.1527 16.766L48.9611 17.2881L48.5999 17.2503L48.5303 17.3073C47.9487 17.5336 47.25 18.2923 46.6445 18.0044C47.0159 17.406 48.0131 16.6818 48.6016 16.2043Z" fill="#9C4517"/>
<path d="M34.0119 29.4398C34.0576 29.2842 34.0983 29.1273 34.1357 28.9696C34.892 25.6803 33.8202 24.6071 30.8626 24.3927C30.1656 24.3423 29.5517 23.4717 29.918 22.7522C31.2679 23.3552 33.013 24.5408 34.4579 23.7359L34.4952 23.4524C33.671 22.7797 30.052 23.0911 29.9876 20.9345C30.1368 20.6653 30.2826 20.6361 30.5625 20.4909C30.7185 20.4868 30.8524 20.489 30.9729 20.5823C32.935 22.1125 36.5964 20.9745 38.9027 21.126C39.0215 21.1336 40.9513 21.961 41.5941 22.1505C40.0661 22.6854 35.6772 23.7538 34.6817 24.403C34.3324 24.9601 34.4104 24.7036 34.4053 25.384C34.4273 25.6554 34.4087 26.1568 34.5545 26.295C35.5619 27.2521 35.1803 28.8422 35.377 30.3916C35.7043 29.5319 35.8773 28.2907 36.2538 27.828C36.7252 27.7192 36.9813 27.8526 37.4663 28.1282C37.173 28.6665 36.8236 29.7097 36.5981 30.3246C35.7383 30.0233 34.8768 29.7285 34.0119 29.4398Z" fill="#EFEBE7"/>
<path d="M52.965 12.2063C54.0233 13.2456 53.9724 13.3119 53.7502 14.7568L53.4857 14.875C52.441 14.7275 51.7881 14.9039 50.8842 15.4606C50.6112 15.6158 50.3229 15.8319 50.0414 15.855C49.7141 16.1378 49.4359 16.3092 49.3003 16.7099L49.1527 16.7659C49.0137 16.5773 48.7779 16.3722 48.6016 16.2042L49.2239 15.3683C50.5247 14.4539 49.229 13.6347 50.5739 13.0894C51.3319 12.8641 52.2409 12.7174 52.7717 12.1968L52.965 12.2063Z" fill="#8C2102"/>
<path d="M52.1472 13.3995C52.7882 13.3371 52.6034 13.2655 53.1088 13.5216L53.0647 13.7581C52.5305 14.3369 52.1133 14.3766 51.3467 14.5727C51.1755 14.6173 50.9007 14.6383 50.7159 14.66L50.5039 14.4877L50.587 14.1479C51.0907 13.5685 51.4129 13.5603 52.1472 13.3995Z" fill="#EFEBE7"/>
<path d="M50.5742 13.0895C51.1033 12.2036 51.8139 11.6243 52.7721 12.1969C52.2413 12.7175 51.3323 12.8643 50.5742 13.0895Z" fill="#EFEBE7"/>
<path d="M49.4062 10.206C50.3101 10.1303 51.3972 9.83553 51.9992 10.5643C51.9585 11.1698 51.9585 10.9961 51.5854 11.5725C50.5679 11.9964 49.5606 11.2319 49.4062 10.206Z" fill="#EFEBE7"/>
<path d="M37.449 34.3361C37.9883 34.4538 39.111 34.7532 39.6214 34.6345C42.6774 33.9244 40.3422 27.4943 43.1353 27.1062L43.3082 27.2611C43.3116 28.1859 42.1008 33.9729 41.8617 35.1983C39.9453 36.1264 36.1907 36.0349 35.0358 34.2163L34.7695 34.2287C34.8357 33.9646 34.934 33.8425 35.0765 33.6096C35.9668 33.0649 36.4925 33.1952 37.4965 33.329L37.6729 33.5597L37.9883 33.7946L37.449 34.3361Z" fill="#EFEBE7"/>
<path d="M34.7695 34.2288C34.8357 33.9647 34.934 33.8425 35.0765 33.6096C35.9668 33.065 36.4925 33.1952 37.4965 33.3291L37.6729 33.5598L37.9883 33.7947L37.449 34.3362C36.5706 34.2072 35.9109 34.0554 35.0358 34.2164L34.7695 34.2288Z" fill="#9D3005"/>
<path d="M37.6758 33.5596C40.0076 32.4843 38.7781 28.9423 40.3654 27.5537C40.8216 27.5229 40.5995 27.4748 41.0251 27.8043C41.1048 29.1971 40.4367 32.2621 39.8821 33.585C39.4853 33.8805 38.5339 33.8013 37.9912 33.7945L37.6758 33.5596Z" fill="#EFEBE7"/>
<path d="M37.8319 28.3142C38.3509 28.0615 38.1508 28.065 38.629 28.1907C39.0292 29.027 38.2898 32.0634 37.7658 32.7334L37.7268 32.5325L37.5606 32.4225C36.5075 32.7151 36.4702 32.2172 35.5781 31.9081L35.9512 31.6108L35.8105 31.06L35.9682 30.8802C36.6058 30.9979 36.3464 31.0166 36.9569 30.8142C37.7302 30.1058 37.7285 29.324 37.8319 28.3142Z" fill="#EFEBE7"/>
<path d="M35.9512 31.6106C36.8263 31.6798 37.1366 31.5702 37.5606 32.4223C36.5075 32.7149 36.4702 32.217 35.5781 31.908L35.9512 31.6106Z" fill="#D58D5D"/>
<path d="M50.0446 15.855C50.2414 17.2156 49.5308 22.3903 48.5998 23.1648L48.671 23.1307C48.1079 22.3663 49.2527 18.0739 49.3035 16.7099C49.4392 16.3092 49.7173 16.1378 50.0446 15.855Z" fill="#EFEBE7"/>
<path d="M46.8783 21.7369L47.4074 21.6492C47.4261 22.205 47.421 22.8461 47.5329 23.3821L44.8907 23.9797L44.75 23.6264C45.2198 22.8094 46.0863 22.2134 46.8783 21.7369Z" fill="#EAE5E3"/>
<path d="M46.8783 21.7368C46.1779 22.8762 46.0287 23.2485 44.75 23.6263C45.2198 22.8094 46.0863 22.2133 46.8783 21.7368Z" fill="#983403"/>
<path d="M50.9587 25.2826L51.5641 25.2747C51.5319 25.856 51.4742 26.5582 51.4657 27.1297C51.2724 27.2803 51.1893 27.3792 50.9723 27.4581C50.6365 26.8201 50.8298 25.9574 50.9587 25.2826Z" fill="#8C2102"/>
<path d="M51.5671 25.2747L51.9758 25.252C52.393 25.7763 52.3744 26.7708 51.8198 27.1966L51.4688 27.1297C51.4772 26.5583 51.5349 25.856 51.5671 25.2747Z" fill="#F7F2E6"/>
<path d="M50.8867 15.4608C51.7906 14.904 52.4435 14.7276 53.4882 14.8752C52.8607 15.4519 51.7007 15.6182 50.8867 15.4608Z" fill="#EFEBE7"/>
<path d="M57.2092 20.8145C57.9248 21.1213 58.4641 21.4502 58.2809 22.2521C57.3957 22.8179 55.8915 23.1837 54.8468 23.4339C49.3539 24.7493 43.8525 26.1788 38.3053 27.2395C37.7151 27.3523 36.5586 26.8943 35.9904 26.6824C35.4749 26.3918 35.4037 26.3781 35.0391 25.9304L35.2188 25.8119C36.0752 25.8958 37.0114 26.2734 37.8356 26.564C43.6676 24.8772 50.3104 24.1024 55.9237 21.8887C56.3188 21.7333 56.9039 21.1325 57.2092 20.8145Z" fill="#EFEBE7"/>
<path d="M55.9498 17.9827C56.1499 17.9964 56.0855 18.0086 56.2975 18.1592C55.7633 19.7678 56.1618 21.4421 53.7825 21.9267C52.5292 22.1823 51.4185 22.4756 50.194 22.8357C49.9872 22.8189 50.0923 22.8495 49.9023 22.6286C51.2353 16.7535 50.9826 19.3772 55.9498 17.9827Z" fill="#EFEBE7"/>
<path d="M51.8915 19.5945C52.485 19.598 53.177 20.0372 53.952 19.8184C54.4099 19.689 54.5506 19.9843 54.6829 20.3169L54.493 20.6735C53.8214 20.6964 51.4065 20.866 51.2148 20.0586L51.8915 19.5945Z" fill="#9C4517"/>
<path d="M55.1807 24.2559L55.3384 24.3581C55.9235 25.2894 56.1999 27.9331 56.3644 29.1016L55.252 28.4823C54.4481 28.1336 53.7715 27.7327 53.0117 27.3002L53.0321 24.8791L55.1807 24.2559Z" fill="#EFEBE7"/>
<path d="M54.1024 15.5776L54.4993 15.6869C55.0318 16.5365 54.9436 17.2573 54.116 17.7753L53.8565 17.688C53.709 17.2405 53.7005 17.1594 53.4292 16.7854C52.8645 16.8458 52.8627 17.0127 52.3794 17.4799C51.8707 17.7214 51.3026 17.7626 50.8175 17.4999L50.7734 17.1199C51.4145 16.1437 52.9713 15.8882 54.1024 15.5776Z" fill="#EFEBE7"/>
<path d="M23.7557 30.0786C24.139 29.9069 24.3458 30.0179 24.7579 30.128C25.0496 30.4004 24.9598 30.2353 25.0106 30.6506C25.4838 32.9489 26.6828 32.4805 26.364 36.3372C25.9112 36.5954 25.0259 37.0637 24.6291 37.3377L25.1344 37.54C24.9988 37.7159 24.6715 38.1614 24.529 38.2891C24.1525 38.1853 23.7031 38.0199 23.3266 37.8934C21.8512 37.7489 15.0762 40.8198 14.0621 37.6423C13.4974 35.8672 17.0384 35.7411 18.2543 35.5932C17.7608 34.8862 17.0434 33.6137 16.3464 33.3288L16.4397 33.0764L15.9971 32.785C16.126 32.5698 16.0632 32.6322 16.031 32.2827C15.2221 31.202 14.5827 31.8926 13.2227 31.4558L13.377 31.0825C14.2079 30.5301 15.4188 30.6358 16.1887 31.2458C16.2939 30.6418 16.1735 30.7963 16.5635 30.4818C17.308 30.5987 18.0254 31.4553 18.2407 32.1472L18.5409 32.4617C19.8501 32.7165 22.6313 30.8585 23.7557 30.0786Z" fill="#F7F2E6"/>
<path d="M16.1887 31.2457C16.2939 30.6416 16.1735 30.7962 16.5635 30.4817C17.308 30.5986 18.0254 31.4552 18.2407 32.1471L18.5409 32.4616L18.0644 32.9673L17.8524 33.5628L18.2492 33.7587C18.4442 34.3959 18.9293 36.2273 19.2786 36.655L19.0412 36.6937C18.1034 36.1832 15.4188 36.5669 14.7727 37.1705C15.0118 39.6165 21.5205 37.2868 23.1689 37.2461L23.3266 37.8933C21.8512 37.7487 15.0762 40.8197 14.0621 37.6422C13.4974 35.867 17.0383 35.741 18.2543 35.5931C17.7608 34.8861 17.0434 33.6135 16.3464 33.3287L16.4397 33.0763L15.9971 32.7849C16.126 32.5696 16.0632 32.6321 16.031 32.2826C15.2221 31.2019 14.5827 31.8925 13.2227 31.4557L13.377 31.0823C14.2079 30.53 15.4188 30.6357 16.1887 31.2457Z" fill="#983403"/>
<path d="M16.1914 31.2457C16.2966 30.6416 16.1761 30.7962 16.5662 30.4817C17.3107 30.5986 18.028 31.4552 18.2434 32.1471L18.5436 32.4616L18.067 32.9673L17.855 33.5628C17.2615 32.9489 16.3915 32.0755 16.1914 31.2457Z" fill="#EFEBE7"/>
<path d="M16.1211 30.1492C16.8198 30.8229 17.527 31.4889 18.2409 32.1471L18.5411 32.4615L18.0646 32.9672C17.1556 32.2269 16.6604 31.1703 16.1211 30.1492Z" fill="#8C2102"/>
<path d="M23.7549 30.0786C24.1382 29.9069 24.345 30.0179 24.7571 30.128C25.0488 30.4004 24.9589 30.2353 25.0098 30.6506C25.483 32.9489 26.682 32.4805 26.3631 36.3372C25.9103 36.5954 25.0251 37.0637 24.6283 37.3377L24.6316 36.4889C27.0839 35.2955 25.02 32.5935 24.0567 31.0114C22.5525 31.7345 20.6294 32.9797 19.137 33.5305L18.2484 33.7589L17.8516 33.5629L18.0635 32.9674L18.5401 32.4617C19.8493 32.7165 22.6305 30.8585 23.7549 30.0786Z" fill="#9C3302"/>
<path d="M18.25 33.7588L19.1387 33.5305L19.2319 33.7717L19.2472 33.9101C19.354 34.8343 19.7203 35.4882 19.6287 36.2602C19.5456 36.3586 19.3812 36.5706 19.2794 36.6551C18.9301 36.2274 18.445 34.396 18.25 33.7588Z" fill="#EFEBE7"/>
<path d="M19.2329 33.7717C20.1368 34.3783 20.8253 35.9713 20.1453 36.948C19.6603 37.0473 19.4669 36.9908 19.043 36.6937L19.2804 36.6551C19.3821 36.5706 19.5466 36.3586 19.6297 36.2602C19.7213 35.4882 19.355 34.8343 19.2482 33.9101L19.2329 33.7717Z" fill="#8C2102"/>
<path d="M23.168 37.2462L24.6315 36.4888L24.6281 37.3376L25.1335 37.54C24.9978 37.7159 24.6705 38.1613 24.5281 38.289C24.1516 38.1852 23.7022 38.0198 23.3257 37.8933L23.168 37.2462Z" fill="#983403"/>
<path d="M20.1041 17.9952C18.2522 17.1187 18.0792 14.9731 20.2228 14.4365C21.5625 14.1008 21.2115 15.9238 21.9373 16.3103C22.8107 15.8806 22.5072 15.6207 23.333 15.475C25.0255 16.1323 24.8084 17.9884 24.3285 19.4329C23.9469 20.5776 21.9051 20.427 21.1403 21.2928C19.9481 22.3916 18.9848 23.8933 18.0504 25.2237C22.5784 24.7779 22.3138 26.6388 24.0385 29.8424C24.9136 29.4761 24.6456 29.438 25.4444 29.6414L25.6157 29.9262C25.463 30.3691 25.4189 30.3736 25.0119 30.6505C24.9611 30.2352 25.0509 30.4003 24.7593 30.1278C24.3472 30.0178 24.1403 29.9068 23.757 30.0785C22.5919 28.8232 22.3121 27.071 21.3031 26.4193C20.3042 25.5669 18.6813 26.0673 18.0148 27.0713C17.2737 28.1849 16.7615 28.8151 15.727 29.6602L15.376 29.4727L15.6253 29.7418L15.2997 29.6103C16.0544 28.1376 17.3822 26.9127 17.947 25.6303L17.774 25.7034L17.852 25.8074C17.3263 25.9453 16.2867 27.1359 15.839 27.5968L15.3285 27.104C15.2522 26.9704 14.6875 25.9864 14.6875 25.9864C15.0402 24.0331 21.4794 19.3946 20.1618 17.7451L20.1041 17.9952Z" fill="#983403"/>
<path d="M20.1618 17.7452C19.4359 16.6502 19.3359 16.6115 19.4715 15.3169L20.0108 15.1585L19.5563 15.1213C20.2635 15.2063 20.0888 15.138 20.6332 15.7588C20.7384 16.3954 20.7638 16.7725 21.1488 17.3189C21.7016 16.8775 22.904 16.8648 23.6705 16.8188C24.6202 19.2704 23.5196 19.672 21.3251 19.8798C20.4738 20.8673 15.7525 26.9794 15.3285 27.1041C15.2522 26.9704 14.6875 25.9864 14.6875 25.9864C15.0402 24.0331 21.4794 19.3946 20.1618 17.7452Z" fill="#EFEBE7"/>
<path d="M21.1484 17.3189C21.7013 16.8775 22.9037 16.8648 23.6702 16.8188C23.231 17.3469 23.0292 17.6933 22.3966 17.9467C21.7573 17.9068 21.5961 17.8329 21.1484 17.3189Z" fill="#8C2102"/>
<path d="M9.43419 11.9933C8.6507 9.16358 11.1199 5.75303 14.4302 6.79777C15.7242 7.20607 17.5693 8.63417 17.164 10.0601C16.6807 10.4314 16.4466 10.4375 15.8463 10.5131C15.3664 11.6135 15.1968 12.12 14.8915 13.2823C14.5846 13.4955 12.9514 14.7042 12.8327 14.685C11.1996 14.4217 11.4031 16.0038 10.3262 16.3283C9.46302 16.0992 8.68463 14.7477 8.2437 13.9943C8.15722 13.8487 8.0758 13.7011 7.99609 13.5517C8.42345 13.0932 9.05092 12.4593 9.43419 11.9933Z" fill="#EFEBE7"/>
<path d="M9.43122 11.9933C8.64773 9.16358 11.1169 5.75303 14.4273 6.79777C15.7212 7.20607 17.5663 8.63417 17.161 10.0601C16.6777 10.4314 16.4437 10.4375 15.8433 10.5131L15.5923 10.381L13.637 9.23567C13.1706 9.79578 12.5957 10.5652 12.0191 10.9635C11.122 10.6646 11.6206 10.1893 10.9253 10.2577C10.3606 11.2476 11.412 11.3114 10.0553 12.0678L9.43122 11.9933Z" fill="#9C4517"/>
<path d="M15.5953 10.3811L15.8463 10.5132C15.3664 11.6136 15.1968 12.1201 14.8915 13.2824C14.5846 13.4957 12.9514 14.7043 12.8327 14.6851C11.1996 14.4218 11.4031 16.0039 10.3262 16.3284C9.46302 16.0993 8.68463 14.7478 8.2437 13.9944C8.15722 13.8488 8.0758 13.7012 7.99609 13.5518C8.42345 13.0933 9.05092 12.4594 9.43419 11.9934L10.0583 12.0679C9.58513 12.599 9.11367 13.1676 8.6507 13.7101C9.12554 14.3458 9.84967 15.5317 10.7044 15.2252C11.1962 14.1061 10.4704 13.1311 9.95823 12.1417C13.2194 15.6408 13.6298 13.5951 15.5953 10.3811Z" fill="#9D3005"/>
<path d="M3.90107 25.4202L4.22669 25.2559C4.69305 25.3441 4.79988 25.3507 5.27812 25.3212L5.39514 25.3132C7.01979 25.729 9.86715 26.8266 11.3459 27.6329C12.1973 28.0976 12.7824 28.814 13.537 28.7137C13.9779 28.2937 13.8711 28.4975 14.0509 27.9323L14.1102 27.5638C14.463 27.5752 14.5477 27.557 14.8649 27.4005L15.3295 27.1041L15.84 27.5969C16.2877 27.136 17.3273 25.9454 17.853 25.8075L17.775 25.7035L17.948 25.6304C17.3833 26.9128 16.0554 28.1377 15.3007 29.6104L15.6263 29.7419L15.377 29.4728L15.7281 29.6603C16.7625 28.8152 17.2747 28.185 18.0158 27.0714C18.6823 26.0674 20.3052 25.567 21.3041 26.4193C17.775 26.0367 18.4466 28.2177 16.0079 29.7064C15.2634 30.1602 13.3827 30.1734 12.4873 30.189C11.0661 29.5573 10.2385 28.043 9.50763 27.8785L9.37874 28.3774C8.61051 28.6062 7.29113 28.6791 6.95026 29.0114C7.13172 31.7117 11.4172 29.5224 11.6597 31.7121C10.6303 32.2166 6.65009 31.9574 5.47824 31.6151L5.52064 31.3391C3.77728 29.2104 3.69248 28.1339 3.90107 25.4202Z" fill="#EFEBE7"/>
<path d="M3.90107 25.4202L4.22669 25.2559C4.69305 25.3441 4.79988 25.3507 5.27812 25.3212L5.39514 25.3132C7.01979 25.729 9.86715 26.8266 11.3459 27.6329C12.1973 28.0976 12.7824 28.814 13.537 28.7137C13.9779 28.2937 13.8711 28.4975 14.0509 27.9323L14.1102 27.5638C14.463 27.5752 14.5477 27.557 14.8649 27.4005L15.3295 27.1041L15.84 27.5969L15.1006 28.5429C13.732 30.8204 11.4426 30.0782 10.5251 27.7913C8.26964 27.1323 6.43471 26.6088 4.31148 25.5931C4.90503 27.2129 5.19164 29.7037 6.13454 30.4735C6.41436 30.4448 6.33295 30.5086 6.48897 30.3642L7.00452 30.0345C7.88129 31.2577 10.3572 30.57 11.1085 31.4802C10.1673 31.6045 6.34483 31.6242 5.52064 31.3391C3.77728 29.2104 3.69248 28.1339 3.90107 25.4202Z" fill="#9D3005"/>
<path d="M14.8648 27.4006L15.3295 27.1042L15.8399 27.597L15.1005 28.543C14.4595 28.6197 14.3221 28.3912 14.0508 27.9324L14.1101 27.5639C14.4629 27.5753 14.5477 27.5572 14.8648 27.4006Z" fill="#8C2102"/>
<path d="M6.48716 30.3643C6.02927 29.3523 5.54934 28.8892 6.21412 27.8784C7.0875 27.4424 8.60701 27.8677 9.5974 28.057C8.63923 28.2414 7.4148 28.1695 6.78563 28.7201C6.60248 29.3541 6.72967 29.3218 7.00271 30.0345L6.48716 30.3643Z" fill="#9D3005"/>
<path d="M32.8604 7.19812C32.2635 5.91216 32.7451 3.78078 33.8118 2.80678C34.4562 2.2124 35.3262 1.92454 36.1979 2.01699C38.1092 2.2007 38.8096 3.55348 38.528 5.30049C38.2991 6.25227 37.9803 7.4244 37.8107 8.36991C37.6072 8.5375 36.8305 9.17802 36.7287 9.39226C36.3692 10.151 35.8943 11.6646 34.8141 11.6327C34.0492 11.6103 33.0656 10.7883 32.5857 10.1971C32.3008 9.84602 32.2618 9.33102 32.3296 8.87761C32.411 8.32733 32.8214 7.6841 32.8604 7.19812Z" fill="#F7F2E6"/>
<path d="M32.861 7.19812C32.264 5.91216 32.7456 3.78078 33.8123 2.80678C34.4568 2.2124 35.3268 1.92454 36.1984 2.01699C38.1097 2.2007 38.8101 3.55348 38.5286 5.30049L38.1385 5.0474C37.2329 5.0686 36.8089 5.07522 35.9203 4.95088L34.5484 6.17322C34.2668 6.05058 34.1566 5.85653 33.9633 5.61328L33.7258 5.68588C33.3324 6.91535 34.5195 6.70857 33.1917 7.91819C33.0204 7.6478 32.9831 7.14672 32.9339 6.80628L32.861 7.19812Z" fill="#9C4517"/>
<path d="M38.138 5.04736L38.528 5.30045C38.2991 6.25223 37.9803 7.42437 37.8107 8.36988C37.6072 8.53747 36.8305 9.17798 36.7287 9.39222C36.3692 10.151 35.8943 11.6646 34.8141 11.6327C34.0492 11.6103 33.0656 10.7883 32.5857 10.1971C32.3008 9.84598 32.2618 9.33099 32.3296 8.87757C32.411 8.3273 32.8214 7.68407 32.8604 7.19808L32.9334 6.80624C32.9825 7.14668 33.0199 7.64777 33.1911 7.91816C33.0589 8.33476 32.7366 8.87808 32.5196 9.27654C33.2573 9.9537 34.0221 10.8434 34.9989 10.9165C35.5738 10.5783 35.3737 10.7474 35.7349 10.0358C35.6552 9.74132 33.9899 8.42772 33.4794 7.6303C37.0102 10.0282 37.2426 8.51321 38.138 5.04736Z" fill="#9D3005"/>
<path d="M13.4739 25.7643C10.2603 25.8836 9.04432 24.4826 6.58362 22.6672C5.53896 21.8971 5.98665 21.8778 4.68083 21.7731L4.54688 21.5999L4.68083 21.4081C6.6667 21.1423 7.76054 18.3758 7.93013 16.6152L8.13195 16.6224C9.11216 18.1745 7.45529 20.3693 6.58362 21.5441C7.76733 22.623 9.39705 23.7939 10.8131 24.5433C11.9476 25.1431 12.8956 25.0071 14.1404 25.1976C15.4327 23.3934 14.8272 23.7328 15.4666 22.0086L14.6068 22.4092C15.2648 21.83 15.336 21.7093 15.5446 20.8515C17.6017 20.1584 18.8227 19.9242 20.1014 17.9952L20.159 17.7451C21.4767 19.3946 15.0375 24.0331 14.6848 25.9864C14.6848 25.9864 15.2495 26.9704 15.3258 27.104L14.8611 27.4004C14.5508 26.9595 13.8521 26.2009 13.4739 25.7643Z" fill="#9C4517"/>
<path d="M15.4688 22.0085C15.9911 21.5246 16.1895 21.4688 16.8254 21.2065L17.1646 21.2328L17.0849 21.4199C16.722 21.8123 16.3692 22.2131 16.025 22.6221L15.7401 22.627L15.4688 22.0085Z" fill="#EFEBE7"/>
<path d="M42.5169 19.9389C42.3643 19.7619 41.8097 19.1106 41.613 19.1048C39.427 19.0392 33.9426 18.8624 32.2501 17.3615C32.3892 17.0107 32.5927 17.0331 33.0624 16.8168C34.0681 15.224 31.4887 11.8981 31.4141 11.4015L31.5718 11.2905C33.8544 11.883 33.8358 15.538 33.8425 17.3671C34.6583 17.5215 37.9889 18.4227 38.5062 18.3128C40.5904 17.8689 41.7368 17.8416 43.9075 17.8777L44.0262 18.1276C43.3801 18.4232 43.0562 18.5225 42.7747 19.1279L43.0341 19.6868L42.5169 19.9389Z" fill="#983403"/>
<path d="M3.90216 25.4201C2.95417 24.2887 0.164478 24.7005 1.24475 21.304C1.92479 19.1664 4.16673 13.3544 7.07006 14.2528L7.11245 14.4402C6.8886 14.5193 6.6427 14.6251 6.41545 14.6928C4.35158 15.3051 1.29731 21.1823 1.77046 23.0351C3.20517 25.0857 3.81399 23.343 5.01636 22.5659L5.29109 22.7243C5.37758 23.5869 4.43977 23.2678 4.30071 24.4785C4.5093 24.9338 4.75349 24.9913 5.21816 25.2245L5.39623 25.313L5.27921 25.321C4.80097 25.3505 4.69414 25.3439 4.22778 25.2557L3.90216 25.4201Z" fill="#9C4517"/>
<path d="M4.80859 32.9527C7.70853 32.3982 12.9403 32.5958 15.9963 32.7849L16.4389 33.0764L16.3456 33.3288C14.5259 33.8616 6.88434 33.3997 4.80859 32.9527Z" fill="#9D3005"/>
<path d="M11.3632 34.3336C12.7827 34.2176 15.3672 34.0318 16.656 34.5438L16.634 34.7765C15.6555 35.1768 14.755 35.1509 13.7035 35.1974C12.2671 35.2518 9.99465 35.4231 8.67188 34.9343L8.69053 34.6912C9.54016 34.2963 10.4271 34.3509 11.3632 34.3336Z" fill="#9D3005"/>
<path d="M14.6082 22.4093C14.3742 22.2763 14.4794 22.3399 14.3233 22.0331C15.2883 19.8288 12.1781 16.6855 12.5461 15.1843L12.7547 15.2447C13.8722 16.1934 14.5421 19.0686 15.4443 20.6721L15.5461 20.8516C15.3375 21.7094 15.2662 21.83 14.6082 22.4093Z" fill="#9D3005"/>
<path d="M12.3329 16.7017C13.0587 17.1335 12.9333 18.7467 12.8977 19.5026C12.8078 21.3754 12.7111 22.6634 13.1859 24.503C11.1712 23.2281 12.2447 18.8783 12.3329 16.7017Z" fill="#8C2102"/>
<path d="M45.9206 28.0222C47.1077 27.9676 49.7533 27.8361 50.3435 28.9808C50.1654 29.5994 50.2163 29.4076 49.5956 29.889C49.0868 29.6198 48.21 29.1514 47.6877 28.9888C47.0467 28.7896 45.7493 28.7806 45.1914 28.4634C45.4051 28.0774 45.3474 28.2 45.9206 28.0222Z" fill="#8C2102"/>
<path d="M57.5586 23.8914L58.0368 24.0491C58.4744 24.9529 59.229 28.8867 58.7677 29.5999C58.1013 28.6459 57.5772 25.131 57.5586 23.8914Z" fill="#8C2102"/>
<path d="M37.7461 11.2903C38.8688 12.5742 38.5754 16.1769 38.516 17.8284C37.8003 17.0916 37.7766 12.5776 37.7461 11.2903Z" fill="#8C2102"/>
<path d="M25.1367 37.5399C25.8083 37.5755 26.5307 37.6668 27.1615 37.4619L27.3939 37.1939C27.2565 36.9447 27.1548 36.7649 26.9987 36.5237C27.538 36.4163 27.2769 36.3975 27.8077 36.6134C28.1401 37.1474 28.0655 36.9036 28.0807 37.5407C27.3634 38.7692 25.7574 38.3176 24.5312 38.289C24.6737 38.1613 25.001 37.7158 25.1367 37.5399Z" fill="#9D3005"/>
<path d="M10.3262 20.5854C10.7111 20.7927 10.6925 20.8161 10.9045 21.1824C10.918 21.8553 10.4839 22.4731 10.1498 23.0973C9.56814 22.6787 9.60034 22.8305 9.34766 22.2638C9.38327 21.609 9.89034 21.1335 10.3262 20.5854Z" fill="#9C4517"/>
<path d="M35.5766 31.9082C35 32.0551 33.5246 32.4909 33.1719 31.9101C33.7705 31.1858 34.8796 31.1788 35.8089 31.0601L35.9497 31.6108L35.5766 31.9082Z" fill="#983403"/>
<path d="M31.4589 27.5014C32.0151 27.3962 32.0423 27.38 32.5799 27.5119L32.5629 27.6922C31.8133 28.2447 31.4538 28.2842 30.5381 28.5012C29.9903 28.5253 29.9089 28.5327 29.3984 28.3404V28.1429C30.1039 27.678 30.6279 27.6456 31.4589 27.5014Z" fill="#9C4517"/>
<path d="M36.3665 15.4053C36.8498 15.7014 36.9057 15.7416 37.0143 16.2539C36.5496 16.8208 36.6615 16.6624 35.9187 16.9572C35.3693 16.7599 35.1556 16.6972 34.9453 16.2571C35.2557 15.7598 35.7899 15.6378 36.3665 15.4053Z" fill="#9C4517"/>
<path d="M3.00299 29.6021C3.23024 29.7128 4.68699 31.2912 4.86336 31.5299C4.0256 31.5497 3.41168 31.5898 2.90122 30.8256C2.7452 30.2524 2.79101 30.1649 3.00299 29.6021Z" fill="#983403"/>
<path d="M2.25012 31.8499C3.08109 32.0634 4.08505 32.3469 4.3513 33.1981C3.68822 33.2591 3.12349 33.2152 2.5452 32.8848C2.14328 32.328 2.23485 32.5955 2.25012 31.8499Z" fill="#9D3005"/>
</svg>
