<svg width="60" height="42" viewBox="0 0 60 42" fill="none" xmlns="http://www.w3.org/2000/svg">
<path d="M44.0489 7.07856C44.0558 6.09974 43.7972 3.83824 44.2327 3.178C44.6647 2.91282 45.0131 2.78459 45.5276 2.90701C47.3745 3.34656 46.7542 5.40518 46.3398 6.66263C46.2496 6.62739 49.5768 6.97412 49.5569 6.97685C51.2227 6.76234 51.6404 5.28403 51.3894 3.80718L50.6462 3.5073L50.7829 3.29933L51.7728 3.31549L52.2658 3.36018L52.5349 7.08601C53.9353 7.14468 55.9284 7.00191 56.9401 7.87884C57.4983 9.13573 57.0374 9.90259 55.7427 10.2339C56.1267 11.5798 55.6312 12.9497 56.1747 13.5523C56.716 13.7274 58.2731 14.1228 58.4062 14.7175C58.8939 16.8951 59.1509 24.9084 57.7483 26.5082C57.1723 26.6571 57.4176 26.6727 56.8293 26.3843C56.158 25.4696 56.1024 23.5174 56.2168 22.4418C56.3357 21.3222 56.0768 16.0668 56.4846 15.387L56.7581 15.3944C57.5998 16.7719 56.2747 24.2434 57.2184 25.414L57.5562 25.3626C58.2417 24.3527 58.0002 17.375 57.941 15.8033C57.9115 15.0184 57.0243 14.4999 56.2482 14.5847C54.5073 16.204 56.5622 23.3645 54.7719 25.3276C54.0138 25.7771 49.5696 25.853 48.674 25.6734L48.5596 25.408C49.2091 24.7267 53.887 24.7836 54.9731 24.7941C54.9003 22.5086 54.9607 20.1234 54.8705 17.9064C54.2184 18.1491 51.8519 19.0064 51.5291 19.3459C50.6725 20.2468 43.7331 26.0635 43.6396 26.486L43.8688 26.6856C44.1664 26.6622 44.9561 26.5747 45.1633 26.4097C47.0469 24.9113 49.658 22.3203 51.2936 20.646C51.1565 21.002 51.0273 21.328 50.875 21.678L50.9672 21.7712C49.8247 23.3218 46.4773 26.6602 44.7121 27.4521C44.924 28.521 45.3558 32.5553 44.4344 33.1886C43.8662 31.9902 44.1626 29.0892 44.2303 27.6926C42.3293 27.9741 41.0877 27.8988 39.2317 27.6298C39.2991 28.5141 39.4026 29.3589 39.5092 30.2391C40.484 30.3012 42.3816 30.3252 43.153 30.7364L43.0458 30.9369C41.9369 31.2228 35.4906 31.361 34.3722 31.0337L34.3661 30.8492C35.0948 30.3833 35.8891 30.4038 36.7598 30.3325C36.9014 29.3066 36.9581 28.3488 37.0252 27.3188C35.4242 26.6758 32.2894 25.7479 32.5155 23.6369C33.5656 21.9804 34.4038 22.9349 35.0944 22.3315C36.8088 20.8332 37.0719 20.2778 39.1673 19.1108C39.1658 16.2962 39.0064 13.3124 38.9348 10.4798L38.7674 10.2615C38.1673 10.2431 37.3222 10.314 36.7038 10.3469C36.5637 10.2017 35.6181 8.82223 35.4302 8.55832C36.1992 7.3372 42.5661 7.14685 44.0489 7.07856Z" fill="#EFEBE7"/>
<path d="M38.9029 9.79679C43.725 8.21387 51.0931 9.28132 56.0759 9.33418L55.5923 9.59936C55.5376 10.0651 55.4828 9.86182 55.7427 10.2338C56.1267 11.5797 55.6312 12.9496 56.1747 13.5522C56.716 13.7273 58.2731 14.1227 58.4062 14.7174C58.8939 16.895 59.1509 24.9083 57.7483 26.5081C57.1723 26.657 57.4176 26.6727 56.8293 26.3842C56.158 25.4695 56.1024 23.5173 56.2168 22.4417C56.3357 21.3221 56.0768 16.0668 56.4846 15.3869L56.7581 15.3944C57.5998 16.7719 56.2747 24.2433 57.2184 25.4139L57.5562 25.3625C58.2417 24.3527 58.0002 17.3749 57.941 15.8032C57.9115 15.0184 57.0243 14.4998 56.2482 14.5846C54.5073 16.2039 56.5622 23.3644 54.7719 25.3275C54.0138 25.777 49.5696 25.8529 48.674 25.6733L48.5596 25.4079C49.2091 24.7266 53.887 24.7835 54.9731 24.794C54.9003 22.5085 54.9607 20.1233 54.8705 17.9063C54.2184 18.149 51.8519 19.0063 51.5291 19.3458C50.6725 20.2467 43.7331 26.0635 43.6396 26.4859L43.8688 26.6855C44.1664 26.6621 44.9561 26.5746 45.1633 26.4097C47.0469 24.9112 49.658 22.3202 51.2936 20.6459C51.1565 21.0019 51.0273 21.3279 50.875 21.6779L50.9672 21.7711C49.8247 23.3217 46.4773 26.6601 44.7121 27.452C44.924 28.521 45.3558 32.5552 44.4344 33.1886C43.8662 31.9901 44.1626 29.0891 44.2303 27.6925C42.3293 27.9741 41.0877 27.8987 39.2317 27.6297C39.2991 28.514 39.4026 29.3588 39.5092 30.239C40.484 30.3011 42.3816 30.3251 43.153 30.7363L43.0458 30.9368C41.9369 31.2227 35.4906 31.361 34.3722 31.0337L34.3661 30.8491C35.0948 30.3832 35.8891 30.4038 36.7598 30.3324C36.9014 29.3065 36.9581 28.3488 37.0252 27.3187C35.4242 26.6757 32.2894 25.7478 32.5155 23.6368C33.5656 21.9804 34.4038 22.9348 35.0944 22.3314C36.8088 20.8332 37.0719 20.2777 39.1673 19.1107C39.1658 16.2962 39.0064 13.3123 38.9348 10.4797L39.1842 10.6198C39.511 11.1661 39.5226 12.0543 39.5924 12.7256C41.9541 12.492 52.8136 11.9232 54.5168 12.7836C52.9464 13.3257 42.3222 13.2077 39.7184 13.2992C39.7099 16.593 39.8884 19.9566 39.9214 23.2761C41.886 23.2805 43.7099 23.5217 45.7557 23.507C49.8054 19.9746 49.5514 18.9564 54.7819 17.2352C55.0461 14.9016 55.0621 12.0242 55.4416 9.91268C52.2355 9.7463 49.0248 9.68818 45.8147 9.73813C43.6767 9.773 40.9668 10.0008 38.9029 9.79679Z" fill="#9D3005"/>
<path d="M38.5131 20.177C38.8253 20.2082 38.7579 20.2171 39.0581 20.3592C39.3179 21.3325 39.6065 22.345 38.7345 23.0221C38.1151 22.9796 38.3161 23.0719 37.8316 22.7458C37.8867 22.2868 38.5418 21.7387 38.9012 21.3698L38.8723 21.1723L38.4768 21.1435C37.753 21.4822 36.6143 22.2727 36.8176 23.1852C38.5998 23.6378 42.7725 24.2461 44.5775 24.3342C43.8161 24.8528 43.5155 25.1303 42.8417 25.7617C39.7169 25.5949 38.0288 25.3512 35.068 24.2937L34.7713 24.4868L34.7474 24.7391C36.4013 26.1175 40.8881 26.2517 43.122 26.6971L43.1941 26.915C41.9991 27.7914 35.4045 26.3135 34.0949 25.2936C33.4592 24.7985 33.4161 24.6443 33.3789 23.9499C33.6794 23.3187 33.5026 23.4631 34.0337 23.157C34.3539 23.2025 35.1694 23.3363 35.3835 23.1207C36.6529 21.8422 36.9736 21.1555 38.5131 20.177Z" fill="#EFEBE7"/>
<path d="M37.6141 27.3794L38.2059 27.4966C38.698 27.9844 39.0075 30.0078 38.6185 30.5967C38.0102 30.5569 38.039 30.653 37.6094 30.3605C37.3979 29.6324 37.5925 28.2779 37.6141 27.3794Z" fill="#EFEBE7"/>
<path d="M44.0523 7.07856C44.0592 6.09974 43.8006 3.83824 44.2361 3.178C44.6681 2.91282 45.0166 2.78459 45.531 2.90701C47.3779 3.34656 46.7576 5.40518 46.3433 6.66263C46.253 6.62739 49.5802 6.97412 49.5603 6.97685C51.2262 6.76234 51.6438 5.28403 51.3929 3.80718L50.6496 3.5073L50.7863 3.29933L51.7762 3.31549L52.2692 3.36018L52.5383 7.08601C53.9387 7.14468 55.9318 7.00191 56.9435 7.87884C57.5017 9.13573 57.0408 9.90259 55.7461 10.2339C55.4862 9.8619 55.5411 10.0652 55.5957 9.59945L56.0793 9.33426C56.439 8.7178 56.4801 8.8809 56.3551 8.37033C54.4112 7.46653 38.1108 7.38552 36.8583 9.09123C36.9422 9.46594 36.9195 9.54986 37.1945 9.81522L36.7073 10.3469C36.5671 10.2017 35.6215 8.82223 35.4336 8.55832C36.2026 7.3372 42.5695 7.14685 44.0523 7.07856Z" fill="#9C4517"/>
<path d="M46.3431 6.66262C46.2529 6.62738 49.5801 6.97411 49.5601 6.97684C51.226 6.76233 51.6437 5.28402 51.3927 3.80717L50.6495 3.50729L50.7862 3.29932L51.776 3.31548C51.6418 4.57474 51.5204 5.74428 51.3079 6.99718C49.2008 7.03223 46.806 7.12504 44.7226 7.03804C44.7166 6.26302 44.541 4.15917 44.9111 3.7316C45.6449 3.78319 45.4755 3.66695 45.9899 4.04365C46.3564 5.0766 45.8047 5.62386 46.3431 6.66262Z" fill="#EFEBE7"/>
<path d="M37.1903 9.81522C37.772 9.66574 38.2969 9.43979 38.819 9.65012C38.8949 10.0855 38.9281 9.88987 38.7667 10.2615C38.1665 10.2431 37.3214 10.314 36.7031 10.3469L37.1903 9.81522Z" fill="#9D3005"/>
<path d="M41.386 14.1082C42.3698 14.1159 45.7261 13.9544 46.3519 14.1738C47.066 14.8491 47.2462 16.1957 46.7835 17.0129C46.3829 16.7205 46.0399 15.19 45.4159 14.4119L44.7472 14.5249C44.4181 15.1922 44.4361 15.5682 44.3865 16.2956C44.4201 16.9308 44.1926 17.0647 43.7303 17.3602L43.4853 17.1197C43.3324 16.3073 43.3767 16.1483 43.6233 15.3742L43.6898 15.1701L43.518 14.9105C42.8374 14.6408 42.2461 14.7145 41.5202 14.7401C41.4806 15.5304 41.4909 16.7321 41.1995 17.4136L40.9943 17.3217C40.5864 16.2797 40.5403 14.943 41.386 14.1082Z" fill="#9D3005"/>
<path d="M48.5035 14.1318C51.2736 14.002 54.7696 13.078 53.9699 17.0558L53.7807 17.1506C53.3755 16.5911 53.4335 16.0726 53.397 15.3613C53.3799 15.0086 53.4242 15.1828 53.1509 14.866C52.1117 14.686 50.1478 14.7568 49.0274 14.763C49.0002 15.52 49.1164 16.2288 48.7131 16.8107L48.4739 16.6592C48.1721 15.8141 48.3739 15.0278 48.5035 14.1318Z" fill="#9D3005"/>
<path d="M47.6847 17.7161C47.6664 18.5216 43.3764 22.2211 42.5207 22.8116C42.4383 21.7984 46.7031 18.0439 47.6847 17.7161Z" fill="#9C4517"/>
<path d="M49.7505 17.4426L49.961 17.524L49.9946 17.8068C49.2005 18.9157 46.0585 21.711 44.9323 22.7692C44.8573 22.7641 44.7503 22.6849 44.6719 22.6391C44.8335 21.9061 48.8709 18.3074 49.7505 17.4426Z" fill="#9D3005"/>
<path d="M44.5244 18.0078L44.7481 18.332C44.4016 19.1147 41.6698 21.6712 40.9464 22.3806L40.7539 22.1042C40.8414 21.2587 43.7872 18.666 44.5244 18.0078Z" fill="#9D3005"/>
<path d="M42.784 17.6846C42.7636 18.5922 41.6574 19.4491 40.9606 20.139L40.8789 19.8887C41.0663 18.8763 41.9708 18.3152 42.784 17.6846Z" fill="#9D3005"/>
<path d="M25.7166 12.5125C27.3694 12.6394 26.9569 14.1633 28.1998 14.8746C28.9792 14.8339 29.1165 14.4018 29.5668 13.7525L29.8913 13.7723C30.2981 14.3144 30.4176 14.4448 30.6393 15.0787C29.261 18.8078 31.1049 17.8534 27.6538 19.212L27.1043 18.9112L26.4933 18.4484C25.2434 19.5298 18.4714 25.3666 18.1062 26.1847C17.8212 25.6558 17.4184 25.2958 16.9991 24.8611L16.6252 25.0397C16.3169 24.7581 15.8669 24.4701 15.5164 24.2254L15.3285 24.0247L14.844 24.0162L14.7131 23.808C14.2582 20.0796 14.3635 19.5409 14.4175 15.8387L14.6568 15.6066L14.9666 15.3902C14.6517 14.8553 14.4274 14.6121 14.4745 14.0046L14.5671 13.9372C16.6121 15.2538 16.4187 18.8467 18.127 20.4489C18.2317 20.5472 19.0349 20.4389 19.2597 20.3993C19.618 20.0873 20.63 19.8491 21.1809 19.5431C22.7912 18.6489 23.7767 17.7734 25.0745 16.5222C24.8083 15.7544 24.5499 14.7318 24.3244 13.9306L25.7166 12.5125Z" fill="#9C3B07"/>
<path d="M25.7175 12.5125C27.3703 12.6394 26.9578 14.1633 28.2007 14.8746C28.9801 14.8339 29.1174 14.4018 29.5677 13.7525L29.8922 13.7723C30.299 14.3144 30.4185 14.4448 30.6402 15.0787C29.2619 18.8078 31.1058 17.8534 27.6547 19.212L27.1052 18.9112L26.4942 18.4484C25.2443 19.5298 18.4723 25.3666 18.1071 26.1847C17.822 25.6558 17.4193 25.2958 17 24.8611C18.5479 22.7624 24.2574 18.7374 26.4279 16.2821C25.9091 15.596 25.2278 14.8508 25.2343 14.0077C25.4814 13.5612 25.557 13.5645 26.0495 13.3427L25.7175 12.5125Z" fill="#EFEBE7"/>
<path d="M25.7188 12.5125C27.3716 12.6394 26.959 14.1633 28.202 14.8746C28.9813 14.8339 29.1186 14.4018 29.569 13.7525L29.8935 13.7723C30.3002 14.3144 30.4197 14.4448 30.6414 15.0787C29.2632 18.8078 31.107 17.8534 27.6559 19.212L27.1064 18.9112L26.4954 18.4484C27.3569 18.1574 28.3926 18.369 29.1408 17.9295C29.5958 17.6619 29.8577 16.9094 29.5227 16.4304C28.9953 16.2339 28.3347 16.4339 27.7451 16.5387C27.31 16.2423 26.3634 14.0033 26.0507 13.3427L25.7188 12.5125Z" fill="#9D3005"/>
<path d="M14.9671 15.3903C14.6522 14.8554 14.428 14.6122 14.475 14.0046L14.5676 13.9373C16.6126 15.2539 16.4193 18.8468 18.1275 20.449C18.2322 20.5472 19.0354 20.439 19.2602 20.3994L19.6751 20.7883L19.6141 21.016C18.9827 21.6601 17.0908 23.678 16.3159 23.8559C14.1029 22.85 15.8329 18.1497 14.7343 15.7705L14.6573 15.6066L14.9671 15.3903Z" fill="#EFEBE7"/>
<path d="M14.9671 15.3903C14.6522 14.8554 14.428 14.6122 14.475 14.0046L14.5676 13.9373C16.6126 15.2539 16.4193 18.8468 18.1275 20.449C18.2322 20.5472 19.0354 20.439 19.2602 20.3994L19.6751 20.7883C18.8504 21.0231 17.6722 21.6646 17.0161 21.6358L16.8641 21.4024C16.9048 21.3036 16.9437 21.204 16.9807 21.1039C17.2787 20.2835 15.3876 16.2972 14.9671 15.3903Z" fill="#983403"/>
<path d="M18.1049 26.1848C18.4701 25.3667 25.2421 19.5299 26.4919 18.4485L27.103 18.9113L27.6525 19.2121C27.4656 19.9506 27.2179 20.1994 26.7629 20.7895C23.5442 22.0768 23.0719 22.52 20.4826 24.8835C22.0799 24.9805 24.5061 24.933 25.8173 25.8427C26.7827 26.5126 27.1558 28.0805 28.2007 28.8584C28.6866 28.8188 28.8513 28.8066 29.334 28.8477L29.5606 29.1508C29.3654 29.6187 29.0903 30.003 29.3045 30.4555C30.3423 32.6471 34.8864 34.329 34.5804 36.5309C34.2525 37.0431 34.2378 37.1485 33.7024 37.3501C32.5437 37.2811 32.4883 36.7852 31.62 36.8996L30.997 37.7769C30.5328 38.4217 29.637 38.6706 28.8649 38.6942L28.7262 38.1457L28.4716 38.5089C28.839 37.6425 29.647 37.5681 30.5088 37.2992C30.7738 36.6744 31.0636 35.9388 31.3471 35.3358C32.2176 36.0478 32.5272 36.5455 33.6757 36.3947L33.8148 36.155C33.1333 34.8381 31.4418 34.3121 30.2319 32.9395C29.2419 32.3187 28.2753 30.8124 27.8544 30.6923C27.3628 31.2336 25.7385 31.9491 24.9584 32.0946C22.9083 32.4769 22.6009 30.1267 21.2072 29.131C20.2231 28.4281 19.4272 29.4807 18.2041 29.8267C17.5645 29.6171 17.7864 29.7322 17.3255 29.1C15.7946 29.5323 14.1862 31.1987 13.3398 28.5422C15.7443 30.708 17.7187 28.9131 18.3915 26.368L18.1049 26.1848Z" fill="#9C4517"/>
<path d="M18.3915 26.368L19.6766 25.5864C24.5435 25.7648 24.8271 25.3122 27.4158 29.3789C26.582 29.8753 24.9677 31.2434 24.4213 30.8876C21.8932 29.2411 22.1912 26.2443 17.7784 28.5093L17.5794 28.8042C17.7484 29.0999 17.6804 29.1261 17.952 29.1829C18.6911 29.3381 20.3579 28.4283 21.0348 28.6144C22.4877 29.0138 23.1146 32.2369 24.9973 31.7674C25.98 31.5222 27.1747 30.6122 28.1451 30.2075C28.7832 31.0182 29.6852 32.0972 30.2319 32.9395C29.2419 32.3186 28.2753 30.8124 27.8544 30.6923C27.3628 31.2336 25.7385 31.949 24.9584 32.0945C22.9083 32.4769 22.6009 30.1267 21.2072 29.131C20.2231 28.4281 19.4272 29.4806 18.2041 29.8266C17.5645 29.617 17.7864 29.7322 17.3255 29.0999C15.7946 29.5322 14.1862 31.1987 13.3398 28.5421C15.7443 30.7079 17.7187 28.913 18.3915 26.368Z" fill="#EFEBE7"/>
<path d="M27.106 18.9111C26.7348 20.0055 26.3852 20.2609 25.3242 20.6359C25.729 19.893 26.3506 19.2915 27.106 18.9111Z" fill="#EFEBE7"/>
<path d="M10.6968 10.0529C10.1023 8.97549 10.5437 7.03438 11.2116 5.98654C12.7741 3.52414 15.9418 3.7412 18.0929 5.23494C18.6168 5.59857 19.1374 7.14119 19.1479 7.61325C18.756 7.95272 18.5759 7.95708 18.0673 8.04626C17.5223 9.01127 17.0678 10.5395 16.7903 11.6304C16.2628 12.0827 15.2261 13.2295 14.6705 13.2344C12.815 13.2506 13.6774 14.4059 12.4989 15.1481C11.8361 15.2168 11.5669 15.0902 11.0024 14.6328C10.1654 13.964 9.48921 13.116 9.02344 12.1512C9.11514 11.5401 10.2858 10.7702 10.6968 10.0529Z" fill="#9C4517"/>
<path d="M15.309 6.95801C16.0973 7.39247 16.638 7.68436 17.4673 8.03073C16.893 9.43911 16.0123 11.8339 14.5423 12.4784C12.9029 12.4475 13.0665 11.3172 11.9774 11.1597C11.6852 12.5532 13.3616 12.7176 12.5078 14.1808L12.1335 14.3926C11.2227 14.0562 10.2623 12.881 9.60547 12.1422C10.2281 11.4776 10.6968 10.9966 11.2202 10.253L12.1078 9.62437C12.3189 9.11253 12.2843 9.00228 12.2781 8.42541L12.275 8.24796L12.5937 8.00584C13.0664 8.48336 12.8463 8.38746 13.4515 8.52169C14.1521 8.34459 14.794 7.51435 15.309 6.95801Z" fill="#EFEBE7"/>
<path d="M4.64702 24.915C3.62958 24.5957 1.59452 24.0973 1.13746 23.016C0.0936883 20.5466 5.24154 11.1925 8.21941 12.4668C7.6681 13.106 6.58402 13.2691 6.16582 13.6509C4.61978 15.0614 1.28255 20.7233 1.81823 22.6673C2.60905 23.6583 4.74616 24.0572 6.01819 24.4121L5.39643 25.2171C5.29856 28.1693 6.22012 26.9046 6.93703 28.8268L6.62687 29.1712C6.884 29.5688 7.29839 30.1648 7.51575 30.56L7.48651 29.8155C7.72675 30.3426 7.90072 30.9496 8.54227 31.0836C11.4724 31.6961 15.7261 31.1981 18.6333 30.9717C19.69 32.2125 19.5943 32.2039 20.8817 33.0921C22.3001 34.0706 25.351 34.5708 25.9869 35.243C25.6797 35.4864 17.9705 36.5653 15.9671 37.6115C18.4604 38.2182 20.6337 38.6105 23.2039 38.5723C23.7646 38.5651 25.7585 38.4779 26.1182 38.7467C25.98 40.1762 16.8122 39.5041 15.3989 37.795C15.2209 36.8468 15.5585 36.7397 16.2954 36.2384L18.5627 35.7825C20.1243 35.5918 20.8761 35.4101 22.3461 34.8779C21.5413 34.5772 20.5756 34.0995 19.7786 33.7309C18.6072 34.0026 15.3168 34.3841 14.2352 34.0255L14.1494 33.7068C15.163 32.7225 18.015 33.5413 19.0105 33.0222C18.8612 32.6288 18.4681 31.9402 17.9738 31.9533C14.9102 32.0021 11.8337 32.3291 8.76235 32.1838C4.16889 31.9665 4.40078 28.268 4.64702 24.915Z" fill="#9C3A05"/>
<path d="M7.51553 30.56C7.24042 30.7266 7.34702 30.6693 6.99056 30.6924C6.20355 30.2138 5.60503 29.2701 5.77518 28.3408C6.30251 28.535 6.22116 28.6187 6.62665 29.1712C6.88378 29.5688 7.29817 30.1648 7.51553 30.56Z" fill="#EFEBE7"/>
<path d="M46.1617 27.258C48.6345 26.6327 53.0333 26.2963 55.6324 26.2605C56.1002 28.1393 55.6277 32.0965 57.4379 32.4293C58.0955 32.1716 58.3982 32.0626 58.4147 31.3259C58.1579 31.1186 58.0475 31.1041 57.7396 31.0048L57.6324 30.971C57.4476 30.4154 57.3693 28.5674 57.6484 28.0796C58.0842 28.6241 58.082 29.5628 58.1556 30.3036C58.6313 30.7753 58.7928 30.8705 58.9996 31.5017C58.9535 32.974 57.4879 33.7527 56.3985 32.7061C55.3337 31.6831 55.4303 29.9952 55.3696 28.6096C55.2807 28.0461 55.3302 27.6071 54.9761 27.3325C53.2274 27.2014 48.7687 27.5977 46.934 28.271C46.6968 28.358 46.6182 29.3463 46.6438 29.6685C46.7992 31.6127 46.8397 32.8757 48.5899 33.9797L48.7531 34.4182C48.2864 34.9707 46.8276 34.8981 46.3244 34.5787C45.705 34.6129 45.0852 34.6419 44.4653 34.6656C43.7028 34.6946 41.7443 34.8635 41.1836 34.3437C41.3432 33.8831 41.3537 34.0061 41.9201 33.6864C42.8397 33.5376 45.2737 33.6887 46.5343 33.6145L46.3587 33.4081C45.626 31.5317 45.8702 29.2091 46.1617 27.258Z" fill="#9D3005"/>
<path d="M46.5563 27.7233C48.0881 27.6327 54.1136 26.8204 55.1964 27.0595C55.5026 27.5642 55.4009 27.9976 55.3696 28.6093C55.2807 28.0459 55.3302 27.6069 54.9761 27.3323C53.2274 27.2011 48.7687 27.5975 46.934 28.2708C46.6968 28.3578 46.6182 29.346 46.6438 29.6682C46.7992 31.6124 46.8397 32.8755 48.5899 33.9795L48.7531 34.4179C48.2864 34.9705 46.8276 34.8978 46.3244 34.5785C45.705 34.6127 45.0852 34.6417 44.4653 34.6653C43.7028 34.6944 41.7443 34.8633 41.1836 34.3435C41.3432 33.8829 41.3537 34.0058 41.9201 33.6861C42.8397 33.5374 45.2737 33.6885 46.5343 33.6142L46.3587 33.4079L47.1103 33.2844L47.1524 33.1282C46.4348 31.8511 46.5394 29.1862 46.5563 27.7233Z" fill="#EFEBE7"/>
<path d="M41.9201 33.6863C43.1328 33.8267 44.8976 34.0608 46.0867 34.0399C47.087 33.8465 47.5951 33.8717 48.5899 33.9796L48.7531 34.4181C48.2864 34.9706 46.8276 34.898 46.3244 34.5786C45.705 34.6128 45.0852 34.6418 44.4653 34.6655C43.7028 34.6945 41.7443 34.8634 41.1836 34.3436C41.3432 33.883 41.3537 34.006 41.9201 33.6863Z" fill="#9D3005"/>
<path d="M16.9996 24.8611C17.4188 25.2957 17.8216 25.6557 18.1067 26.1846L18.3933 26.3679C17.7205 28.913 15.7461 30.7078 13.3416 28.5421C13.1305 27.8542 12.7535 27.3769 12.3533 26.776C11.101 26.3746 8.54135 25.9596 7.05469 25.6063C7.2755 25.2449 7.63396 25.1897 8.0547 25.0387C10.1123 25.4628 11.9499 25.665 13.7032 26.8196C14.2303 27.1564 15.1897 27.7287 15.6119 28.1345L15.9867 28.3114C17.1156 26.739 17.6106 26.7977 16.6257 25.0396L16.9996 24.8611Z" fill="#983403"/>
<path d="M13.7013 26.8196C14.2284 27.1563 15.1878 27.7287 15.6099 28.1344C15.081 28.1337 14.552 28.142 14.0232 28.1597L13.6328 27.6742C13.6806 27.3865 13.7036 27.1113 13.7013 26.8196Z" fill="#9C4517"/>
<path d="M15.6102 28.1346L15.985 28.3115L15.2038 28.6965C14.4493 28.6455 14.74 28.7236 14.0234 28.1598C14.5522 28.1422 15.0812 28.1338 15.6102 28.1346Z" fill="#EFEBE7"/>
<path d="M15.5156 24.2255C12.7066 25.1098 8.38774 22.2206 5.73438 20.913C5.91633 20.2457 6.48633 20.7992 7.13896 19.936C8.20307 18.5282 8.92833 17.3599 9.0391 15.6112L9.04781 15.4495L9.22832 15.4199C10.3387 17.3512 8.70335 19.393 7.6692 20.9145C10.2447 22.3959 11.7744 23.5903 14.7123 23.8081L14.8432 24.0162L15.3277 24.0248L15.5156 24.2255Z" fill="#9C4517"/>
<path d="M51.2936 20.6459C51.5578 19.8865 52.7708 19.3085 53.5282 19.3728C54.8193 20.3754 54.7365 23.2745 52.7708 23.2754C51.277 23.2759 51.2714 22.9944 50.9672 21.7711L50.875 21.6779C51.0274 21.3279 51.1565 21.0019 51.2936 20.6459Z" fill="#983403"/>
<path d="M53.1188 20.1807L53.4218 20.4433C53.7276 21.5781 53.6577 22.2133 52.5809 22.731C51.8669 22.1961 51.8653 22.0133 51.9541 21.1976C52.3174 20.5568 52.4509 20.515 53.1188 20.1807Z" fill="#EFEBE7"/>
<path d="M17.9021 34.9759C18.2139 35.5771 18.0547 35.4754 18.5611 35.7824L16.2938 36.2383C15.8565 35.9767 14.6624 36.0948 13.9141 36.0385C12.7724 36.0712 10.4999 36.231 9.55868 35.7315L9.54688 35.5263C10.8412 34.9069 16.3029 34.8778 17.9021 34.9759Z" fill="#983403"/>
<path d="M17.9021 34.9761C18.2139 35.5773 18.0546 35.4756 18.5611 35.7825L16.2938 36.2384C15.8565 35.9769 14.6624 36.0949 13.9141 36.0386C15.0385 35.788 17.4777 36.0913 17.9021 34.9761Z" fill="#EFEBE7"/>
<path d="M6.63942 33.2121C7.83754 33.168 11.7439 32.7862 12.4619 33.6842L12.2681 34.0414C11.5009 34.0605 10.7337 34.075 9.9663 34.0854C9.01604 34.0968 7.06524 34.2218 6.42188 33.5924L6.63942 33.2121Z" fill="#9C4517"/>
<path d="M6.93515 28.8268C9.32758 28.6859 10.0861 28.346 12.5136 28.9135L12.5669 29.0664C10.7104 29.5993 8.68966 28.9614 7.48464 29.8155L7.51388 30.56C7.29652 30.1647 6.88213 29.5688 6.625 29.1712L6.93515 28.8268Z" fill="#983403"/>
<path d="M37.8835 32.294C38.9799 32.2266 42.6736 31.9175 43.4223 32.4893L43.4305 32.9412C42.3655 33.0525 38.6021 33.2797 37.8203 32.7352L37.8835 32.294Z" fill="#9C4517"/>
<path d="M3.61247 29.7664L3.9802 30.0154C4.08479 30.8022 4.60122 31.4336 5.29544 31.7905L5.3136 32.1505C4.37297 32.1065 3.68366 31.9868 3.25838 31.0621C3.18865 30.4126 3.26038 30.3274 3.61247 29.7664Z" fill="#9D3005"/>
<path d="M2.57031 32.3953C3.64895 32.5662 4.63388 32.7113 4.87086 33.8669C3.58194 33.8274 2.68508 33.8323 2.57031 32.3953Z" fill="#9D3005"/>
<path d="M11.405 20.4714C11.998 20.4226 12.3703 20.3277 12.9014 20.5768C13.0741 21.1291 13.0069 20.9736 12.7186 21.6646C12.0429 21.6026 11.7286 21.6301 11.1439 21.283L11.0625 20.9075L11.405 20.4714Z" fill="#9C4517"/>
<path d="M50.7852 3.29922C51.1863 2.73689 51.4127 2.29697 52.023 2C52.7912 2.13641 52.765 2.36237 52.7932 3.12304L52.268 3.36007L51.775 3.31539L50.7852 3.29922Z" fill="#9D3005"/>
<path d="M6.01629 24.4121C6.63786 24.6221 7.42342 24.9196 8.05317 25.0387C7.63243 25.1897 7.27397 25.2449 7.05315 25.6063L5.39453 25.2171L6.01629 24.4121Z" fill="#9C4517"/>
</svg>
