<svg width="229" height="160" viewBox="0 0 229 160" fill="none" xmlns="http://www.w3.org/2000/svg">
<path d="M149.339 41.4509C150.693 41.3387 152.111 41.3891 153.471 41.4565C182.056 42.8696 193.427 79.3682 173.708 98.6396C166.114 106.063 157.958 108.521 147.459 108.685C138.858 108.464 130.606 105.231 124.144 99.5498C118.021 94.2273 113.972 85.8205 113.225 77.7927C111.981 64.4155 119.976 51.6043 132.125 46.1271C133.56 45.4799 134.936 44.4745 136.484 44.0074C140.704 42.533 144.894 41.7466 149.339 41.4509ZM148.681 104.679C157.602 104.786 165.764 101.108 171.911 94.6805C182.936 83.1543 182.976 65.1573 172.446 53.3015C166.953 47.1173 157.241 43.3243 149.043 43.9098C146.794 44.513 146.063 44.5749 143.796 44.7452C143.568 44.7623 138.307 46.1112 137.858 46.2718C135.698 47.4218 132.729 48.8912 130.686 50.1554C119.604 57.0148 114.27 71.5774 118.486 83.9607C122.851 96.7816 135.356 104.823 148.681 104.679Z" fill="#894006"/>
<path d="M161.873 59.8416C163.827 59.74 165.352 61.3922 164.426 63.2318C163.163 65.5765 161.277 67.3724 159.707 69.4757C155.328 75.3397 151.38 81.6521 148.146 88.2218C147.715 89.8497 145.741 91.2057 143.952 90.7299C141.92 90.1897 138.702 84.6622 137.376 82.9274C136.584 81.6357 133.642 78.738 134.276 77.2563C136.476 72.1218 143.274 81.7533 144.422 83.7485C146.085 79.6916 158.369 60.9611 161.873 59.8416Z" fill="#894006"/>
<path d="M145.065 55.7502C145.647 55.8037 146.626 55.9718 147.076 56.3476C147.215 56.7931 147.226 56.6009 146.991 57.0718C146.28 57.1645 145.675 57.1204 145.115 56.6279C144.885 56.0887 144.9 56.3224 145.065 55.7502Z" fill="#A26135"/>
<path d="M88.9403 1.29147C89.1169 1.27367 89.2942 1.26431 89.4717 1.26343C97.0597 1.29163 104.232 6.60134 104.082 14.6666C110.993 14.473 116.181 13.653 116.566 22.3185C116.906 29.9832 113.594 30.6679 107.092 31.3798C100.954 32.0518 95.0098 32.4088 88.9027 32.6678C82.1194 33.1971 74.5109 33.0351 67.6878 32.7301C62.6734 32.506 61.7447 29.0682 61.3556 24.7748C60.6408 16.8837 65.1492 15.8135 71.8611 15.9467C73.7942 15.9842 72.8952 13.5849 73.2511 12.3815C74.0169 4.94039 82.3662 1.84274 88.9403 1.29147ZM89.7248 29.0271C94.5458 28.6551 99.2164 28.422 104.113 28.1956C106.457 27.8932 110.956 28.2063 112.762 26.6974C114.106 25.2092 113.242 18.9746 112.047 17.7948C111.196 16.9543 107.723 17.2874 106.606 17.3038C99.7359 17.4046 101.005 18.6029 100.89 12.6256C100.786 7.15461 93.1477 3.36831 87.7636 4.25347C82.5561 4.97478 75.9633 7.65253 76.248 14.3303C76.2884 15.2807 77.0383 17.3578 76.5531 18.1365C74.1373 19.7959 64.8655 17.452 64.6481 21.6674C64.2084 30.1912 66.2861 29.7234 73.2152 29.8276C78.9683 29.9142 84.3709 29.0926 89.7248 29.0271Z" fill="#894006"/>
<path d="M88.1974 8.92625C93.676 8.44735 95.886 14.7556 89.9228 16.5976C88.4912 16.7601 87.1299 16.6494 85.9254 15.7849C85.1203 15.2137 84.5795 14.3419 84.4253 13.3668C84.0017 10.7547 85.8029 9.27706 88.1974 8.92625ZM89.219 14.7641C91.6537 13.5367 91.1868 11.0155 88.7254 11.0669C87.7451 11.3823 86.4918 11.8717 86.8753 13.2595C87.1913 14.4036 88.2123 14.5571 89.219 14.7641Z" fill="#894006"/>
<path d="M52.2329 26.6221C53.4423 26.4774 59.7673 26.103 59.5076 27.9433C58.1888 30.106 44.8895 29.1739 42.8788 30.4708C42.4295 32.3542 43.2447 39.0181 43.4526 41.1846C43.9835 46.9274 44.5586 52.666 45.178 58.4C45.5709 61.7641 46.1195 65.141 46.5121 68.5528L52.2029 118.337C53.128 126.028 53.8137 133.861 54.8304 141.546C54.9695 142.598 55.1618 143.201 55.5951 144.16C58.8559 146.043 63.4923 145.15 67.1821 144.893C71.7443 144.568 76.3041 144.207 80.8609 143.812C89.9445 143.059 99.032 142.355 108.123 141.699C120.159 140.852 132.235 140.464 144.233 139.132C145.336 139.009 145.859 137.972 146.367 137.135C146.543 134.989 146.014 133.094 145.842 131.163C145.487 127.183 143.545 115.583 144.182 112.394C144.547 111.917 144.352 112.06 144.921 111.856C145.537 111.964 145.308 111.858 145.789 112.258C145.997 112.498 146.422 112.987 146.484 113.293C147.555 118.571 148.096 123.975 148.906 129.299C149.139 130.828 149.288 132.441 149.383 133.964C149.412 135.55 149.84 138.07 149.314 139.58C148.548 141.781 145.728 142.441 143.801 142.682C139.591 143.207 135.198 143.425 131.009 143.689C124.031 144.161 117.05 144.58 110.066 144.944C105.866 145.163 101.677 145.771 97.5099 145.994C87.722 146.518 77.9932 147.365 68.2243 148.129C64.3499 148.432 60.2474 148.855 56.3813 148.488C53.7465 148.237 52.0254 145.572 51.5376 143.184C50.3374 136.948 49.667 130.507 48.9999 124.211C48.0295 115.791 47.1185 107.364 46.2671 98.9302C45.8666 95.1981 45.2248 91.5742 44.8159 87.77C43.385 74.2581 42.1039 60.7308 40.9729 47.1906C40.6111 43.1592 39.8715 39.0735 39.6099 35.0867C39.2419 29.4777 38.9788 27.1786 45.4772 27.0047C47.5235 26.95 50.1529 26.7472 52.2329 26.6221Z" fill="#894006"/>
<path d="M75.9092 44.6876C77.34 44.6189 78.8238 44.6611 80.0875 45.4231C89.5469 51.1267 77.0694 63.1075 71.3861 66.2346C70.7335 66.5939 66.9577 63.9903 66.0578 63.4595C65.4621 63.0068 64.6455 62.4062 64.1021 61.8986C61.1625 59.1664 58.2627 56.6181 58.0075 52.322C57.7796 48.4831 60.1066 45.8392 64.0038 45.7276C66.9399 45.6436 68.53 46.7761 70.5605 48.6728C72.0885 46.6596 73.7385 45.8862 75.9092 44.6876ZM64.6277 59.2257C66.6366 60.7128 69.093 63.0257 71.2958 63.9145C74.0311 62.1054 75.631 60.0636 77.9455 57.9109C81.2191 54.8661 83.5747 45.9787 76.4435 46.8862C74.9749 47.3443 75.1111 47.4834 73.9503 48.1971C72.9355 48.8212 71.3517 52.7498 70.3499 52.0153C68.3991 50.4368 68.9966 48.3829 65.9233 47.764C64.2491 47.4268 61.2958 47.6718 60.6175 49.4817C59.0042 53.7859 62.1925 56.7581 64.6277 59.2257Z" fill="#894006"/>
<path d="M126.828 16.4566C130.767 16.3441 135.924 15.6422 139.553 17.318C141.491 18.2126 142.926 19.8302 143.662 21.823C144.279 23.4949 146.285 37.6423 145.783 38.563C145.54 39.0094 145.243 39.2126 144.764 39.3512C142.937 39.0488 142.959 35.5068 142.784 33.9557C140.805 16.1159 139.636 19.3388 122.551 19.3846C121.768 19.3868 119.187 19.4655 118.832 19.1496C115.435 16.1293 125.9 16.5201 126.828 16.4566Z" fill="#894006"/>
<path d="M127.846 24.282C130.01 24.1915 135.627 24.0473 136.537 26.5562C137.927 30.3915 138.257 36.1487 138.273 40.2617C138.274 40.4797 137.874 41.0303 137.632 41.0639C135.508 41.6503 135.211 36.6578 134.973 35.1436C134.678 33.5901 134.458 28.1765 133.236 27.4762C130.367 25.8337 121.577 28.0783 119.015 26.3711C118.709 25.8798 118.754 26.0898 118.782 25.5701C120.712 24.4147 125.423 24.4109 127.846 24.282Z" fill="#894006"/>
<path d="M83.7809 101.202C84.4304 101.12 84.6285 101.206 84.972 101.702C85.172 103.697 82.6568 105.46 81.446 106.974C80.0224 108.754 78.4929 111.251 77.0179 112.904C75.5507 114.547 73.8442 119.986 72.1006 120.283C70.4087 120.037 69.0071 117.203 67.6071 115.749C65.7079 113.974 64.6449 112.994 67.9156 112.075C69.5198 113.17 70.1785 114.773 71.674 116.26C72.6553 115.037 73.5074 113.275 74.3546 111.976C76.131 109.252 81.0284 102.453 83.7809 101.202Z" fill="#894006"/>
<path d="M81.422 74.3359C81.947 74.4547 82.1134 74.7034 82.3369 75.1342C82.4056 76.6734 80.6583 78.1877 79.7223 79.3305C78.0241 81.4044 76.0281 83.3906 74.5656 85.6495C73.3325 87.5542 72.0891 89.5244 71.0592 91.5422C70.638 92.3647 70.2878 93.3713 69.215 93.4177C68.2669 93.1208 65.9734 90.1339 65.1964 89.2105C64.3208 88.1964 63.1842 86.8944 63.9373 85.5638C65.4622 84.4792 68.1012 88.2433 69.0437 89.388C70.7641 85.7273 77.9598 76.2375 81.422 74.3359Z" fill="#894006"/>
<path d="M112.745 114.106C113.827 113.994 120.395 113.515 118.922 115.958C117.305 117.074 102.236 117.931 99.5575 118.101C97.9516 118.156 94.2785 118.362 92.898 117.733C92.7725 117.567 92.644 117.408 92.6093 117.198C92.5601 116.902 92.5968 116.738 92.8077 116.514C93.9952 115.251 109.973 114.251 112.745 114.106Z" fill="#894006"/>
<path d="M108.879 47.0765C110.484 47.013 114.061 46.6891 115.151 47.9621C115.173 48.4687 115.219 48.2641 114.893 48.748C113.101 49.7384 99.8164 50.633 96.5997 50.8893C94.9923 50.9976 92.1123 51.3368 90.5695 50.7494C90.1852 50.603 90.0178 50.1184 89.875 49.7423C90.3355 47.7609 98.1459 47.8543 100.053 47.6048C102.841 47.2399 106.054 47.1793 108.879 47.0765Z" fill="#894006"/>
<path d="M110.502 104.415C111.976 104.238 115.135 104.053 116.084 105.426C116.086 105.692 116.093 105.753 115.906 105.951C114.503 107.438 99.4272 108.107 96.6792 108.292C95.2628 108.423 91.9397 108.938 91.2891 107.386C91.4305 106.636 92.1386 106.238 92.8644 106.117C98.6748 105.145 104.626 104.807 110.502 104.415Z" fill="#894006"/>
<path d="M77.287 84.5989L77.8724 84.7229C78.1484 84.9464 78.4351 85.38 78.4256 85.7437C78.3552 87.604 79.6432 92.4867 78.3662 93.919C75.8606 96.2109 70.9584 96.1061 67.8115 96.3758C63.9715 96.705 61.7629 96.0217 61.1418 92.0018C61.0342 91.197 60.7984 89.7595 61.1712 89.0567C61.6762 88.7506 61.4479 88.8178 62.0382 88.8015C63.5295 89.5156 62.9787 93.2859 63.8223 94.0054C65.5587 95.1782 69.3246 94.0986 71.1817 94.1659C80.7845 94.5142 74.2992 87.7079 77.287 84.5989Z" fill="#894006"/>
<path d="M80.1768 111.168L80.6249 111.256C81.5849 112.096 82.0401 119.877 81.1279 120.885C78.6973 123.569 68.5601 123.747 65.6212 122.813C64.1427 121.468 64.0057 119.927 63.8591 118.066C63.6518 116.94 63.4388 115.691 64.6585 115.18C66.7671 116.099 64.3385 122.212 68.7298 121.534C71.3029 121.137 77.069 121.491 79.1677 120.151C81.123 118.902 78.2246 112.869 80.0715 111.258L80.1768 111.168Z" fill="#894006"/>
<path d="M105.016 88.1676C106.201 88.0113 109.62 88.1087 110.244 89.2299C110.207 89.4698 110.225 89.6038 110.045 89.7805C108.541 91.2648 97.3399 91.6337 94.688 91.7055C93.3899 91.7291 90.4719 92.0296 89.6403 91.0138C89.492 90.5127 89.4886 90.7243 89.6692 90.2151C90.8955 88.9826 93.5753 89.0582 95.2439 88.8771C98.4814 88.5254 101.764 88.374 105.016 88.1676Z" fill="#894006"/>
<path d="M104.5 57.39C106.097 57.3297 110.442 56.7583 110.911 58.6875C110.857 58.8175 110.791 58.9438 110.69 59.0441C109.446 60.2774 99.4884 60.5485 97.1877 60.733C95.53 60.8072 91.3595 61.4692 90.7578 59.6061C90.802 59.4499 90.8227 59.2603 90.9345 59.1411C92.3775 57.6055 101.933 57.537 104.5 57.39Z" fill="#894006"/>
<path d="M101.173 78.6354C102.828 78.4688 106.77 78.0186 107.776 79.5393C107.781 79.7815 107.818 79.8629 107.654 80.0588C106.403 81.5588 97.2805 81.71 94.8806 81.9611C93.1112 82.1361 89.262 82.8186 88.2422 81.0255C88.4456 79.0519 99.3278 78.7686 101.173 78.6354Z" fill="#894006"/>
<path d="M177.862 24.3484C182.646 24.1617 176.985 29.9795 176.075 31.2525C175.093 32.6279 173.326 35.3751 171.963 36.179C165.895 37.4767 176.912 24.8201 177.862 24.3484Z" fill="#894006"/>
<path d="M192.504 37.1692C193.343 37.2433 194.039 37.4868 194.356 38.2736C194.103 40.6792 185.057 44.0837 182.831 44.6225C182.013 44.7214 181.357 44.7175 180.77 44.0753C180.744 43.8417 180.7 43.7075 180.804 43.489C181.585 41.839 190.442 37.8656 192.504 37.1692Z" fill="#894006"/>
<path d="M159.331 19.0113C162.43 18.9483 160.811 24.0651 160.474 25.9532C160.111 27.9879 159.742 31.2162 158.286 32.5958C155.762 32.5708 156.938 27.5549 157.277 26.0801C157.722 24.1488 158.036 20.3813 159.331 19.0113Z" fill="#894006"/>
<path d="M70.2476 77.8796C71.1769 77.7405 74.9243 77.4419 74.8199 78.8482C74.3635 79.2371 72.7872 79.333 72.136 79.3713C68.8468 79.5643 65.5222 79.8084 62.3244 80.6455C62.3374 81.849 62.4391 84.1313 62.6999 85.2543C62.7932 85.5218 62.8873 86.713 62.9229 87.066C62.1963 86.9184 61.4713 86.7637 60.7479 86.6016C60.1907 85.2612 59.5185 80.7162 60.6147 79.7198C62.1999 78.2791 68.0615 78.0001 70.2476 77.8796Z" fill="#894006"/>
<path d="M71.7844 104.734C72.7769 104.503 76.9241 104.313 77.5266 105.42C76.8431 106.84 67.0859 106.234 64.9186 107.562C64.6675 108.161 64.7886 108.224 64.8678 108.961C65.0072 109.991 65.6872 112.628 64.5019 112.949C63.9661 112.819 63.6213 112.467 63.1956 112.112C63.1002 111.343 63.01 110.574 62.925 109.805C62.4563 105.495 63.6463 105.533 67.4185 105.255C68.7852 105.154 70.3858 104.883 71.7844 104.734Z" fill="#894006"/>
<path d="M105.722 126.898L106.184 127.09C106.875 127.888 106.846 128.58 106.197 129.368C104.893 128.974 105.102 127.812 105.722 126.898Z" fill="#894006"/>
<path d="M124.727 37.5198C125.145 37.6967 125.198 37.7606 125.523 38.0824C125.544 38.6651 125.535 38.4945 125.108 39.0585C124.47 38.8979 124.57 39.0162 124.145 38.6001C124.233 37.9906 124.298 38.0749 124.727 37.5198Z" fill="#A26135"/>
<path d="M129.383 32.6283C129.939 32.6237 130.015 32.6245 130.542 32.8262C130.853 33.2889 130.802 33.0626 130.679 33.6967C130.288 33.6892 130.202 33.6339 129.828 33.4942C129.405 33.0212 129.522 33.2492 129.383 32.6283Z" fill="#A26135"/>
<path d="M30 26.4631C31.2653 22.1608 32.0964 20.527 36.9073 19.7726C39.5295 19.3614 42.5858 19.0817 45.2252 19.0289C47.4163 18.9848 60.1819 17.1312 59.6784 20.1093C58.5827 21.6795 55.4767 21.4297 53.7 21.4829L43.6977 21.7931C40.7144 21.8918 37.1722 21.6637 34.61 23.3443C33.7286 24.9439 33.3495 25.6329 33.393 27.5498C33.466 30.7583 33.8234 33.8528 34.1203 37.0323L35.9013 54.5764L41.5785 107.807C42.5474 117.42 43.2458 127.058 44.1383 136.685C44.556 141.19 44.5493 145.344 45.7544 149.782C47.1584 154.954 49.5963 155.041 54.4138 154.974C62.5438 154.727 70.6608 154.134 78.7712 153.628L126.912 150.317L143.619 149.193C146.029 149.021 149.833 149.016 152.071 148.275C152.22 148.226 152.349 148.158 152.486 148.084C153.73 147.412 154.798 146.764 155.23 145.322C156.361 141.551 153.53 123.59 153.033 118.32C152.864 116.524 152.428 114.362 152.697 112.579C152.77 112.098 152.928 111.705 153.37 111.454C153.522 111.367 153.818 111.414 153.996 111.415C154.712 111.845 154.909 112.542 155.101 113.337C155.717 115.895 155.877 118.694 156.264 121.302C156.982 126.152 160.11 143.599 157.721 147.461C156.576 149.311 153.54 151.162 151.457 151.633C146.017 152.863 140.102 153.04 134.551 153.495C124.593 154.327 114.626 155.053 104.652 155.674C100.903 155.924 97.14 156.424 93.3734 156.621C84.5883 157.082 75.7992 157.504 67.0058 157.843C61.7466 158.046 56.2709 158.402 51.0211 158.305C49.2659 158.274 47.4705 157.808 46.0008 156.888C43.9513 155.605 42.6726 153.062 42.2921 150.718C41.5179 145.949 41.2594 140.94 40.5591 136.156C38.022 118.254 36.0303 100.279 34.5867 82.2553C33.8722 73.7951 33.4601 65.5229 32.6621 56.9581L30.9598 39.3411C30.7709 37.3572 30.4136 32.1158 30 30.4211V26.4631Z" fill="#894006"/>
<path d="M198.748 56.4497C196.195 57.8024 191.241 57.2594 188.392 57.2074C185.202 57.1491 185.322 54.2744 188.319 54.1716C190.87 54.0841 196.716 53.0846 198.748 54.5712V56.4497Z" fill="#894006"/>
</svg>
