<svg width="229" height="160" viewBox="0 0 229 160" fill="none" xmlns="http://www.w3.org/2000/svg">
<path d="M160.117 46.3428C161.582 43.2568 167.117 28.0528 169.548 27.124C169.878 26.9981 170.184 27.0612 170.492 27.2145C171.055 27.4944 171.67 28.2392 171.837 28.8456C171.931 29.1868 171.919 29.5642 171.833 29.9058C171.606 30.8147 171.141 31.7506 170.798 32.6239C169.708 35.4103 168.528 37.8795 167.298 40.5887C166.27 42.8539 165.407 45.2061 164.244 47.4061C171.952 48.1487 170.909 52.7747 170.922 59.0443L170.948 68.7315C171.094 80.4903 171.175 92.2498 171.194 104.01L171.205 115.927C171.208 116.888 171.069 123.127 171.634 123.49C173.683 123.34 182.173 122.137 178.186 128.205C177.689 128.961 172.526 129.322 171.298 129.31C171.273 131.717 171.301 134.365 171.216 136.748C172.745 136.517 174.981 136.524 176.534 136.551C179.451 136.6 183.859 136.116 186.35 137.896C189.495 140.145 189.855 145.867 187.622 148.86C186.642 150.172 184.283 150.947 182.748 151.363C182.214 153.737 181.514 156.417 179.148 157.81C175.431 160 169.161 159.36 165.088 158.613C162.706 158.175 160.345 156.151 158.962 154.243C158.338 153.382 157.913 151.335 156.903 151.269C155.077 151.151 152.875 151.206 151.055 151.208L136.549 151.207L85.2417 151.26L69.9209 151.314C67.0973 151.329 63.6896 151.443 60.9295 151.286C60.119 153.594 58.7145 157.074 56.3093 158.181C51.9874 160.17 45.4734 159.98 41.0081 158.574C37.2706 157.399 36.3823 154.998 36.3784 151.389C34.0034 151.183 30.8651 151.045 29.2712 149.071C26.8892 146.12 27.4315 140.753 30.3082 138.375C31.031 137.769 31.886 137.341 32.8045 137.126C34.4903 136.74 41.6578 136.853 43.9551 136.836C43.6438 134.535 43.8481 131.659 43.7037 129.281C42.0712 129.124 39.0303 129.008 37.624 128.45C36.6137 127.224 35.5456 125.215 37.167 124.018C38.7532 122.848 41.7768 123.215 43.6771 123.264C43.7504 120.814 43.0212 113.021 47.392 115.394C48.2718 115.872 48.1056 122.216 48.1753 123.442C50.8879 123.294 53.7545 123.272 56.4176 123.099C56.3196 121.41 56.4573 115.369 56.6829 113.704C45.6104 113.946 34.381 113.315 23.2943 113.233C22.2638 113.225 20.897 113.031 19.9386 112.671C17.586 109.798 18.8696 103.562 18.6633 99.9829C18.5936 98.7739 19.501 96.8536 20.5102 96.1859C24.161 93.6431 32.6079 94.007 37.0404 93.5589C38.5684 93.6554 42.4606 93.3503 44.2931 93.3365C49.8249 93.2951 55.5763 93.4603 61.0738 93.4136C68.8673 93.9211 77.1753 93.4162 84.922 94.9433C86.4568 95.3329 88.5399 96.5145 88.9268 98.1722C89.3056 99.565 89.1431 101.053 89.2029 102.448C89.7538 115.297 88.674 114.136 76.412 113.999C70.9885 113.955 65.5653 113.873 60.1429 113.753C60.5163 116.026 60.1976 121.419 60.7759 123.21C62.7971 124.589 65.1801 119.853 67.4546 119.598C70.4693 119.26 71.3215 122.166 72.9557 123.487C74.9812 125.124 75.7595 120.146 78.9465 119.965C82.286 119.775 82.4907 121.464 84.6703 123.558C84.6903 123.629 85.1973 123.791 85.2274 123.765C87.5021 121.813 87.9171 120.52 91.1089 119.825C93.7576 120.41 94.2585 122.554 96.5138 124.299C98.6832 122.811 98.7818 120.94 102.108 119.931C105.322 120.638 105.717 123.156 107.576 123.773C108.743 123.684 109.508 121.997 110.308 121.137C113.581 117.617 116.136 122.107 118.526 124.392C119.66 123.14 121.488 120.913 122.929 120.332C126.731 118.8 127.182 122.805 129.301 123.975C130.658 124.724 132.276 120.849 134.207 120.195C138.249 118.827 138.436 122.545 140.891 123.738C143.08 124.347 144.153 120.829 146.014 120.131C149.784 118.717 151.094 122.396 154.385 123.553C154.588 120.885 154.341 118.017 154.564 115.23C152.861 115.251 147.352 115.343 146.294 114.32C145.929 113.967 145.723 113.482 145.722 112.974C145.691 110.117 152.534 111.015 154.559 111.089C154.383 109.817 154.473 107.825 154.477 106.489L154.457 99.3067L154.385 90.7447C154.369 89.1987 154.274 86.9031 154.454 85.4173C152.169 85.3872 150.069 85.4851 147.778 85.3162C147.985 86.8197 148.097 92.5912 147.345 93.47C143.827 97.5826 144.554 86.5554 144.744 85.3254C143.111 85.5108 138.48 85.3708 136.667 85.3614C136.909 86.7754 137.661 95.7906 134.223 93.5231C133.348 92.4814 133.613 87.155 133.618 85.4645C131.056 85.4354 128.494 85.452 125.933 85.5142C125.868 87.2178 126.116 91.9104 125.213 92.7306C121.681 95.9395 122.291 86.4536 122.266 85.4786C119.732 85.432 117.197 85.4093 114.663 85.4104C114.761 87.4433 115.352 93.49 112.787 93.9883C110.629 93.3029 110.984 87.3812 111.063 85.4525L103.562 85.4669C103.675 87.4367 104.046 92.8684 102.114 93.9144C99.7137 93.8692 100.231 87.0665 100.233 85.4333C97.926 85.4167 94.7095 85.3801 92.4748 85.6145C92.4956 87.3998 92.6851 90.1765 92.336 91.8879C91.9784 93.6418 90.6779 93.4029 89.3279 92.8528C88.6918 90.7814 88.8774 87.7531 88.9231 85.5231C86.4181 85.4518 83.594 85.4111 81.1059 85.5973C81.1076 87.2484 81.386 91.5911 79.4326 92.0844C77.3746 91.6478 77.7685 87.0858 77.8457 85.507C75.399 85.4869 72.5195 85.6334 70.171 85.5167C70.1793 86.362 70.4615 93.067 67.4687 90.9351C66.6173 90.3286 66.861 86.8019 66.8803 85.4794L60.1399 85.4665C60.121 86.672 60.1807 89.4825 59.3284 90.0911C56.0573 92.2839 56.3153 87.2037 56.3056 85.4944C56.2717 79.5084 56.0618 73.7375 56.2757 67.7558C56.2806 62.5506 55.9117 57.2247 56.1034 51.9714C56.1782 49.9239 55.9993 47.6826 56.2485 45.6523C56.029 45.0733 55.8567 44.5862 55.2507 44.3112C54.0398 43.7614 49.4329 43.7056 48.1632 44.24C47.8234 44.3829 47.7035 44.4806 47.5638 44.83C46.6621 47.0878 47.4962 76.4958 47.5326 81.0092C47.5484 82.9636 47.9415 86.6047 47.5246 88.3634C47.4129 88.8347 47.0654 89.2437 46.6301 89.4531C46.0682 89.7234 45.1737 89.7536 44.5912 89.5453C44.239 89.4192 44.0554 89.1611 43.9038 88.8306C43.4662 87.8762 43.0984 73.2272 43.1432 71.0575C39.2945 71.1081 34.6226 71.2901 31.6482 68.3875C29.8693 66.6442 28.8518 64.2683 28.8176 61.7776C28.7532 55.1608 38.6904 55.0479 43.1088 54.1534C42.9178 45.1162 41.5524 38.312 53.1176 39.5226C59.2628 40.1658 60.0382 42.1418 59.9792 48.1723C59.9424 50.0156 60.0162 52.2078 59.9787 54.0995C62.4582 53.8126 66.1456 53.8804 68.7682 53.8565L85.8653 53.8114L131.293 53.6478C138.591 53.6084 146.636 53.7734 153.855 53.4659C153.864 48.7037 156.05 47.474 160.117 46.3428ZM72.9013 147.375L147.077 147.477L173.041 147.385C176.137 147.346 179.231 147.326 182.328 147.319C183.05 147.255 183.831 147.14 184.391 146.641C184.87 146.214 184.886 145.576 184.961 144.977C185.405 141.45 184.486 140.943 181.241 140.836C176.597 140.682 171.995 140.766 167.37 140.784L144.737 140.864C142.088 141.047 137.59 140.914 134.805 140.913L116.726 140.932L59.5482 140.96L42.6254 141.06C39.6707 141.066 36.7037 141.031 33.7526 141.125C33.3968 141.136 32.8359 141.36 32.6204 141.626C31.7546 142.693 32.0874 146.27 32.8754 147.211C33.9984 147.801 46.7399 147.408 48.632 147.39L72.9013 147.375ZM103.471 81.3687C105.86 81.3808 108.932 81.4228 111.279 81.2609C111.256 79.2858 110.855 73.709 112.016 72.4973C112.26 72.2384 112.597 72.0876 112.952 72.0784C115.353 72.0197 114.563 79.734 114.518 81.3783C117.154 81.327 119.998 81.3223 122.615 81.1783C122.399 79.4487 121.447 69.9765 125.229 72.5073C126.372 73.272 125.829 79.777 125.734 81.2442C128.796 81.3078 132.42 81.7025 135.177 80.5779C138.488 81.7558 141.368 81.2564 144.866 81.2662C144.704 79.9287 143.624 69.639 147.163 72.4226C148.126 73.1792 147.795 79.7958 147.836 81.3568C149.773 81.1695 152.479 81.2306 154.499 81.1853C154.253 78.6539 154.349 73.2125 154.4 70.5123C152.827 70.4179 151.413 70.3109 149.831 70.3962C143.291 70.5536 136.624 70.4122 130.075 70.4825L60.1357 70.9525C60.2065 74.2062 60.2515 78.1439 60.1496 81.3869L66.9245 81.3731C66.9124 79.6926 66.5771 73.2898 67.4904 72.3175C67.9654 72.0339 68.0271 72.0248 68.5796 72.0761C69.1246 72.3225 69.3948 72.6625 69.5756 73.2083C70.0256 74.5673 70.0551 80.0623 69.8726 81.3233C72.7073 81.4575 76.9665 81.6565 79.5496 80.6412C81.622 81.8086 87.0035 81.3203 89.5307 81.2165C89.2696 79.4437 88.4831 73.0125 90.3396 72.3003C90.972 72.2592 91.1962 72.4119 91.7754 72.6892C91.9914 72.9542 92.0495 72.9934 92.1399 73.314C92.3556 75.1329 92.4645 79.3312 92.3495 81.2412C94.7532 81.4594 97.9723 81.3934 100.415 81.3222C100.325 78.9642 100.284 75.9153 100.376 73.5658C100.718 73.0628 100.954 72.6169 101.487 72.3303C102.275 72.2265 102.468 72.3995 103.167 72.8367C103.443 74.1303 103.622 80.0758 103.471 81.3687ZM60.0273 57.6743C60.2385 60.299 59.9982 64.0229 60.0762 66.835C66.6701 66.5778 74.8871 66.4595 81.4503 66.5617L118.387 66.2883C130.397 66.3243 142.407 66.2883 154.417 66.1801C154.314 63.7423 154.226 59.784 154.351 57.3578C147.06 57.5015 139.602 57.275 132.252 57.407C121.544 57.8489 109.945 57.46 99.1485 57.564C90.3129 57.6561 81.4768 57.6854 72.6407 57.6525C68.8713 57.6539 63.6332 57.8559 60.0273 57.6743ZM22.6928 109.028C28.4073 109.022 34.1565 109.219 39.871 109.367C48.6654 109.596 57.4771 109.427 66.2646 109.58C69.5354 109.682 72.9171 109.732 76.1924 109.787C78.3134 109.823 83.0381 110.016 85.0707 109.673C85.1613 107.615 85.5607 100.424 84.3682 99.0939C81.264 97.5517 47.7256 97.172 42.1343 97.5683C39.2337 97.7123 24.7532 97.8636 23.3545 99.2158C22.3063 100.229 22.8317 107.177 22.6928 109.028ZM96.8556 128.496L95.1609 128.479L93.189 128.284L92.8599 128.044C91.8898 127.292 91.4845 124.833 91.2009 123.592C89.2346 125.554 89.254 127.212 86.2349 128.13C85.314 128.345 84.9538 128.44 84.0603 128.808C87.2212 128.759 89.4165 128.563 92.6217 128.781C93.7851 128.99 98.5654 129 99.7315 128.775C100.555 128.781 105.553 128.988 106.006 128.922C109.01 128.485 126.48 129.477 127.747 128.639C128.281 129.08 130.627 129.101 131.064 128.606C131.696 128.804 137.006 128.505 138.675 128.766L138.759 128.573C138.572 128.176 137.01 127.275 136.557 126.42C136.096 125.552 135.886 124.764 135.581 123.841C134.493 126.341 133.546 127.207 131.153 128.42C130.201 128.363 128.317 128.255 127.438 128.389C126.533 128.036 126.174 127.759 125.388 127.212C125.205 126.362 124.874 124.437 124.059 124.097C123.345 124.559 122.841 126.346 122.042 127.045C120.157 128.692 117.76 128.725 115.457 128.28C112.672 127.743 114.022 125.315 112.864 124.131C112.236 124.3 110.343 127.054 109.446 127.957C108.047 128.407 105.516 128.764 104.109 128.262C102.116 127.55 103.017 125.436 102.424 124.153C102.269 124.061 101.991 123.859 101.849 124.039C100.27 126.039 99.6753 127.9 96.8556 128.496ZM156.661 127.368C154.649 127.27 149.853 127.986 148.086 126.917C147.369 126.484 148.435 125.452 148.381 124.55C148.088 124.114 148.249 124.223 147.794 124.104C146.589 124.431 145.854 126.298 144.903 127.128C144.195 127.745 143.535 127.906 142.855 128.423L142.874 128.607C143.78 128.666 144.888 128.549 145.841 128.556C149.533 128.583 153.158 128.725 156.661 127.368ZM154.305 136.654C154.5 135.265 154.471 133.409 154.593 131.947C152.335 132.138 149.537 132.137 147.241 132.188C142.05 132.311 136.858 132.361 131.665 132.338L97.2901 132.365C89.9026 132.379 82.5151 132.326 75.1285 132.208C71.5888 132.18 68.1315 132.233 64.5898 131.972C63.317 131.879 61.687 131.894 60.4632 131.695C60.6526 133.314 60.6232 135.157 60.6381 136.802C71.6006 136.89 82.5637 136.89 93.526 136.804C104.859 136.877 116.192 136.871 127.525 136.785L146.602 136.737C148.491 136.724 152.668 136.41 154.305 136.654ZM71.586 128.627C71.3618 128.039 70.3557 127.704 69.8996 127.254C69.0017 126.369 68.5287 124.95 67.5154 124.199C67.2388 123.994 66.9201 125.297 66.7649 125.439C66.2901 126.254 65.7132 126.721 64.8853 127.156L64.749 127.227C63.3687 127.492 62.0895 127.732 60.7273 128.099C62.4307 128.354 69.9051 128.744 71.586 128.627ZM75.6598 128.617C78.1984 128.466 80.8299 128.661 83.3707 128.803C80.6378 127.259 80.5885 126.433 79.594 123.537C78.8484 124.996 77.9118 126.283 76.6729 127.372C76.2398 127.753 75.5971 127.983 75.4312 128.546L75.6598 128.617ZM43.1196 67.0825C43.0282 64.6937 43.2032 60.0429 42.942 57.9925C42.5085 57.7336 42.3071 57.8473 41.7198 57.875C39.2692 58.005 34.8287 59.12 33.2103 60.9393C32.7406 61.4598 32.5012 62.1481 32.5467 62.8478C32.6576 64.42 34.0976 65.4208 35.337 66.1283C38.8385 67.5586 39.5673 66.9604 43.1196 67.0825ZM161.854 151.094C162.895 156.144 174.061 156.856 177.384 154.356C178.361 153.306 178.422 152.577 178.787 151.188C173.42 150.94 167.302 151.098 161.854 151.094ZM43.7026 151.331L40.2484 151.379C40.5212 152.755 40.6453 153.473 41.4084 154.699C43.5882 155.907 50.2973 156.756 52.3856 155.587C55.0004 154.69 55.7251 153.733 56.9085 151.367C52.5074 151.252 48.1042 151.24 43.7026 151.331ZM53.5093 136.884L56.9273 136.867C56.7717 134.992 56.6334 131.447 56.2612 129.798C54.8984 129.342 53.2753 128.905 51.8203 129.125C50.4763 129.259 49.6981 129.422 48.4023 129.853C48.4023 132.204 48.3274 134.554 48.1781 136.899L53.5093 136.884ZM158.902 123.897C161.549 123.945 162.794 124.118 165.361 123.464C165.974 123.356 166.248 123.345 166.75 122.976C167.505 121.068 167.028 80.3084 167.022 74.6676L167.006 61.5129C167.001 59.744 167.044 54.0728 166.642 52.594C165.432 51.5469 161.22 51.8789 159.585 51.9237C158.961 52.0248 158.876 51.9269 158.515 52.2922C158.444 55.3039 158.588 58.8479 158.589 61.9456L158.707 90.9378L158.97 114.933C159.007 117.818 158.751 121.123 158.902 123.897ZM161.768 136.643C163.526 136.66 165.449 136.734 167.181 136.723C167.15 134.258 167.202 131.806 167.183 129.352L164.48 129.441C161.838 129.677 160.934 130.344 158.871 130.689C158.881 132.447 158.971 135.04 158.868 136.732C159.801 136.67 160.845 136.564 161.768 136.643ZM44.024 125.525C43.246 125.61 43.2729 125.488 42.7329 125.898C43.0562 126.891 45.6959 126.754 46.5607 126.657C47.0901 126.61 47.5228 126.633 47.9153 126.285L47.9628 126.021C47.216 125.349 44.9913 125.455 44.024 125.525ZM170.608 126.882C171.128 126.724 171.622 126.649 171.926 126.216L171.858 125.943C170.984 125.501 170.002 125.539 169.039 125.68C168.469 125.757 167.956 125.753 167.559 126.153L167.575 126.418C168.578 127.029 169.453 126.906 170.608 126.882Z" fill="#854714"/>
<path d="M56.2473 45.6523C56.8082 47.5216 56.8653 51.3503 56.6664 53.317L56.6053 52.9836L56.6392 54.2964L56.6878 53.8609C57.0847 57.1066 57.0086 60.2962 56.6334 63.5236C56.46 65.0153 56.8128 66.2134 56.2745 67.7558C56.2793 62.5506 55.9104 57.2247 56.1022 51.9714C56.177 49.9239 55.9981 47.6827 56.2473 45.6523Z" fill="#7A3D1A"/>
<path d="M79.4466 72.2795C81.428 73.4259 81.0646 76.1617 80.9057 78.1475C80.8198 79.2208 80.4283 79.8289 79.5687 80.4503C77.9973 79.0275 77.6376 76.9066 77.8146 74.8475C77.9332 73.468 78.4126 73.0664 79.4466 72.2795Z" fill="#854714"/>
<path d="M134.917 72.1021C137.219 72.0955 137.143 77.1842 135.705 78.4632C135.142 78.4477 134.984 78.4752 134.514 78.158C133.392 76.72 133.431 73.3508 134.917 72.1021Z" fill="#854714"/>
<path d="M86.2333 128.13C88.1053 127.998 91.7183 128.477 92.8583 128.044L93.1873 128.284L93.5603 128.739L92.62 128.781C89.4148 128.563 87.2195 128.759 84.0586 128.808C84.9522 128.44 85.3123 128.345 86.2333 128.13Z" fill="#B07844" fill-opacity="0.0117647"/>
<path d="M71.5859 128.627L71.7822 128.373C72.9273 128.287 74.0509 128.197 75.1992 128.165C75.3884 128.382 75.3592 128.291 75.4311 128.546L75.6597 128.617C74.6895 129.068 72.425 129.398 71.5859 128.627Z" fill="#A06634"/>
<path d="M138.76 128.573C139.3 128.214 142.217 128.201 142.856 128.423L142.875 128.607C142.038 129.153 139.629 129.073 138.676 128.766L138.76 128.573Z" fill="#A06634"/>
<path d="M127.438 128.389C128.317 128.255 130.2 128.363 131.153 128.42L131.064 128.606C130.626 129.101 128.28 129.08 127.747 128.639L127.438 128.389Z" fill="#A06634" fill-opacity="0.980392"/>
<path d="M95.1603 128.479L96.855 128.496L96.808 128.676C97.5397 128.898 98.8213 128.677 99.7309 128.775C98.5649 129 93.7845 128.99 92.6211 128.78L93.5614 128.739C94.2475 128.769 94.5442 128.789 95.2164 128.683L95.1603 128.479Z" fill="#A06634" fill-opacity="0.329412"/>
<path d="M93.1875 128.283L95.1594 128.479L95.2155 128.683C94.5433 128.789 94.2466 128.769 93.5605 128.739L93.1875 128.283Z" fill="#BF966C" fill-opacity="0.0666667"/>
<path d="M88.3527 0.218795C89.6169 -0.19743 92.4319 0.866777 93.7081 1.29379C102.694 4.30005 103.441 14.9602 100.319 22.5432C98.9825 26.2733 96.5441 28.763 94.3433 31.8071C92.0242 35.0149 90.4049 37.0707 87.3656 39.698C85.5003 41.3104 84.9077 43.0716 82.3103 44.0668C79.2041 43.2077 73.4539 39.4808 70.3664 37.9076C67.5892 36.6427 62.9092 32.9102 60.508 30.9466C53.7538 25.4232 51.1111 15.8348 57.3338 8.87233C62.193 3.43547 70.8577 3.64863 76.0228 8.16567L76.0661 8.05706C78.0627 3.11153 83.2638 0.641259 88.3527 0.218795ZM69.6083 31.8299C72.1958 33.6454 75.6636 35.4593 78.4392 37.0135C79.3327 37.5138 80.732 37.9427 81.6856 38.4215C83.9556 36.8682 84.9591 35.1479 86.7822 33.1513C92.2522 27.1607 100.975 16.859 95.3649 8.51122C93.8194 6.21149 90.7303 4.25797 87.73 4.73517C82.6464 5.44344 81.2019 8.64372 79.3566 12.7462C77.2508 16.724 75.4833 13.9223 73.3233 12.0526C72.1999 11.0803 69.7355 10.0302 68.338 9.79416C62.4475 8.79928 57.5909 13.4944 58.6008 19.4315C59.1355 22.5748 62.0256 26.4366 64.5211 28.3813C65.7405 29.2126 68.4191 31.1552 69.6083 31.8299Z" fill="#854714"/>
<path d="M123.382 95.4197C125.171 95.538 129.514 94.8041 130.019 96.9097C130.789 100.122 125.061 99.3774 123.204 99.376L114.585 99.3694C107.913 99.3764 101.217 99.456 94.5473 99.2603C93.4192 99.2928 92.6264 98.7549 92.5915 97.5731C92.511 94.8433 95.3618 95.5233 97.199 95.4771C105.72 95.2627 114.297 95.6889 122.816 95.4356L123.382 95.4197Z" fill="#854714"/>
<path d="M112.874 102.495C115.456 102.455 116.51 104.127 115.251 106.357C114.575 107.557 113.625 109.238 113.674 110.628C114.014 111.307 113.936 111.132 114.684 111.338C116.898 111.949 133.44 108.648 129.129 114.808C127.236 115.54 113.966 115.409 111.841 114.836C108.848 114.028 109.553 104.029 112.874 102.495Z" fill="#854714"/>
<path d="M137.328 105.036C144.878 104.591 146.168 113.883 139.037 115.434C131.475 115.868 130.478 106.181 137.328 105.036ZM139.083 110.467C138.701 109.891 138.911 110.027 138.28 109.866C137.678 110.031 137.499 110.177 137.331 110.784C138.027 110.921 138.493 110.871 139.083 110.467Z" fill="#854714"/>
<path d="M137.332 110.784C137.086 110.342 136.957 110.184 136.995 109.668C137.262 109.211 137.112 109.368 137.647 109.102C138.786 109.063 139.005 109.479 139.085 110.467C138.702 109.891 138.912 110.027 138.281 109.865C137.679 110.031 137.5 110.177 137.332 110.784Z" fill="#BF966C"/>
<path d="M137.328 110.784C137.497 110.177 137.675 110.031 138.277 109.865C138.909 110.027 138.698 109.891 139.081 110.467C138.49 110.87 138.025 110.92 137.328 110.784Z" fill="#BF966C" fill-opacity="0.94902"/>
<path d="M157.48 11.5894C161.055 11.5313 160.409 13.4273 160.507 16.45C160.564 18.1833 160.783 20.8121 159.159 21.783C157.573 22.1119 156.333 21.7036 156.28 19.8855C156.207 17.401 156.168 14.8078 156.514 12.3474C156.569 11.9641 157.176 11.7485 157.48 11.5894Z" fill="#854714"/>
<path d="M190.291 42.5661C192.201 42.4196 195.854 41.7063 196.012 44.1152C196.18 46.6899 193.668 46.3664 191.957 46.4004C190.834 46.4361 187.113 46.7213 186.655 46.0654C184.173 42.5085 189.219 42.6193 190.291 42.5661Z" fill="#854714"/>
<path d="M122.221 40.5045C124.097 40.4076 126.844 40.7403 128.69 41.1568C130.281 41.5159 130.812 42.837 130.12 44.2562C129.848 44.8145 129.432 44.9168 128.874 45.1496C126.699 44.881 119.567 44.9132 120.709 41.572C120.958 40.8448 121.573 40.7195 122.221 40.5045Z" fill="#854714"/>
<path d="M181.852 68.8991C182.241 68.893 182.804 68.9138 183.159 69.0738C184.971 69.8925 190.773 74.5144 186.763 76.0724C186.662 76.0721 186.562 76.0697 186.46 76.0655C185.102 76.0022 182.716 73.8743 181.729 72.8911C180.298 71.4679 180.082 70.1536 181.852 68.8991Z" fill="#854714"/>
<path d="M183.227 20.7568C188.779 21.4581 181.841 27.0482 180.112 28.1425C175.351 28.0451 179.883 22.939 181.519 21.7607C182.126 21.3242 182.565 21.0818 183.227 20.7568Z" fill="#854714"/>
<path d="M134.229 18.1313C135.484 17.9882 136.327 19.0671 137.209 19.8722C138.595 21.1379 141.695 23.9983 138.793 25.4408C136.474 25.6093 134.875 23.2952 133.591 21.6143C132.618 20.3407 132.754 18.9483 134.229 18.1313Z" fill="#854714"/>
<path d="M152.858 0H161.833C162.622 0.532412 167.322 0.933542 168.666 1.30278C173.727 2.69377 177.736 3.59258 182.329 6.23984C185.046 7.80558 186.229 8.67125 188.619 10.6551C190.083 11.8682 192.024 13.0148 193.302 14.4133C195.324 16.6278 197.704 19.4063 199.493 21.8178C202.627 26.1038 204.963 30.9188 206.391 36.0325C209.205 45.7964 209.469 55.9173 206.336 65.5361C205.863 66.9942 205.561 68.6695 205.008 70.1145C202.511 76.6411 198.086 82.4406 193.59 87.7136C192.555 88.9266 190.615 90.0656 189.454 91.1994C186.199 94.3825 183.01 96.8405 178.605 98.1036C177.768 97.7767 177.121 97.5484 176.749 96.6895C176.263 95.5794 176.457 94.2887 177.246 93.3692C178.813 91.5252 182.519 89.848 184.569 88.3917C187.1 86.5934 188.747 84.0867 190.879 81.9084C191.738 81.0291 192.816 80.3134 193.557 79.3314C195.027 77.382 195.95 75.29 197.118 73.18C197.944 71.6833 198.9 70.3545 199.522 68.7433C204.365 56.1777 204.596 44.6058 199.058 32.228C196.096 25.6031 189.743 17.5541 183.666 13.4416C180.468 11.2767 176.56 9.51859 172.968 8.13889C161.646 3.79038 149.997 4.23047 138.954 9.17017C135.52 10.7061 131.633 12.6726 128.798 15.1594C127.589 16.2198 126.528 17.4742 125.39 18.6106C124.058 19.9395 122.604 21.1928 121.405 22.6434C120.265 24.0231 119.461 25.5086 118.568 27.0486C116.433 30.728 114.878 33.7745 113.386 37.7581C113.042 38.6773 112.675 39.6089 112.465 40.5692C112.135 42.0717 111.994 43.7672 111.429 45.1939C111.137 45.9322 110.485 46.5661 109.748 46.8602C109.253 47.0575 108.719 47.0308 108.236 46.8081C107.554 46.4931 107.074 45.9239 106.824 45.2202C105.958 42.7783 109.322 32.3431 110.587 29.7781C111.781 27.3566 113.197 24.5387 114.827 22.4033C115.699 21.2611 116.778 20.2905 117.655 19.1566C118.287 18.34 118.788 17.4286 119.403 16.6005C120.25 15.4619 121.402 14.3708 122.445 13.4059C123.683 12.2604 125.147 11.3603 126.46 10.3011C129.965 7.47284 133.873 4.87055 138.214 3.48938C140.906 2.63273 143.724 1.66878 146.497 1.11462C148.474 0.719658 150.861 0.716945 152.736 0.0452633C152.777 0.0306133 152.817 0.0150878 152.858 0Z" fill="#854714"/>
</svg>
