<svg width="229" height="160" viewBox="0 0 229 160" fill="none" xmlns="http://www.w3.org/2000/svg">
<path d="M38.0561 39.2279C36.7358 35.3662 36.9892 31.4423 38.8017 27.7681C39.1333 27.096 41.3203 22.8065 41.7805 22.6412C44.4267 21.6909 48.315 19.0565 51.1482 20.3379C53.7666 21.5223 53.8657 24.7441 55.7936 26.2331C57.7428 26.6656 63.4803 23.8287 64.6272 27.6467C64.6983 27.8918 64.7599 28.1395 64.8117 28.3895L134.423 28.7009C138.476 28.7396 175.032 29.7751 176.165 29.3359C176.621 29.0835 176.415 29.1382 177.052 29.2465L177.107 29.3109C177.709 30.026 178.112 30.0115 178.104 31.137C177.284 32.3843 170.768 32.0132 169.187 32.0162C163.157 32.0495 157.127 32.0057 151.098 31.8849L94.4781 31.4057L74.9825 31.4045C72.1566 31.4082 69.3046 31.4102 66.4864 31.3538C66.0474 31.3449 64.2957 30.8182 64.1638 31.1718C63.4539 33.0746 61.8263 34.186 60.7025 35.9423C61.1688 37.0135 61.4439 37.7565 61.6596 38.9201C65.1678 39.044 68.9078 38.7948 72.1605 38.9188C72.4013 38.4323 72.6438 37.9476 72.9064 37.472C74.8664 33.9235 80.6878 33.6687 81.9492 37.9423C82.0789 38.3937 82.1958 38.8487 82.2997 39.3066C84.5977 39.1879 91.2677 39.442 92.876 39.1524L92.9749 39.1354C94.6172 38.841 96.8478 34.3309 100.372 36.7302C101.581 37.5529 102.161 38.4884 102.735 39.7976C105.57 39.8299 108.394 39.8618 111.24 39.8751C112.16 39.8582 113.658 39.9923 114.334 39.2249C115.268 38.1652 115.212 36.7916 116.775 36.2995C118.177 35.8581 119.42 35.9735 120.852 36.1245C122.369 37.4209 122.848 38.2167 123.795 39.9526C125.134 40.0559 131.899 40.3537 132.762 39.9245C134.293 38.1909 135.138 36.1385 137.767 35.9795C140.294 35.8265 142.099 38.2093 142.893 40.3188C148.155 40.754 154.959 40.0531 160.001 40.4927C160.152 39.8668 160.291 39.2677 160.521 38.6456C161.896 34.944 167.045 34.1207 169.146 37.6295C169.791 38.7056 169.965 39.772 170.077 41.0195C172.663 41.0431 177.954 40.8434 180.018 42.1599L180.081 42.3777C179.19 42.9895 178.813 42.2021 178.509 43.4056C178.11 44.9762 179.385 52.3888 176.701 52.2499C176.154 51.7732 176.12 50.9315 176.074 50.2388C175.932 47.9481 175.893 45.6523 175.956 43.3581C174.257 43.5438 171.626 43.4427 169.865 43.406C168.549 47.0357 167.17 46.8465 164.826 49.4435C164.082 50.2684 163.807 51.6285 163.187 52.2496L162.991 52.1823C162.649 51.4699 162.849 49.9854 162.915 49.1402C161.035 46.8124 160.271 46.1649 159.945 43.1046C155.202 43.3665 150.551 42.8817 145.809 43.0524C144.866 43.0865 143.893 43.0759 142.947 43.0888C142.556 44.8142 141.633 46.1207 140.745 47.6137C140.501 48.024 140.011 48.2856 140.233 48.7002C144.316 48.6088 148.3 49.6513 148.269 54.5087C148.268 54.9373 148.25 55.3657 148.214 55.7929C149.019 56.2107 150.316 55.5984 151.053 56.2285C150.906 56.8367 150.788 57.4199 151.169 57.974C151.068 58.1388 150.955 58.2873 150.804 58.411C149.004 59.8871 130.38 59.9321 127.038 59.517C126.891 64.406 125.496 102.542 126.813 104.035C131.671 104.056 135.333 103.422 140.013 103.109C143.089 102.904 147.191 102.995 150.393 102.894C150.296 99.0976 150.079 95.4118 150.128 91.5826C150.16 89.0817 150.225 86.869 150.374 84.304C150.345 82.7999 149.966 81.329 150.018 79.8181C150.264 72.6445 151.52 65.4265 151.405 58.2621C151.405 58.2621 151.191 58.0006 151.169 57.974C151.527 57.6429 151.683 56.5384 151.778 56.0506C153.273 53.7902 158.52 54.2206 160.868 54.0973C163.127 53.9787 165.659 53.5698 167.896 53.6234C167.673 52.329 166.627 49.4838 167.913 48.8712C168.516 48.8337 169.063 49.1424 169.62 49.3931C170.088 50.9787 170.032 51.7074 169.996 53.3321C171.765 53.0729 176.429 52.4818 177.702 53.7148C178.998 55.4271 179.41 56.0349 179.624 58.2493C179.815 60.0732 180.674 61.9426 182.073 63.1496C182.193 62.9374 182.046 60.2079 182.062 59.7259C182.424 59.3715 182.881 59.0324 182.923 58.5462L183.057 58.1145C183.48 57.9551 183.434 58.0424 183.948 58.2512L184.023 58.6485C184.37 58.7081 184.506 58.6137 184.848 58.4799C188.07 59.8752 191.152 64.1812 193.815 66.4562C195.915 68.3252 198.902 68.6554 200.991 70.5109C203.752 73.0054 203.809 77.2746 205.574 80.2665C206.695 82.1651 210.537 83.787 211.488 85.9068C214.227 92.011 216.149 98.064 214.759 104.806C213.718 109.851 210.716 115.531 212.598 120.577C213.162 121.999 216.181 124.436 217.127 125.751C218.463 127.607 220.918 129.559 222.071 131.396L222.115 131.463C221.513 132.209 221.674 132.035 221.471 132.883L221.112 133.024C220.374 132.628 212.038 124.263 211.384 123.424C206.184 116.765 213.357 106.048 212.545 98.8168C212.301 96.6488 210.021 88.1621 208.793 86.6188L208.556 86.5959C208.487 86.8679 208.723 88.0076 208.849 88.3687C209.365 89.8445 209.159 96.3016 207.374 96.9941C206.141 95.7626 207.36 91.2691 206.713 88.8891C206.337 86.4277 204.027 84.2163 203.281 82.0818C201.712 77.5927 202.052 75.4585 198.72 71.7562C199.87 74.9551 200.506 77.8709 201.213 81.1913C202.035 85.0524 203.041 88.9154 201.304 92.7135C201.173 93.0026 201.065 93.0006 200.801 93.0574C200.696 92.9731 200.568 92.8696 200.418 92.7474C200.004 91.0876 200.441 88.2602 200.121 86.6238C199.777 84.8656 199.298 83.5249 198.934 81.9291C198.09 78.2396 197.982 74.1801 195.693 71.0476C194.666 69.6423 193.824 69.4377 192.746 68.3176C191.401 66.9185 190.385 65.5427 188.765 64.4012C185.888 65.3563 185.07 65.5534 182.34 63.7582C184.359 67.8027 190.752 72.6485 191.507 75.8792C191.996 76.9435 192.598 79.0951 192.662 80.2506C192.102 81.6971 191.579 81.2954 191.268 81.9393C190.87 81.1823 189.929 78.2856 189.865 77.4784C188.388 73.4065 185.846 71.5346 183.281 68.1551C182.027 66.5052 180.293 64.7584 179.252 63.0024L179.026 63.0045L178.87 63.4002C178.36 66.4327 175.249 64.5463 174.149 62.7513C174.113 62.2249 174.099 61.7748 173.974 61.2601L173.706 61.3349C171.501 66.0868 178.781 73.3327 180.62 77.4616C182.212 81.0387 182.599 85.1998 183.081 89.0471C183.537 92.6891 183.816 96.9896 179.71 98.6002C178.351 99.1327 176.841 98.8017 175.565 98.1887C171.023 95.8688 169.035 91.2276 166.32 87.2834C165.113 85.5309 159.279 80.4751 156.99 81.2584L157.521 82.0077C158.262 82.4756 159.016 82.8793 159.526 83.5881L159.582 83.6643C160.032 84.2851 160.251 85.2848 160.388 86.0407C159.824 87.7017 159.18 88.7649 157.51 89.5788C157.413 89.626 157.316 89.6715 157.218 89.7154C160.751 93.4877 164.529 98.0785 166.471 102.835C168.865 108.696 169.481 113.972 173.652 119.05C176.81 122.892 180.476 124.5 184.785 126.823C190.154 130.159 194.89 135.925 195.781 142.308C196.151 144.02 196.343 145.765 196.352 147.516C195.295 146.519 194.821 146.166 194.304 144.779C192.512 142.322 192.104 137.895 189.42 135.055C186.038 131.481 182.945 128.949 178.487 126.751C176.566 125.805 174.774 124.171 173.257 122.705C168.64 118.346 167.859 114.606 166.137 108.956C165.427 106.663 164.624 104.4 163.727 102.174C160.299 103.074 157.046 102.944 153.6 103.36C152.734 104.482 152.906 106.142 151.028 106.249C145.38 106.595 139.464 106.19 133.833 106.865C131.823 107.105 132.286 109.359 128.029 109.442C121.552 109.57 115.227 109.163 108.761 109.184C107.074 109.19 104.41 108.874 103.257 107.557C102.443 106.609 102.508 105.617 102.532 104.453C99.0011 105.092 91.93 105.279 88.1711 105.317C86.071 105.338 84.721 104.359 83.3844 102.855C78.4192 102.704 72.8432 103.158 67.9222 103.166C62.9796 102.948 58.4738 102.699 53.4942 102.404C49.9435 102.194 41.6635 102.485 38.6283 100.754C36.0885 99.3054 39.873 83.5877 38.6783 82.8124C38.0416 83.3079 37.0097 87.6588 36.9399 88.6384C36.4857 94.9673 36.3847 101.323 35.9696 107.656C35.8314 109.763 35.3272 111.854 35.265 113.969C35.1972 116.273 35.5971 118.62 35.4721 120.917L37.6758 120.913C37.8471 118.348 37.4349 116.072 37.3064 113.545C37.3064 113.545 37.4708 113.287 37.4875 113.261C38.5957 112.789 46.008 113.939 48.1236 113.978C50.2925 112.825 50.6816 111.632 53.3119 111.334C55.403 111.098 59.9042 112.595 61.3867 113.827C62.5621 113.011 65.3519 111.126 67.0135 112.181C68.4747 113.108 69.0511 111.111 70.5066 111.173C72.3257 111.147 74.3216 112.777 76.0864 112.847C79.2396 112.972 82.7603 112.129 85.9633 111.788C86.7277 111.222 86.9274 111.074 87.5325 110.319C88.2399 110.674 88.8917 111.193 89.1785 111.955L89.1003 112.149L88.8055 112.252C88.0321 112.482 86.3714 113.115 85.7761 113.24C83.803 113.657 80.2375 114.159 78.2297 114.148C79.1486 115.319 79.5164 116.022 81.1396 116.083C85.6505 116.253 89.9049 116.762 94.3657 117.395C98.3469 117.959 102.266 118.378 106.245 119.108L106.372 119.024C107.353 118.369 107.824 117.642 108.607 117.044C110.338 115.719 112.77 115.795 114.756 116.14C118.262 116.749 119.571 117.811 122.159 120.108C125.665 118.57 127.542 116.413 131.828 116.492C134.811 116.546 134.228 117.148 136.74 118.186C138.162 118.773 140.722 118.911 142.328 119.473C142.778 119.629 143.208 119.835 143.611 120.088C145.01 120.985 145.191 124.017 146.64 123.498L146.975 124.159C146.151 125.044 146.175 127.123 146.217 128.322C146.306 130.524 147.274 132.599 148.905 134.081C149.133 134.289 149.338 134.386 149.628 134.488C149.219 135.017 149.132 135.145 148.596 135.534L148.285 135.163C147.953 135.237 147.843 135.75 147.667 136.158C146.793 138.177 146.265 138.93 144.723 140.447C144.838 141.954 145.054 144.107 143.767 145.232C141.499 147.216 137.714 145.668 135.14 146.479C133.839 146.95 131.688 148.751 130.274 148.628C128.084 148.436 124.177 146.158 122.472 144.8C121.677 144.167 122.027 141.473 122.106 140.474C121.724 140.283 120.615 139.616 120.41 139.304C119.051 137.245 117.138 134.975 117.375 132.401C117.67 129.203 119.241 127.827 121.391 125.955C121.385 124.05 121.189 122.273 121.761 120.449C117.295 120.065 110.167 114.795 108.094 122.15C106.475 127.895 107.905 134.127 108.253 139.946C108.298 140.701 108.613 142.354 109.154 142.967C111.537 144.706 117.392 143.634 119.841 143.308C117.165 146.479 110.187 147.46 106.986 144.776C106.293 144.196 105.764 143.444 105.45 142.597C104.765 140.736 104.385 133.472 104.181 131.102C104.218 129.746 104.367 128.291 104.36 126.977C104.708 124.881 105.02 123.311 105.641 121.284C103.301 121.289 98.7508 120.601 96.1475 120.336C90.8277 119.826 85.4991 119.41 80.1646 119.087C80.5242 120.911 81.156 122.117 81.4571 124.171C83.7246 124.12 102.794 125.792 103.776 126.634C103.696 127.396 103.595 127.924 103.79 128.674C101.145 128.956 97.1244 128.438 94.4699 128.207C89.7914 127.754 85.1055 127.383 80.4139 127.096C80.3861 127.262 80.3558 127.427 80.3228 127.592C79.906 129.664 78.4241 130.517 76.7782 131.614C75.8677 135.456 74.0994 136.166 70.3875 134.948C69.1817 135.586 68.5114 135.975 67.0913 136.08C64.9961 136.234 60.4933 134.153 58.9955 132.795L58.9839 132.728C58.7402 131.24 58.7622 130.514 58.7519 129.015L58.6097 128.984C56.416 128.509 53.2825 127.693 52.0027 125.641C50.5408 123.27 51.9078 118.668 54.9486 118.332C55.6525 118.254 56.7414 118.191 57.1267 118.875C56.9214 119.451 56.8425 119.468 56.2269 119.581C55.7953 119.661 54.8846 119.767 54.586 120.058C53.21 121.401 53.4389 126.009 55.8349 126.239C56.7146 126.324 56.6589 125.737 56.6749 125.07C56.6903 123.804 56.9296 122.59 57.2077 121.361C57.936 117.776 58.8132 116.979 61.2702 114.556C60.5124 114.668 59.9774 114.734 59.2913 114.684C58.1132 114.615 53.2307 113.412 52.4663 114.239C48.6039 118.42 46.4286 122.914 49.6132 128.266C51.8871 132.087 54.6191 131.865 58.2016 132.844C53.5327 133.672 53.7608 133.749 49.2358 132.856C46.8314 130.903 45.6225 127.058 45.4536 124.043C43.2258 123.848 41.3167 123.87 39.108 123.984C40.3871 127.075 40.6947 129.55 40.5977 132.9C40.5603 134.189 40.8697 136.145 39.4527 136.802C39.1367 136.948 38.5303 137.062 38.1933 136.895C35.6005 134.434 40.2719 126.652 36.3722 125.123C34.8969 125.702 33.8469 131.284 31.6924 131.235C29.9153 130.118 32.3013 125.414 32.8164 123.784C31.5417 123.908 29.9558 123.792 28.6503 123.782C25.4855 123.757 22.2967 123.83 19.1366 123.683C17.8057 123.621 14.1388 123.554 13.5659 122.178C13.9693 120.615 17.7178 120.723 18.9508 120.75C23.7103 120.857 28.4967 120.719 33.2538 120.839C33.145 119.168 33.4189 116.528 33.1897 115.002C32.4305 114.786 31.5753 114.849 30.785 114.814C24.6928 114.539 18.6055 113.999 12.5112 113.694C12.0769 113.672 11.5657 113.553 11.1952 113.321C10.5895 112.524 10.7694 111.874 11.3666 111.163C11.8287 110.936 13.2798 110.658 13.7662 110.741C19.7075 111.745 27.8064 111.164 33.4975 112.762C31.9605 109.425 33.0564 104.058 33.3914 100.442C33.4663 99.6351 33.6594 98.162 33.4225 97.3934C32.9808 97.9287 31.8397 100.399 31.2211 101.361C31.4667 95.6246 32.7289 91.9713 34.4791 86.5612C35.5227 83.3346 36.7708 80.7268 38.1878 77.6709C38.7692 77.4401 39.3446 77.1004 39.8946 76.7946C40.7713 73.854 40.7324 69.1102 40.9549 65.8482C40.2111 66.5412 38.0958 68.8196 37.1469 68.4181C37.0436 68.2096 36.9817 68.0485 37.0053 67.8031C37.4146 63.5626 42.8682 61.1101 45.4635 58.5777C48.5561 55.6206 50.4555 52.9435 50.7846 48.5529C51.2133 42.831 55.8814 37.6891 59.8835 33.8049C56.9952 33.5282 55.5588 32.5171 57.3066 29.5287C58.0577 28.9977 58.3246 28.6795 58.9319 28.0134C58.3447 28.3031 57.6092 28.6093 57.1632 29.0677C55.553 30.0891 52.7464 32.4782 51.4594 33.8777C47.6675 38.0007 44.1899 44.3479 38.0561 39.2279ZM157.348 87.4782C160.031 85.4554 158.871 84.6884 157.015 82.5123C156.225 81.7285 155.975 81.3454 154.91 81.1659C153.721 81.6001 152.364 82.0276 153.009 83.6156C153.726 85.3843 155.744 86.6843 157.348 87.4782ZM112.033 57.8856C110.311 58.1245 107.617 58.5054 105.919 58.5666C100.784 58.7354 93.4739 59.007 88.4625 58.399C88.4263 58.7918 88.2794 60.1151 88.313 60.4331C87.5788 74.3132 86.0974 88.1182 86.7366 102.053C90.5255 101.815 99.0211 101.305 102.558 101.695C102.445 99.5468 102.631 97.6152 102.597 95.5416C102.86 86.9015 103.477 78.2257 103.786 69.5851C103.906 66.2404 103.825 63.032 104.644 59.7563C105.116 59.4201 105.54 59.2543 106.067 59.0201C107.058 58.8952 111.124 58.8276 111.723 58.5926C112.15 58.5818 112.591 58.5974 113.02 58.6056L113.201 58.377C113.141 55.7902 113.98 53.8248 116.041 52.2888C115.057 54.7243 115.328 56.5435 114.548 58.5367C115.272 58.9112 122.663 57.6696 123.743 59.7004L123.562 60.0798C121.324 61.9643 110.567 61.5709 107.247 61.4916C107.264 66.5584 106.845 71.8265 106.654 76.899C106.288 86.6527 105.637 96.1427 105.752 105.914C109.293 105.226 115.137 106.057 118.869 105.826C120.09 105.75 123.752 106.312 124.613 106.002C124.455 105.698 124.042 104.926 124 104.616C123.243 99.0268 123.522 92.7802 123.681 87.2029L123.957 74.211C124.085 69.5554 124.093 64.6907 124.441 60.0351C124.506 59.1645 125.425 57.9404 125.621 57.1817C125.855 56.3435 125.669 54.8952 126.029 54.1446C127.923 50.1912 130.776 49.7099 134.517 49.2029C133.32 46.8406 132.592 45.8087 132.694 43.0884C129.905 43.1856 126.804 43.0788 124.016 42.991C123.401 46.2246 121.642 47.6676 119.136 49.4396C118.883 50.9643 119.061 54.204 118.055 55.1913C115.878 55.2874 116.328 51.2206 116.398 49.7759C114.867 47.9735 113.846 45.3266 113.78 42.949L102.725 42.8592C102.23 45.6096 101.669 47.8506 98.9622 49.2029C97.8925 49.7374 97.5046 50.4518 97.5211 51.6227C97.5364 52.6943 97.8966 56.0293 95.7936 54.976C95.4917 54.4392 95.6256 50.8071 95.6317 49.9404C94.0931 48.3198 93.0988 46.8624 92.8483 44.5193C92.7789 43.8712 92.9758 43.0768 92.6742 42.5985C89.1821 42.456 85.6899 42.4306 82.1611 42.2787C81.0947 45.3157 79.7672 47.9393 76.5525 49.1215C76.4744 50.3276 76.5297 52.5046 75.7691 53.3321C75.1799 53.5701 75.396 53.5195 74.7314 53.4029C74.1586 52.8748 74.3961 49.9234 74.3482 48.8082C72.3875 46.2859 71.9575 45.5502 71.8914 42.3138C68.7535 42.1041 65.2364 42.0854 62.0733 42.0181C61.4616 43.947 61.2755 44.7321 60.0517 46.4232C59.0996 47.739 57.1333 48.2704 56.7541 49.0557C56.2814 50.0345 56.8119 52.4468 55.7803 53.4232C52.2828 53.5376 55.9572 47.3113 52.9313 46.9001C52.0938 47.6737 50.6677 55.1865 49.8839 56.7941C48.6919 59.3501 46.5432 61.0481 44.6138 62.9523C43.7369 63.8177 43.5855 68.1663 43.4635 69.591L42.6114 80.1154C42.0341 86.5918 40.7519 92.0173 41.2403 98.691C45.0989 98.8059 57.6382 99.3929 60.7391 100.645C60.5699 98.0734 60.6946 95.4299 60.7286 92.8518C60.8225 85.7349 61.2411 78.6413 61.6602 71.5388C61.8647 68.0704 62.0894 64.621 62.3602 61.1581C62.48 59.6235 62.4967 58.0176 62.7814 56.5046C62.8869 55.9437 63.0157 55.3324 63.3944 54.8859C63.9377 54.2454 64.8533 54.0474 65.6499 53.989C67.4938 53.8534 83.9689 54.3959 84.8174 55.2131C85.0494 55.4365 85.0052 55.5796 85.0142 55.8835C83.5741 58.3576 68.6041 56.8662 65.52 56.8496C65.7822 59.369 65.3422 61.9146 65.1958 64.4357C65.0578 68.2813 64.6296 72.2424 64.5932 76.0823C64.5177 84.0315 63.9074 92.0245 63.9566 99.9648C70.2271 100.005 77.2239 99.4346 83.401 99.6996C83.3711 99.4606 83.3421 99.2016 83.341 98.962C83.2899 87.7031 83.7935 76.6531 84.9978 65.4479C85.4897 62.4787 84.8224 58.5168 86.1813 55.8506C86.4772 55.2698 90.466 55.3659 91.0617 55.4915C94.3652 56.1882 110.354 54.6641 112.015 56.2931C112.272 56.7901 112.118 57.3163 112.033 57.8856ZM171.404 89.4907C172.234 88.1463 173.585 88.0356 173.952 89.6176C173.832 90.2046 173.946 89.996 173.527 90.4112C172.965 90.5979 172.848 90.5746 172.266 90.5326C172.201 90.9691 172.431 91.3191 172.624 91.696C173.541 93.474 175.31 95.3004 177.26 95.8937C177.834 96.0682 178.549 96.1715 179.091 95.8495C179.455 95.6334 179.66 95.2888 179.771 94.8912C180.068 93.8285 179.513 79.977 179.073 78.8427C178.649 77.7468 177.765 76.9592 177.129 75.991C176.085 74.3998 175.112 72.7045 174.187 71.0404C172.684 68.3376 171.184 63.7868 172.099 60.7056C172.87 58.117 175.427 57.1413 177.593 55.9438C172.846 55.7054 167.92 56.5624 163.202 56.8916C160.298 57.0941 157.123 57.0782 154.186 57.1766C154.617 62.5391 154.168 73.4271 153.496 78.8546C155.897 77.9292 158.276 78.6235 160.671 79.2376C161.081 78.6506 161.734 77.7317 162.562 77.7684C164.549 77.8567 163.349 80.7129 164.18 81.6476C164.893 82.449 165.882 82.7371 166.682 83.5707C168.266 85.2212 169.588 88.0048 171.173 89.532L171.404 89.4907ZM100.793 91.612C102.112 92.5876 102.185 92.6963 102.172 94.361C99.1055 96.6054 98.5363 91.5417 100.793 91.612ZM124.266 125.999C123.305 127.886 120.918 129.711 119.505 132.507C122.848 137.702 124.955 136.867 124.785 143.533C126.047 143.999 126.493 144.136 127.879 144.253C129.778 148.122 132.497 144.914 135.001 143.9C137.515 143.272 138.396 143.399 140.873 144.042C142.709 142.956 142.719 142.723 142.509 140.474C142.223 137.425 147.667 136.432 145.527 133.244C143.827 130.973 143.711 130.552 144.601 127.734C142.901 124.961 143.267 123.527 141.449 121.012C140.394 121.169 138.044 121.581 137.073 121.412C134.442 120.955 133.415 118.772 130.371 119.06C129.327 119.495 127.216 121.231 127.149 121.231C124.432 121.202 124.041 122.15 124.266 125.999ZM94.8574 67.5988C94.3533 67.6368 94.0739 67.577 93.5772 67.5024C91.3899 66.1482 93.3989 63.7465 95.0169 64.7162C95.3166 64.8957 95.5147 65.2052 95.5524 65.5524C95.6313 66.3398 95.2944 66.9984 94.8574 67.5988ZM101.588 80.7456C103.641 83.3562 101.779 86.3388 99.5824 83.596C99.6164 81.8421 99.885 81.2515 101.588 80.7456ZM61.0647 121.776C60.9271 122.035 60.6388 122.614 60.4711 122.832C58.3042 125.649 59.9452 125.637 61.4013 128.044C61.4039 129.134 61.3625 130.764 61.4583 131.807C62.2935 131.866 63.0941 131.946 63.9222 132.035C65.5672 132.212 65.6272 134.223 67.1889 134.384L67.5752 134.245C68.4696 133.619 69.3677 132.916 70.3955 132.56C71.8325 132.749 72.7958 133.062 74.1696 133.478C74.7435 130.782 74.8997 130.828 76.6053 128.698C77.2902 127.842 78.7008 124.655 78.9663 123.556C75.5217 120.403 79.6797 119.572 76.7094 117.966L76.1183 116.284C75.4663 116.21 74.6328 116.137 74.0049 115.953C72.9483 115.645 71.4177 113.866 70.6135 113.675C67.5158 116.721 67.1796 113.756 64.6286 114.56C64.0561 115.225 64.4347 116.896 63.9961 117.156C60.8078 119.042 60.1725 117.103 61.0647 121.776ZM118.366 46.879C120.224 45.1991 121.149 43.9923 121.395 41.3809C121.54 39.8363 120.584 38.466 118.953 38.5559C117.976 38.9468 117.698 39.0562 116.83 39.6795C115.795 41.9082 115.778 45.4718 118.16 46.8701L118.366 46.879ZM165.09 45.6752C167.041 43.9331 167.068 42.7576 167.495 40.229C166.763 38.3407 166.58 37.9702 164.455 38.1232C163.22 39.1962 162.641 40.2043 162.546 41.8634C162.471 43.1606 162.709 45.7873 164.284 46.1434C164.702 45.9957 164.752 45.9645 165.09 45.6752ZM98.4799 38.7391C97.7108 39.0218 96.8849 39.2835 96.2017 39.7268C95.4239 41.7118 94.718 45.756 96.5736 47.2857C96.7214 47.3082 96.9808 47.3587 97.1185 47.3527C98.4352 46.5359 98.5635 46.3831 99.4291 45.0498C100.533 43.3496 101.173 39.4157 98.4799 38.7391ZM178.359 62.8937C178.879 59.8485 172.993 57.2648 175.062 62.3357C176.288 62.9298 176.996 63.4843 178.359 62.8937ZM39.8527 120.771C40.8385 120.785 44.7935 121.116 45.4242 120.837C45.6325 120.578 45.6421 120.594 45.693 120.274C45.9011 118.635 46.0658 118.046 46.8652 116.59C44.5663 116.355 41.653 116.317 39.5919 116.043C39.8944 117.268 40.1007 119.543 39.8527 120.771ZM42.3263 27.2446C42.1207 27.8256 41.9852 28.0735 42.1221 28.6729L42.3916 29.007C42.5224 28.5273 42.7396 27.9754 42.5907 27.5193L42.3263 27.2446ZM58.6475 38.5357C57.0017 39.6231 52.9785 45.0862 56.2225 45.8057C57.7236 44.5029 58.2277 43.8765 59.4014 42.2556C59.4499 41.194 59.6889 39.5573 59.0744 38.7193C58.9427 38.6534 58.7839 38.5559 58.6475 38.5357ZM135.848 39.7932C135.042 41.7409 134.422 45.4812 136.499 46.8196C136.743 46.847 136.879 46.8796 137.123 46.8531C139.891 45.276 142.625 39.6387 138.275 38.7568C137.247 38.9677 136.705 39.166 135.848 39.7932ZM136.65 51.2259C135.898 51.4134 134.43 51.5487 133.45 51.7845C129.28 52.7882 128.489 55.0199 125.581 57.6498C127.268 57.6742 129.097 57.5204 130.782 57.3713C136.182 56.8935 141.631 56.3992 147.039 56.034C146.233 54.4992 145.592 53.3304 144.092 52.296C142.583 51.2554 139.764 50.7382 137.944 51.0865C137.583 51.0645 136.932 50.9595 136.65 51.2259ZM153.483 100.367C155.453 100.282 160.607 99.751 162.068 99.8679L162.301 99.8321C162.371 98.9437 156.737 91.4316 155.674 90.1863C155.283 89.7276 153.25 87.0412 153.12 86.981C152.682 88.2704 153.494 98.3776 153.483 100.367ZM185.195 60.8368C184.512 60.6559 183.77 60.4877 183.134 60.1927C183.104 60.9599 182.974 61.8052 183.52 62.4216C184.196 63.1874 185.946 63.3013 186.926 63.2515C186.873 62.5276 185.718 61.3999 185.195 60.8368ZM62.163 27.9188C60.4478 28.5979 56.2171 31.3823 59.8577 32.7299L59.9427 32.761C60.738 32.0102 63.0211 29.651 63.206 28.7288C63.0019 28.1182 62.8257 28.067 62.163 27.9188ZM76.8839 37.4754C75.5955 38.3257 74.7842 39.4134 74.5074 40.9449C74.2647 42.287 74.1407 45.369 75.6358 45.9688C76.115 46.0202 76.3869 45.8204 76.8057 45.5917C77.8088 44.8152 78.4782 44.0598 79.0585 42.9293C80.1878 40.7295 80.2024 37.2904 76.8839 37.4754ZM100.218 66.9309C100.382 66.0234 100.859 65.4863 101.563 64.9443C101.938 65.7963 102.455 66.9124 101.755 67.7627C101.011 67.9987 100.614 67.5416 100.218 66.9309ZM42.2391 29.7606C40.6591 31.4918 39.5336 32.9682 39.6322 35.4815C39.6924 37.017 40.3866 38.8698 42.0153 39.3421C42.5907 39.1313 44.091 38.639 44.3541 38.0665C45.0207 36.616 43.7113 30.5492 42.5411 29.8126L42.2391 29.7606ZM49.1142 22.6438C47.8703 22.9659 46.7578 23.2966 46.0267 24.4706C44.963 26.1787 45.8535 30.4623 46.3357 32.3054C46.5694 33.2106 46.8494 34.1032 47.1747 34.9798L48.3128 33.7859C49.4061 32.6707 51.7771 30.0516 52.8244 29.2587C51.7039 27.0912 51.8782 23.4459 50.3182 22.6488C49.8028 22.6038 49.6421 22.5967 49.1142 22.6438Z" fill="#843A05"/>
<path d="M175.061 62.3357C176.287 62.9298 176.995 63.4843 178.358 62.8937C178.502 63.0418 178.716 63.2808 178.869 63.4002C178.359 66.4327 175.248 64.5463 174.148 62.7513L175.061 62.3357Z" fill="#602103"/>
<path d="M191.509 75.8792C191.998 76.9435 192.6 79.0951 192.664 80.2506C192.105 81.6971 191.581 81.2954 191.27 81.9393C190.872 81.1823 189.931 78.2856 189.867 77.4784C189.93 77.4795 190.034 77.552 190.102 77.5888C190.425 78.4609 190.919 79.6398 191.053 80.5346C191.084 80.7401 191.173 80.7662 191.35 80.9602C191.967 80.7126 192.467 79.4685 192.216 78.794L191.98 78.7692L191.827 79.1692L191.672 79.2296L191.583 78.9673C192.369 77.6063 191.333 77.3749 191.509 75.8792Z" fill="#602103"/>
<path d="M179.627 58.2491C177.689 57.4093 177.544 55.5896 177.705 53.7146C179 55.4269 179.413 56.0348 179.627 58.2491Z" fill="#9E5623"/>
<path d="M195.781 142.308C196.152 144.02 196.344 145.765 196.353 147.516C195.295 146.519 194.822 146.166 194.305 144.779C194.598 144.749 194.72 144.86 194.978 145.009C195.036 145.27 195.094 145.29 194.992 145.456L195.123 145.035L195.173 145.088C195.712 144.372 195.689 143.247 195.781 142.308Z" fill="#602103"/>
<path d="M154.91 81.1657C155.31 80.8914 156.522 80.8385 156.962 81.039L156.99 81.2582L157.521 82.0076L157.015 82.5121C156.225 81.7284 155.975 81.3453 154.91 81.1657Z" fill="#9E5623"/>
<path d="M121.666 50.1699C124.615 50.8623 125.563 55.1934 124.214 57.6285C123.847 57.9241 123.716 57.916 123.255 57.9674C121.572 57.3207 121.422 51.7674 121.666 50.1699Z" fill="#843A05"/>
<path d="M53.8127 54.4079C54.0081 54.4045 54.2036 54.4085 54.3988 54.4198C55.5886 54.4826 60.9492 54.7204 60.8444 56.3131C60.3081 56.8384 59.4144 56.7704 58.6305 56.817C56.5909 56.8862 53.1539 56.8673 51.2656 56.3712C52.0525 54.9215 52.1267 54.6045 53.8127 54.4079Z" fill="#843A05"/>
<path d="M111.53 83.8503C113.388 84.4642 114.318 86.2941 112.629 87.8158C112.514 87.9193 111.509 88.2808 111.31 88.353C108.691 87.4389 108.819 86.6242 110.19 84.488L111.53 83.8503Z" fill="#843A05"/>
<path d="M119.239 83.9854C121.769 85.0196 122.118 87.3614 119.463 88.3908C118.428 88.0599 118.015 87.4386 117.379 86.6036C117.932 85.3386 118.153 84.8799 119.239 83.9854Z" fill="#843A05"/>
<path d="M70.425 79.0013C73.085 78.9709 74.143 81.4117 72.0125 82.6711C71.7159 82.7264 71.4178 82.773 71.1186 82.8108C69.1339 83.0413 69.1572 80.3099 70.425 79.0013Z" fill="#843A05"/>
<path d="M48.2226 77.6128C50.4945 77.617 51.4401 80.377 49.1533 81.6656C46.7817 82.5222 46.5701 78.9872 48.2226 77.6128Z" fill="#843A05"/>
<path d="M56.2939 78.3518C57.9974 78.342 59.6124 81.0073 57.0069 82.3886C55.7713 82.5925 55.0735 81.4689 55.1324 80.3798C55.1942 79.2339 55.4866 79.0909 56.2939 78.3518Z" fill="#843A05"/>
<path d="M78.767 78.8414C81.1391 78.7397 81.5914 81.0181 79.8425 82.5325C77.5745 82.5341 76.7778 80.3227 78.767 78.8414Z" fill="#843A05"/>
<path d="M68.2654 50.784C67.8146 50.044 67.2521 45.8157 68.0348 45.1096L68.3368 45.1798C70.0278 46.6381 68.6249 47.6684 69.3924 49.0009C69.9926 49.4566 69.8632 49.2427 70.1528 49.9073C69.9904 51.0899 69.2668 51.2379 68.2654 50.784Z" fill="#602103"/>
<path d="M70.8626 89.8171C73.5465 89.7529 74.0238 92.3194 72.3699 93.2974C69.7055 93.7091 69.4426 91.3041 70.8626 89.8171Z" fill="#843A05"/>
<path d="M55.4355 89.3345C58.049 89.4134 57.9093 91.8429 56.3269 93.0595C54.1199 92.6934 53.483 90.5337 55.4355 89.3345Z" fill="#843A05"/>
<path d="M70.8567 63.2613C73.0022 63.1594 74.1725 65.3391 72.4677 66.5106C71.8038 66.5484 71.0538 66.7025 70.522 66.2361C69.577 65.407 70.0814 64.0519 70.8567 63.2613Z" fill="#843A05"/>
<path d="M61.6491 49.209C64.603 48.9873 64.2662 50.8337 63.4002 53.0007C61.9899 52.9739 61.5351 52.295 61.2469 50.8809C61.1054 50.1868 61.2079 49.7739 61.6491 49.209Z" fill="#843A05"/>
<path d="M103.549 50.1797C105.104 50.5286 105.787 53.2423 103.437 53.562C102.207 53.0913 101.436 51.8489 102.187 50.6242C102.632 50.222 102.949 50.2425 103.549 50.1797Z" fill="#843A05"/>
<path d="M49.4986 62.4829C49.5678 62.4971 49.637 62.5113 49.7062 62.5256L49.8145 62.5523C51.6461 62.9781 51.5826 65.3295 49.9254 66.1956C47.8161 65.5728 47.6678 63.6045 49.4986 62.4829Z" fill="#843A05"/>
<path d="M78.9732 89.623C80.8246 89.8063 81.0102 92.5948 79.4109 93.4357C77.3346 92.5224 76.8291 90.8815 78.9732 89.623Z" fill="#843A05"/>
<path d="M48.013 88.9547C50.2466 88.907 50.3186 90.9295 48.9644 92.3695C46.9314 92.6841 46.3658 90.2728 48.013 88.9547Z" fill="#843A05"/>
<path d="M119.073 67.4475C121.367 67.5934 121.72 68.958 120.57 70.7545C118.019 71.1031 118.012 69.1089 119.073 67.4475Z" fill="#843A05"/>
<path d="M127.399 45.9146C127.596 45.9719 127.859 46.0805 128.057 46.1558C128.7 46.8871 128.682 48.0422 128.228 48.8539C127.962 49.328 127.6 49.3149 127.133 49.4328C125.075 48.7055 125.428 46.5772 127.399 45.9146Z" fill="#843A05"/>
<path d="M81.4454 49.1826C84.3098 49.1853 83.8614 50.489 83.1853 52.5739C81.4014 52.4573 80.2267 50.7946 81.4454 49.1826Z" fill="#843A05"/>
<path d="M57.1029 63.3076C58.5027 63.4061 59.8388 65.1553 58.2694 66.3711C57.7232 66.4811 57.5858 66.5298 57.0316 66.4245C55.8349 65.5837 56.4518 64.3304 57.1029 63.3076Z" fill="#843A05"/>
<path d="M112.008 67.217C112.891 67.4313 113.136 68.2486 113.503 69.0077C113.17 69.9402 113.072 70.3414 112.393 71.0602C111.525 70.6945 111.268 69.8069 110.891 68.9588C111.243 68.25 111.55 67.8491 112.008 67.217Z" fill="#843A05"/>
<path d="M79.3434 63.6453C80.3634 63.7531 81.0314 64.8643 80.7614 65.8371C80.6131 66.3714 80.2995 66.4293 79.857 66.6776C78.8878 66.5898 78.5823 66.6453 78.2148 65.7028C78.2595 64.7262 78.6591 64.3137 79.3434 63.6453Z" fill="#843A05"/>
<path d="M87.6937 45.3295C88.0809 45.2912 88.3784 45.2929 88.7625 45.2942C89.3297 45.6361 89.1414 45.4442 89.4694 46.0304C89.565 47.0889 89.1723 47.625 88.6186 48.4887C86.9325 48.5723 86.983 46.4178 87.6937 45.3295Z" fill="#843A05"/>
<path d="M118.093 94.5796C119.933 94.9362 119.748 96.7483 119.188 98.1104C117.438 97.5355 117.352 96.0451 118.093 94.5796Z" fill="#843A05"/>
<path d="M109.054 46.3877C110.178 45.5005 111.586 47.3295 110.321 48.4195C109.754 48.5766 109.473 48.6057 108.885 48.4232L108.856 48.2573C108.732 47.5262 108.613 47.0135 109.054 46.3877Z" fill="#1D0100"/>
<path d="M109.054 46.3877L109.193 46.8907C109.612 47.0008 109.941 47.0272 110.195 47.3519C109.543 48.1646 109.494 47.3344 108.885 48.4232L108.856 48.2572C108.732 47.5261 108.613 47.0135 109.054 46.3877Z" fill="#2F0200"/>
<path d="M109.131 50.804C110.403 50.9394 111.352 51.2913 110.915 52.7524C109.175 53.1199 108.936 52.3557 109.131 50.804Z" fill="#843A05" fill-opacity="0.988235"/>
<path d="M169.859 78.0615C172.306 78.1453 173.494 81.4728 170.967 82.1918C168.933 82.3884 167.634 79.6982 169.859 78.0615Z" fill="#602103"/>
<path d="M168.079 69.684C169.129 69.6514 169.676 69.5473 170.367 70.4885C171.113 71.5056 170.91 72.7279 169.892 73.4754C169.712 73.4726 169.534 73.4667 169.354 73.4575C166.998 73.3307 166.307 71.239 168.079 69.684Z" fill="#843A05"/>
<path d="M160.423 69.7693C160.537 69.8187 160.65 69.8698 160.761 69.9224C162.742 70.8612 163.433 72.9407 160.837 73.7893C157.978 73.4399 158.467 71.1671 160.423 69.7693Z" fill="#602103"/>
<path d="M159.363 62.2983C159.964 62.3132 160.647 62.4129 161.133 62.7985C161.435 63.0407 161.613 63.4038 161.622 63.7902C161.642 64.5222 161.116 65.146 160.652 65.6443C158.496 66.1237 157.544 63.5929 159.363 62.2983Z" fill="#843A05"/>
<path d="M167.867 62.4678C168.556 62.5303 169.302 62.4771 169.638 63.1753C170.15 64.2414 169.489 64.9264 168.616 65.3698C168.352 65.3739 168.078 65.3606 167.813 65.352C166.535 64.6803 166.552 63.1561 167.867 62.4678Z" fill="#602103"/>
<path d="M92.9658 80.408C95.46 80.4283 95.7813 82.3405 94.3694 84.1411C91.7856 84.9295 91.6978 82.0097 92.9658 80.408Z" fill="#843A05"/>
<path d="M93.3365 91.505C93.9417 91.4991 94.5449 91.6788 94.9484 92.1575C95.2643 92.5267 95.4093 93.0124 95.3474 93.4944C95.2553 94.2085 94.9459 94.4358 94.4168 94.825C91.8823 94.8721 91.9628 93.0292 93.3365 91.505Z" fill="#843A05"/>
<path d="M132.32 122.846C136.993 122.67 140.823 125.284 141.539 130.084C142.363 135.603 140.447 141.362 134.255 142.277C129.712 142.71 125.55 138.742 124.812 134.445C123.912 129.21 126.777 123.694 132.32 122.846ZM134.646 140.209C142.785 138.567 142.422 124.253 132.925 124.702C131.387 125.029 129.262 126.117 128.492 127.501C125.499 132.88 126.902 141.084 134.646 140.209Z" fill="#843A05"/>
<path d="M132.694 126.863C137.516 126.679 138.903 132.748 135.947 135.822C135.284 136.511 134.77 136.723 133.935 137.126C131.974 137.168 131.422 136.935 129.875 135.895C129.839 135.831 129.804 135.767 129.771 135.702C128.052 132.271 129.306 128.615 132.694 126.863ZM133.2 135.21C136.117 134.059 136.462 129.377 132.632 129.21C131.75 129.475 131.397 129.493 130.891 130.328C129.903 131.961 130.656 135.872 133.2 135.21Z" fill="#843A05"/>
<path d="M69.1607 118.593C70.1969 118.419 71.114 118.581 72.028 119.12C75.0246 120.885 74.8701 126.007 72.314 128.081C71.4718 128.765 70.6026 128.946 69.5801 129.194C67.0765 129.191 65.5852 127.831 64.4744 125.684C64.4254 121.865 65.3733 119.891 69.1607 118.593ZM70.0458 127.255C71.3888 126.584 72.4785 126.037 73.0091 124.475C73.3004 123.612 73.2302 122.667 72.8149 121.856C72.1152 120.506 70.7268 120.097 69.3135 120.15C64.4219 121.754 65.8777 128.365 70.0458 127.255Z" fill="#843A05"/>
<path d="M99.582 83.5961C99.6161 81.8422 99.8847 81.2515 101.588 80.7456C103.641 83.3562 101.778 86.3389 99.582 83.5961Z" fill="#843A05"/>
<path d="M116.043 52.2888C115.059 54.7243 115.329 56.5435 114.549 58.5366C113.971 58.3046 113.828 58.3369 113.202 58.3769C113.143 55.7902 113.982 53.8248 116.043 52.2888Z" fill="#843A05"/>
<path d="M102.174 94.3609C99.1077 96.6052 98.5384 91.5415 100.795 91.6118C102.114 92.5874 102.187 92.6962 102.174 94.3609Z" fill="#843A05"/>
<path d="M93.5784 67.5023C91.3911 66.1481 93.4002 63.7464 95.0181 64.7161C95.3178 64.8956 95.5159 65.2052 95.5536 65.5523C95.6325 66.3397 95.2956 66.9983 94.8586 67.5987C94.3545 67.6367 94.0752 67.5769 93.5784 67.5023Z" fill="#843A05"/>
<path d="M101.564 64.9443C101.939 65.7964 102.456 66.9125 101.756 67.7628C101.011 67.9987 100.615 67.5417 100.219 66.9309C100.382 66.0234 100.86 65.4864 101.564 64.9443Z" fill="#843A05"/>
<path d="M171.406 89.4908C172.236 88.1464 173.588 88.0356 173.955 89.6176C173.834 90.2047 173.948 89.9961 173.53 90.4112C172.967 90.598 172.85 90.5747 172.269 90.5326C172.388 90.2334 172.37 90.2423 172.288 89.9194C171.966 89.5778 171.875 89.5773 171.406 89.4908Z" fill="#843A05"/>
<path d="M105.922 58.5666C107.62 58.5053 110.313 58.1244 112.035 57.8855L112.102 58.3144C111.85 58.4025 111.841 58.3594 111.7 58.5385L111.725 58.5925C111.127 58.8275 107.06 58.8952 106.07 59.02L105.922 58.5666Z" fill="#9E5623" fill-opacity="0.0509804"/>
<path d="M136.65 51.2259C136.932 50.9594 137.583 51.0644 137.944 51.0865C138.107 51.9951 138.009 52.9198 137.149 53.4629L136.889 53.4591C136.224 52.673 136.482 52.1784 136.65 51.2259Z" fill="#843A05" fill-opacity="0.988235"/>
<path d="M42.326 27.2446L42.5904 27.5193C42.7393 27.9754 42.5221 28.5273 42.3913 29.007L42.1218 28.6729C41.9849 28.0735 42.1204 27.8256 42.326 27.2446Z" fill="#B07D58" fill-opacity="0.01"/>
<path d="M133.465 65.7998C134.5 65.5927 135.51 66.2512 135.739 67.2812C135.968 68.3113 135.331 69.3352 134.306 69.5854C133.623 69.7521 132.904 69.5365 132.425 69.0219C131.947 68.5074 131.784 67.7743 132 67.1057C132.216 66.4371 132.776 65.9374 133.465 65.7998Z" fill="#843A05"/>
<path d="M142.765 82.0061C144.786 82.0403 145.142 83.9708 144.273 85.467C144.003 85.9325 143.502 85.9383 143.01 86.0536C140.363 85.7174 140.371 83.0956 142.765 82.0061Z" fill="#843A05"/>
<path d="M134.126 81.7996C136.658 82.6717 136.608 85.0863 134.315 85.9391C131.756 85.7994 132.057 83.0677 134.126 81.7996Z" fill="#843A05"/>
<path d="M142.807 65.7859C143.27 65.7484 143.516 65.7026 143.973 65.8299C144.998 66.5115 145.047 67.8179 144.453 68.7971C144.119 69.3474 143.765 69.3134 143.198 69.447C143.026 69.4206 142.155 69.2863 142.071 69.2229C140.312 67.8895 141.239 66.3924 142.807 65.7859Z" fill="#843A05"/>
<path d="M134.563 93.5229C134.663 93.5423 134.763 93.5634 134.862 93.5862C137.137 94.115 137.633 96.0494 135.322 97.3294C134.125 97.4369 133.765 96.8234 133.039 96.0111C133.432 94.7386 133.477 94.3215 134.563 93.5229Z" fill="#843A05"/>
<path d="M142.374 93.5616C143.51 93.5308 144.113 93.4866 144.61 94.6565C145.046 95.6816 144.623 96.7141 143.621 97.1379C141.12 96.8102 140.137 95.219 142.374 93.5616Z" fill="#843A05"/>
<path d="M190.983 12.7783C191.052 12.7742 191.12 12.7715 191.189 12.7701C195.591 12.7 194.516 19.1781 194.448 22.1795C194.391 24.7095 194.363 27.2403 194.364 29.7711C195.875 29.8873 198.803 30.1089 200.33 29.9159C206.441 29.1439 210.594 36.2066 206.828 41.1101C204.042 44.7383 198.728 43.7226 194.406 44.1465C194.327 46.0556 194.259 47.9653 194.205 49.8753C194.113 55.9994 194.588 58.3415 192.869 64.1147C192.298 63.0911 191.678 62.1969 191.564 61.0436C191.288 58.2669 191.308 55.319 191.272 52.5315C191.173 47.9956 191.125 43.4589 191.128 38.9219C191.12 33.4176 191.106 27.9555 191.186 22.4501C191.231 19.3253 190.913 15.9181 190.983 12.7783ZM194.244 32.9769C194.136 35.9875 194.125 38.0023 194.22 41.0301C196.28 41.2337 200.23 41.3119 202.175 40.503C202.889 40.0505 203.544 39.6994 204.063 39.0261C205.936 36.5961 204.841 33.5056 201.728 33.0822C200.016 32.849 197.928 32.808 196.181 32.8589L194.244 32.9769Z" fill="#843A05"/>
<path d="M27.7322 30.2352C29.115 25.614 30.6842 22.8129 34.4083 19.7577C35.4261 18.9227 36.5089 17.7735 37.8219 17.1035C41.2314 15.3632 47.5291 16.0926 51.1784 16.8568C51.5838 16.9418 52.0084 17.2274 52.2909 17.5002L52.3906 17.8416C52.1187 18.1893 51.9972 18.081 51.4352 18.1669C47.6873 18.7402 41.9161 18.1505 38.6269 19.6551C37.0286 20.3862 34.112 23.7405 33.1266 24.9312C29.6605 29.1196 25.6316 46.0076 26.3534 50.7621C28.0306 61.8093 27.7608 65.0752 20.7195 74.2991C20.3228 74.8187 18.6078 76.8719 18.3348 77.3402C18.1811 77.2598 18.1756 77.2843 17.9886 77.2648C17.7811 77.6057 17.3084 78.2271 16.8828 78.1979C17.1688 77.6443 17.2941 77.4401 17.2603 76.8108C19.5377 72.0662 22.8863 66.9444 24.1483 61.9746C24.8353 59.2691 23.5294 54.4033 23.3536 51.4944C23.0467 46.4191 24.232 43.2754 25.6017 38.5615C26.1764 36.584 26.1823 34.646 27.1078 32.5618C26.4884 32.804 25.7798 33.0599 25.1939 33.359C23.3842 36.4797 25.72 39.0783 23.955 40.2368C23.0992 40.3005 22.6473 39.8374 22.0161 39.2994C20.8794 36.0843 21.3705 31.6593 25.0402 30.3852C26.0222 30.0443 26.7255 30.1487 27.7322 30.2352Z" fill="#803A05"/>
<path d="M182.923 58.5462C181.972 55.737 182.712 35.2461 182.775 31.1365L182.989 17.8293C183.022 16.314 182.789 12.1637 183.639 10.7584C183.831 10.4391 184.244 10.3804 184.605 10.3633C185.883 10.8295 185.77 12.6536 185.784 13.8114C185.883 22.1736 185.522 30.5348 185.483 38.8959L185.408 51.6136C185.381 53.229 185.384 55.0642 185.24 56.6781C185.167 57.4997 184.592 57.8062 183.948 58.2512C183.434 58.0425 183.481 57.9551 183.058 58.1145L182.923 58.5462Z" fill="#843A05"/>
<path d="M99.2608 122.231C99.9273 122.31 101.152 122.312 101.437 122.939L101.22 123.249C100.45 123.322 99.3322 123.567 99.0156 122.75L99.2608 122.231Z" fill="#9E5623"/>
<path d="M147.457 122.414C147.956 119.172 146.899 115.276 149.733 112.908C150.943 111.897 152.535 112.768 153.242 113.909C154.628 116.146 154.62 119.941 154.094 122.42C154.072 122.522 154.049 122.624 154.024 122.726C154.895 122.547 155.932 122.407 156.845 122.149C159.295 121.455 161.914 119.29 163.094 123.055C163.148 123.23 163.092 123.399 163.034 123.572C161.937 124.442 160.611 123.476 159.669 123.788C157.45 124.524 150.035 126.263 148.007 125.611L147.841 125.384C148.15 124.699 150.897 123.273 152.045 122.191C152.524 119.751 152.138 117.63 151.011 115.409C148.646 117.789 149.809 119.421 148.493 122.171C148.297 122.582 147.316 123.747 146.976 124.159L146.641 123.498C146.939 123.051 147.093 122.817 147.457 122.414Z" fill="#843A05"/>
<path d="M148.07 128.944C149.76 128.616 151.075 128.706 152.648 128.484C155.08 128.141 157.395 127.419 159.917 127.415C160.433 127.414 161.403 126.809 161.977 126.766C164.085 126.588 164.724 129.677 162.199 129.737C159.358 129.803 156.414 129.937 153.577 129.732C155.781 131.972 159.331 138.531 153.681 139.281C152.067 139.496 149.374 136.921 148.595 135.534C149.131 135.145 149.218 135.017 149.627 134.488C150.897 135.476 151.635 136.892 153.489 136.711C153.774 136.531 154.013 136.428 154.057 136.016C154.207 134.605 153.355 133.06 152.646 132.012C151.227 129.914 149.993 130.004 148.07 128.944Z" fill="#843A05"/>
<path d="M113.867 122.788C115.707 122.663 116.868 122.872 118.539 123.594C118.851 124.033 118.918 124.117 119.092 124.639L118.955 124.886C118.303 124.954 116.83 124.429 115.358 124.419C112.693 129.054 112.761 133.684 115.32 138.307C115.639 138.965 116.188 139.129 116.548 139.88L116.334 140.087C115.027 140.341 113.046 139.658 112.25 138.515C109.75 134.922 110.407 125.393 113.867 122.788Z" fill="#843A05"/>
<path d="M74.4866 106.268C73.9619 105.419 73.7744 104.844 74.5461 104.074C76.4961 103.666 77.5064 106.766 78.0033 108.232C79.3636 107.121 81.0453 104.499 82.8191 104.618C85.2061 104.778 86.3711 109.246 84.5727 110.716C84.153 111.055 82.6455 111.388 81.9772 111.703C82.4525 110.486 83.5323 107.871 83.1255 106.569C81.9283 105.668 79.9694 109.921 78.0803 109.972C75.6392 110.038 72.96 107.138 71.8242 105.32C72.482 105.691 73.1344 106.027 73.7117 106.515C74.0695 106.836 74.3814 107.204 74.852 107.216C74.9363 106.817 74.7544 106.716 74.4866 106.268Z" fill="#843A05"/>
<path d="M176.691 14.1732C177.231 13.622 177.702 13.0898 178.5 13.1618C179.266 13.9489 178.902 23.023 178.709 24.6856C178.589 25.7608 178.359 26.8208 178.023 27.8492C177.808 28.4903 177.684 28.9369 177.055 29.2464C176.417 29.1381 176.623 29.0834 176.167 29.3358C175.608 27.4633 175.864 18.5995 176.155 16.2431C176.225 15.6763 176.502 14.7433 176.691 14.1732Z" fill="#843A05"/>
<path d="M161.495 110.277C162.966 110.468 163.733 110.944 163.624 112.564C163.52 114.116 160.77 115.653 159.634 116.622C156.148 118.161 157.913 111.518 161.495 110.277Z" fill="#843A05"/>
<path d="M168.83 124.062C170.944 124.24 171.642 124.527 172.705 126.351C172.334 127.953 172.158 128.384 170.492 128.644C169.028 128.463 165.159 128.098 166.706 125.603C167.342 124.578 167.675 124.351 168.83 124.062Z" fill="#843A05"/>
<path d="M180.069 12.5464C180.808 12.6369 180.714 12.5095 181.172 12.9347C181.389 14.1851 181.4 25.7964 181.063 26.6078C180.432 26.6057 180.327 26.6226 179.975 26.2782C179.73 24.9001 179.63 13.4393 180.069 12.5464Z" fill="#843A05"/>
<path d="M161.429 138.666C162.876 138.962 165.467 143.694 163.008 144.815C159.833 143.907 159.051 140.82 161.429 138.666Z" fill="#843A05"/>
<path d="M160.167 133.423C162.738 133.217 163.53 133.527 164.389 135.889C164.164 136.436 163.895 136.772 163.553 137.251C161.952 138.077 161.32 137.333 160.167 136.278C159.869 135.095 159.62 134.481 160.167 133.423Z" fill="#602103"/>
<path d="M87.5352 110.319C88.3156 109.503 89.0827 109.082 90.3217 108.958C91.8645 108.803 93.7344 110.692 92.3075 112.044C91.535 112.775 89.8498 112.429 88.8081 112.251L89.103 112.149L89.1811 111.955C88.8944 111.193 88.2425 110.674 87.5352 110.319Z" fill="#843A05"/>
<path d="M96.2003 111.863C99.0214 111.704 100.942 114.021 98.1806 115.629C95.7775 116.359 95.6445 115.26 95.3203 113.297C95.6236 112.582 95.6831 112.433 96.2003 111.863Z" fill="#843A05"/>
<path d="M159.494 147.67C160.6 147.921 163.714 149.002 163.834 150.28C163.578 150.88 163.645 150.708 163.038 151.124C161.411 151.214 160.717 151.057 159.27 150.459C158.434 149.274 158.134 148.592 159.494 147.67Z" fill="#843A05"/>
<path d="M87.8334 129.752C88.6442 129.838 92.7419 130.189 93.0055 130.805C92.1594 131.268 89.4305 131.092 88.3495 131.065C86.8786 131.045 85.5383 131.092 84.0798 131.243C83.4909 131.304 83.1709 131.37 82.8164 130.876C82.8978 129.549 86.7295 129.766 87.8334 129.752Z" fill="#843A05"/>
<path d="M38.1533 103.977L38.5725 104.23C39.1775 105.306 38.9377 110.343 38.1677 111.448C36.9925 110.296 37.1314 105.296 38.1533 103.977Z" fill="#602103"/>
<path d="M193.737 84.1721C194.223 86.0268 194.543 89.3071 193.757 91.1002C193.684 91.1818 193.435 91.3599 193.335 91.437L193.055 91.3287C192.716 90.707 192.77 88.6268 192.755 87.8324C192.615 87.2068 192.52 86.5231 192.418 85.8863L193.118 85.5501C193.423 85.0221 193.12 84.7812 193.737 84.1721Z" fill="#220500"/>
<path d="M192.758 87.8325C194.183 88.7802 192.788 90.315 193.759 91.1003C193.686 91.1819 193.437 91.36 193.337 91.437L193.058 91.3288C192.719 90.707 192.772 88.6269 192.758 87.8325Z" fill="#3B0600"/>
<path d="M187.684 47.864C188.147 47.8906 188.276 47.8846 188.715 48.0607C189.159 49.001 188.973 52.8479 188.381 53.749C187.814 53.644 187.525 53.595 187.369 52.9865C187.053 51.7542 187.089 48.9353 187.684 47.864Z" fill="#843A05"/>
<path d="M18.334 77.3402C18.0097 77.9847 17.009 78.9995 16.5565 79.6255C15.825 80.6372 12.1889 86.1767 11.3555 86.1495C11.5522 84.0699 13.8137 82.5541 14.7637 81.1908C15.6002 79.9906 16.195 78.0603 17.2594 76.8108C17.2932 77.44 17.1679 77.6442 16.8819 78.1978C17.3075 78.227 17.7802 77.6056 17.9877 77.2647C18.1747 77.2842 18.1802 77.2597 18.334 77.3402Z" fill="#602103"/>
<path d="M179.834 44.3726L180.362 44.5527C181.244 45.6985 181.041 50.6251 180.527 51.9597C180.334 51.9826 180.173 51.9354 179.98 51.8976C179.505 51.0944 179.737 45.5522 179.834 44.3726Z" fill="#843A05"/>
<path d="M187.368 22.3083C189.925 22.3604 189.378 24.4024 188.87 26.2594C188.287 26.1729 187.667 26.106 187.079 26.0321C187.007 24.9163 186.761 23.2355 187.368 22.3083Z" fill="#843A05"/>
<path d="M97.5352 106.25C99.9069 106.595 100.15 108.447 98.0052 108.862C95.9219 108.829 95.356 106.824 97.5352 106.25Z" fill="#602103"/>
<path d="M187.69 12.6978C188.109 12.7401 188.223 12.7284 188.548 12.9836C189.122 14.2123 188.761 17.3203 188.348 18.6584C187.089 18.3753 187.67 13.7976 187.69 12.6978Z" fill="#3B0600"/>
<path d="M155.802 106.967C156.146 107.088 156.161 107.108 156.445 107.345C157.019 108.589 156.338 109.924 155.308 110.691C153.677 110.259 154.327 107.73 155.802 106.967Z" fill="#B07D58" fill-opacity="0.988235"/>
<path d="M98.6234 131.437C99.6345 131.358 101.239 131.562 101.844 132.468C101.743 132.961 101.804 132.8 101.303 133.161C100.201 133.409 98.6241 133.529 98.0742 132.318C98.2602 131.671 98.1191 131.906 98.6234 131.437Z" fill="#602103"/>
<path d="M221.113 133.024L221.473 132.883C221.676 132.035 221.515 132.209 222.116 131.463C222.796 132.329 224.27 133.896 224.224 134.897L224.018 135.036C223.254 134.87 221.684 133.588 221.113 133.024Z" fill="#1D0100"/>
<path d="M42.7029 126.166C43.6118 126.646 44.6875 128.612 43.9989 129.681C41.8498 129.579 41.6645 127.662 42.7029 126.166Z" fill="#843A05"/>
<path d="M187.763 30.7717C189.321 31.1639 189.47 32.7595 188.435 33.7889C186.243 33.6913 186.796 31.3778 187.763 30.7717Z" fill="#843A05"/>
<path d="M79.3484 135.586C79.8042 135.822 79.6418 135.697 79.9579 136.188C79.9471 137.531 78.5121 137.763 77.449 137.869C76.9029 137.385 76.7712 137.334 77.0054 136.697C77.5253 136.184 78.6275 135.857 79.3484 135.586Z" fill="#602103"/>
<path d="M191.789 83.4565C192.03 83.3387 192.106 83.2578 192.303 83.0868C192.523 82.4448 192.558 82.3192 192.969 81.7864L193.081 82.2009C193.334 82.8806 193.563 83.4636 193.738 84.1723C193.12 84.7814 193.423 85.0223 193.119 85.5503L192.419 85.8865C192.303 85.2272 191.972 84.1347 191.789 83.4565Z" fill="#3B0600"/>
<path d="M193.12 85.5501C193.178 84.0823 192.533 83.2997 193.083 82.2007C193.336 82.8804 193.564 83.4633 193.739 84.1721C193.122 84.7812 193.425 85.0221 193.12 85.5501Z" fill="#2F0200"/>
<path d="M119.274 111.687C120.078 111.829 121.077 112.14 121.373 112.989C121.276 113.596 121.388 113.371 120.918 113.827C119.999 113.75 118.688 113.799 118.57 112.659C118.738 112.131 118.865 112.055 119.274 111.687Z" fill="#843A05"/>
<path d="M157.806 50.7849C157.682 51.1302 157.632 51.1969 157.432 51.5088C156.567 51.8438 156.043 51.5247 155.625 50.7431C155.591 50.1209 155.536 50.3672 155.842 49.8134C156.304 49.4261 156.698 49.4714 157.306 49.4436C157.762 50.0127 157.792 49.9399 157.806 50.7849Z" fill="#2F0200"/>
<path d="M157.305 49.4436C157.761 50.0127 157.791 49.9399 157.805 50.7849C157.48 50.9731 157.258 51.0927 156.917 51.2474L156.606 51.1033L156.539 50.7347C156.844 49.9316 156.72 49.8616 157.305 49.4436Z" fill="#1D0100"/>
<path d="M136.43 109.418C136.953 109.187 137.565 109.427 137.791 109.953C138.017 110.478 137.771 111.087 137.244 111.309C136.723 111.527 136.124 111.285 135.901 110.767C135.677 110.248 135.914 109.646 136.43 109.418Z" fill="#602103"/>
<path d="M187.552 40.199C187.885 40.2433 188.015 40.2838 188.338 40.3816C189.004 41.1373 188.819 42.1613 188.241 42.8957C186.876 42.5746 186.96 41.1568 187.552 40.199Z" fill="#843A05"/>
<path d="M172.654 46.929L172.967 47.0138C173.704 47.6693 173.623 48.9482 173.182 49.7615C171.714 49.4725 172.014 47.8672 172.654 46.929Z" fill="#3B0600"/>
<path d="M47.891 134.881C48.5357 135.096 49.8138 135.351 49.984 136.026L49.6073 136.479C48.7938 136.616 48.0441 136.568 47.5118 135.906C47.5112 135.283 47.508 135.468 47.891 134.881Z" fill="#040000"/>
<path d="M192.663 80.2505C192.715 80.541 192.88 81.5735 192.97 81.7863C192.559 82.3191 192.524 82.4447 192.304 83.0867C192.107 83.2577 192.03 83.3386 191.79 83.4564C191.609 82.9836 191.434 82.4253 191.27 81.9392C191.58 81.2953 192.104 81.6971 192.663 80.2505Z" fill="#602103" fill-opacity="0.988235"/>
<path d="M36.1495 126.196C36.5224 126.611 36.5009 127.321 36.5468 127.925C36.6137 128.807 36.7559 128.837 36.2659 129.419L35.7273 129.013C35.3043 128.134 35.4713 126.896 36.1495 126.196Z" fill="#2F0200"/>
<path d="M151.278 49.395C151.94 49.5274 151.985 49.593 152.105 50.1964C151.923 50.7766 151.846 50.8539 151.461 51.3247L150.934 51.1781C150.527 50.7535 150.635 50.9616 150.516 50.3931C150.792 49.6675 150.634 49.9158 151.278 49.395Z" fill="#843A05"/>
<path d="M145.74 109.492C146.138 109.579 146.187 109.566 146.441 109.857C146.353 110.446 146.084 110.611 145.669 111.136C145.268 111.133 145.211 111.134 144.853 110.955C144.57 110.5 144.612 110.711 144.713 110.158C145.159 109.604 145.015 109.768 145.74 109.492Z" fill="#843A05"/>
<path d="M103.779 126.634L104.362 126.976C104.369 128.291 104.22 129.746 104.183 131.102C104.031 130.395 104.146 129.557 104.008 128.732L103.793 128.674C103.597 127.924 103.698 127.396 103.779 126.634Z" fill="#9E5623" fill-opacity="0.815686"/>
<path d="M103.234 115.616C103.879 115.626 104.197 115.593 104.783 115.851L104.811 116.105L104.365 116.41C103.81 116.438 103.033 116.488 102.57 116.199C102.679 115.84 102.832 115.854 103.234 115.616Z" fill="#602103"/>
<path d="M151.779 56.0505C151.684 56.5383 151.528 57.6429 151.17 57.974C150.789 57.4199 150.907 56.8366 151.054 56.2285L151.779 56.0505Z" fill="#9E5623" fill-opacity="0.980392"/>
<path d="M74.4858 106.268C74.7536 106.716 74.9355 106.817 74.8513 107.216C74.3806 107.204 74.0687 106.836 73.7109 106.515L74.4858 106.268Z" fill="#9E5623" fill-opacity="0.0156863"/>
<path d="M57.1641 29.0676C57.6102 28.6091 58.3456 28.3029 58.9328 28.0132C58.3255 28.6793 58.0586 28.9976 57.3075 29.5285L57.1641 29.0676Z" fill="#B07D58" fill-opacity="0.0627451"/>
</svg>
