<svg width="60" height="42" viewBox="0 0 60 42" fill="none" xmlns="http://www.w3.org/2000/svg">
<path d="M26.6029 21.6876C30.7639 12.0869 31.1519 15.6297 34.7264 22.8555L34.8987 22.6255C34.9683 22.3552 34.9787 22.0455 35.1841 22.0074C37.6413 21.5531 45.6221 22.0248 47.6652 22.6144C48.1351 22.7515 47.928 22.6238 48.2447 23.0927L48.2499 23.1841C48.5562 24.4137 48.7372 27.2677 47.9471 28.301C47.2997 29.1511 46.7951 29.1285 45.7735 29.3551C44.7694 34.2336 45.9319 40.0812 38.8456 40.8419C34.3157 41.2979 29.3299 40.6051 24.8313 40.7879C15.7629 41.1552 15.9787 36.5354 15.0668 29.2206C13.9374 29.0888 12.1449 29.1158 12.1467 27.502C12.1467 26.8498 11.7307 22.7836 12.2998 22.6166C16.1162 21.4976 22.6612 21.629 26.6029 21.6876Z" fill="#9C4517"/>
<path d="M26.6018 21.6876C30.7627 12.0869 31.1508 15.6297 34.7253 22.8555L34.8976 22.6255C34.9672 22.3552 34.9776 22.0455 35.183 22.0074C37.6402 21.5531 45.621 22.0248 47.6641 22.6144C48.1339 22.7515 47.9268 22.6238 48.2436 23.0927L48.2488 23.1841C47.4309 24.766 48.0713 26.6872 46.7417 27.9593C44.7561 28.6641 29.1722 27.9969 25.6029 28.1172L25.3192 28.0047C25.2583 27.7709 25.1922 27.5382 25.1243 27.3065L24.5866 27.224C24.0819 25.8806 26.0658 24.1657 25.7369 22.8246C25.8152 22.3601 26.2172 22.0925 26.6018 21.6876Z" fill="#EFEBE7"/>
<path d="M26.6018 21.6876C30.7627 12.0869 31.1508 15.6297 34.7253 22.8555C35.0264 24.0139 36.5734 26.7507 36.2289 27.5459C35.1795 26.8298 31.8817 19.1133 30.9002 17.318C29.2609 20.763 27.4876 24.8144 25.6029 28.1172L25.3192 28.0047C25.2583 27.7709 25.1922 27.5382 25.1243 27.3065L24.5866 27.224C24.0819 25.8806 26.0658 24.1657 25.7369 22.8246C25.8152 22.3601 26.2172 22.0925 26.6018 21.6876Z" fill="#983403"/>
<path d="M27.2275 22.6724C27.2866 23.5892 25.8736 26.1116 25.2819 26.9074C25.1862 25.9614 26.634 23.4809 27.2275 22.6724Z" fill="#EFEBE7"/>
<path d="M29.6187 17.7983C29.7649 18.4114 28.0403 21.4929 27.654 22.1798C27.4034 21.255 29.1001 18.644 29.6187 17.7983Z" fill="#F2D4BF"/>
<path d="M34.8984 22.6254C34.968 22.355 34.9785 22.0454 35.1838 22.0072C37.6411 21.5529 45.6219 22.0247 47.6649 22.6142C46.7234 23.1899 36.4107 22.7984 34.8984 22.6254Z" fill="#9C4517"/>
<path d="M30.7744 23.1106C31.5018 22.7392 32.3928 23.0318 32.7583 23.7622C33.1237 24.4926 32.8244 25.381 32.0918 25.7406C31.3661 26.0964 30.4907 25.8009 30.1288 25.0786C29.7668 24.3564 30.0557 23.4779 30.7744 23.1106Z" fill="#9C4517"/>
<path d="M41.3808 23.9968C43.2985 24.2165 42.8391 26.0508 42.2579 27.3008C40.1313 27.3986 40.5977 25.1801 41.3808 23.9968Z" fill="#9D3005"/>
<path d="M13.7386 28.0899C13.1713 23.3436 9.97968 23.0421 18.2024 22.8664C20.7014 22.8132 23.2387 22.8067 25.7377 22.8247C26.0666 24.1657 24.0827 25.8806 24.5874 27.224L25.1251 27.3066C25.193 27.5382 25.2591 27.771 25.32 28.0047C23.2717 28.1602 15.5015 28.3645 13.7386 28.0899Z" fill="#EFEBE7"/>
<path d="M18.9209 23.9634C20.7412 24.2166 20.501 26.0856 19.8276 27.3246C19.4813 27.3044 19.2689 27.2487 18.9348 27.1744C18.002 26.2823 18.5172 25.0069 18.9209 23.9634Z" fill="#8C2102"/>
<path d="M19.3166 25.3977L19.5968 25.4021L19.5167 25.9464L19.2383 25.9371L19.3166 25.3977Z" fill="#D58D5D"/>
<path d="M16.1974 29.234C20.3131 29.2928 24.5089 29.1703 28.6368 29.1609C34.1133 29.1732 39.5899 29.2242 45.0647 29.3134C44.8472 32.2586 44.8176 34.7657 42.7345 36.9184C41.9723 37.458 40.5853 38.3631 39.5777 38.492C33.8645 39.223 27.2776 38.4589 21.4791 38.3144C20.0329 38.2779 18.4911 37.7034 17.5357 36.666C16.6656 35.7198 15.738 30.2793 15.8772 29.3757L16.1974 29.234Z" fill="#EFEBE7"/>
<path d="M33.5363 30.6331C33.8721 30.8014 34.2098 30.9659 34.3055 31.3582C34.5909 32.5387 34.476 35.3888 33.8983 36.4205C33.7173 36.3717 33.4614 36.2638 33.2787 36.1942C32.7897 35.3193 33.0299 31.5107 33.5363 30.6331Z" fill="#983403"/>
<path d="M27.3652 30.6255C28.6878 31.2793 28.4389 35.2773 28.0056 36.4414C27.6454 36.3387 27.3043 36.1055 27.2312 35.7269C27.0032 34.5483 26.8605 31.6692 27.3652 30.6255Z" fill="#9D3005"/>
<path d="M39.7892 30.5859C39.9301 30.6716 40.172 30.8815 40.3112 30.9934C40.7846 32.1948 40.346 35.3328 39.4045 36.3194C38.6597 35.9129 38.7572 35.7834 38.9173 34.9335C39.1783 33.5494 39.2967 31.8916 39.7892 30.5859Z" fill="#9C4517"/>
<path d="M20.9453 30.5723L21.3665 30.7813C21.9582 31.5759 22.3445 35.1939 22.2836 36.2413C20.7591 35.6514 20.6095 31.9077 20.9453 30.5723Z" fill="#9D3005"/>
<path d="M41.9119 38.5859L41.9746 38.7861C41.6474 39.0437 41.3133 39.2718 40.9339 39.4493C38.5898 40.5512 24.6504 40.1421 21.6119 39.7626C20.9314 39.6791 20.3015 39.4894 19.6558 39.2631L19.4609 39.0803C19.6332 38.8818 20.2406 39.0089 20.5712 39.0559C23.6654 39.4824 26.8083 39.4615 29.9303 39.5207C33.9712 39.5955 38.0607 40.0533 41.9119 38.5859Z" fill="#EFEBE7"/>
<path d="M15.1505 12.6191C15.9737 12.1223 21.8296 11.9049 23.1905 12.0046C24.038 12.8802 26.9268 15.4865 27.0817 16.1965C26.1037 16.3045 25.1709 14.6438 24.2399 14.4496C23.8222 14.937 24.0415 15.7429 24.1859 16.3394C25.2075 16.0644 25.4146 16.4214 26.3282 16.9273C26.7807 17.1784 27.4246 17.6213 27.6769 18.0732C26.5823 18.3955 25.2388 16.6552 24.3165 16.8381C23.7787 17.6425 23.8205 18.1071 22.7659 18.245C21.0343 18.4714 17.8862 19.0032 16.233 18.4578C15.7161 18.2869 15.5038 17.2343 15.4029 16.7384C15.0618 15.1375 15.0461 14.2494 15.1505 12.6191Z" fill="#EFEBE7"/>
<path d="M15.1484 12.6191C15.9716 12.1223 21.8275 11.9049 23.1884 12.0046C24.0359 12.8802 26.9247 15.4865 27.0796 16.1965C26.1016 16.3045 25.1688 14.6438 24.2378 14.4496C23.8201 14.937 24.0394 15.7429 24.1838 16.3394C25.2054 16.0644 25.4125 16.4214 26.3261 16.9273C26.7786 17.1784 27.4224 17.6213 27.6748 18.0732C26.5802 18.3955 25.2367 16.6552 24.3143 16.8381C23.7766 17.6425 23.8184 18.1071 22.7638 18.245C21.0322 18.4714 17.8841 19.0032 16.2309 18.4578C15.714 18.2869 15.5017 17.2343 15.4008 16.7384L15.8324 17.313L16.029 17.2803L16.1682 16.207C16.1978 16.3635 16.2883 16.8778 16.337 16.9894C17.1236 18.7522 22.005 17.5875 23.2162 17.1809C23.3381 13.1058 23.3067 12.0849 18.8447 12.6934C17.9154 12.8201 16.6973 12.8654 15.7192 12.978L15.1484 12.6191Z" fill="#9C4517"/>
<path d="M15.1505 12.6189L15.7213 12.9778C15.8588 14.0125 15.9876 15.1909 16.1703 16.2068L16.0311 17.2801L15.8345 17.3128L15.4029 16.7382C15.0618 15.1373 15.0461 14.2492 15.1505 12.6189Z" fill="#9D3005"/>
<path d="M36.3928 1C43.9281 2.29802 36.3128 9.67814 33.5197 11.7379C30.3333 10.0155 22.7179 3.70988 30.2811 2.05224C30.5299 1.99793 30.5839 2.15634 30.737 2.317C30.4777 3.07089 28.7374 2.46931 27.9665 5.04603C28.7827 7.64242 31.3304 9.19545 33.4779 10.7885C35.5993 8.85672 39.1911 6.0464 38.7073 2.73268C38.4846 1.62735 37.3743 1.49644 36.4659 1.79061C34.5482 2.41291 33.7633 3.75758 32.8984 5.41366L31.7881 2.83607C32.0004 2.57688 32.1083 2.82458 32.7209 3.05034C33.2377 3.2406 33.9443 1.98662 34.6595 1.61551C35.3904 1.23552 35.608 1.19826 36.3928 1Z" fill="#9C4517"/>
<path d="M40.6767 13.5452C41.5225 12.5233 43.8701 9.78034 45.2553 10.0756C45.6538 10.4771 45.5773 10.7386 45.5198 11.3259C45.1178 11.0345 45.0865 10.9734 44.6167 10.9856C43.6125 11.7786 40.9012 14.8974 40.5097 15.1042C39.8745 14.6137 40.5253 13.5533 38.4562 13.4325C38.122 13.413 38.0594 13.5996 37.8418 13.8784C37.3981 15.9653 40.6785 17.0931 40.983 18.4085C40.7272 18.891 40.8629 18.7276 40.3287 19.0073C38.6824 18.9118 36.3626 14.3446 37.6835 12.5691C38.7764 12.0371 39.911 12.7369 40.6767 13.5452Z" fill="#9C4517"/>
<path d="M44.6146 10.9856C45.0844 10.9734 45.1157 11.0345 45.5177 11.3259C44.6772 13.1976 44.1221 14.4438 42.8047 16.0635C43.1667 14.116 44.4249 12.2733 44.6146 10.9856Z" fill="#9C4517"/>
<path d="M43.6925 16.5603L44.0544 16.8017C44.4129 17.9302 43.3549 18.4218 42.4934 18.8965C42.3333 18.7349 42.2776 18.6202 42.1523 18.4281C42.3177 17.9812 43.2539 17.1036 43.6925 16.5603Z" fill="#9C4517"/>
</svg>
