<svg width="226" height="158" viewBox="0 0 226 158" fill="none" xmlns="http://www.w3.org/2000/svg">
<path d="M47.3362 111.11C41.1845 111.686 33.5165 108.076 28.3918 104.85C26.0166 103.355 24.0086 101.605 21.9521 99.7153C20.4505 98.3352 18.9238 96.9746 17.5701 95.4456C11.769 88.8933 7.47588 80.4352 5.56206 71.9166C3.43998 62.4709 4.49112 49.645 8.2707 40.7095C9.13587 38.6642 10.3491 36.7034 11.5399 34.8307C13.8945 31.1283 16.779 27.8692 19.8076 24.7139C21.9956 22.4344 24.0532 20.1436 26.5123 18.1352C31.2341 14.2789 38.3807 11.2527 44.3097 9.94853C48.776 8.9661 53.3713 8.28777 57.9532 8.52775C66.2346 8.96149 82.3638 14.168 88.8819 19.3343C91.9433 21.761 96.1298 26.7487 98.4584 30.0112C99.5385 31.5244 100.487 33.1382 101.534 34.6769C102.865 36.6326 104.276 38.5149 105.392 40.6076C106.241 42.2003 108.773 49.5506 109.662 50.0689C109.684 50.0817 109.708 50.0922 109.731 50.104L109.611 50.6852C109.513 51.1915 109.93 53.5545 109.998 54.285C110.156 56.1495 110.288 58.0161 110.396 59.884C110.619 63.3849 110.667 65.6968 109.855 69.1421C109.434 70.9273 109.488 73.3089 108.887 75.0975C106.433 82.3932 103.018 90.2561 98.0608 96.2041C96.8039 97.709 95.4717 99.1493 94.0693 100.52C93.5038 101.076 91.2993 102.962 91.3144 103.605C91.7666 103.736 91.7468 103.659 92.2695 103.537C91.9554 103.995 91.9339 103.878 91.9352 104.355C92.4302 104.844 92.5807 104.695 93.0492 105.062C91.1548 105.388 87.1409 106.076 85.4519 106.829C83.0818 107.884 81.4027 108.887 78.8383 109.826C76.4746 110.691 72.1621 111.591 70.1979 112.557C70.1755 114.699 70.0851 116.718 70.0126 118.851C74.2569 118.826 78.3671 118.548 82.6003 118.476C103.171 118.007 123.746 117.718 144.323 117.61C147.046 117.617 149.233 117.864 151.844 117.945L168.497 118.331C170.128 118.373 173.146 118.875 174.524 118.657C173.046 116.272 173.52 114.034 173.488 111.296C173.441 107.281 173.294 103.127 173.761 99.1495C173.853 98.3661 174.631 96.9209 175.157 96.3156C174.099 96.4142 172.592 96.5943 171.578 96.4613C169.809 96.2289 168.291 95.4655 166.454 95.6407C163.37 95.9348 160.187 97.0518 157.18 97.5793C153.735 98.1835 150.01 98.4677 146.537 98.9741C143.237 99.4553 140.091 99.4641 136.809 99.7027C130.257 100.14 123.717 100.735 117.194 101.485C115.283 101.972 110.889 102.119 108.629 102.468C109.225 101.962 110.949 101.841 111.081 101.023C110.746 100.719 110.744 100.807 110.206 100.734C112.672 100.322 115.051 99.9326 117.497 99.3944C118.247 99.1432 119.706 98.8913 120.531 98.7776C129.058 97.6019 138.197 95.1425 146.759 94.6889C153.585 94.3272 160.014 95.0087 166.833 94.1671C163.963 91.9241 163.137 90.6632 162.16 86.9933C160.997 82.2937 162.37 76.686 165.678 73.1294C166.353 72.4036 168.385 71.5445 168.138 70.5984L167.546 70.2791C167.982 69.9354 167.877 70.1112 167.995 69.6316C170.688 70.4601 171.602 69.3537 174.118 68.9721C180.44 68.0123 188.494 73.7555 190.383 79.7168C193.094 79.6518 196.411 79.6637 198.629 81.5487C198.96 81.8308 198.981 81.9354 199.04 82.3009C198.181 83.2593 194.833 82.6885 193.516 82.8715C188.444 83.5766 183.213 88.1586 183.84 93.6667C184.259 97.3419 185.978 99.2851 188.61 101.712C189.369 102.424 191.836 103.836 192.706 103.826L193.077 103.635C193.452 103.931 193.359 103.774 193.446 104.213L193.226 104.74L192.375 104.95C190.278 105.786 186.942 104.553 184.728 104.048C184.859 105.216 184.774 108.633 184.718 109.899C184.559 113.527 184.837 118.36 183.924 121.794C185.001 121.785 191.278 121.912 191.613 121.625C191.683 121.028 191.631 120.802 191.537 120.204C191.61 119.731 191.543 117.072 191.537 116.453C191.511 113.394 191.578 110.913 192.173 107.883L192.681 106.727C193.85 105.936 193.97 105.912 195.155 106.694C195.268 110.211 195.519 115.142 195.321 118.581C199.49 117.849 201.222 118.56 204.55 121.065C206.852 122.798 211.096 125.229 211.268 128.369C211.514 132.822 211.589 145.423 209.586 148.919C208.582 149.341 207.669 149.581 206.585 149.688C203.003 150.045 187.339 149.62 184.389 148.399C182.938 147.799 181.931 146.351 181.359 144.934C180.795 143.536 180.323 141.626 180.514 140.117C179.805 139.659 170.184 139.837 168.595 139.866C155.789 140.103 143.026 139.558 130.234 139.379L98.8205 139.187C90.6445 139.082 81.5308 138.744 73.4089 138.87C71.9555 141.821 71.4257 145.658 69.2489 147.707C66.8642 148.344 63.9747 148.062 61.436 148.171C59.717 148.245 57.6911 148.642 55.97 148.606C50.8176 148.497 43.5123 149.006 38.8367 146.849C36.1213 145.597 35.3369 141.306 33.7037 138.858C28.9805 138.529 27.7446 137.697 24.6003 134.058C23.9881 133.349 23.3766 132.506 23.0723 131.616C22.4235 129.719 22.8361 126.14 22.9856 124.068C23.0966 122.528 23.4416 120.559 24.6647 119.503C26.9711 117.513 37.9069 118.213 41.1851 118.51C41.9914 118.584 44.7934 118.78 45.3079 119.471C45.3321 119.503 45.3525 119.539 45.3748 119.572C44.6288 121.033 37.3796 120.993 35.6631 121.114C32.4365 121.34 29.4585 120.244 27.2498 123.22C27.7431 125.213 28.402 127.268 29.0044 129.237C29.5687 131.081 30.2483 134.026 31.8069 135.219C32.7969 135.976 36.0951 135.882 37.4531 135.908C41.6127 135.987 45.8006 135.75 49.9565 135.733L97.5126 135.566L200.739 136.479C202.28 136.455 203.251 136.405 204.792 136.244C205.659 136.049 206.546 135.869 207.417 135.685C207.631 134.597 208.536 129.649 207.596 128.797C206.059 127.453 204.434 126.31 202.798 125.075C201.097 123.791 199.532 122.139 197.644 121.131C197.216 120.904 196.577 120.615 196.098 120.728C195.747 121.24 195.244 122.854 194.86 123.675C192.408 125.167 183.178 124.96 180.861 123.852C174.968 121.031 173.694 121.629 167.145 121.776L154.849 121.969C144.64 122.111 134.949 121.939 124.774 121.909C119.611 121.905 114.447 121.862 109.284 121.781C106.005 121.706 101.926 121.457 98.7368 121.512C94.9472 121.276 91.1354 121.381 87.3532 121.218C81.3497 120.96 75.6854 120.768 69.6605 120.765C70.2105 123.518 70.166 126.038 68.1427 128.131C67.1199 128.48 66.0599 128.571 64.9862 128.606C62.048 128.701 59.0773 128.605 56.138 128.548C54.2248 128.51 52.1889 128.586 50.3019 128.281C49.5198 128.154 48.5521 127.931 47.9676 127.36C47.2223 126.633 47.3514 113.055 47.3362 111.11ZM183.591 139.588C184.603 140.943 185.128 143.92 186.193 144.707C189.46 146.833 194.375 146.569 198.092 147.201C201.079 147.708 203.434 147.751 206.361 147.659C206.399 144.407 206.262 140.591 207.078 137.505C206.435 137.557 205.613 137.559 204.954 137.579C204.012 137.709 203.068 137.825 202.122 137.929C198.138 138.945 194.057 139.224 189.957 139.358C187.982 139.422 185.494 139.315 183.591 139.588ZM175.58 118.652C177.796 118.84 178.698 118.888 180.841 119.565C180.602 114.959 180.925 110.089 180.918 105.479C180.914 102.976 181.766 101.039 180.576 98.7218C180.222 98.0324 179.906 96.823 179.699 96.0447C178.719 96.0511 176.109 96.0313 175.278 96.3202C175.519 96.6277 176.196 97.4331 176.254 97.7731C177.266 103.51 177.484 109.736 177.305 115.555C177.257 117.066 176.86 117.914 175.58 118.652ZM59.9558 16.1113C61.2276 16.2097 63.5232 16.6401 64.4103 16.6793C70.9656 17.9161 77.4649 20.5232 82.7439 24.6454C83.5719 25.292 88.8894 29.0912 86.6598 30.3594C85.2241 30.4215 82.1761 28.7045 80.807 28.035C78.8258 27.0544 76.8017 26.1629 74.7409 25.3629C73.1066 24.7325 62.4186 21.6337 61.555 22.1737L61.5195 22.2893C62.1288 24.8778 62.4338 26.0009 62.1905 28.8165C62.3235 35.5394 61.8408 40.3867 60.2106 46.9181C59.9286 48.2132 59.9046 49.4831 59.5845 50.8624C59.1176 49.1768 59.1458 48.2286 59.0819 46.5069C58.3632 44.0544 59.3771 35.4642 59.7849 32.6491C59.9571 30.2666 60.6628 27.6847 60.8247 25.2604C60.8955 24.1988 60.9474 23.1051 61.0429 22.053C60.3439 21.7617 58.1642 21.7532 57.3391 21.6607C48.9274 20.7175 40.4002 22.3444 33.8661 28.0103C31.1459 30.369 29.0316 34.3319 26.8419 37.1863C22.3832 42.5745 20.2429 46.9336 19.6654 53.9421C19.5084 55.8481 18.9273 58.2398 18.795 60.2006C18.4265 66.0934 18.6105 71.7169 20.8536 77.2672C21.4393 78.7163 23.1633 82.1156 24.4243 82.9546C25.0928 83.0117 38.5914 73.337 41.1599 72.1644C41.3203 71.9795 42.4395 71.316 42.7219 71.14C43.0701 71.7004 43.162 72.2764 43.5202 72.5612C43.1526 72.9079 42.8118 73.26 42.3816 73.524C39.4767 77.1075 33.7162 80.0997 29.94 82.7052C29.2104 83.2087 26.0134 84.5731 25.808 84.943C26.1396 85.6064 27.5845 86.9151 28.1892 87.502C31.6811 90.891 35.5998 93.5681 39.6856 96.1767C43.4233 98.5632 44.49 98.4701 47.5167 101.844C47.744 98.2237 47.9017 94.603 48.1052 90.9808C48.2118 89.0847 48.5277 87.1326 48.6295 85.2136C48.837 81.3079 48.6572 77.2753 49.563 73.4491C49.8512 72.2313 50.6507 71.1778 51.3597 70.1678C50.9167 69.7694 50.4721 69.3393 50.0864 68.8851C48.2206 66.6589 47.3135 63.7836 47.564 60.8897C47.8186 57.8101 49.2778 55.4961 51.585 53.5563L51.8273 53.2674C53.9896 52.574 55.1294 51.5325 57.6384 51.5401C67.5 51.5703 72.9169 62.6318 65.6428 70.0424C66.7915 70.8687 67.5058 71.6246 68.0519 72.9544C68.1552 73.2059 68.3577 73.64 68.3912 73.8973C68.9047 77.8219 68.758 81.8027 69.0212 85.7471C69.2388 89.469 69.8329 93.137 69.9851 96.855C69.9714 97.4664 69.9452 98.1317 69.8721 98.7365C69.4682 102.079 69.3807 104.921 69.7543 108.26C73.9101 107.372 80.7464 104.474 84.2343 102.137C98.519 92.6964 107.751 73.2333 105.45 56.1703C104.876 51.9178 103.492 47.7235 102.118 43.6479C92.481 15.0625 57.046 3.04687 31.3803 18.9198C29.9746 19.8667 28.2374 21.0556 26.9879 22.1386C21.9245 26.527 12.7774 37.3682 11.2195 43.7302C10.502 45.5708 10.0649 48.2001 9.67846 50.1142C5.45549 71.0221 13.2544 91.3345 32.0085 102.263C37.0735 105.214 42.2978 106.83 47.2323 109.458C47.2302 107.697 47.2411 105.937 47.2647 104.177C44.9361 104.515 42.6702 103.209 40.61 102.24C29.2739 96.9065 19.4975 88.9541 15.4117 76.7622C11.424 64.8628 13.2621 53.2288 18.5387 42.1032C19.192 40.7257 20.337 39.6541 20.9217 38.3956C21.4235 37.824 21.949 37.182 22.4095 36.5877C28.1689 29.1561 34.6038 21.8636 43.6821 18.5181C45.5728 17.8213 47.6201 17.327 49.6203 16.8332C50.6057 16.7482 52.0633 16.4421 53.1175 16.3022C55.3843 16.004 57.6759 15.94 59.9558 16.1113ZM49.0922 51.612C44.8821 48.0277 40.7255 42.0013 37.9283 37.1719C37.2795 36.4236 35.6243 33.1009 35.7312 32.0835L35.9207 31.9779C36.5561 32.2754 37.6845 33.6153 38.1899 34.1959C38.6146 34.5323 39.5831 35.5497 39.8354 36.0195L40.0149 36.1744C42.795 39.5892 45.4125 42.7077 47.8883 46.3867C48.4874 47.2772 49.6712 48.6188 50.1067 49.4934C50.5384 50.1419 51.1403 50.9783 51.3751 51.7062C50.8948 52.1663 50.8391 52.0623 50.7866 52.5803L51.187 53.3278C50.3439 52.8249 49.7413 52.3413 49.0922 51.612ZM170.045 91.8747C169.655 91.2362 168.424 89.4099 168.23 88.7821C166.771 84.0801 167.087 79.0777 171.683 76.275C173.469 75.1858 179.047 73.7604 180.482 75.4735C180.3 76.5483 177.347 77.2709 176.401 77.6466C173.548 78.7795 171.024 80.9703 170.476 84.132C170.179 85.9012 170.335 90.5403 170.749 92.172C171.881 94.7739 177.045 94.535 179.366 94.6129C179.146 93.668 179.172 91.1995 178.854 90.8549C177.889 89.78 174.778 88.5105 174.459 86.9431C173.595 82.6935 179.639 86.0387 180.777 86.6975C183.479 83.7706 183.433 83.1248 187.143 81.0374C185.364 77.645 184.97 74.5583 180.8 73.2996C171.816 70.5875 161.809 79.461 167.005 88.5239C167.447 89.2957 169.014 91.8309 169.81 92.0654L170.045 91.8747ZM67.287 145.624L67.5531 144.368C68.0224 142.809 68.5755 140.392 69.0777 139.008C63.9309 138.471 58.2497 138.657 53.0032 138.56C48.2793 138.473 42.2906 138.104 37.6779 138.284C41.5491 146 43.8536 144.278 51.4439 144.844C56.6754 145.234 61.9737 146.127 67.287 145.624ZM56.888 55.3599C49.0567 57.4782 50.6208 68.8257 58.5694 69.2489C59.0131 69.2723 59.4066 69.1838 59.8329 69.0805C61.9291 67.9758 64.1339 66.8825 64.8612 64.3824C66.0843 60.1778 62.2661 55.1139 57.8444 55.3247C57.5257 55.3399 57.2092 55.3374 56.888 55.3599ZM53.7058 72.8888C53.1944 72.9027 52.7324 72.8444 52.365 73.1768C51.8996 73.8304 52.005 77.4556 51.9727 78.4791L51.6162 90.0919C51.1034 101.761 50.8145 113.44 50.7494 125.12C54.7968 125.019 59.29 125.16 63.3658 125.244C64.1226 125.24 64.8275 125.244 65.5839 125.182L65.4443 111.195C65.426 101.843 65.5626 92.4354 65.1158 83.0981C65.0007 80.6925 65.1631 75.8465 64.2714 73.8706C61.3531 72.7237 56.8336 72.8321 53.7058 72.8888Z" fill="#852C01"/>
<path d="M175.158 96.3157L175.279 96.3203C175.52 96.6278 176.197 97.4332 176.256 97.7732C177.267 103.51 177.485 109.736 177.306 115.555C177.258 117.066 176.861 117.914 175.582 118.652L175.437 118.527L174.526 118.657C173.047 116.272 173.522 114.034 173.489 111.296C173.442 107.281 173.295 103.128 173.762 99.1496C173.854 98.3661 174.632 96.9209 175.158 96.3157Z" fill="#7B2303"/>
<path d="M110.206 100.734C112.672 100.322 115.051 99.9326 117.497 99.3943L117.405 99.4568C116.918 99.7822 115.081 100.251 114.144 100.653C114.908 101.676 116.013 101.107 117.195 101.485C115.283 101.972 110.889 102.119 108.629 102.467C109.225 101.962 110.949 101.841 111.082 101.023C110.746 100.719 110.744 100.807 110.206 100.734Z" fill="#7B2303"/>
<path d="M204.791 136.244L205.246 136.38C205.296 137.062 204.883 136.91 204.953 137.579C204.011 137.709 203.067 137.825 202.121 137.928C201.166 137.223 201.803 137.045 200.738 136.479C202.279 136.455 203.25 136.405 204.791 136.244Z" fill="#400600"/>
<path d="M193.077 103.635C193.451 103.931 193.359 103.774 193.446 104.213L193.226 104.74L192.375 104.95C191.9 104.361 192.569 104.482 192.706 103.826L193.077 103.635Z" fill="#400600"/>
<path d="M97.8981 59.0217L98.2514 58.938C98.8723 56.839 91.6993 40.8305 93.1494 38.8784C96.432 37.9623 100.122 48.6837 100.708 51.155C103.414 62.582 101.098 74.4619 94.8758 84.3595C92.1396 88.7424 84.8465 96.283 80.0132 98.0664C79.469 98.3041 79.3161 98.4048 78.7716 98.3205L78.705 98.0893C78.9372 97.4677 79.4149 97.0649 79.8841 96.5954C80.7195 95.588 81.8861 94.4342 82.5636 93.3525C85.3028 89.0505 88.6992 85.4439 91.849 81.4648C96.4219 75.6879 99.6735 67.17 98.5858 59.7439C97.3096 59.8336 96.292 59.9101 95.0212 60.1161C88.5801 61.7175 82.5548 62.1618 75.9434 61.6226C74.1924 61.4799 72.4466 61.469 70.6995 61.159C70.2499 61.1627 69.7252 61.2294 69.375 60.9757L69.4932 60.7798C70.7125 60.2208 72.2805 59.904 73.5969 59.678C79.0963 58.3306 86.2286 58.2949 91.8371 58.6025C93.812 58.7107 95.9656 58.6937 97.8981 59.0217Z" fill="#852C01"/>
<path d="M70.6995 61.159C70.2499 61.1626 69.7252 61.2293 69.375 60.9756L69.4932 60.7797C70.7125 60.2207 72.2805 59.904 73.5969 59.678C72.6258 60.3837 71.7954 60.1426 71.5256 60.6173L71.5926 60.7692L72.0476 60.8117C71.8653 61.0463 71.402 61.0793 71.0688 61.1204C70.9459 61.1352 70.8229 61.1481 70.6995 61.159Z" fill="#501101"/>
<path d="M79.8822 96.5955C80.1931 97.2909 80.2473 97.2136 80.0113 98.0664C79.4671 98.3041 79.3143 98.4048 78.7697 98.3205L78.7031 98.0893C78.9353 97.4677 79.413 97.0649 79.8822 96.5955Z" fill="#501101"/>
<path d="M83.7241 34.2247C85.0368 33.006 85.8305 32.2864 87.5126 31.6077C87.2388 32.8567 87.1344 33.4832 86.3533 34.5406C85.9038 35.3067 84.5723 36.8037 83.9443 37.6007C80.0618 42.5275 75.9115 46.9309 70.814 50.6321L70.8021 49.6595C70.6178 49.9143 70.4297 50.1663 70.2377 50.4154C69.916 49.9767 70.5173 50.1613 70.2778 49.3738C72.2719 46.6463 74.6905 43.7384 76.9811 41.2396C79.1477 38.876 81.6575 36.7085 83.7241 34.2247Z" fill="#7B2303"/>
<path d="M83.7227 34.2247C85.0353 33.006 85.8291 32.2864 87.5112 31.6077C87.2373 32.8567 87.1329 33.4832 86.3518 34.5406C86.1515 34.4365 86.0172 34.3172 85.8629 34.1538C86.0812 34.0247 86.2624 33.9682 86.4978 33.8816L86.5606 33.664L86.436 33.5109C85.7407 33.5619 85.0224 34.1778 84.5321 34.1982L83.7227 34.2247Z" fill="#501101"/>
<path d="M24.6386 55.9229C29.821 55.962 42.1754 57.5605 46.4304 60.2691C45.0897 60.3892 41.8866 60.7261 40.6513 60.6201C35.4473 60.1736 29.0858 59.0802 24.1422 57.4859C22.741 57.1861 21.1605 56.7183 19.7734 56.3227C21.5148 56.124 22.8854 55.9809 24.6386 55.9229Z" fill="#852C01"/>
<path d="M19.7734 56.3227C21.5148 56.124 22.8854 55.9809 24.6386 55.9229L24.6946 56.1468C24.1044 56.5685 23.6119 56.1631 23.3176 56.5304C23.5295 57.0913 23.6393 57.1416 24.1422 57.4859C22.741 57.1861 21.1605 56.7183 19.7734 56.3227Z" fill="#501101"/>
<path d="M75.0516 71.509C76.8503 72.9751 82.0334 75.8434 83.3781 77.5471C82.814 78.3713 83.0308 79.3041 83.6543 80.0219C81.0129 78.957 76.2283 75.6634 74.2008 73.484L74.2863 73.2125L73.7383 72.6222L73.8373 72.4636C74.1282 72.6979 74.3033 72.8994 74.6634 72.9328L74.7069 72.7505C74.4942 72.4578 74.4399 72.3772 74.2968 72.0461C74.4954 71.675 74.6 71.7236 75.0516 71.509Z" fill="#7B2303"/>
<path d="M70.4062 69.3452C71.0746 69.5329 71.7749 69.801 72.4321 70.0366L73.9704 70.7932L73.9019 71.0958L73.3362 71.3168L73.1951 71.6453C73.3429 71.8961 73.401 71.9808 73.5913 72.2008C73.4715 72.4823 73.4819 72.469 73.2288 72.641C72.6911 72.2067 72.098 71.5352 71.7008 70.9746C71.2516 70.4909 70.81 69.8764 70.4062 69.3452Z" fill="#400600"/>
<path d="M70.4062 69.3452C71.0746 69.5329 71.7749 69.801 72.4321 70.0366C72.2465 70.483 72.2102 70.7553 71.7008 70.9746C71.2516 70.4909 70.81 69.8764 70.4062 69.3452Z" fill="#0D0000"/>
<path d="M83.3768 77.5471L84.4715 78.4333C83.8015 79.4698 85.3765 79.8826 85.8315 80.8834C84.9958 80.6053 84.4365 80.4382 83.653 80.0219C83.0295 79.304 82.8128 78.3712 83.3768 77.5471Z" fill="#400600" fill-opacity="0.988235"/>
<path d="M70.2788 49.3738C70.5182 50.1613 69.917 49.9767 70.2386 50.4154C70.4307 50.1663 70.6188 49.9143 70.8031 49.6595L70.815 50.6321C69.8783 51.3484 69.254 51.7881 68.25 52.4026C68.8147 51.1204 69.3565 50.4211 70.2788 49.3738Z" fill="#400600" fill-opacity="0.988235"/>
<path d="M73.9706 70.793C74.4707 71.0622 74.6208 71.1438 75.051 71.509C74.5994 71.7235 74.4948 71.675 74.2962 72.046C74.4393 72.3772 74.4935 72.4577 74.7062 72.7504L74.6627 72.9328C74.3026 72.8994 74.1275 72.6978 73.8367 72.4636L73.7376 72.6222L74.2857 73.2125L74.2001 73.4839C73.9418 73.3076 73.4782 72.8668 73.229 72.6408C73.4821 72.4688 73.4717 72.4821 73.5915 72.2005C73.4012 71.9806 73.3431 71.8958 73.1953 71.6451L73.3364 71.3166L73.9021 71.0956L73.9706 70.793Z" fill="#501101" fill-opacity="0.988235"/>
<path d="M84.4722 78.4333C85.1878 79.0452 86.2472 80.058 86.6889 80.8799L86.6593 81.1326C86.2719 81.2102 86.1635 81.1954 85.8322 80.8834C85.3772 79.8826 83.8022 79.4698 84.4722 78.4333Z" fill="#280200"/>
<path d="M170.047 91.8748C169.656 91.2363 168.426 89.41 168.231 88.7822C166.773 84.0802 167.089 79.0778 171.684 76.2751C173.47 75.186 179.049 73.7605 180.483 75.4736C180.302 76.5484 177.348 77.271 176.403 77.6467C173.55 78.7797 171.026 80.9704 170.477 84.1321C170.181 85.9013 170.336 90.5404 170.75 92.1721L170.323 92.1639L170.047 91.8748Z" fill="#7B2303"/>
<path d="M37.9285 37.172C37.2798 36.4237 35.6245 33.101 35.7315 32.0836L35.921 31.978C36.5563 32.2755 37.6848 33.6154 38.1902 34.196C38.6149 34.5324 39.5834 35.5498 39.8357 36.0197L40.0152 36.1745C42.7953 39.5893 45.4128 42.7078 47.8886 46.3868C48.4877 47.2773 49.6715 48.6189 50.107 49.4935C50.5387 50.142 51.1406 50.9784 51.3754 51.7063C50.895 52.1664 50.8394 52.0624 50.7869 52.5804L51.1873 53.3279C50.3442 52.825 49.7416 52.3414 49.0925 51.6121C44.8824 48.0278 40.7258 42.0014 37.9285 37.172Z" fill="#852C01"/>
<path d="M37.9285 37.172C37.2798 36.4237 35.6245 33.101 35.7315 32.0836L35.921 31.978C36.5563 32.2755 37.6848 33.6154 38.1902 34.196C38.6149 34.5324 39.5834 35.5498 39.8357 36.0197L40.0152 36.1745C39.115 36.5391 38.7629 35.8542 37.7849 35.7156L37.5417 35.8409C37.7213 36.2736 37.9587 36.7154 37.9285 37.172Z" fill="#400600"/>
<path d="M38.1897 34.196C38.6144 34.5324 39.5828 35.5498 39.8351 36.0197C39.0439 36.3264 37.6726 35.1189 37.5273 34.6054C38.002 34.4639 37.8259 34.5641 38.1897 34.196Z" fill="#501101"/>
<path d="M50.1082 49.4934C50.5399 50.1419 51.1418 50.9783 51.3766 51.7062C50.8963 52.1663 50.8406 52.0623 50.7882 52.5803L51.1885 53.3278C50.3454 52.8249 49.7428 52.3413 49.0938 51.612L49.3056 51.5005L49.6382 51.6792L49.9015 51.5876C50.2746 51.067 50.1594 50.1279 50.1082 49.4934Z" fill="#501101"/>
<path d="M61.0437 22.053L61.5203 22.2893C62.1296 24.8778 62.4346 26.0009 62.1913 28.8165C62.3243 35.5394 61.8417 40.3867 60.2114 46.9181C59.931 46.5324 59.5358 46.4583 59.0827 46.5069C58.364 44.0544 59.3779 35.4642 59.7857 32.649C59.9579 30.2666 60.6636 27.6847 60.8255 25.2604C60.8963 24.1988 60.9482 23.1051 61.0437 22.053Z" fill="#501101"/>
<path d="M61.0431 22.053L61.5197 22.2893C62.129 24.8778 62.434 26.0009 62.1907 28.8165L62.1773 28.9123C62.0672 29.7462 62.2458 31.2669 62.0644 31.8418L61.91 31.7832C61.733 30.1547 62.1114 28.2898 61.9871 26.6347C61.9159 25.6883 61.8669 24.7388 61.7811 23.7937L61.5983 23.6499C61.2074 24.0721 60.3227 30.4456 60.3482 31.3842L60.5268 31.5231C60.7171 29.5613 61.3317 28.7349 61.214 26.6561L61.3323 26.6978C61.4877 27.6995 61.8683 32.0663 61.5888 32.8666C61.5175 32.4423 61.4481 31.6901 61.2013 31.3911C60.6236 32.1207 61.0616 32.3791 59.8833 32.709L59.7852 32.649C59.9573 30.2666 60.663 27.6847 60.8249 25.2604C60.8957 24.1988 60.9476 23.1051 61.0431 22.053Z" fill="#280200"/>
<path d="M59.082 46.5069C59.5351 46.4582 59.9304 46.5324 60.2107 46.9181C59.9287 48.2132 59.9048 49.483 59.5846 50.8624C59.1177 49.1768 59.1459 48.2286 59.082 46.5069Z" fill="#280200"/>
<path d="M41.1602 72.1645C41.3206 71.9796 42.4398 71.3161 42.7221 71.1401C43.0704 71.7005 43.1622 72.2765 43.5205 72.5613C43.1529 72.908 42.812 73.2601 42.3819 73.5241C42.1984 73.4338 42.2148 73.4285 42.115 73.2461L42.5328 72.9863L42.4512 72.8112C41.9718 72.4827 41.8903 72.4642 41.3192 72.3416L41.4303 72.4344L41.2864 72.4891L41.1602 72.1645Z" fill="#501101"/>
<path d="M43.6562 70.6828C44.0703 70.4776 44.6348 70.1216 45.0592 70.2283C45.2463 70.8474 44.5811 71.4975 44.1776 71.9548C43.6309 71.4408 43.6673 71.3606 43.6562 70.6828Z" fill="#280200" fill-opacity="0.988235"/>
<path d="M42.7227 71.1399L43.657 70.6826C43.668 71.3605 43.6317 71.4406 44.1783 71.9547L43.5211 72.5611C43.1628 72.2763 43.0709 71.7003 42.7227 71.1399Z" fill="#400600" fill-opacity="0.988235"/>
<path d="M51.1895 53.3278L50.7891 52.5804C50.8415 52.0624 50.8972 52.1664 51.3775 51.7063C51.5125 52.1444 51.7493 52.8414 51.8297 53.2674L51.5875 53.5564L51.1895 53.3278Z" fill="#400600" fill-opacity="0.988235"/>
<path d="M111.831 50.6226C113.166 51.218 114.686 51.7085 115.913 52.2982C116.951 52.6635 117.99 53.0225 119.032 53.3752C123.281 55.1213 126.637 55.8733 131.015 57.0591C134.465 58.0024 137.897 59.0062 141.312 60.0703C146.099 61.5982 150.849 63.246 155.555 65.0124C157.803 65.8582 160.06 66.8323 162.318 67.6107C161.774 67.7186 161.69 67.6406 161.358 67.966C161.416 68.5134 161.539 68.4165 161.616 68.6821C159.109 68.1104 156.588 67.3911 154.064 66.9246C141.234 64.5534 129.065 59.9811 117.166 54.6306C115.738 53.9444 114.73 53.4616 113.379 52.6119C113.035 52.4873 111.995 51.6728 111.64 51.4103C111.645 50.8673 111.584 51.0657 111.831 50.6226Z" fill="#852C01"/>
<path d="M111.831 50.6226C113.166 51.218 114.686 51.7085 115.913 52.2982C116.951 52.6635 117.99 53.0225 119.032 53.3752L118.673 53.6834C118.427 53.5839 118.222 53.4971 117.983 53.3828L117.818 53.5395C117.999 53.9596 118.327 54.3052 118.619 54.6715L118.748 54.719L118.603 54.5755L118.736 54.7296L118.609 54.6934L118.544 54.5717C117.926 54.4817 117.745 54.4297 117.166 54.6306C115.738 53.9444 114.73 53.4616 113.379 52.6119C113.035 52.4873 111.995 51.6728 111.64 51.4103C111.645 50.8673 111.584 51.0657 111.831 50.6226Z" fill="#400600"/>
<path d="M111.831 50.6226C113.166 51.218 114.686 51.7085 115.913 52.2982L116.225 52.8603L116.131 53.1828C115.091 53.4048 114.742 52.4813 113.379 52.6119C113.035 52.4873 111.995 51.6728 111.64 51.4103C111.645 50.8673 111.584 51.0657 111.831 50.6226Z" fill="#280200"/>
<path d="M201.226 88.6976C201.312 87.7717 201.29 86.6775 201.82 85.9504C202.723 85.5612 203.22 86.9308 203.578 87.6153C204.47 88.7141 204.516 91.7283 204.403 93.1571C204.128 96.6062 201.512 100.432 198.921 102.609C196.86 104.341 195.731 104.38 193.228 104.74L193.447 104.213C193.361 103.774 193.453 103.931 193.078 103.635C196.106 100.508 200.63 92.949 201.226 88.6976Z" fill="#852C01"/>
<path d="M201.227 88.6976C201.313 87.7717 201.291 86.6775 201.821 85.9504C202.724 85.5612 203.221 86.9308 203.579 87.6153C202.794 87.7632 202.489 87.1032 201.892 87.1807C201.46 88.1763 202.164 88.1879 201.227 88.6976Z" fill="#501101"/>
<path d="M187.312 99.1109C186.398 97.5398 186.093 96.7504 185.947 94.9876C185.515 89.7188 189.888 84.2096 195.478 85.6339C195.698 85.6897 195.877 85.7799 196.067 85.8992L196.158 86.1156C195.169 88.1732 189.979 87.2124 188.683 95.3308C188.495 96.5018 188.212 98.1768 188.414 99.3381C188.364 99.7146 188.384 99.8739 188.123 100.143C187.721 99.9328 187.582 99.5458 187.312 99.1109Z" fill="#7B2303"/>
<path d="M187.312 99.1109C187.827 98.8786 187.616 98.8888 188.107 99.0305L188.415 99.3381C188.364 99.7146 188.384 99.8739 188.124 100.143C187.721 99.9328 187.582 99.5458 187.312 99.1109Z" fill="#501101"/>
<path d="M215.339 85.8013C216.011 86.4387 216.566 87.7965 216.752 88.6904C217.869 91.4186 216.286 97.085 213.913 98.7569C213.27 99.2101 212.531 99.8582 211.727 99.5544C211.306 98.8236 211.921 97.9305 212.342 97.3305C214.457 94.3183 214.745 91.7895 214.313 88.2127C214.111 87.4505 213.896 86.6924 213.665 85.9386C214.183 85.7761 214.574 85.9124 215.12 86.0081L215.339 85.8013Z" fill="#7B2303"/>
<path d="M215.338 85.8013C216.009 86.4387 216.565 87.7965 216.751 88.6904C216.246 88.3703 215.671 88.0282 215.216 87.6502C215.352 87.3832 215.404 87.3535 215.626 87.1392L215.695 87.0743L215.576 86.8892C214.951 86.9012 214.912 87.2963 214.363 87.4109L214.409 87.7387C214.502 87.7713 214.594 87.7478 214.689 87.7373L214.728 87.8207L214.542 87.8675L214.5 88.0913L214.312 88.2127C214.11 87.4505 213.895 86.6924 213.664 85.9386C214.182 85.7761 214.573 85.9124 215.118 86.0081L215.338 85.8013Z" fill="#501101"/>
<path d="M219.28 91.5375L219.353 91.0514L219.535 90.9229C219.83 91.2013 219.735 91.0751 219.855 91.5427C220.484 93.4064 220.703 95.9938 220.022 97.8655C219.676 98.8148 218.992 100.567 217.672 100.052C217.507 99.8281 217.383 99.7596 217.479 99.4701C218.399 96.7432 218.885 94.3791 219.28 91.5375Z" fill="#280200"/>
<path d="M219.281 91.5375L219.354 91.0514L219.536 90.9229C219.831 91.2013 219.736 91.0751 219.856 91.5427C219.746 91.7101 219.712 91.7247 219.569 91.86L219.281 91.5375Z" fill="#0D0000"/>
<path d="M101.124 102.227L100.664 102.658L100.718 102.836C101.436 102.902 101.973 102.639 102.283 102.847C102.026 103.114 101.789 103.261 101.489 103.471C98.498 104.331 96.0597 104.558 93.0516 105.062C92.5831 104.695 92.4326 104.844 91.9375 104.355C91.9363 103.878 91.9578 103.995 92.2719 103.537C92.1614 103.59 100.364 102.353 101.124 102.227Z" fill="#501101"/>
<path d="M110.208 100.734C110.746 100.807 110.749 100.719 111.084 101.023C110.952 101.841 109.228 101.962 108.631 102.468C106.221 102.984 103.896 103.089 101.489 103.471C101.79 103.261 102.026 103.114 102.283 102.847C101.973 102.639 101.436 102.902 100.718 102.836L100.664 102.658L101.125 102.227C103.211 102.191 107.868 101.149 110.208 100.734Z" fill="#400600"/>
<path d="M162.319 67.6106C163.411 67.8418 167.082 69.1112 167.995 69.6315C167.878 70.1111 167.983 69.9353 167.546 70.279C166.234 69.7915 163.087 69.0646 161.617 68.682C161.54 68.4164 161.417 68.5133 161.359 67.9659C161.691 67.6405 161.775 67.7186 162.319 67.6106Z" fill="#280200"/>
<path d="M212.173 83.868C212.029 83.7205 211.991 83.5919 211.898 83.4009L212.079 83.2254C212.819 83.2076 213.234 83.4957 213.784 83.9409C214.361 84.519 214.908 85.0971 215.336 85.8013L215.116 86.0081C214.571 85.9124 214.179 85.7761 213.662 85.9386C213.395 85.434 212.561 84.4317 212.173 83.868Z" fill="#280200"/>
<path d="M212.173 83.868C212.029 83.7205 211.991 83.5919 211.898 83.4009L212.079 83.2254C212.819 83.2076 213.234 83.4957 213.784 83.9409L213.606 84.3893L213.329 84.47C213.006 84.2888 212.493 83.9687 212.173 83.868Z" fill="#0D0000"/>
<path d="M109.733 50.104C110.577 50.1743 111.048 50.2833 111.834 50.6226C111.588 51.0657 111.648 50.8673 111.643 51.4103C110.989 50.966 110.372 50.8656 109.613 50.6852L109.733 50.104Z" fill="#400600"/>
</svg>
