<svg width="60" height="42" viewBox="0 0 60 42" fill="none" xmlns="http://www.w3.org/2000/svg">
<path d="M4.85912 4.66851C6.27235 4.62056 9.59571 4.81783 10.6363 5.72821C11.3731 7.06869 11.4173 9.74041 11.438 11.3156C11.4929 15.4925 11.3052 15.4596 7.64508 15.3321C6.42695 15.3278 2.39494 15.5503 1.7782 14.3632C0.593361 12.0823 0.987262 7.60709 1.48435 5.17758C2.80123 4.85507 3.52634 4.79207 4.85912 4.66851Z" fill="#9C4517"/>
<path d="M2.07367 5.89781C4.35736 5.86414 6.96116 5.77162 9.20768 5.98036C11.9297 6.23311 10.6701 12.4414 10.2072 14.1567C7.89191 14.2084 4.36069 14.2314 2.0979 14.057C1.46303 11.1262 1.55365 8.79313 2.07367 5.89781Z" fill="#F7F2E6"/>
<path d="M34.1536 1.03937C35.7821 0.92353 36.6496 1.00007 38.0127 2.15305C40.0621 3.88618 40.8617 8.30402 39.1197 10.456C38.514 11.2041 37.0733 11.1459 36.163 11.1924C30.8885 11.7549 29.1784 10.2608 30.799 4.54401C31.29 2.812 32.5514 1.74948 34.1536 1.03937Z" fill="#9C4517"/>
<path d="M33.9678 1.7911C39.6864 0.892941 39.298 6.76521 38.7512 10.563L36.3349 10.5916C35.3875 10.5815 33.5552 10.5877 32.7151 10.4472C29.6972 9.94338 31.0531 4.57115 32.3565 2.96401C32.7939 2.42467 33.4004 2.1014 33.9678 1.7911Z" fill="#F7F2E6"/>
<path d="M34.5018 3.20496C38.551 2.9823 35.763 7.24255 34.7688 7.46897L34.4005 6.96385C34.7552 6.27481 35.9896 5.03119 35.8703 4.34779C35.2356 4.18662 34.3825 4.50463 33.7042 4.68027L33.5703 4.48507C33.6635 3.88178 34.0426 3.64257 34.5018 3.20496Z" fill="#9C4517"/>
<path d="M33.6263 33.3342C33.7336 32.9011 33.7147 32.5948 34.1834 32.336C35.3397 31.6974 41.5955 31.8584 42.0047 33.0866C42.5786 35.2607 42.4907 38.2572 41.8557 40.3977C41.653 41.0812 40.1987 41.029 39.6547 40.9646C36.9377 40.6433 33.7223 41.8376 33.4568 38.0261C33.333 36.4328 33.2356 34.9011 33.6263 33.3342Z" fill="#9C4517"/>
<path d="M34.0498 34.1532C34.1957 33.4644 34.1066 33.2652 34.5567 32.9056C36.494 32.85 39.3271 32.9871 41.265 33.2287C41.3082 35.1702 41.1869 37.9945 40.95 39.926C39.3894 39.9241 35.7715 39.9933 34.3414 39.5802C33.6618 38.6378 34.0281 37.3278 33.8789 36.2192L34.0498 34.1532Z" fill="#F7F2E6"/>
<path d="M33.6263 33.3342L34.0509 34.1532L33.8801 36.2192C33.5899 37.1029 33.869 37.4704 33.4568 38.0261C33.333 36.4328 33.2356 34.9011 33.6263 33.3342Z" fill="#8C2102"/>
<path d="M22.3246 18.1546C23.1196 18.1217 23.6922 18.1132 24.4591 18.4435C25.3735 18.8307 26.0944 19.5782 26.4572 20.5155C27.4767 23.1509 25.8216 25.1727 23.4427 26.0551C17.9103 26.1589 17.612 19.8321 22.3246 18.1546Z" fill="#9C4517"/>
<path d="M21.8968 19.0949C23.4439 18.8463 25.0382 19.1643 25.764 20.7451C26.1065 21.4866 26.13 22.3397 25.8291 23.0996C25.3563 24.3156 24.7005 24.6552 23.6359 25.1553C19.2408 25.6717 18.1847 21.2518 21.8968 19.0949Z" fill="#F7F2E6"/>
<path d="M24.2785 20.5361C24.4699 20.8161 24.4007 20.7255 24.4416 21.115C23.7163 22.2627 23.5796 22.7516 22.3972 23.3122C21.7226 23.3083 21.7568 23.1499 21.1362 22.6328C21.0237 22.563 20.9392 22.3951 20.8516 22.2649L20.9357 21.8339L21.2591 21.7329L22.1098 22.2807C22.6136 22.2621 23.6298 21.077 24.2785 20.5361Z" fill="#983403"/>
<path d="M43.0217 6.78638C44.6973 6.9592 45.3362 8.27128 46.3611 9.53521L46.5279 9.4267C46.4502 8.24269 46.573 7.70842 47.8472 7.51115C49.1624 7.89968 51.3716 11.1946 51.3263 12.2948L51.0629 12.4992C49.6221 12.1048 49.5121 8.32186 47.3643 8.16032C45.7601 9.19483 49.0394 11.5805 48.6202 13.2106L48.2459 13.3073C46.6121 12.1752 45.1178 7.62511 43.0309 7.49799L42.9381 7.73926C43.3593 10.2408 48.1952 15.2081 47.4929 17.2151C46.5579 17.4116 44.8996 15.8699 43.4579 15.358L43.2576 15.2888C42.6579 15.2796 42.4103 15.2424 41.9735 15.5978C41.9213 16.294 42.1632 16.4995 43.0083 16.7656C45.2323 17.5523 46.333 20.0346 48.3835 21.0778C49.4283 21.6094 54.7989 22.0011 54.4053 23.7484L54.0477 23.944C51.4424 22.494 50.9314 22.853 48.0502 21.8985C47.1787 21.6098 42.8009 17.1149 41.5413 16.4679C41.4781 16.3149 41.4148 16.162 41.3516 16.0089C41.3752 15.7911 41.3673 15.5075 41.4768 15.3375C42.9699 13.0197 45.9753 15.8067 47.2515 16.7555C45.8675 13.7357 43.445 11.2014 42.5011 8.23705C42.3411 7.73419 42.7256 7.19446 43.0217 6.78638Z" fill="#9C4517"/>
<path d="M21.0372 32.252C21.937 32.2109 25.6939 31.843 26.142 32.5855C26.8528 33.7631 26.9118 37.1477 25.7098 38.0181C21.0679 38.2862 19.8155 39.3268 20.2769 33.4368C20.3243 32.833 20.6137 32.618 21.0372 32.252Z" fill="#983403"/>
<path d="M21.2214 33.2126C22.6786 33.0994 24.0874 33.1501 25.5467 33.1768C25.6321 34.72 25.5959 35.8459 25.4045 37.378C23.8282 37.4531 22.6638 37.4615 21.0873 37.4036C21.0566 36.0472 21.0176 34.5444 21.2214 33.2126Z" fill="#F7F2E6"/>
<path d="M22.6678 6.3484C24.6403 6.23689 25.6428 6.16561 27.5901 6.68315C25.6156 7.00171 22.5195 6.9406 20.9907 8.11219C20.0488 8.83395 21.3487 12.6021 21.4885 13.838C21.6461 15.2298 21.7548 16.2607 21.7752 17.6802C21.3212 16.1545 21.0049 15.8617 20.4339 14.5167C20.6508 14.1052 20.66 14.0337 20.6279 13.5675C19.7602 9.66404 18.8026 10.5391 16.1761 11.5834C15.4659 11.3261 13.465 10.7931 13.0781 10.3674C13.6277 9.98599 14.5404 10.0578 15.3087 10.0054C15.6209 9.72967 15.651 9.67589 15.8746 9.34303L15.936 9.25069L16.2855 9.28172L16.5899 9.8017C17.0741 10.0407 19.0432 10.1242 20.0085 10.3247C19.8547 7.45136 19.5845 6.65738 22.6678 6.3484Z" fill="#9C4517"/>
<path d="M32.2792 22.1643C33.8513 22.1528 36.6445 22.0426 38.017 22.6077C39.8839 23.3761 39.2542 28.728 38.6208 30.1133L38.3936 30.1257C38.081 29.4492 38.1907 28.5605 38.2166 27.794C38.6219 22.7044 38.2517 23.5226 33.4245 23.044C31.5473 22.858 29.5464 22.858 27.7109 22.4073C29.0728 22.2645 30.8801 22.2282 32.2792 22.1643Z" fill="#9C4517"/>
<path d="M6.27601 17.1426C6.87352 17.728 6.60962 20.0608 6.93972 20.5848C8.60796 23.2328 14.7043 20.7153 18.1211 22.1157L18.1194 22.354C15.8984 22.6361 14.0029 22.8048 11.7632 22.7036C6.65567 22.4729 5.86843 22.5455 6.27601 17.1426Z" fill="#9C4517"/>
<path d="M50.2383 8.40538C52.3025 8.10092 51.6826 8.95714 53.0977 9.62926C54.7132 9.1074 55.1232 9.76071 55.8346 11.2394C56.5447 12.7155 57.0008 14.5265 57.3063 16.1353C58.1255 16.4531 58.5688 16.4864 58.7759 17.4344L58.5314 17.6405C57.7997 17.4825 57.8108 17.3238 57.2051 16.7771C56.6154 15.2659 54.8179 9.8523 53.299 9.69865L53.0352 10.008C53.2395 10.6352 53.5154 11.07 53.8346 11.6413L53.7358 11.9792L53.38 12.1154C52.8208 11.7178 52.3437 10.412 52.0149 9.76109C51.4375 8.61826 50.8966 9.18864 50.2383 8.40538Z" fill="#9C4517"/>
<path d="M13.3814 33.8213C12.5586 33.7919 9.49307 33.7972 9.00781 33.2862C9.69945 32.8313 13.3433 32.5122 14.1396 33.1324C14.5688 34.1562 14.7284 38.1152 13.4554 38.813C13.3154 38.8898 12.893 38.9259 12.711 38.943L12.9904 38.2541C13.4165 37.3964 13.3768 34.8509 13.3814 33.8213Z" fill="#A13706"/>
<path d="M27.418 27.8823C29.0579 28.1027 31.5874 30.5714 32.5694 31.918C31.2037 31.8154 28.1418 29.1066 27.418 27.8823Z" fill="#9C4517"/>
<path d="M19.1017 28.2505L19.2748 28.4833C18.8038 29.7215 16.3081 31.6895 15.1962 32.5553L15.0234 32.2245C15.4349 31.0106 18.0165 28.9864 19.1017 28.2505Z" fill="#9C4517"/>
<path d="M22.9021 27.6174C23.8671 28.0947 23.5934 29.9902 23.5329 30.8902L23.2452 30.8375C22.5818 30.0379 22.8305 28.7021 22.9021 27.6174Z" fill="#8C2102"/>
<path d="M8.70734 33.6929L8.93055 34.0197C9.0147 35.0711 8.88673 36.9288 8.56717 37.9298C7.99 36.6945 8.41793 34.9491 8.70734 33.6929Z" fill="#8C2102"/>
<path d="M9.23047 38.6925C10.6097 38.3755 11.5859 38.2521 12.9908 38.2542L12.7114 38.943C11.9195 38.8114 10.1041 38.7491 9.23047 38.6925Z" fill="#9C4517"/>
</svg>
