<svg width="229" height="160" viewBox="0 0 229 160" fill="none" xmlns="http://www.w3.org/2000/svg">
<path d="M111.659 92.2015C112.129 85.9717 120.553 90.7874 124.512 89.6485C126.603 89.0473 133.296 93.0726 135.037 94.3365C137.366 96.0267 141.288 97.2918 143.645 99.0767C146.659 101.337 147.177 104.152 148.38 107.371C150.661 113.474 152.496 120.094 155.899 125.678C157.614 128.182 161.016 129.521 163.189 131.176C165.321 132.8 168.134 134.536 170.01 136.198C171.101 136.909 175.861 140.423 176.085 141.359C175.148 141.696 169.305 137.841 168.071 137.143C163.723 134.325 158.912 131.303 154.982 127.965C153.694 126.872 153.67 125.352 152.945 123.996C150.236 118.929 147.918 113.765 146.523 108.177C146.274 107.182 144.564 103.473 143.77 102.833C139.924 99.7353 135.014 97.424 130.763 94.844C127.716 93.3373 123.613 91.7067 120.177 92.0262C119.131 92.1234 117.794 94.2827 116.162 93.4606L116.141 93.1501C116.659 92.4931 117.62 92.1113 118.407 91.6885C116.355 91.2567 115.524 91.2406 113.489 91.6196C114.757 92.7588 115.316 93.2895 116.284 94.6846C118.494 95.6753 120.917 96.4815 123.161 97.4049C123.712 97.6315 126.455 98.4381 126.703 98.6173C128.472 99.8932 138.296 103.698 138.045 105.804C136.304 107.257 129.494 103.185 127.931 102.294C126.469 101.461 124.338 100.566 122.768 100.066C120.677 99.3992 113.382 97.4563 111.43 98.0215C110.857 100.121 110.689 100.235 108.606 101.132C111.965 102.737 117.274 103.5 120.825 104.914C123.769 106.087 126.582 107.791 129.255 109.495C130.085 110.024 134.741 112.169 132.95 113.474C130.223 113.897 124.036 108.935 121.656 107.703C118.317 105.973 113.854 105.004 110.161 103.815C109.903 104.245 109.617 104.751 109.242 105.057C107.93 106.126 107.54 105.233 106.755 105.159L106.748 105.448C107.613 107.353 109.52 107.523 111.257 108.379C114.799 110.125 117.877 111.235 121.065 113.626C123.193 115.222 126.044 116.61 128.146 118.334C128.569 118.681 128.819 119.683 128.815 120.202C127.649 122.127 120.048 115.42 118.675 114.557C116.635 113.275 114.924 112.245 112.748 111.179C111.262 114.241 110.089 113.499 107.588 112.03C109.333 114.764 112.143 116.036 114.541 117.952C116.701 119.678 118.966 121.558 120.809 123.607C124.323 127.281 125.471 133.465 128.669 137.107C132.052 140.959 136.213 142.508 141.18 142.152C143.535 141.984 144.496 144.656 145.726 146.117C147.561 148.298 150.671 149.978 152.749 151.995C154.074 153.221 158.232 155.007 157.934 157.208C157.337 157.843 155.93 156.883 155.245 156.522C154.203 155.974 153.04 154.533 152.083 153.963C147.932 151.494 145.068 147.805 141.194 145.141C140.661 144.774 138.714 144.677 138.055 144.663C134.378 144.582 131.135 143.349 128.537 140.711C124.302 136.657 123.008 130.471 119.75 125.989C117.155 122.42 112.355 119.567 109.134 116.698C106.467 114.322 106.133 112.985 106.036 109.545C102.978 114.587 100.883 118.179 96.3885 122.187C94.1321 124.264 91.7985 126.209 89.6258 128.379C88.328 129.675 86.6585 133.518 84.551 133.035C82.031 130.291 92.6796 121.868 94.5101 120.2C99.1454 115.979 103.739 110.239 104.072 103.798C99.3971 108.028 96.9151 112.266 92.7813 116.876C91.2283 118.363 89.5937 119.871 88.0282 121.336C86.0262 123.209 80.7666 131.807 77.9577 130.876C77.7307 130.662 77.6024 130.614 77.5251 130.325C77.0824 128.674 79.784 126.838 80.9993 125.454C82.9643 123.217 86.5304 121.002 88.7243 118.924C90.7552 117.001 92.5004 114.218 94.3124 112.094C97.4574 108.409 100.435 104.94 102.992 100.81C103.602 99.824 103.617 98.5051 104.107 97.6521C105.077 95.9652 107.551 95.4288 109.269 94.9718C110.079 93.9807 110.787 93.1363 111.659 92.2015ZM108.626 100.508C108.893 99.5788 109.361 98.8288 109.852 98.0087C108.877 97.886 107.857 97.6835 106.875 97.7948L106.372 98.0756C106.291 98.4735 106.338 98.571 106.566 98.9149C106.989 99.5526 107.794 100.071 108.397 100.538L108.626 100.508ZM110.805 111.677C110.688 110.731 110.068 110.281 109.395 109.671L107.563 109.258C107.677 110.004 107.744 110.654 108.388 111.14C108.984 111.59 110.08 111.754 110.805 111.677ZM105.583 101.91C105.59 102.625 105.672 102.936 106.2 103.447C106.718 103.949 107.688 104.594 108.41 104.688C108.532 104.125 108.665 103.842 108.322 103.318C107.94 102.732 107.136 102.137 106.442 101.989C106.165 101.93 105.866 101.921 105.583 101.91ZM114.556 95.9453C115.233 96.1306 115.847 96.3634 116.532 96.2162L116.423 96.016C116.145 95.9037 115.818 95.8313 115.525 95.7562C113.77 95.124 113.465 94.6601 112.683 93.0015L112.412 92.4329C112.343 93.0392 111.884 95.3249 111.959 95.5718C112.638 95.8915 113.805 95.7149 114.556 95.9453Z" fill="#823806"/>
<path d="M170.014 136.198C171.104 136.91 175.864 140.423 176.088 141.359C175.151 141.696 169.308 137.841 168.074 137.143C168.769 137.283 169.804 137.055 170.2 137.317L170.315 138.014C170.672 137.993 170.506 138.047 170.812 137.805C170.738 136.489 170.055 137.096 169.709 136.52L170.014 136.198Z" fill="#4A1502"/>
<path d="M115.527 95.7563C115.82 95.8315 116.148 95.9039 116.426 96.0162L116.534 96.2164C115.85 96.3635 115.235 96.1307 114.559 95.9454L115.527 95.7563Z" fill="#945324" fill-opacity="0.835294"/>
<path d="M132.973 24.739C133.445 24.8032 133.5 24.821 133.901 25.0795C134.507 26.3271 132.837 28.5356 132.021 29.4857C125.365 37.2331 119.264 45.4298 112.754 53.3046C111.243 55.1331 109.456 56.7398 107.892 58.5481L91.6538 77.5357C85.6798 84.557 80.0987 92.0337 73.6887 98.6756C69.9798 102.519 64.5862 111.772 60.3873 114.328C59.8387 114.545 59.9754 114.581 59.4632 114.482C59.3259 114.143 59.3037 114.018 59.3774 113.659C60.017 110.544 77.8221 90.0445 80.9223 86.2556L88.9691 76.3635C89.9191 75.1849 90.9995 73.5474 92.0048 72.482C97.526 66.6301 102.539 60.3504 107.743 54.217C109.741 51.9057 112.068 49.9223 113.873 47.444C115.808 44.7879 118.032 42.4045 120.112 39.876C121.233 38.6975 122.451 36.2807 123.547 35.2278C126.275 32.6046 130.011 26.7092 132.973 24.739Z" fill="#823806"/>
<path d="M151.659 26.6018C154.297 27.1842 151.56 30.297 150.755 31.3577C147.531 35.6084 143.671 39.4106 140.252 43.4637L126.615 59.5774C125.591 60.7677 124.638 62.1652 123.577 63.3101C121.535 65.5117 119.311 67.5906 117.225 69.7479C115.855 71.1004 114.652 72.8845 113.249 74.1781C110.771 76.4612 108.511 78.7804 106.309 81.3341C105.366 82.4282 104.034 83.4154 103.112 84.541C101.052 87.0568 98.9972 89.3267 96.6542 91.5777C96.0594 91.7142 96.183 91.7843 95.737 91.5607L95.6758 91.1659C97.0089 86.9106 107.964 75.942 111.278 72.5062C115.081 68.5488 118.794 64.507 122.417 60.3838C123.328 59.3663 124.31 58.3984 125.205 57.3806C126.495 55.912 127.646 54.2027 128.897 52.719L143.128 36.0262C145.748 32.967 148.639 29.1295 151.659 26.6018Z" fill="#823806"/>
<path d="M128.98 64.824C127.839 67.7873 124.623 70.6852 122.705 73.2099C116.818 80.9591 109.851 87.6052 103.403 94.8449C101.6 96.869 99.143 98.6351 97.6109 100.889L97.0469 100.467C97.7573 98.3469 101.13 94.7782 102.697 92.9366C107.141 87.6944 111.725 82.5737 116.446 77.5799C119.473 74.3232 122.487 71.0721 125.406 67.6973C126.185 66.7968 127.928 65.424 128.98 64.824Z" fill="#823806"/>
<path d="M166.376 27.23C166.984 27.3928 167.009 27.3859 167.301 27.8119C167.84 30.6234 156.005 42.0167 153.754 44.5669C151.363 47.2753 148.038 51.3809 144.749 52.8958L144.398 53.1223L144.215 53.0392C144.309 50.9676 156.865 38.1598 158.906 35.2511C160.26 33.3209 164.488 29.059 166.376 27.23Z" fill="#823806"/>
<path d="M146.258 56.5845C149.468 52.6298 153.356 49.152 156.77 45.3603C161.288 40.3407 165.37 34.9971 169.805 29.9331C170.317 29.3487 171.084 28.5795 171.92 28.6607C172.869 30.9268 149.251 55.0454 146.325 57.5017C146.288 57.2803 146.273 56.8274 146.258 56.5845Z" fill="#945324"/>
<path d="M108.764 49.1448L109.751 49.0359C107.998 50.7862 106.341 52.6148 104.74 54.5043C103.736 55.69 102.858 57.1723 101.844 58.3045C98.6995 61.8142 95.6816 65.2509 92.8814 69.0434C91.3616 71.1018 89.215 73.006 87.5827 74.9949C85.9211 76.8485 84.3681 78.8304 82.7352 80.6935C81.5038 82.0984 79.9634 83.3895 78.7097 84.8306L78.3281 84.237C78.9512 83.3435 79.885 82.4507 80.5706 81.5559C83.4733 77.7671 86.918 74.3709 89.993 70.7756L102.46 56.2429C104.187 54.2542 106.97 50.8612 108.764 49.1448Z" fill="#9F5C29"/>
<path d="M145.841 26.4114C146.253 26.4247 146.312 26.4233 146.634 26.6756C147.399 28.0911 145.044 30.5492 144.081 31.5134C137.768 37.8292 132.501 45.28 126.566 51.8809C126.327 52.0095 126.304 51.9867 126.038 51.9754C125.838 50.6839 136.124 38.9468 137.718 36.7539C140.129 33.4381 143.204 29.5708 145.841 26.4114Z" fill="#945324"/>
<path d="M80.3281 118.674C85.4855 112.689 90.2067 106.351 96.3719 101.295C96.7217 101.008 96.8695 100.888 97.0442 100.467L97.6083 100.889C93.4839 106.887 89.0525 111.138 84.1309 116.378C83.1056 117.469 81.7597 118.62 80.8791 119.673C80.7597 119.391 80.4891 118.954 80.3281 118.674Z" fill="#823806"/>
<path d="M80.2768 38.6638L80.5226 38.8587C80.2819 40.2898 77.0443 43.758 76.0277 44.9269C74.5493 46.6268 73.3296 48.7393 71.8126 50.3801C70.4293 51.7476 69.121 53.4265 67.7307 54.7601C65.7666 56.6437 63.7758 58.2365 62.2122 60.5316C61.2005 62.0165 59.983 63.3427 59.1824 64.9958C58.9643 64.9432 59.0572 64.9646 58.8587 64.781C58.7101 62.474 63.801 57.491 65.2827 55.7348C67.1741 53.4932 68.9879 51.0999 71.0865 49.0354C72.1193 48.0194 73.1655 46.8252 74.1594 45.7557C75.6318 43.7504 76.7985 41.5487 78.5924 39.7568C79.109 39.2407 79.6402 38.9855 80.2768 38.6638Z" fill="#945324"/>
<path d="M130.125 73.4919C130.294 73.576 130.294 73.6158 130.391 73.7687C130.177 74.2833 129.802 74.7384 129.479 75.188C127.927 77.3471 126.311 79.5846 124.587 81.608C123.422 82.9749 122.094 84.1991 120.936 85.571C120.247 86.3866 119.43 87.8305 118.578 88.4004C118.165 88.6763 117.335 88.728 116.835 88.8096C116.764 88.7501 116.737 88.7346 116.682 88.6451C116.474 88.2988 116.559 87.9499 116.713 87.6027C117.317 86.2433 126.115 76.6638 127.586 75.3012C128.369 74.5762 129.121 73.8926 130.125 73.4919Z" fill="#945324"/>
<path d="M37.5078 84.9217C40.1383 81.4152 43.782 78.1088 46.4864 74.5998C48.8995 71.4684 53.7461 63.2574 57.0903 61.3752L57.3016 61.4626C57.0942 63.6852 51.388 69.7459 49.7483 71.7484C46.5047 75.7095 43.0755 81.2827 39.1835 84.5334C39.0447 84.6482 38.9027 84.7591 38.7577 84.8662C38.4316 84.9659 38.1043 85.062 37.7759 85.154L37.5078 84.9217Z" fill="#945324"/>
<path d="M94.4883 21.3997C95.135 21.5598 95.272 21.6218 95.4047 22.2201C94.5741 25.0267 90.0785 29.2611 88.0667 31.5997C86.5233 33.3939 84.548 36.0961 82.6628 37.329C82.2281 37.3754 82.3714 37.425 82.072 37.2065C81.7814 35.1301 92.815 23.6453 94.4883 21.3997Z" fill="#823806"/>
<path d="M87.8459 101.259C87.6447 101.925 87.3289 102.718 86.8848 103.255C83.3598 107.52 79.4653 111.479 75.8336 115.654C74.8427 116.794 73.9852 118.223 72.3087 118.481L72.1523 118.323C72.6939 116.59 85.3559 102.821 87.4153 100.229L87.8459 101.259Z" fill="#823806"/>
<path d="M108.762 49.1448C110.94 45.3461 115.951 40.1467 118.766 36.6531C120.691 34.2629 125.842 26.6495 128.01 25.3098L128.379 25.2825C128.987 25.9848 127.953 27.2736 127.437 27.8729C125.44 30.195 123.381 32.3558 121.434 34.7348L113.748 44.2026C112.992 45.1395 110.59 48.4601 109.749 49.0359L108.762 49.1448Z" fill="#945324"/>
<path d="M184.851 66.6399C185.477 66.5354 186.187 66.6601 186.759 66.9252C187.526 67.2804 188.059 67.9612 188.331 68.7507C188.684 69.7819 188.659 71.0066 188.166 71.9899C187.754 72.8183 187.046 73.0188 186.227 73.3024C185.954 73.3162 185.677 73.3257 185.406 73.2955C184.581 73.2043 183.698 72.8524 183.174 72.1851C182.657 71.5272 182.515 70.6421 182.633 69.8291C182.854 68.3076 183.7 67.5196 184.851 66.6399Z" fill="#823806"/>
<path d="M131.387 72.9926C131.529 72.5448 131.902 71.3992 132.161 71.057C134.934 67.3936 141.105 59.2531 144.893 57.0637C144.877 57.4512 144.87 58.0022 144.815 58.3723C144.251 59.4425 132.247 72.3651 131.387 72.9926Z" fill="#823806"/>
<path d="M99.4694 38.2454C100.175 37.1393 101.001 36.3204 101.754 35.2941C103.187 33.3432 104.611 31.321 106.271 29.5471C107.454 28.2837 110.127 23.4274 111.881 23.7229C112.045 24.3971 110.697 25.8376 110.211 26.3676C107.487 29.3398 105.14 32.6166 102.591 35.7216C101.583 36.9482 100.7 37.0818 99.6878 38.6974C97.6777 41.4515 95.6784 42.9841 94.0606 45.156L93.6523 44.6559C94.5336 42.8694 97.9531 39.6365 99.4694 38.2454Z" fill="#945324"/>
<path d="M134.957 29.5938L135.104 29.7541C134.89 30.3047 129.034 36.8778 128.22 37.8427L111.236 58.2322L111.102 58.1931C111.093 58.1081 111.079 58.0481 111.09 57.9653C111.228 56.8866 131.004 33.5034 133.339 31.0147C133.838 30.4827 134.373 30.0298 134.957 29.5938Z" fill="#A1602E" fill-opacity="0.980392"/>
<path d="M90.2869 20.4351C90.6392 20.5191 90.512 20.4391 90.7431 20.7866C90.6773 22.5258 83.4581 29.8566 81.7534 30.7938L81.5702 30.8002L81.4141 30.566C81.6311 29.5407 84.172 26.3254 84.9792 25.2669C85.9191 24.0346 87.915 21.6541 89.1795 20.6996C89.3431 20.576 90.042 20.4674 90.2869 20.4351Z" fill="#823806"/>
<path d="M71.7322 42.4114C72.0248 42.4786 71.8839 42.4192 72.1363 42.66C72.0841 44.5595 63.8569 52.2598 62.1206 53.7368L61.8172 53.5333L61.7773 53.1293C62.4147 51.3612 70.0256 43.3629 71.7322 42.4114Z" fill="#823806"/>
<path d="M78.3252 84.2371L78.7067 84.8307C77.1606 87.2846 74.7422 89.7588 72.91 92.0582C71.8259 93.4186 68.5359 98.0993 66.9805 98.4858C67.7012 96.5408 76.6078 85.8641 78.3252 84.2371Z" fill="#945324"/>
<path d="M88.7295 51.5386C87.3737 53.5139 82.2233 59.9434 80.3645 61.1431L79.9453 60.6764C81.2355 58.6048 86.5534 52.8048 88.7295 51.5386Z" fill="#945324"/>
<path d="M68.3931 74.7705C68.6043 74.7714 68.6078 74.7897 68.7742 74.9243C68.7762 75.0191 68.7728 75.1097 68.7543 75.2035C68.4637 76.6843 64.3471 81.3561 63.0117 82.3185L62.7871 82.2968C62.6832 82.0941 62.6271 82.0627 62.6913 81.8435C62.9295 81.031 66.6548 76.1497 67.4053 75.4152C67.6809 75.1455 68.0546 74.9508 68.3931 74.7705Z" fill="#945324" fill-opacity="0.988235"/>
<path d="M79.0653 33.6372C79.5003 33.7086 79.3665 33.6294 79.6817 33.8939C79.86 35.1819 76.2558 38.3386 75.2265 39.2541C75.03 39.3035 74.9725 39.2706 74.7642 39.2411C74.3461 37.8561 77.9315 34.3777 79.0653 33.6372Z" fill="#823806"/>
<path d="M71.8008 71.1772C72.7366 68.1558 77.8111 63.1006 79.9428 60.6763L80.362 61.143C77.6355 63.4958 76.7445 65.5213 74.5934 68.3105C73.9989 69.0814 72.5488 70.4517 71.8008 71.1772Z" fill="#945324" fill-opacity="0.980392"/>
<path d="M108.009 39.7034L108.241 39.9581C107.632 40.542 107.193 41.3348 106.686 41.8143C104.496 43.8827 102.142 47.742 99.8759 49.5117L99.5781 49.3665C101.35 46.6337 103.617 43.9115 106.021 41.7206C106.763 41.0441 107.183 40.3288 108.009 39.7034Z" fill="#A1602E" fill-opacity="0.980392"/>
<path d="M97.1059 51.5911L97.3475 51.8592C94.4284 54.9111 92.7984 58.1098 89.5361 60.6309L89.3789 60.5968C89.9888 59.0109 95.5628 52.7856 97.1059 51.5911Z" fill="#A1602E"/>
<path d="M96.4702 74.5828C96.5994 74.605 96.6408 74.6624 96.7416 74.7426C96.3775 75.8174 92.0433 80.747 91.0359 81.8737L90.8177 81.7482C90.782 81.6048 90.7606 81.5156 90.7819 81.3676C91.0033 79.8331 95.1024 75.5598 96.4702 74.5828Z" fill="#945324" fill-opacity="0.988235"/>
<path d="M104.604 65.2239L104.603 65.6217C103.577 67.3887 100.444 71.5659 98.6602 72.3426L98.6406 71.9851C99.8539 70.1756 102.787 66.1397 104.604 65.2239Z" fill="#A1602E" fill-opacity="0.984314"/>
<path d="M122.885 55.8459C123.674 56.8752 118.507 61.8794 117.555 62.4952L117.363 62.3391L117.375 62.0897C118.58 60.5631 121.446 57.0816 122.885 55.8459Z" fill="#945324"/>
<path d="M76.5244 97.6531C76.7994 97.7835 76.7898 97.7668 76.8925 98.0526C76.1492 100.101 73.9833 102.052 72.4539 103.587L72.1852 103.616L72.1172 103.383C72.3561 102.752 75.8934 98.1098 76.5244 97.6531Z" fill="#945324"/>
<path d="M80.8814 119.673C80.4323 120.167 77.3156 123.311 76.9688 123.281C77.302 121.819 79.3198 119.715 80.3305 118.673C80.4914 118.954 80.762 119.391 80.8814 119.673Z" fill="#300900"/>
<path d="M37.5079 84.9217L37.776 85.154C38.1044 85.062 38.4317 84.9659 38.7578 84.8662C37.7141 85.7898 36.4999 88.4815 34.8672 87.9468C34.8795 87.5254 37.0881 85.4362 37.5079 84.9217Z" fill="#945324"/>
<path d="M93.6526 44.6558L94.0609 45.1559C93.2971 46.112 91.8981 48.1565 91.099 48.9628L90.8786 48.963C90.66 47.7011 92.8473 45.8789 93.6526 44.6558Z" fill="#A1602E"/>
<path d="M87.4141 100.229C88.2552 98.6732 88.6948 98.1351 90.19 97.1504C89.4012 98.611 88.4575 99.7398 87.8447 101.259L87.4141 100.229Z" fill="#945324"/>
<path d="M108.008 39.7032C109.177 38.5825 109.561 37.2217 110.455 36.6687C110.633 37.442 109.01 39.5462 108.24 39.9579L108.008 39.7032Z" fill="#A1602E" fill-opacity="0.8"/>
<path d="M146.258 56.5845C146.274 56.8274 146.288 57.2803 146.325 57.5017C145.881 57.7362 145.185 58.0734 144.816 58.3721C144.871 58.002 144.878 57.451 144.895 57.0635C145.461 56.9681 145.738 56.819 146.258 56.5845Z" fill="#A1602E"/>
<path d="M98.3028 50.4577C98.7636 49.9638 99.0288 49.7725 99.5752 49.3665L99.873 49.5116L98.2656 50.9788L98.3028 50.4577Z" fill="#A1602E" fill-opacity="0.305882"/>
<path d="M98.3038 50.4578L98.2666 50.9789L97.347 51.8592L97.1055 51.591C97.3278 51.3164 98.0091 50.7256 98.3038 50.4578Z" fill="#A1602E" fill-opacity="0.678431"/>
<path d="M45.0844 87.7388C45.9038 86.8482 47.3634 84.3179 48.1578 83.1249C49.9803 80.3854 51.8984 77.694 54.0503 75.1996C61.4831 66.5832 68.3238 57.4023 76.163 49.1498C77.5077 47.6435 78.7438 46.0455 80.0892 44.539C81.2361 43.2551 82.5158 42.0604 83.65 40.769C88.0364 35.7749 92.5469 30.8846 96.7214 25.7094C97.4608 24.793 99.9367 22.3733 100.148 21.3926L99.9488 21.2254C97.5339 20.9571 87.38 19.3091 86.8772 19.898C81.3403 26.3832 71.0967 38.041 65.3966 44.9299C62.1169 48.8935 59.9624 50.7718 57.5953 53.6874L46.2652 67.8876C45.2255 69.1923 44.2038 70.6527 43.081 71.9601C39.4751 76.1588 35.1568 80.0612 31.2307 83.9938C30.8947 84.3304 29.9652 84.4259 29.5582 84.0912C29.5218 83.921 29.4907 83.7448 29.5025 83.5699C29.6533 81.3362 35.0897 76.7262 36.8007 75.2746C40.4116 72.2113 42.9649 68.1949 45.8105 64.4776C46.8678 63.0962 47.907 61.689 49.0067 60.3413C50.502 58.5091 52.7461 56.5033 53.6625 54.3433C54.2422 52.9769 54.2025 28.2988 54.0963 25.0662C53.9509 20.6368 53.2625 16.1388 53.6336 11.707C53.8988 8.54047 54.4019 4.45982 57.0256 2.29619C59.4705 0.280016 62.9495 0.253644 65.9416 0.518031C68.7428 0.765558 72.1881 1.18858 74.0884 3.5176C76.1545 6.04996 75.7353 13.8975 75.4574 17.0446C77.8736 17.2146 80.9709 17.4812 83.3728 17.3801C85.5566 17.2882 87.0014 16.6654 89.4128 16.8527C92.0906 17.0608 95.0422 18.0915 97.5222 18.3194C106.813 19.1732 116.242 19.5718 125.519 20.4715C132.423 21.1412 139.135 22.3768 146.117 23.0068C149.483 23.2868 152.857 23.449 156.235 23.493C158.568 23.5191 161.055 23.4724 163.378 23.6179C168.351 23.9291 173.003 25.3393 177.931 25.6044C177.712 21.4696 177.894 12.905 179.503 9.50827C182.341 3.51636 191.649 4.20621 196.548 6.77994C200.68 8.95186 199.044 9.91985 200.118 12.6307V110.858C199.735 112.12 200.026 113.845 198.912 114.627C197.341 114.672 197.173 109.944 197.123 108.826L197.323 12.3123C197.323 11.6852 197.383 10.1431 196.898 9.82811C193.721 7.57169 185.688 6.51374 182.766 9.64189C179.94 12.667 180.536 20.6937 180.597 24.6749C180.717 32.5043 181.105 40.3108 181.289 48.1255C181.47 54.873 181.325 61.6287 181.535 68.3901C181.682 73.1452 181.357 78.0562 181.37 82.8557C181.392 91.2013 181.463 99.6215 180.995 107.954C180.908 109.509 180.92 112.531 180.533 113.897C180.432 114.636 180.435 115.944 179.711 116.248C179.098 115.74 179.168 114.262 179.141 113.494C178.439 111.77 178.576 97.4521 178.42 94.7385C173.059 93.669 167.246 93.4202 161.785 92.8238C150.959 91.6462 140.047 91.2757 129.251 89.8396C128.356 89.7204 127.117 89.388 127.026 88.3613C127.472 87.6185 128.872 87.4627 129.656 87.5127C141.471 88.3066 153.332 89.2954 165.077 90.8387C169.306 91.3943 174.47 91.4352 178.52 92.3544C178.531 89.708 178.512 86.9379 178.611 84.303C177.912 84.3543 176.984 84.3038 176.266 84.2857L176.3 84.1285C177.451 84.1937 178.254 84.5537 178.518 83.3127C178.616 82.8163 178.555 81.2269 178.563 80.5935C178.609 77.8627 178.614 75.1316 178.577 72.4007C178.557 66.5691 178.649 60.7235 178.437 54.9002C178.355 52.6494 178.493 50.394 178.28 48.1519C177.446 48.0871 176.54 48.1787 175.77 48.0494C173.348 47.6427 171.309 46.7088 169.042 45.9284C168.166 45.6269 166.717 45.4019 165.648 45.0969L163.997 46.5599C165.855 46.609 168.577 47.3274 170.6 47.6669C170.661 48.0357 170.461 48.3985 170.252 48.7044C169.034 50.4893 164.795 48.3287 163.681 47.4138C162.963 48.4955 160.999 50.1499 160.802 50.7901C160.3 51.0998 160.251 51.178 159.911 51.659L159.91 51.923L160.098 51.9941C159.368 52.2382 158.243 53.3205 157.841 53.9566L157.882 54.1585C159.294 54.3021 161.325 54.4284 162.675 54.7679C165.218 55.4077 167.737 56.4819 170.229 57.2938C171.89 57.8901 176.633 58.8071 177.521 60.1724C176.909 62.3333 165.882 59.113 164.164 58.3677C161.542 57.2301 158.459 56.7558 155.992 55.596C153.495 58.3924 149.736 62.6073 146.907 64.9682C149.138 65.1418 151.957 65.4691 154.068 66.2402C157.16 67.3694 159.601 70.1496 162.614 71.4866C165.105 72.5916 177.068 76.1673 177.728 78.5623C177.631 78.8487 177.532 79.1462 177.213 79.2515C175.636 79.7724 172.548 78.6355 171.112 77.9365C167.6 76.2269 163.91 75.0104 160.377 73.451C157.804 72.3151 155.509 70.1969 152.803 69.2563C150.228 68.1996 147.523 68.1023 145.096 67.3498C143.869 68.5871 142.796 69.5582 141.617 70.8651C139.869 72.803 137.174 76.634 135.207 78.0802C134.638 78.5873 134.552 78.6884 134.139 79.3294C132.895 81.139 126.35 89.4901 124.544 89.3218L124.315 89.0088C123.876 84.0104 149.287 58.5091 153.918 53.5752C154.691 52.751 156.245 51.5229 157.026 50.5638C163.323 42.8308 169.717 34.8441 175.88 27.028C173.113 27.4126 171.103 26.979 168.336 26.7712C166.004 26.5958 163.324 26.5837 160.981 26.6766C160.315 26.703 160.454 27.5044 160.226 28.0333C159.402 29.9444 157.782 31.7341 156.422 33.301L139.912 52.2482C138.3 54.0733 135.348 56.6701 134.346 58.2946C134.197 58.0107 133.956 57.6685 133.775 57.3933C135.605 53.0923 137.058 52.4685 139.825 49.1193L150.196 36.3483C152.677 33.3294 155.946 29.7855 157.848 26.5391C155.503 26.2329 152.603 26.1941 150.202 26.0919C148.169 26.0052 144.818 25.4558 142.947 25.5176C141.657 29.1687 136.755 34.1032 134.336 37.1638C133.132 38.6874 131.971 40.3749 130.794 41.8844C124.439 50.0952 117.911 58.1716 111.216 66.108C105.253 73.0394 99.2305 79.9196 93.1495 86.7477C91.9402 88.1223 90.683 89.3976 89.4842 90.7823C84.1159 96.983 79.0861 103.6 73.5981 109.671C71.6775 111.796 68.3084 114.505 66.0914 116.355L65.8158 116.394C65.6853 115.641 66.6894 114.424 67.1202 113.791C70.0183 109.528 73.5389 105.697 76.9053 101.806C77.8799 100.68 78.6369 99.5051 79.5592 98.3466C80.8119 96.8273 82.2355 95.3819 83.5109 93.8713L121.046 50.0609C126.494 43.6373 131.357 36.7076 136.741 30.2379C138.546 28.0688 138.518 27.3618 140.809 25.0815C139.281 24.9113 137.457 24.7758 135.972 24.4473C132.64 23.7099 129.398 23.628 126.011 23.3113C125.439 25.2065 124.743 25.7601 123.594 27.2946C118.51 34.0855 113.362 40.6043 107.993 47.1655C103.811 52.2776 99.6469 57.0788 95.1799 61.9626C90.8091 66.5444 87.1695 70.7759 83.0914 75.5168L74.2819 85.5774C70.9113 89.463 67.9381 93.6469 64.4884 97.4602C62.5534 99.599 60.8131 101.806 58.657 103.748C58.2497 104.194 57.2091 105.11 56.6302 105.261L56.4675 105.087C56.5544 104.442 57.0909 103.762 57.4636 103.2C58.3828 101.093 62.5447 96.233 64.1042 94.2138C71.9756 83.9493 80.2255 73.9809 88.8369 64.3288L98.1702 53.9237C100.527 51.3288 102.895 49.0962 105.118 46.2804C109.287 41.1858 113.303 35.9368 117.472 30.8463C119.465 28.4119 121.327 25.4858 123.309 23.1699C122.349 23.1312 117.953 22.4965 117.508 22.8588C117.563 23.0249 117.814 23.7766 117.764 23.8963C115.804 28.5165 111.725 31.8152 108.596 35.5746C106.591 37.9826 104.817 40.3816 102.729 42.7626L92.677 54.2548C91.1467 55.9799 89.4433 57.6408 87.9713 59.4223C82.992 65.3868 78.1089 71.4309 73.3236 77.5521C72.3589 78.7716 71.2106 80.6519 70.2666 81.7174C67.8825 84.4082 65.6025 87.1383 63.2205 89.8258C62.2369 90.8655 61.3449 92.4749 60.3589 93.463C58.1067 95.7202 55.3506 99.4565 52.9084 101.358C52.8619 101.269 52.7833 101.224 52.7049 101.164L52.7738 101.068C52.5624 101.072 52.6089 101.098 52.4061 101.3L52.2806 101.183C52.5964 100.743 52.725 100.603 52.74 100.042C54.3222 97.2768 56.745 95.1568 58.5528 92.5857C65.0889 83.2894 72.5766 74.7198 79.3633 65.6043C80.5052 64.0707 82.3199 62.5401 83.5833 61.0369L100.859 40.4652C101.248 40.0076 101.686 39.5287 102.047 39.0558C105.466 34.5708 109.588 30.6915 113.113 26.2823C114.194 24.9294 115.332 23.6644 116.696 22.5943C114.679 22.584 111.285 22.2043 109.277 21.8841C108.432 24.6802 102.859 30.5277 100.877 32.9871C95.2619 39.9971 89.507 46.894 83.6159 53.674C78.002 60.1455 72.0214 66.4893 66.8011 73.3026C65.7469 74.6783 64.2641 75.9338 63.2408 77.3529C58.9559 83.2949 54.2261 89.0498 48.9225 94.1126C47.1467 95.8058 45.8819 96.4187 43.5661 97.1127C46.1884 92.1071 54.163 85.4468 57.7652 80.578C66.5178 68.7474 76.4231 57.7216 86.0089 46.5719C93.0903 38.3351 99.865 29.8846 107.064 21.7729C105.974 21.7926 104.816 21.7012 103.724 21.6248C103.168 21.5857 103.005 21.4054 102.401 21.4576C101.307 26.0854 95.3375 31.7133 92.1617 35.3813C79.0547 50.5191 65.4238 65.0977 52.63 80.5296C50.2289 83.4259 47.6778 85.0451 45.34 88.2799L45.0844 87.7388ZM70.471 34.8515C68.966 33.1702 69.6166 27.1268 69.5847 24.834C69.5233 20.4224 69.6769 15.8788 69.8859 11.4666L69.8916 11.0035C69.5103 9.42008 69.2981 6.88003 69.5936 5.31C69.7511 4.62097 69.8075 4.83261 69.5417 4.2715C68.1456 3.05883 63.9188 3.35164 62.1208 3.34027C58.4641 3.31711 56.6278 5.57152 56.4258 9.12847C55.7675 20.7177 57.2252 32.353 56.4089 43.9851C56.2414 46.3718 56.428 48.9016 56.2963 51.3015C58.105 49.5199 58.9845 48.3126 60.6147 46.3574C61.9278 44.7823 64.0283 42.9919 65.2733 41.3091C65.5514 40.9332 65.6192 39.5835 65.6249 39.076L65.765 19.5644C65.7688 16.1249 65.7534 12.6956 65.8359 9.24239C65.8652 8.022 65.8775 5.75021 66.6572 4.68574C66.7853 4.51083 67.0567 4.53871 67.2805 4.51463C67.6919 4.74827 67.9586 4.93802 68.0669 5.46785C68.3574 6.88852 68.3397 8.70663 68.41 10.1649C68.7745 17.7263 68.9906 25.3243 68.6025 32.8885C68.5077 34.7357 68.6399 36.6863 68.5264 38.5623C69.1384 37.3068 69.7869 36.0693 70.471 34.8515ZM70.4963 9.99269C70.305 12.0627 70.8097 13.5756 70.752 14.2931C71.1309 16.3194 70.6916 18.9454 70.7549 21.0308C70.8205 23.1898 70.811 25.5335 70.8878 27.6729C70.9253 28.7162 70.7197 34.1124 70.9711 34.4758C72.9222 32.403 73.2392 30.5266 73.6525 27.8833C74.0089 28.3268 74.5289 29.1071 75.0189 29.2304L75.2231 28.9096C74.9474 28.0529 73.6036 27.901 72.7592 27.0955L72.7849 26.8669C73.8413 26.1458 75.7139 26.4524 76.8563 26.3177C78.5169 26.1221 81.5477 21.5001 82.7075 19.9777C79.7531 19.9373 76.2753 19.891 73.5719 18.6676C72.7878 15.0516 73.1174 10.7779 72.578 7.08368C72.4113 5.94182 71.9208 4.32671 70.4303 4.6361L70.2994 4.87717C71.1599 6.34841 70.7094 8.314 70.4963 9.99269ZM178.031 28.6596C177.193 30.114 176.288 31.5283 175.318 32.8983C175.054 33.2702 174.403 33.9079 174.433 34.2749C174.782 34.3616 174.624 34.378 174.926 34.291C175.954 34.406 177.279 34.5185 178.257 34.758C178.262 33.7696 178.4 29.1288 178.031 28.6596ZM178.337 47.8427C178.432 44.5969 178.332 41.2655 178.236 38.0212C175.685 37.5524 174.082 37.2913 171.451 37.2223C171.18 38.0929 170.652 38.8182 170.479 39.514C171.888 39.4785 176.485 40.1727 177.14 41.5302C177.081 42.0602 177.168 41.8576 176.75 42.2846C175.676 42.5141 171.542 41.3301 170.388 40.7996C170.212 40.7183 169.918 40.3015 169.792 40.1135C168.66 41.3276 167.955 42.3071 166.607 43.3138C166.868 43.3535 167.129 43.3985 167.389 43.4488C169.563 43.869 175.163 45.7437 177.298 46.6704C177.636 46.8174 178.114 47.5162 178.337 47.8427Z" fill="#823806"/>
<path d="M179.141 113.494C179.652 113.935 179.516 113.712 179.693 114.327L180.046 113.852L180.532 113.897C180.431 114.636 180.435 115.944 179.711 116.248C179.097 115.74 179.167 114.262 179.141 113.494Z" fill="#4A1502"/>
<path d="M57.4648 103.2L57.9139 103.66C58.1978 103.6 58.3978 103.593 58.6583 103.748C58.2509 104.194 57.2103 105.11 56.6314 105.261L56.4688 105.087C56.5556 104.442 57.0922 103.762 57.4648 103.2Z" fill="#4A1502"/>
<path d="M60.3869 30.4263C64.3663 30.0726 66.0408 35.5416 62.1991 36.6527C61.7552 36.6676 60.6483 36.7262 60.2778 36.5862C57.3249 35.4705 58.0485 31.694 60.3869 30.4263Z" fill="#823806"/>
<path d="M69.8926 11.0035C70.0965 10.1339 70.2087 10.1725 70.2899 9.10921L70.3593 9.09033L70.4973 9.99275C70.306 12.0628 70.8107 13.5757 70.753 14.2932C71.1319 16.3195 70.6926 18.9454 70.7558 21.0309C70.8215 23.1898 70.8119 25.5336 70.8888 27.6729C70.9263 28.7162 70.7207 34.1125 70.9721 34.4759L70.4719 34.8515C68.9669 33.1703 69.6176 27.1268 69.5857 24.834C69.5243 20.4225 69.6779 15.8789 69.8869 11.4666L69.8926 11.0035Z" fill="#823806"/>
<path d="M69.8923 11.0035C70.0963 10.1339 70.2084 10.1725 70.2897 9.10921L70.3591 9.09033L70.497 9.99275C70.3058 12.0628 70.8105 13.5757 70.7528 14.2932C70.6003 15.1894 70.828 16.8804 70.5289 17.4433L70.4403 17.4504L70.427 16.1728L70.288 16.1003C70.0313 16.4234 70.1886 16.8892 70.0469 17.5056C69.9594 15.3841 70.0756 13.7095 69.8867 11.4666L69.8923 11.0035Z" fill="#300900"/>
<path d="M170.48 39.514C171.888 39.4785 176.486 40.1727 177.141 41.5302C177.082 42.0602 177.169 41.8576 176.751 42.2846C175.677 42.5141 171.543 41.3301 170.389 40.7996C170.213 40.7184 169.919 40.3015 169.793 40.1135L170.48 39.514Z" fill="#945324"/>
<path d="M70.2978 4.8772C71.1582 6.34843 70.7078 8.31403 70.4946 9.99271L70.3567 9.09029L70.2873 9.10917C70.206 10.1724 70.0938 10.1339 69.8899 11.0035C69.5087 9.4201 69.2965 6.88006 69.592 5.31003L70.2978 4.8772Z" fill="#4A1502"/>
<path d="M154.264 58.8608C157.24 58.7876 160.695 59.6901 163.293 61.1454C164.821 62.0007 166.31 62.9707 167.978 63.5318C170.147 64.2612 174.353 64.8662 176.128 65.8483C176.498 66.0537 176.587 66.1944 176.713 66.5882L176.569 66.8538L176.179 66.9429L175.987 66.9185C174.148 66.6797 168.066 65.8865 166.526 65.129C163.095 63.2293 159.998 61.7196 156.116 60.8026C155.389 60.6308 153.523 60.1521 153.681 59.2432L154.264 58.8608Z" fill="#823806"/>
<path d="M150.22 62.6136C153.558 62.2275 158.747 64.4234 161.6 66.0689C163.076 66.9198 164.468 68.0075 166.06 68.6337C168.939 69.7657 172.078 70.1754 174.938 71.4697C175.44 71.6968 176.023 71.9717 176.227 72.5168L176.025 72.7737C175.1 72.482 174.064 72.3804 173.105 72.2087C170.638 71.7665 168.06 71.3168 165.731 70.3675C163.234 69.3496 161.307 67.2964 158.913 66.0878C157.298 65.2728 155.538 65.0279 153.812 64.5592C152.91 64.3142 150.472 63.7614 150.043 63.004L150.22 62.6136Z" fill="#823806"/>
<path d="M169.434 51.3455C170.641 51.2022 176.432 52.6656 177.475 53.4247C177.734 53.8292 177.648 54.1919 177.603 54.6677C176.541 54.5605 170.93 52.7816 169.693 52.0999C169.413 51.9456 169.462 51.6625 169.434 51.3455Z" fill="#823806"/>
<path d="M181.289 48.1256C181.105 40.3109 180.718 32.5044 180.597 24.675C180.536 20.6937 179.94 12.667 182.766 9.64196C185.689 6.51381 193.721 7.57176 196.898 9.82818C197.384 10.1431 197.323 11.6853 197.323 12.3124L197.123 108.826C196.667 109.632 197.148 109.61 196.714 110.471L196.696 110.121C196.442 110.657 196.345 110.747 195.818 111.017L195.342 111.006C195.59 110.648 195.589 110.276 195.645 109.833C196.14 106.066 195.901 99.9233 195.792 96.0526C195.728 93.8251 195.321 91.5475 195.321 89.1215C195.548 89.6272 195.403 89.7895 195.799 90.4648C196.042 90.034 196.098 83.332 195.454 82.7045L195.518 82.5708L195.389 82.4872L195.249 82.8733L194.965 82.7417C194.457 83.1617 194.562 83.8822 194.568 84.5211C194.465 83.9742 194.409 83.5929 194.356 83.0392C194.353 84.6073 194.346 86.0531 194.253 87.624C194.074 86.192 194.781 83.7136 193.401 83.2273C193.014 83.382 193.142 83.3189 192.901 83.8103C192.707 83.6075 192.751 82.0522 192.739 81.604L192.493 82.3809C192.401 77.2284 193.028 72.3656 193.096 67.3014C193.32 50.9286 192.843 34.5775 192.543 18.2117C192.495 15.6129 192.632 12.8805 191.943 10.3629C191.845 10.0046 191.309 9.8576 191.006 9.72517C190.553 9.99517 190.499 10.0333 190.256 10.4983L190.21 10.4858L190.193 10.4012C189.01 11.9727 190.376 14.1078 187.893 13.9755C188.043 14.2991 188.079 14.3001 188.404 14.4853C189.173 14.478 189.374 13.9719 189.79 13.3683C189.945 13.8175 189.942 14.3396 189.97 14.8223C189.454 22.0401 189.937 29.4656 189.785 36.727C189.739 38.9275 190.089 41.4148 189.928 43.6409C189.66 43.3086 189.748 43.0986 189.726 42.5867C189.395 43.4586 189.892 49.2194 189.54 49.5854C189.331 47.2984 189.442 43.3233 189.485 40.9539L189.376 40.8725C189.321 41.6258 189.318 42.0589 188.782 42.5704L188.293 42.5522C188.981 41.4062 188.921 38.8879 188.496 37.665L188.328 37.8519C187.579 36.3433 185.881 35.9269 184.426 36.6923C183.587 37.1419 182.959 37.904 182.679 38.8136C182.416 39.6498 182.501 40.5569 182.915 41.3298C183.346 42.1356 183.775 42.3892 184.587 42.7151L184.39 42.8884C185.042 43.0445 185.306 42.8175 185.723 43.0689C185.464 43.4633 184.657 43.54 184.093 43.6815L183.807 43.255L183.67 43.3815C183.783 43.6309 183.895 43.8731 183.996 44.1269C183.579 44.7476 183.582 43.9931 182.972 44.9667C182.735 44.9112 182.518 44.794 182.293 44.7051C182.315 43.9675 182.658 43.8284 183.222 43.3864L183.129 43.2787L182.341 43.6542C182.271 43.1133 182.241 43.3317 182.457 42.8259C182.683 42.7825 182.865 42.7475 183.089 42.6854L183.05 42.4825C182.824 42.4048 182.747 42.3297 182.521 42.4395C182.218 42.5875 181.97 42.8934 181.874 43.2173C181.836 43.3445 181.785 43.4992 181.84 43.6212C181.906 43.7708 181.666 50.0687 181.67 50.9444L181.547 50.9415C181.531 50.3192 181.529 44.2817 181.464 44.2083C181.446 45.1026 181.511 47.4437 181.289 48.1256ZM182.359 23.1006C182.206 22.6919 182.037 22.4033 182.149 22.0012L182.67 21.3984C182.158 21.2347 181.858 21.3095 181.325 21.3765C181.295 22.0523 181.159 22.4645 181.463 22.979C182.019 23.1584 182.122 23.1822 182.71 23.2131L182.67 23.1131L182.359 23.1006Z" fill="#945324" fill-opacity="0.0156863"/>
<path d="M194.743 44.2954L195.49 44.4287C195.351 45.8707 195.523 46.8135 195.662 48.2456C195.881 52.1421 196.481 75.549 195.149 77.9163L194.877 78.0015C194.324 77.3746 194.216 56.5553 194.779 55.4621C194.768 52.8349 195.096 46.4878 194.743 44.2954Z" fill="#823806"/>
<path d="M194.742 44.2954L195.489 44.4287C195.35 45.8707 195.522 46.8135 195.661 48.2456L195.495 48.5906C195.361 48.0692 195.336 47.3888 195.227 47.0368C195.152 48.5437 195.016 54.4079 194.778 55.4621C194.767 52.8349 195.095 46.4878 194.742 44.2954Z" fill="#A1602E"/>
<path d="M194.745 44.2953C194.381 41.7046 194.009 23.7418 194.847 21.7603L195.028 21.8076C196.031 24.1992 196.514 42.1484 195.492 44.4285L194.745 44.2953Z" fill="#823806"/>
<path d="M194.504 9.9834C194.801 10.063 194.818 10.0879 195.069 10.2739C195.512 11.3498 195.404 16.219 194.938 17.3537L194.601 17.0731C193.958 15.7804 194.166 11.4354 194.504 9.9834Z" fill="#823806"/>
<path d="M181.326 21.3765C181.859 21.3095 182.159 21.2346 182.671 21.3984L182.15 22.0012C182.038 22.4032 182.207 22.6918 182.36 23.1006L182.671 23.1131L182.711 23.2131C182.123 23.1821 182.02 23.1584 181.464 22.979C181.159 22.4645 181.296 22.0523 181.326 21.3765Z" fill="#A1602E" fill-opacity="0.0431373"/>
<path d="M191.006 9.7251C191.309 9.85754 191.845 10.0046 191.943 10.3628C192.632 12.8804 192.495 15.6128 192.543 18.2116C192.843 34.5774 193.32 50.9285 193.096 67.3013C193.028 72.3655 192.401 77.2283 192.493 82.3808C192.287 89.6693 192.226 96.9612 192.311 104.252C192.331 108.361 192.459 112.737 192.264 116.853C192.195 118.284 191.131 119.907 189.754 118.412C189.475 118.109 189.328 117.599 189.278 117.189C189.061 114.28 189.062 111.334 189.046 108.417C188.998 102.885 189.042 97.3524 189.175 91.8216C189.245 89.6821 189.479 87.5729 189.54 85.4021L189.779 72.8132C189.884 70.7324 189.993 66.8465 189.936 64.8049C190.259 58.6298 189.95 50.0268 189.928 43.6408C190.089 41.4148 189.739 38.9274 189.786 36.7269C189.937 29.4655 189.454 22.0401 189.97 14.8223C190.364 12.9484 190.303 11.752 191.006 9.7251Z" fill="#823806"/>
<path d="M134.987 78.7253C137.085 78.0175 149.689 79.3878 152.507 79.7345C160.338 80.6981 169.492 80.8809 177.039 82.8668L178.517 83.3126C178.254 84.5536 177.451 84.1935 176.299 84.1284L176.266 84.2856C170.604 84.5557 161.587 82.87 155.756 82.4718C151.423 82.1759 137.429 81.937 134.305 79.7496C134.529 79.4065 134.757 79.065 134.987 78.7253Z" fill="#823806"/>
<path d="M177.037 82.8669L178.515 83.3127C178.252 84.5537 177.449 84.1937 176.297 84.1285C176.058 83.7351 175.596 83.6694 175.145 83.5382L175.239 83.619L175.606 83.5383C175.98 82.7701 176.234 82.9396 177.037 82.8669Z" fill="#4A1502"/>
<path d="M184.585 42.7151C183.773 42.3892 183.345 42.1356 182.913 41.3298C182.499 40.5568 182.414 39.6498 182.678 38.8136C182.958 37.904 183.585 37.1418 184.424 36.6923C185.879 35.9268 187.578 36.3433 188.326 37.8518C188.657 39.7822 188.701 40.5875 187.726 42.3865C186.557 42.685 185.832 42.8114 184.585 42.7151Z" fill="#823806"/>
<path d="M194.563 85.9543C195.053 85.5218 195.103 85.0063 195.253 84.366C195.289 85.951 195.313 87.5361 195.322 89.1214C195.322 91.5474 195.728 93.825 195.792 96.0525C195.902 99.9232 196.141 106.066 195.645 109.833C195.589 110.276 195.591 110.648 195.342 111.006C194.856 110.36 194.774 109.849 194.558 109.077C194.085 101.929 194.872 93.1413 194.563 85.9543Z" fill="#591F02"/>
<path d="M194.555 109.077C194.681 108.43 194.564 108.464 194.969 108.123C195.581 108.527 195.587 109.143 195.642 109.832C195.586 110.276 195.588 110.648 195.339 111.006C194.853 110.36 194.77 109.849 194.555 109.077Z" fill="#300900"/>
<path d="M45.0835 87.7388L45.3392 88.2799C44.1239 90.1538 40.1122 95.9661 37.9583 96.1642C37.5704 95.9835 37.6923 96.1055 37.5117 95.6936C37.6209 93.6022 43.3023 89.4656 45.0835 87.7388Z" fill="#823806"/>
<path d="M160.802 50.79C162.709 50.5344 167.793 51.4104 168.081 53.6524C167.545 53.9566 161.356 52.249 160.098 51.9941L159.91 51.923L159.91 51.659C160.25 51.178 160.299 51.0997 160.802 50.79Z" fill="#945324"/>
<path d="M52.7387 100.042C52.7237 100.602 52.5952 100.743 52.2794 101.183L52.4048 101.3C52.6077 101.098 52.5611 101.072 52.7725 101.068L52.7036 101.164C52.782 101.224 52.8606 101.269 52.9072 101.358C52.253 101.965 50.0995 104.386 49.5787 104.449L49.4297 104.234C49.5317 103.302 52.0334 100.798 52.7387 100.042Z" fill="#4A1502"/>
<path d="M189.967 14.8223C189.939 14.3395 189.942 13.8175 189.788 13.3683C189.372 13.9718 189.17 14.4779 188.402 14.4852C188.077 14.3001 188.041 14.2991 187.891 13.9754C190.373 14.1077 189.008 11.9727 190.191 10.4012L190.208 10.4858L190.253 10.4982C190.497 10.0332 190.55 9.9951 191.003 9.7251C190.3 11.752 190.361 12.9484 189.967 14.8223Z" fill="#A1602E" fill-opacity="0.0705882"/>
<path d="M194.568 84.5211C194.561 83.8822 194.457 83.1617 194.965 82.7417L195.249 82.8733L195.252 84.3661C195.102 85.0064 195.052 85.5219 194.561 85.9544L194.568 84.5211Z" fill="#300900"/>
<path d="M132.457 60.0692C132.933 58.8883 133.094 58.4766 133.774 57.3933C133.955 57.6685 134.196 58.0107 134.345 58.2946C133.91 58.8892 133.039 59.5724 132.457 60.0692Z" fill="#823806"/>
<path d="M135.205 78.0801L134.985 78.7252C134.755 79.0649 134.528 79.4065 134.303 79.7496L134.137 79.3293C134.55 78.6882 134.636 78.5871 135.205 78.0801Z" fill="#A1602E" fill-opacity="0.266667"/>
</svg>
