<svg width="226" height="158" viewBox="0 0 226 158" fill="none" xmlns="http://www.w3.org/2000/svg">
<path d="M135.411 82.1566C138.148 81.7012 143.911 82.6202 146.747 83.0329C151.055 83.6597 155.334 84.5082 159.473 85.8625C164.433 87.4858 169.684 88.8723 174.276 91.445C176.2 92.5225 178.449 94.6377 179.823 96.3963C182.275 99.9638 182.263 105.445 179.496 108.889C178.937 109.809 176.566 111.714 176.285 112.667C174.345 119.196 173.879 126.384 172.139 133.014C171.513 135.464 171.371 138.51 170.18 140.778C168.136 144.674 164.869 147.47 160.695 148.823C155.789 150.412 151.077 151.645 145.972 152.389C142.794 152.853 139.656 153.695 136.478 154.14C126.628 155.561 116.651 155.888 106.729 155.116C104.079 154.936 99.6513 154.802 96.8027 154.101C86.3255 151.523 70.4794 150.866 64.1585 140.871C62.5171 138.275 61.759 131.887 60.9857 128.764C59.9486 124.574 59.537 119.921 57.8338 115.886C57.2156 114.462 54.2467 110.85 53.1592 109.297C47.7566 101.438 52.4561 95.7458 59.5578 91.5395C60.9423 90.7195 64.315 88.5973 65.6136 89.8701C65.1599 91.6009 55.7771 95.0433 53.5793 100.23C52.918 101.791 53.0024 103.487 53.6405 105.041C55.2335 108.922 60.9201 112.169 64.6171 113.672C68.8627 115.397 73.5275 116.414 78.0077 117.339C82.4431 118.255 87.5635 119.378 92.0213 119.869C97.8103 120.506 103.721 120.463 109.54 120.489C116.167 120.517 122.838 120.579 129.452 120.136C132.961 119.901 136.457 119.348 139.935 118.837C149.095 117.49 158.219 115.808 166.785 112.173C170.989 110.39 175.919 107.348 177.625 102.854C177.871 102.204 177.679 101.656 177.401 101.057C171.086 87.3998 143.237 88.3598 130.753 83.8088C132.054 82.9181 133.851 82.353 135.411 82.1566ZM61.0818 115.744C62.8603 120.673 63.9493 126.135 65.2003 131.219C65.5925 132.812 65.9608 134.414 66.3428 136.01C66.4883 136.619 66.8928 137.759 66.9672 138.275C68.5757 142.175 70.6843 144.682 74.7487 146.282C87.5662 151.329 101.671 151.946 115.29 152.059C129.629 152.21 145.909 150.972 159.607 146.159C162.315 145.208 165.866 142.654 166.794 139.955C167.731 137.904 172.113 115.174 171.821 114.927C165.705 117.199 159.41 119.669 153.009 121.073C150.242 121.679 147.167 122.123 144.364 122.552C127.259 125.216 109.867 125.504 92.6829 123.406C90.8061 123.192 88.9305 122.993 87.0536 122.772C78.0012 121.707 69.5942 118.897 61.0818 115.744Z" fill="#852C01"/>
<path d="M76.1318 126.618C76.018 125.892 76.0295 125.804 76.575 125.412C78.483 126.011 80.427 126.489 82.3952 126.843C83.0579 126.966 84.2871 127.085 84.8284 127.213C89.0624 127.462 93.3382 128.386 97.5535 128.855C98.5558 128.966 99.6365 128.92 100.646 128.993C109.401 129.625 118.11 129.692 126.883 129.722C126.347 129.777 125.437 129.794 125.051 130.111C125.026 130.574 125.175 130.696 125.541 131.023C122.907 131.47 120.633 131.556 117.977 131.712C116.196 131.817 114.35 132.116 112.557 132.145C103.656 132.285 93.1223 130.98 84.4686 129.024C83.3922 129.166 77.6652 127.069 76.1318 126.618Z" fill="#852C01"/>
<path d="M76.1318 126.618C76.018 125.892 76.0295 125.804 76.575 125.412C78.483 126.011 80.427 126.489 82.3952 126.843C83.0579 126.966 84.2871 127.085 84.8284 127.213C83.5337 127.545 82.4274 127.262 81.1554 126.917C80.5794 126.76 80.3681 126.865 79.9676 127.299L80.0677 127.491L79.9422 127.369L80.0674 127.492L80.3016 127.143C81.225 127.38 82.3076 127.728 83.2415 127.684L83.4924 127.858C83.1947 128.101 83.0821 128.158 82.7386 128.333L82.7777 128.452C83.4867 128.544 83.7691 128.556 84.4119 128.849L84.4686 129.024C83.3922 129.166 77.6652 127.069 76.1318 126.618Z" fill="#601E00"/>
<path d="M126.882 129.722C128.243 129.691 135.226 128.868 135.749 129.303C135.084 129.867 126.981 130.917 125.539 131.023C125.174 130.696 125.025 130.574 125.05 130.111C125.435 129.794 126.345 129.777 126.882 129.722Z" fill="#170100"/>
<path d="M76.1317 126.618C75.3081 126.377 73.6424 126.059 73.5781 125.042C74.3335 124.522 75.7907 125.113 76.5749 125.412C76.0295 125.804 76.0179 125.892 76.1317 126.618Z" fill="#762103"/>
<path d="M105.984 30.3977C103.255 23.6417 96.5477 19.501 96.8984 11.1743C97.1195 5.92711 98.5607 4.27123 103.437 2.23185C107.127 0.668352 111.155 1.00956 114.768 2.56854C117.504 3.74931 119.717 5.59744 120.719 8.45514C122.193 12.6579 127.045 12.6126 128.925 16.6104C129.439 17.7036 129.468 21.0234 129.937 21.5708L129.831 21.9923C129.58 22.5346 129.481 23.8658 129.408 24.5031C129.046 27.6707 128.311 29.5271 126.494 32.0889C132.816 30.2137 140.025 28.3783 146.632 28.034C147.867 27.9697 149.781 27.9325 148.699 30.0005C148.369 30.6308 146.833 30.8833 146.198 30.9835C143.295 31.2218 140.484 31.2703 137.617 31.8657C134.591 32.494 131.762 33.4612 128.883 34.5635C124.861 35.8976 120.504 37.1418 116.445 38.4005C114.458 39.017 108.521 39.2875 107.224 40.6755C107.157 41.4029 108.003 44.4274 108.491 44.9277C109.878 46.3502 112.846 46.9205 114.707 47.1611C121.912 48.1192 128.046 43.3591 134.967 43.3008C139.035 43.2664 142.107 46.3265 145.147 48.4302C151.283 52.6765 157.254 53.5347 164.494 52.5154C165.521 52.3707 167.548 51.6306 168.377 52.106C168.529 53.9985 160.424 55.0744 158.879 55.1197C152.234 55.3147 146.496 53.3786 141.213 49.4049C139.094 47.8114 136.465 45.9833 133.7 46.26C131.298 46.446 129.32 47.621 127.142 48.5217C125.926 49.0117 124.483 49.4 123.242 49.762L123.345 51.9944C124.063 51.7364 125.348 51.2404 126.04 51.0838C128.11 50.2209 133.085 50.3293 135.218 51.1868C137.866 52.2523 139.557 54.5633 137.526 57.1961L137.554 57.7118C139.078 60.1028 141.693 61.4298 144.112 62.7028C153.772 67.7875 163.3 61.8619 173.234 62.3357C177.644 62.5459 184.962 64.078 188.984 65.9808C189.247 66.1429 189.176 66.6395 189.142 66.9289C188.767 67.3487 188.343 67.5318 187.775 67.4552C183.375 66.8636 179.099 64.97 174.595 64.9505C171.974 64.9391 168.181 64.7216 165.675 65.3115C160.062 66.6335 154.851 68.2556 148.995 67.1261C142.124 66.0048 136.924 60.415 129.71 61.1211C128.524 61.2372 125.657 62.2574 124.924 63.2068C124.852 63.5094 124.854 63.9488 125 64.2303C126.576 67.2719 127.95 69.9476 128.841 73.3059C131.962 85.0776 127.215 98.1729 114.743 101.601C108.994 103.153 102.864 102.358 97.7013 99.3907C93.9848 97.2589 90.3223 91.625 89.2693 87.4327C87.7233 81.278 88.4976 75.1161 90.8262 69.2535C91.3525 67.9283 92.4306 66.3784 93.0086 65.0526C93.6708 63.533 93.8904 62.4794 94.7359 61.0005C90.1957 59.3545 86.0752 55.5702 87.6333 50.2874C84.8582 48.2244 84.5145 44.8196 86.037 41.8373C86.7818 40.3782 87.9403 39.4817 89.1729 38.4637C88.5475 36.2818 86.988 34.624 87.8562 32.2876C88.2034 31.3645 88.8522 30.378 89.1225 29.4407C89.9502 26.5719 89.3563 23.9901 92.4836 22.5083C91.7262 19.7022 92.3191 16.3434 92.9811 13.5621C93.4496 12.1582 94.0592 11.1345 94.9051 9.92235C94.8035 11.1711 94.7084 12.4203 94.6195 13.67C94.6093 17.8128 94.3578 23.6622 97.7661 27.0488C99.3752 28.6476 103.569 29.0404 105.984 30.3977ZM134.422 57.0758L135.354 56.8199C132.718 52.5742 130.283 53.722 126.319 54.0753L126.218 54.0835C122.984 55.3264 123.643 55.9074 123.771 59.1721C124.322 58.8729 125.187 58.4299 125.749 58.2351C127.335 57.6856 132.835 56.9293 134.422 57.0758ZM99.2637 89.5481C92.7852 80.6375 96.6535 70.0558 101.772 61.5783C99.6928 61.5199 97.9983 61.5128 95.9386 61.2664C97.1491 70.9382 87.2531 77.3051 93.5777 89.8029C94.3453 91.3197 95.5394 93.6136 96.9129 94.6604C97.1637 94.8516 97.4379 95.0155 97.7104 95.1734C100.892 91.3685 104.259 89.1137 106.619 84.4577C101.46 80.3744 102.152 65.0561 107.033 61.0616L107.593 60.7841L107.831 60.8656C108.052 61.4108 107.613 62.5194 107.505 63.1906C106.074 67.8362 104.426 77.8754 108.082 81.9153C115.566 76.4123 108.905 66.1921 110.997 61.3676L111.002 61.234C111.043 59.6986 109.983 59.98 108.986 59.5236C109.24 59.1838 110.519 58.3605 110.937 58.3272C112.892 58.1716 113.902 60.1521 111.981 61.1186C111.932 61.4464 111.925 61.4307 112.025 61.743C112.768 62.2447 114.743 67.4137 114.933 68.6064C116.725 79.8393 108.743 88.5749 100.243 94.5543C99.7863 94.8755 98.5879 95.2753 98.0104 95.4834C99.7697 96.9472 101.654 97.8843 103.917 98.3094C104.768 97.9827 105.064 97.8385 105.84 97.3619C113.433 91.5826 122.282 80.8395 118.469 71.0708C117.886 69.5774 115.691 64.4523 116.439 63.2517C116.864 63.2602 117.33 63.6045 117.577 63.9133C120.101 67.1409 122.622 72.9539 122.373 77.0986C122.044 82.5622 119.096 87.698 115.362 91.5658C112.699 94.3246 111.826 96.3764 108.046 97.9647L108.249 98.2097C108.536 98.2448 108.74 98.2587 109.029 98.2683C113.208 98.4383 116.442 97.7883 119.531 94.7573C123.832 90.537 125.851 86.3928 125.931 80.2879C125.991 75.7407 124.596 71.8522 122.676 67.781C121.8 65.9218 119.998 64.5346 119.571 62.4655C119.241 60.4453 120.276 57.8731 120.426 55.8418C120.534 53.9619 120.51 51.8715 120.519 49.9807C119 50.2068 117.25 50.3271 115.705 50.4676C116.158 51.7951 116.869 53.3423 117.228 54.651C117.695 56.0267 118.055 57.4367 118.304 58.8683C117.299 58.1314 116.041 57.2703 115.323 56.25C112.702 53.1254 113.52 53.0482 112.413 50.0534C111.593 49.494 110.146 48.7088 109.153 48.6796C106.031 49.8653 112.769 57.9666 103.341 61.4586C102.695 63.6884 102.008 65.9064 101.283 68.1117C100.863 69.3528 100.041 71.3559 99.764 72.5588C98.7632 76.9054 98.1095 82.5682 100.278 86.677C100.735 87.5433 101.498 88.5373 101.277 89.4735C100.621 90.1208 100.088 89.7832 99.2637 89.5481ZM92.4736 52.7324C92.0403 52.799 91.4502 52.8222 91.1504 53.0893C91.1289 54.0257 92.6467 55.8632 93.3055 56.5584C94.5939 57.9178 96.0908 58.2785 97.8944 58.3047C100.03 58.3358 101.556 58.1517 103.578 57.5569C104.223 57.2534 105.228 56.8877 105.475 56.2295C105.774 55.4328 105.54 54.0501 105.221 53.3016C104.132 52.3245 96.9266 53.0987 95.1095 52.7834C94.8464 52.7378 93.0863 52.6908 92.7658 52.709C92.6681 52.7144 92.5708 52.7221 92.4736 52.7324ZM113.283 20.376C114.435 19.729 115.722 12.9812 114.48 11.4267C112.412 8.83883 110.98 8.35842 107.919 8.21818C106.99 8.33872 105.443 8.67363 105.891 10.0261C106.63 12.2582 108.458 13.9954 109.832 15.8394C111.174 17.6635 111.589 18.8117 113.283 20.376ZM105.303 6.49513C109.013 5.248 112.399 4.89611 115.397 8.01402C115.772 8.50924 116.476 9.26268 116.905 9.752C116.673 9.16081 116.295 8.46178 116.003 7.8844C113.163 3.85439 108.913 2.62642 105.303 6.49513ZM117.816 11.0017C120.391 18.0865 113.476 20.6186 115.799 27.1583C115.998 27.717 116.82 29.1262 117.267 29.5498C119.077 27.7189 120.461 21.752 120.455 19.0933C120.451 17.1244 120.156 11.6543 117.816 11.0017ZM93.9824 28.2201C93.072 29.018 91.4663 32.2867 91.4127 33.5322C91.1427 39.8172 98.6702 39.9109 103.086 39.736C113.469 32.431 95.7965 31.7881 94.1435 28.2309C94.1994 27.6896 94.33 26.9211 94.0398 26.4767C93.6954 26.9421 93.8453 27.6925 93.9824 28.2201ZM118.806 34.4273C119.415 34.1573 120.767 33.5937 121.265 33.2758C123.924 31.4888 125.671 26.7552 126.359 23.7303C127.072 20.5981 125.737 15.2549 122.574 13.8335C122.564 14.5488 122.877 15.18 123.05 15.8721C123.401 17.2795 123.701 18.6869 123.626 20.1464C123.28 25.5439 119.861 29.1571 118.806 34.4273ZM90.2552 40.4003C89.3494 41.1732 88.6332 44.083 88.5013 45.2609C88.0839 48.9916 92.455 49.8339 95.2857 50.0134C97.6783 50.1649 101.136 49.9287 103.528 49.3549C104.806 48.644 105.162 48.3162 106.071 47.1102C105.513 46.1383 104.346 44.1164 103.686 43.2022C100.702 42.7076 97.9459 42.355 94.9551 41.6584C93.3839 41.2926 91.7524 40.7376 90.2552 40.4003ZM102.958 5.68491C97.4496 9.16717 99.3251 15.6672 102.572 19.9524C105.487 23.7996 107.793 27.9439 109.896 32.2756C110.362 33.2448 110.104 35.261 110.968 35.8098C111.438 35.8374 111.584 35.7799 112.023 35.6595C113.151 35.4261 114.145 35.2416 115.236 34.8654C114.614 31.0686 112.305 25.7569 110.093 22.5168C107.896 19.2974 105.307 16.3769 103.758 12.6791C103.271 11.6076 103.213 10.3715 103.023 9.24624C102.89 8.45572 103.245 6.02443 102.958 5.68491Z" fill="#852C01"/>
<path d="M126.041 51.0839C128.111 50.2209 133.087 50.3294 135.219 51.1869C137.868 52.2524 139.558 54.5634 137.527 57.1962C136.781 56.5917 136.233 56.5722 135.355 56.82C132.719 52.5743 130.284 53.722 126.32 54.0754L126.219 54.0836C125.577 53.8775 124.859 54.3571 124.04 54.5936L123.846 54.4627C123.041 51.1761 124 52.5138 126.068 51.2827L126.041 51.0839Z" fill="#762103"/>
<path d="M92.9805 13.5621C93.4489 12.1582 94.0586 11.1345 94.9044 9.92236C94.8029 11.1711 94.7077 12.4203 94.6188 13.67L94.3971 13.9236C93.8723 13.181 93.6987 13.3263 92.9805 13.5621Z" fill="#170100"/>
<path d="M135.354 56.8199C136.232 56.5721 136.78 56.5917 137.526 57.1961L137.554 57.7118C135.911 57.9778 136.049 57.1659 134.422 57.0758L135.354 56.8199Z" fill="#943B09"/>
<path d="M105.84 97.3619C113.433 91.5826 122.281 80.8395 118.468 71.0708C117.886 69.5774 115.691 64.4523 116.439 63.2517C116.864 63.2602 117.33 63.6045 117.577 63.9133C120.1 67.1408 122.622 72.9539 122.372 77.0985C122.044 82.5622 119.096 87.6979 115.362 91.5658C112.698 94.3246 111.825 96.3764 108.045 97.9646C107.596 97.7297 106.422 97.5147 105.84 97.3619Z" fill="#762103"/>
<path d="M107.034 61.0618L107.595 60.7842L107.833 60.8657C108.053 61.411 107.614 62.5196 107.506 63.1907C106.075 67.8363 104.427 77.8755 108.083 81.9154C107.641 82.4622 106.852 83.4333 106.701 84.0836L106.673 84.199C106.655 84.2852 106.638 84.3715 106.62 84.4578C101.461 80.3746 102.153 65.0562 107.034 61.0618Z" fill="#762103"/>
<path d="M110.999 61.3676L111.004 61.2341C111.045 59.6986 109.985 59.9801 108.988 59.5237C109.242 59.1839 110.52 58.3605 110.939 58.3273C112.893 58.1717 113.904 60.1521 111.983 61.1187C111.934 61.4465 111.927 61.4308 112.027 61.743C111.812 61.993 111.918 61.918 111.517 61.9705C111.016 61.6457 111.112 61.8093 110.999 61.3676Z" fill="#762103"/>
<path d="M117.229 54.6509C117.697 56.0266 118.057 57.4366 118.305 58.8682C117.301 58.1313 116.042 57.2703 115.324 56.2499C116.447 56.4018 116.28 57.1292 117.002 57.5509C117.76 55.8464 116.874 56.0033 117.229 54.6509Z" fill="#601E00"/>
<path d="M116.005 7.88452C116.297 8.4619 116.675 9.16093 116.907 9.75212C116.478 9.2628 115.773 8.50936 115.398 8.01414L116.005 7.88452Z" fill="#943B09" fill-opacity="0.0705882"/>
<path d="M93.9816 28.2202C93.8445 27.6926 93.6946 26.9422 94.039 26.4768C94.3292 26.9212 94.1986 27.6897 94.1427 28.231L93.9816 28.2202Z" fill="#943B09" fill-opacity="0.968627"/>
<path d="M129.938 21.5709C131.441 20.7119 139.472 19.928 141.466 19.9746C142.944 20.0031 144.413 20.2072 145.843 20.5826C148.737 21.3718 152.13 23.1375 154.888 24.4292C156.243 25.1289 157.621 26.2153 158.984 26.8542C166.381 30.3182 173.616 34.3906 181.595 36.358C184.645 37.11 187.555 37.8919 190.683 38.3469C191.384 38.4489 191.714 39.1507 191.566 39.8446C191.153 40.2451 190.398 40.4292 189.838 40.342C184.858 39.5678 179.208 38.697 174.442 37.1406C171.47 36.1707 168.336 34.2256 165.631 32.7794C161.706 30.6557 157.726 28.6357 153.694 26.7218C147.053 23.5056 143.356 21.909 135.773 22.5109C133.964 22.6544 131.584 22.531 129.832 21.9924L129.938 21.5709Z" fill="#852C01"/>
<path d="M155.307 105.12C151.198 104.542 147.152 103.932 143.023 103.431C140.997 103.087 138.956 102.595 136.933 102.268C135.074 101.968 127.115 101.274 126.328 99.6313C126.544 99.3363 126.914 99.122 127.272 99.0797C135.58 98.0957 150.311 100.019 157.377 103.73C158.479 103.942 161.097 105.282 162.085 105.958C159.518 106.162 157.829 105.675 155.307 105.12Z" fill="#852C01"/>
<path d="M157.375 103.729C158.477 103.942 161.095 105.282 162.083 105.958C159.516 106.162 157.827 105.675 155.305 105.12C155.716 105.101 157.148 105.094 157.343 105.055C157.666 104.761 157.571 104.717 157.618 104.178C157.517 104.04 157.492 104.003 157.426 103.85L157.375 103.729Z" fill="#601E00"/>
<path d="M129.174 107.277C129.654 107.191 130.125 107.229 130.527 107.49C130.287 108.147 129.264 108.711 128.628 108.976C117.934 113.432 106.656 113.329 95.907 109.589C95.1632 109.299 93.1141 108.608 93.3326 107.646C94.2462 107.357 99.648 108.542 101.099 108.659C107.021 109.145 113.229 109.202 119.152 108.583C122.526 108.23 125.717 107.554 129.174 107.277Z" fill="#8A2F03"/>
<path d="M85.4825 98.8058C87.3615 98.5184 89.3259 98.8893 91.1497 99.2916C87.8531 101.618 81.742 101.853 77.8076 103.403C76.1809 104.044 73.5234 104.143 71.6972 104.88C70.2258 105.475 68.2204 106.117 66.6845 106.576C65.7164 106.919 63.3755 108.157 62.6484 107.479C62.7663 105.792 66.6595 104.708 67.8769 103.938C73.0608 100.659 79.208 99.1576 85.4825 98.8058Z" fill="#852C01"/>
<path d="M79.8649 110.32C81.0199 110.207 85.6605 111.502 85.9554 112.705C85.5144 113.121 85.4281 113.026 84.7428 113.181C83.2434 113.312 78.0071 113.156 78.524 110.812C78.8657 110.435 79.3507 110.415 79.8649 110.32Z" fill="#943B09"/>
<path d="M78.8978 73.1316C79.1346 73.18 79.4678 73.3526 79.4967 73.6173C79.658 75.0851 80.327 79.4083 78.5465 79.9959C76.2892 79.2467 77.1899 74.3329 78.8978 73.1316Z" fill="#852C01"/>
<path d="M142.637 110.298C143.449 110.297 143.906 110.24 144.402 110.92C144.424 112.698 141.603 113.543 140.167 113.721C139.55 113.537 138.967 113.528 138.558 113.053C138.313 112.005 139.59 111.691 140.357 111.292C141.091 110.911 141.857 110.573 142.637 110.298Z" fill="#852C01"/>
<path d="M71.8458 86.5954C72.5394 86.5424 73.2321 86.5181 73.8057 86.9471C74.2829 88.2924 71.9188 89.0591 70.9739 89.412C70.3296 89.5065 69.4869 89.1962 69.0948 88.6692C68.7073 87.1433 70.7638 86.8662 71.8458 86.5954Z" fill="#943B09"/>
<path d="M79.9843 83.9661C80.8463 83.9947 81.3774 84.0291 81.8439 84.7643C81.9572 85.9487 81.0329 86.4251 80.1031 86.8182C77.6202 86.7968 77.2576 84.5183 79.9843 83.9661Z" fill="#943B09"/>
<path d="M85.753 105.546C86.509 105.485 87.0199 105.501 87.6676 105.89C87.9464 106.294 87.9053 106.107 87.8225 106.588C87.4873 107.066 86.9773 107.159 86.4133 107.344C85.7188 107.474 85.3035 107.455 84.7046 107.111C84.3877 106.647 84.4367 106.856 84.4991 106.328C84.7674 105.861 85.241 105.749 85.753 105.546Z" fill="#943B09"/>
<path d="M81.5655 64.9688C82.1466 65.5515 82.2805 64.9464 83.0242 65.5086C82.5904 66.4004 82.0099 68.0951 80.8641 68.0942C79.7562 67.199 80.9267 65.7842 81.5655 64.9688Z" fill="#601E00"/>
<path d="M81.5664 64.9686C82.0499 64.363 83.5418 63.0376 84.3574 63.2075C84.5763 64.0216 83.5413 64.8705 83.0251 65.5085C82.2814 64.9463 82.1476 65.5514 81.5664 64.9686Z" fill="#762103"/>
</svg>
