<svg width="226" height="158" viewBox="0 0 226 158" fill="none" xmlns="http://www.w3.org/2000/svg">
<path d="M173.392 107.586C173.854 103.997 173.427 98.1331 173.7 94.4001C173.742 94.0222 173.865 93.0388 174.23 92.8257C176.331 91.6017 179.555 92.0704 181.916 91.9595C184.412 91.8423 187.021 91.3193 189.398 91.7965C191.933 94.2035 190.353 100.16 191.339 101.137L191.074 101.307C190.951 101.94 190.928 103.816 191.219 104.354C191.311 106.955 191.323 109.713 191.482 112.284C191.886 118.852 192.836 125.413 193.371 131.948C200.308 132.626 209.768 133.597 208.218 142.676C207.63 146.124 207.237 146.566 204.812 149.014C202.363 149.636 200.39 149.417 197.861 149.433C192.719 149.467 187.671 149.109 182.517 149.044C184.694 151.486 184.886 152.939 188.689 153.189C190.88 153.378 194.644 153.959 196.704 153.333C197.722 153.023 201.864 149.698 201.872 153.264C201.883 157.983 188.106 156.617 185.39 156.155C180.88 155.387 179.698 152.613 178.714 148.652C176.932 148.699 175.1 148.351 173.317 148.266C170.627 148.139 167.914 148.075 165.222 148.013C150.988 147.563 136.748 147.301 122.507 147.227C113.704 147.185 104.901 147.198 96.0983 147.265C93.6878 147.301 91.2765 147.484 88.8516 147.559C85.2113 147.671 81.2927 147.212 77.6855 147.539C74.3311 147.843 71.128 147.957 67.7563 147.958C66.0537 147.98 64.0725 148.179 62.4097 148.1C62.1931 150.852 61.0662 153.68 58.5375 155.064C57.9055 155.013 57.0144 155.3 56.2978 154.814C55.6829 154.397 55.9787 153.995 55.4888 153.49C55.5625 153.044 56.2718 152.987 56.5565 152.038C57.6401 150.564 57.7734 150.316 58.1316 148.524C56.4855 148.379 54.833 148.317 53.1804 148.339C47.9307 148.418 39.6502 149.433 35.2595 145.968C32.306 143.636 32.7449 136.645 35.284 134.123C37.451 131.97 43.5062 131.897 46.5683 131.842C46.4316 128.815 46.6169 125.812 46.5695 122.793C46.4665 116.252 46.7933 109.454 46.2585 102.937C40.6657 103.789 35.1089 103.654 29.4716 103.31C29.0599 103.285 28.906 103.132 28.6261 102.874C28.3396 102.134 28.5033 101.078 28.7191 100.343C29.0079 99.5604 30.9542 99.395 31.7064 99.4118C36.4402 99.5175 41.8347 98.7781 46.2748 100.634C46.3187 98.3556 46.4384 96.0789 46.6336 93.8081C47.2645 92.7496 47.566 92.6029 48.6156 91.9983C49.0806 91.9855 49.6245 92.0105 50.0939 92.0302C53.9178 92.1904 57.7439 91.8136 61.5656 91.898C62.1788 91.9116 62.931 92.0419 63.4684 92.3329C65.1169 94.2853 64.3983 103.955 64.4752 106.826C64.5232 108.624 64.6982 110.786 64.7826 112.58C66.437 112.325 68.2482 112.14 69.9202 111.931C69.9948 107.874 69.903 103.605 70.6815 99.6486C67.8035 99.4714 64.6437 98.8157 66.4863 94.9771C67.0066 93.8933 68.7314 92.9951 69.8908 92.7875C75.807 91.6742 82.0791 92.4235 88.044 92.5652C96.4472 92.7647 104.869 92.5843 113.262 92.4634C119.148 92.3786 124.943 92.3198 130.825 92.1907C141.078 91.9657 151.435 92.1505 161.69 92.2206C165.066 92.2717 169.024 92.5872 172.181 93.695C172.531 93.8214 172.65 94.0903 172.722 94.4113C170.716 95.8508 169.604 95.6538 167.229 95.6125C160 95.0094 152.108 95.1707 144.844 95.1077C142.274 95.0854 139.54 95.3267 136.98 95.3258L121.59 95.2163C118.093 95.2251 114.472 95.0419 111.07 95.9092C114.026 96.6461 120.541 96.3183 123.779 96.2833C133.661 96.1153 143.545 96.0812 153.429 96.1809C156.302 96.2051 161.815 95.9287 164.342 96.3195L165.176 97.4118L165.188 97.5529C165.308 98.8736 165.909 100.333 166.052 101.527C166.397 104.394 166.527 108.427 166.288 111.333C169.795 111.506 170.16 111.977 173.17 113.649C173.204 111.627 173.278 109.605 173.392 107.586ZM39.2732 144.682C42.8973 145.769 56.8855 144.716 61.4675 144.54L91.9333 143.431C103.529 143.021 115.133 142.862 126.735 142.954C131.921 143.043 137.086 143.266 142.259 143.564C147.604 143.872 153.476 143.559 158.791 144.186C161.771 144.567 165.076 144.57 168.119 144.699L182.358 145.317L193.873 145.663C196.501 145.75 199.159 145.809 201.776 145.769C204.567 145.726 205.108 142.579 204.732 140.39C204.501 139.038 203.93 138.365 203.104 137.362C198.477 135.9 190.148 136.052 185.025 135.801L169.903 135.178C167.659 135.073 165.336 134.74 163.099 134.724C158.332 134.69 153.553 134.768 148.785 134.775C138.816 134.702 128.846 134.707 118.878 134.789L94.2737 134.715C90.583 134.704 86.1885 134.567 82.5568 134.698C68.4156 135.35 54.332 136.624 40.1574 136.139C38.8814 136.095 37.2615 137.242 36.882 138.461C36.0291 141.198 37.5471 142.889 39.2732 144.682ZM50.2819 132.05C53.275 131.609 59.5931 131.532 62.7333 131.501L63.0624 131.317C63.1195 130.5 62.9933 129.566 62.9607 128.737C62.7946 124.521 62.3123 120.173 62.434 115.963C60.5642 116.145 51.8377 116.327 50.0809 115.993C50.3848 120.566 50.2276 127.327 50.2819 132.05ZM172.602 131.562C172.411 129.241 173.318 116.137 172.739 115.344L172.511 115.35C170.769 116.157 169.581 117.322 167.75 117.483C164.022 117.809 160.25 117.845 156.514 117.858L143.466 117.847C140.601 117.817 137.764 117.942 134.915 117.944L118.981 117.852L85.5221 117.867C80.858 117.848 76.9705 118.036 72.1601 117.782C70.8823 117.725 69.6217 117.465 68.4256 117.012C67.5662 116.695 66.6132 116.194 65.7931 115.77C66.7181 118.929 67.3973 126.276 67.3723 129.737L67.3732 131.588C75.1775 131.478 82.9811 131.32 90.7836 131.115C110.918 130.461 130.922 129.634 151.03 131.066C152.68 131.184 154.498 130.993 156.117 131.136C161.597 131.619 167.127 131.209 172.602 131.562ZM175.772 131.557C180.023 131.548 183.779 131.536 188.019 131.737L188.505 131.693C188.711 131.373 187.945 117.87 187.976 116.176C184.709 116.082 178.936 116.23 175.966 115.878C175.803 116.513 175.966 118.331 175.917 119.149C175.695 122.869 176.14 127.992 175.772 131.557ZM100.094 110.65C100.909 110.889 104.152 110.522 105.283 110.558C106.486 110.596 107.428 110.687 108.651 110.822C108.689 108.164 109.218 104.897 109.494 102.213C109.564 101.532 110.167 99.8543 109.885 99.4371L109.763 99.4528C106.531 99.6943 102.335 99.737 99.0601 99.6971C100.649 102.323 100.264 107.53 100.094 110.65ZM87.5164 110.565L87.4598 110.873C87.7119 111.032 94.5072 110.646 95.443 110.623C95.5468 107.389 95.904 102.835 97.1211 99.8104L96.9832 99.6088L96.8002 99.6134C95.642 99.6341 86.319 99.6717 86.1854 99.7887C87.5643 104.128 87.6397 105.899 87.5164 110.565ZM154.913 114.615C155.42 114.919 158.43 114.644 159.139 114.503L159.113 114.405C158.269 114.322 157.669 114.257 156.812 114.28C155.36 114.195 154.696 114.131 153.278 114.374L153.192 114.497C153.948 114.663 154.132 114.655 154.913 114.615ZM95.5319 96.0972L95.7029 95.8884C94.5588 95.6815 88.2045 95.7185 87.1098 95.8947L87.0844 96.1062C87.8051 96.3614 94.4946 96.1655 95.5319 96.0972ZM135.357 110.848C135.642 107.548 135.517 102.13 136.865 99.4754C132.996 99.6291 128.487 99.4685 124.612 99.4137L124.387 99.6359C125.942 101.767 125.874 103.541 125.98 106.109C126.029 107.287 126.098 109.182 125.749 110.304L125.896 110.577C126.251 110.707 128.732 110.579 129.24 110.547C131.398 110.411 133.224 110.618 135.357 110.848ZM100.645 95.6495C100.116 95.6946 99.6082 95.6787 99.1813 95.9789C99.5008 96.1832 99.7402 96.1299 100.127 96.1183C102.383 96.1639 104.64 96.1624 106.896 96.1137C107.898 96.1612 109.396 96.0604 110.434 96.0195C109.711 95.7867 108.701 95.7402 107.93 95.6907C105.394 95.5076 103.173 95.5692 100.645 95.6495ZM92.8239 114.685C93.2705 114.647 93.7469 114.674 94.0639 114.404C93.3965 114.079 90.3547 114.194 89.4194 114.215C88.9199 114.3 88.6582 114.247 88.3704 114.552C89.0123 114.854 92.1893 114.813 92.8239 114.685ZM84.6395 99.5412C83.1321 99.5922 74.4837 99.7045 73.513 99.4754C73.9216 101.482 74.2959 109.226 74.0156 111.249C75.3097 111.091 76.6103 110.994 77.9135 110.958C78.972 110.93 82.3359 111.039 83.0112 110.822C83.2512 110.452 83.2046 110.149 83.201 109.713C83.3009 105.697 83.3705 103.354 84.6395 99.5412ZM76.4612 95.8908C77.3919 96.2935 78.1601 96.1512 79.1677 96.0327C78.5007 95.6062 77.2149 95.751 76.4612 95.8908ZM113.048 110.619C116.655 110.368 118.238 110.468 121.828 110.798C122.385 107.354 122 102.895 123.292 99.5977C122.649 99.2303 113.56 99.5432 111.916 99.4796C113.081 102.064 113.299 107.74 113.048 110.619ZM107.443 114.877C107.947 114.758 107.827 114.867 108.049 114.524C107.952 114.279 107.93 114.091 107.626 114.03C105.966 113.694 102.241 113.76 100.599 113.897C100.057 114.164 100.169 114.013 99.9966 114.439C100.712 114.989 106.201 114.9 107.443 114.877ZM60.1374 112.779C60.2233 109.426 60.2652 106.071 60.263 102.716C60.2583 100.475 60.1518 97.478 60.2965 95.3183C57.5913 95.3857 54.8993 95.2644 52.1977 95.2678C51.7416 95.2938 51.0111 95.2768 50.6578 95.5064C50.3548 96.616 50.4019 98.5232 50.3952 99.7213C50.3747 102.577 50.3876 105.432 50.4338 108.288C50.4543 109.428 50.5855 112.139 50.4705 113.096C52.9873 113.066 55.7513 112.738 58.0894 112.771L60.1374 112.779ZM145.922 114.572L146.347 114.375C145.634 114.113 141.52 114.142 140.533 114.199L139.95 114.321L139.903 114.509C140.96 114.773 144.815 114.674 145.922 114.572ZM78.57 114.283C77.9401 114.297 74.6183 114.279 74.3355 114.447C74.9973 114.999 79.5267 114.999 80.5558 114.895C80.7601 114.874 80.963 114.841 81.1637 114.798C81.5873 114.762 81.6815 114.786 82.0147 114.553C81.665 114.214 79.2065 114.297 78.57 114.283ZM139.405 110.707C140.499 110.59 148.718 110.408 148.559 110.49C148.759 110.051 148.73 109.873 148.722 109.404C148.767 106.71 148.792 103.605 149.583 101.014C149.698 100.637 150.186 99.8696 150.118 99.5298C148.618 99.3431 145.921 99.4153 144.276 99.4109C142.459 99.4061 139.756 99.2399 138.032 99.3697C140.017 101.422 139.661 107.96 139.405 110.707ZM185.778 113.162C186.468 112.097 185.944 97.9731 186.251 95.3029C183.44 95.3081 179.609 95.5091 176.956 95.3455C178.411 101.026 177.737 107.753 177.027 113.477C179.196 113.477 183.76 113.434 185.778 113.162ZM115.664 114.67C116.978 114.663 119.93 114.676 121.056 114.373L121.058 114.199C120.712 114.023 120.667 114.003 120.286 114.062C119.45 114.095 115.191 114.223 114.705 114.497L115.664 114.67ZM130.329 114.216C129.159 114.234 128.187 114.221 127.033 114.426C127.785 114.793 129.855 114.748 130.712 114.748C131.537 114.732 132.688 114.752 133.471 114.591L133.639 114.409L133.675 114.533L133.692 114.415L133.479 114.354L133.462 114.574L133.381 114.588L133.248 114.316C132.215 114.227 131.364 114.22 130.329 114.216ZM150.701 99.196C153.103 102.026 152.778 106.109 152.697 109.713C152.681 110.271 152.58 110.265 152.882 110.597C155.96 110.641 159.037 110.701 162.115 110.776C162.101 107.086 162.519 102.706 163.28 99.0718C163.403 98.4857 163.677 98.3685 163.464 97.8032C160.051 99.6473 154.728 99.149 150.701 99.196Z" fill="#872A02"/>
<path d="M123.292 99.5977C123.683 99.6539 123.995 99.6394 124.387 99.6359C125.942 101.767 125.874 103.541 125.98 106.109C126.029 107.287 126.098 109.182 125.749 110.304C124.806 110.212 122.834 110.793 121.828 110.798C122.385 107.354 122 102.895 123.292 99.5977Z" fill="#802201"/>
<path d="M100.644 95.6496C103.172 95.5693 105.393 95.5077 107.93 95.6909L108.027 95.8936C107.6 95.9988 107.328 96.0485 106.896 96.1138C104.64 96.1625 102.383 96.1641 100.127 96.1185L100.055 95.9181L100.644 95.6496Z" fill="#CA7F39" fill-opacity="0.0196078"/>
<path d="M87.1114 95.8948C88.2061 95.7186 94.5604 95.6816 95.7044 95.8885L95.5335 96.0974C94.4962 96.1656 87.8067 96.3616 87.0859 96.1063L87.1114 95.8948Z" fill="#B5703A" fill-opacity="0.196078"/>
<path d="M130.33 114.216C131.366 114.22 132.217 114.227 133.249 114.316L133.383 114.588L133.464 114.574L133.481 114.354L133.694 114.415L133.677 114.533L133.641 114.409L133.473 114.592C132.69 114.752 131.539 114.733 130.714 114.748C129.857 114.748 127.787 114.793 127.035 114.426C128.189 114.221 129.161 114.234 130.33 114.216Z" fill="#AE5923" fill-opacity="0.235294"/>
<path d="M89.4201 114.215C90.3554 114.194 93.3972 114.079 94.0646 114.404C93.7476 114.674 93.2712 114.647 92.8246 114.685C92.19 114.812 89.013 114.854 88.3711 114.552C88.6588 114.247 88.9205 114.3 89.4201 114.215Z" fill="#AE5923" fill-opacity="0.0235294"/>
<path d="M140.532 114.199C141.52 114.141 145.634 114.113 146.347 114.375L145.922 114.572C144.814 114.674 140.959 114.773 139.902 114.509L139.949 114.321L140.532 114.199ZM142.345 114.371C142.11 114.364 141.72 114.337 141.501 114.372C142.036 114.569 141.811 114.569 142.345 114.371Z" fill="#AE5923" fill-opacity="0.184314"/>
<path d="M141.504 114.373C141.723 114.337 142.113 114.365 142.348 114.372C141.814 114.57 142.039 114.569 141.504 114.373Z" fill="#AE5923" fill-opacity="0.0196078"/>
<path d="M120.288 114.063C120.669 114.003 120.714 114.023 121.06 114.199L121.058 114.373C119.932 114.676 116.98 114.663 115.666 114.67L114.707 114.497C115.193 114.223 119.452 114.095 120.288 114.063Z" fill="#984013" fill-opacity="0.745098"/>
<path d="M81.1641 114.798C80.9634 114.841 80.7605 114.874 80.5562 114.895C79.5271 114.999 74.9977 114.999 74.3359 114.447C74.6187 114.279 77.9406 114.297 78.5704 114.283L77.9255 114.569C78.2366 114.866 80.5225 114.752 81.1641 114.798Z" fill="#984013" fill-opacity="0.878431"/>
<path d="M78.5707 114.284C79.2072 114.297 81.6658 114.214 82.0155 114.553C81.6823 114.786 81.588 114.762 81.1644 114.798C80.5228 114.753 78.2369 114.866 77.9258 114.569L78.5707 114.284Z" fill="#AE5923" fill-opacity="0.494118"/>
<path d="M156.813 114.28C157.67 114.257 158.27 114.322 159.114 114.405L159.141 114.503C158.432 114.644 155.421 114.919 154.914 114.615C155.706 114.468 155.759 114.745 156.813 114.28Z" fill="#B5703A" fill-opacity="0.458824"/>
<path d="M154.912 114.615C154.132 114.655 153.947 114.663 153.191 114.497L153.278 114.374C154.696 114.131 155.36 114.195 156.811 114.28C155.757 114.745 155.704 114.468 154.912 114.615Z" fill="#B5703A" fill-opacity="0.258824"/>
<path d="M107.933 95.6907C108.703 95.7401 109.713 95.7866 110.436 96.0194C109.398 96.0604 107.9 96.1611 106.898 96.1137C107.331 96.0483 107.603 95.9986 108.03 95.8934L107.933 95.6907Z" fill="#CA7F39" fill-opacity="0.188235"/>
<path d="M76.4609 95.891C77.2146 95.7511 78.5004 95.6063 79.1674 96.0328C78.1598 96.1513 77.3916 96.2936 76.4609 95.891Z" fill="#984013" fill-opacity="0.760784"/>
<path d="M100.13 96.1183C99.7424 96.1299 99.5031 96.1831 99.1836 95.9789C99.6104 95.6787 100.118 95.6945 100.647 95.6494L100.057 95.9179L100.13 96.1183Z" fill="#B5703A" fill-opacity="0.345098"/>
<path d="M46.9514 15.6215C46.9534 13.6848 47.0524 11.7494 47.2484 9.82258C47.5024 7.2268 47.6121 4.47117 49.8602 2.59255C53.7692 -0.673782 61.8946 0.177164 65.2134 3.75144C66.9837 5.65817 66.7942 13.3091 66.4152 15.9365C68.4084 15.9755 70.5953 15.8672 72.6344 15.8666C80.0097 15.9128 87.3852 15.8307 94.7576 15.6204L137.181 14.8461C144.61 14.7386 152.04 14.786 159.467 14.9883C162.355 15.0568 165.362 15.0575 168.239 15.2103C169.533 15.279 171.275 15.7532 172.58 15.9504C172.286 12.708 173.55 5.49237 175.516 2.95127C178.464 -0.861721 187.147 0.307471 190.518 3.16253C192.038 4.45062 192.708 6.76747 192.87 8.73937C192.851 10.5662 192.828 14.4623 192.579 16.1893C194.023 15.9898 195.596 15.9353 197.05 15.8838C202.656 15.6856 208.629 15.2297 208.537 22.8042C208.421 32.2136 198.318 29.6658 192.073 29.7348C192.141 31.4266 192.153 33.1534 192.089 34.8465C191.816 41.8583 191.335 48.8788 191.077 55.8896L190.209 76.4233C190.114 78.5184 190.701 87.6252 188.039 87.6857C185.507 86.4067 186.941 74.6502 187.042 71.8617L188.352 35.044C188.594 28.4434 188.906 21.8176 188.919 15.2111C188.923 12.7448 188.956 8.71338 187.806 6.6374C185.434 5.2285 182.366 4.40724 179.632 5.10178C178.678 5.34409 177.535 5.89155 177.032 6.78663C175.704 9.14385 176.211 40.1209 176.351 45.0829C176.463 49.1045 176.713 53.1085 176.901 57.125C177.05 60.2804 177.112 63.4511 177.378 66.5993C177.754 71.0564 178.094 75.5801 178.637 80.019C178.869 81.9195 179.793 83.7758 179.618 85.7154C179.448 87.5749 178.421 89.3037 176.577 89.8746C174.316 90.575 170.938 90.1243 168.689 89.5132C166.935 89.0369 165.394 88.4171 163.558 88.3002C158.532 87.9801 153.294 88.4713 148.269 88.7795C144.643 89.0018 133.216 90.3872 130.296 89.0398C128.351 85.806 128.333 83.3935 127.914 79.6684C125.903 79.183 124.421 79.065 122.363 79.3751C122.214 80.0652 122.011 81.1681 121.808 81.8112L121.553 81.9058C121.202 83.2428 120.916 82.2339 119.928 83.1866C119.569 81.0138 119.57 80.3354 120.029 78.2071C121.438 76.9626 122.22 76.0481 124.184 75.9926C132.091 75.769 131.664 80.1085 132.075 85.832C133.949 85.8662 135.235 85.3411 136.939 85.2387C146.948 84.6359 157.005 85.6435 167.001 85.0139C168.03 84.9491 168.552 84.3343 168.329 83.2944C165.425 81.1761 158.201 79.6667 155.291 77.8474C154.668 79.1804 154.778 79.1173 153.485 80.1431C151.391 81.8054 147.883 82.2866 145.379 81.3768C144.153 80.9317 145.08 79.3908 145.532 78.6165C146.488 78.0889 147.846 77.4567 148.909 77.0034C151.086 76.0747 153.65 73.7597 156.029 73.9824C157.292 74.1006 158.598 75.1474 159.773 75.5737C161.089 76.0515 162.372 76.3466 163.695 76.7665C166.801 77.7556 170.086 77.8183 173.182 78.8024C173.996 79.0607 174.824 79.2969 175.639 79.5489C175.453 78.9056 175.072 77.6693 175.003 77.0291C173.672 64.6009 172.244 52.0857 172.386 39.5648C172.421 36.4542 172.147 33.282 172.432 30.2542C169.903 30.7043 167.084 30.7268 164.513 30.9919C156.786 31.7883 149.113 31.7224 141.361 31.9443C125.814 32.448 110.258 32.6004 94.7041 32.4012C87.3412 32.3021 80.0882 32.5565 72.6889 31.6706C70.7493 31.4383 68.3304 30.7585 66.2486 30.4215C65.9738 30.8322 66.0187 37.6119 65.9899 38.8754C65.8218 44.1496 65.5775 49.421 65.2571 54.6883C65.1551 56.4349 64.9869 61.9567 64.1847 63.3029C63.3016 63.9451 56.4458 64.0269 54.8456 64.2124C53.6044 64.3561 49.6333 64.6429 48.4787 64.1045C47.0341 63.4308 47.3416 62.1523 48.3083 61.1048L47.4573 41.3538C47.2812 37.9605 46.7541 33.5226 46.9551 30.2012C41.9612 31.1866 38.8494 30.9919 33.6765 30.0648C27.8991 29.0293 28.575 17.8557 31.9595 16.0598C34.9504 14.4725 43.566 14.5218 46.9514 15.6215ZM66.3109 18.6366C66.2208 17.9418 66.0786 16.5636 66.4152 15.9365C66.7942 13.3091 66.9837 5.65817 65.2134 3.75144C61.8946 0.177164 53.7692 -0.673782 49.8602 2.59255C47.6121 4.47117 47.5024 7.2268 47.2484 9.82258C47.0524 11.7494 46.9534 13.6848 46.9514 15.6215C43.566 14.5218 34.9504 14.4725 31.9595 16.0598C28.575 17.8557 27.8991 29.0293 33.6765 30.0648C38.8494 30.9919 41.9612 31.1866 46.9551 30.2012C46.7541 33.5226 47.2812 37.9605 47.4573 41.3538L48.3083 61.1048C47.3416 62.1523 47.0341 63.4308 48.4787 64.1045C49.6333 64.6429 53.6044 64.3561 54.8456 64.2124C56.4458 64.0269 63.3016 63.9451 64.1847 63.3029C64.9869 61.9567 65.1551 56.4349 65.2571 54.6883C65.5775 49.421 65.8218 44.1496 65.9899 38.8754C66.0187 37.6119 65.9738 30.8322 66.2486 30.4215L66.1667 30.357C65.9581 29.8482 66.0998 29.6419 66.1958 29.0062C70.019 27.6971 74.5255 28.0721 78.5215 27.9907C86.3649 27.8308 94.2054 28.0116 102.048 28.1136C111.001 28.1804 119.953 28.1777 128.906 28.1051L157.783 27.9072C161.563 27.8851 168.923 27.6071 172.398 27.987C172.112 25.336 172.337 20.3392 172.432 17.5662C167.605 18.1071 163.794 18.1112 158.952 18.2329L140.858 18.6677L104.97 19.5097C103.917 19.5344 102.807 19.5897 101.757 19.6693C96.7088 20.0519 91.5143 20.0914 86.4542 20.0049C81.8786 19.8902 77.3075 19.6302 72.7484 19.2252C70.5583 19.0393 68.5151 18.7238 66.3109 18.6366ZM172.186 81.5962C172.096 83.537 171.229 88.6988 174.806 86.7576C176.132 84.9801 175.259 83.5678 174.231 81.8534L172.186 81.5962ZM192.495 18.4834C192.565 20.0495 192.389 22.069 192.329 23.6701C192.283 24.868 192.303 26.672 192.153 27.8064C195.953 27.5563 198.72 27.4049 202.371 26.0667C204.957 24.5974 205.166 22.4042 203.674 19.9828C203.586 19.8412 203.494 19.702 203.4 19.5652C198.96 18.5692 196.972 18.4476 192.495 18.4834Z" fill="#872A02"/>
<path d="M46.9514 15.6216C46.9534 13.6849 47.0524 11.7494 47.2484 9.82264C47.5024 7.22686 47.6121 4.47122 49.8602 2.5926C53.7692 -0.673728 61.8946 0.177218 65.2134 3.7515C66.9837 5.65823 66.7942 13.3092 66.4152 15.9366C66.0786 16.5637 66.2208 17.9418 66.3109 18.6367C66.5804 21.7772 65.9318 25.9463 66.1958 29.0063C66.0998 29.642 65.9581 29.8482 66.1667 30.357L66.2486 30.4216C65.9738 30.8322 66.0187 37.612 65.9899 38.8754C65.8218 44.1496 65.5775 49.4211 65.2571 54.6883C65.1551 56.435 64.9869 61.9567 64.1847 63.303C63.3016 63.9452 56.4457 64.027 54.8456 64.2124C53.6044 64.3561 49.6333 64.643 48.4787 64.1046C47.0341 63.4308 47.3416 62.1523 48.3083 61.1049L47.4573 41.3539C47.2812 37.9606 46.7541 33.5226 46.9551 30.2013C41.9612 31.1867 38.8494 30.992 33.6765 30.0648C27.8991 29.0294 28.575 17.8557 31.9595 16.0598C34.9504 14.4725 43.566 14.5218 46.9514 15.6216ZM50.9368 60.538L50.8752 61.0023C51.7726 60.992 52.6521 61.1539 53.7506 61.0993C56.5775 60.9589 58.8937 60.8267 61.7304 61.0781C61.6522 56.617 62.016 51.883 62.2267 47.4161L62.7717 33.2672C63.0351 27.5456 63.1373 21.8175 63.0783 16.09C63.0735 14.3343 63.1451 10.231 62.8443 8.68081C62.6665 7.8091 62.2523 7.00314 61.6469 6.35114C59.7187 4.28658 55.2293 4.11355 52.7476 5.22235C52.0029 5.55505 51.434 6.08007 50.8411 6.62434C50.3662 9.97481 50.6284 16.4592 50.654 20.4397C50.6943 26.7578 50.6738 31.5782 50.8659 38.2888C51.0363 44.2428 52.0597 53.8237 51.7319 60.0698C51.7196 60.3042 51.1945 60.4424 50.9368 60.538ZM34.8101 18.6738C33.6469 20.7037 32.9256 25.4134 35.3125 26.7312C35.4681 26.8166 35.6271 26.8963 35.7888 26.9698C39.8041 27.9916 42.8192 28.1993 46.9138 28.381L46.8708 20.3297C46.8678 19.5031 46.9268 17.3075 46.8601 16.627C46.649 16.5567 46.6829 16.527 46.509 16.5592C44.6877 16.6898 42.2385 17.3131 40.3753 17.6686C38.689 17.9904 36.329 18.1598 34.8101 18.6738Z" fill="#802201"/>
<path d="M50.8776 61.0022C50.2803 61.3239 49.8191 61.2837 49.4609 60.7187L49.5547 60.3605L49.9084 60.2068C50.4197 60.2719 50.4857 60.3066 50.9392 60.538L50.8776 61.0022Z" fill="#CA7F39"/>
<path d="M147.005 41.6511C146.971 40.3937 147.147 34.4328 148.136 33.8037L148.396 33.9128C149.321 35.2731 149.348 39.7725 149.456 41.6146C152.706 41.4139 155.963 41.3606 159.218 41.4549C159.203 40.225 159.311 38.5983 159.349 37.3384C159.408 36.1435 159.269 34.9134 160.064 34.0839C161.497 33.8624 161.523 37.4079 161.455 38.3284C161.469 39.3241 161.495 40.358 161.487 41.3503C163.129 41.1858 169.839 40.6855 170.836 41.6306C171.001 43.9087 163.29 43.6753 161.815 43.9111C161.973 45.5057 162.071 46.7231 162.053 48.3251C161.523 48.4797 161.189 48.4819 160.897 49.0529C160.75 49.344 160.733 49.6841 160.85 49.9886C161.058 50.5114 161.323 50.5614 161.831 50.7835L162.173 50.8149C162.439 51.2812 162.432 51.7795 162.475 52.3195C164.128 52.3619 170.041 53.0641 170.508 54.9565C169.91 56.1085 165.753 55.7136 164.471 55.5876C163.793 55.5349 163.059 55.4927 162.387 55.4197C162.41 57.0997 162.636 62.251 162.405 63.5684C164.414 63.4186 170.702 63.4211 172.176 64.6157L172.236 64.9196C171.36 66.0849 164.619 65.8124 162.877 66.174C162.133 66.4533 161.551 66.4257 160.803 66.2324L160.562 66.3349C159.476 66.0333 152.37 66.231 150.709 66.235C150.947 67.9351 151.053 71.4906 149.298 72.3726C147.116 72.3521 147.008 68.1727 146.811 66.5088C144.536 66.3079 139.348 66.3549 137.036 66.4743C137.038 67.3849 137.129 69.8005 135.87 69.7731C134.963 69.101 134.659 67.5012 134.333 66.3869C131.383 66.2882 128.406 66.5973 125.36 66.5403C125.372 68.0417 125.125 71.1594 123.625 71.89C121.764 71.8275 121.952 68.0404 121.897 66.6787C119.152 66.6774 114.914 66.7649 112.288 66.5525C112.207 67.3849 112.251 70.0766 110.86 69.783C109.938 68.9074 109.968 67.9395 109.758 66.6485C107.675 66.4174 102.703 66.811 100.217 66.7531C100.155 68.4127 99.8382 71.6225 98.1369 72.392C96.1366 72.301 96.4687 68.3778 96.4742 66.8871C93.6486 66.8027 90.6669 65.8627 87.9224 65.6948C83.8452 65.4453 79.7859 65.6097 75.7765 64.5222C78.6292 63.8019 82.4613 64.1797 83.8601 63.7534C83.1419 62.7435 83.0818 57.1606 83.0977 55.692C81.8948 55.6536 74.1466 55.2536 73.7549 54.2485C74.4684 53.6062 81.5967 53.0766 82.9057 53.1182C83.0068 50.0216 82.908 46.8622 83.0404 43.8022C79.9188 43.772 76.0819 43.4379 73.0947 42.6429C73.0438 42.3212 73.0748 41.9379 73.0862 41.6066C74.5391 41.5197 82.4921 41.4584 82.9489 41.299C83.9281 41.264 84.27 41.2377 85.2435 41.0328L85.311 41.2973C86.4099 41.6128 94.7134 41.4037 96.3294 41.3806C96.6888 41.1032 96.5843 41.1372 96.6577 40.5767C96.7002 39.2891 96.5651 35.1582 97.7336 34.6297L98.0189 34.8077C98.7117 35.9633 98.8598 38.9624 98.9368 40.4014C98.991 40.9757 98.8944 41.0715 99.2241 41.4133C100.834 41.5297 108.237 41.6548 109.576 41.4247L111.802 41.3957C113.672 41.7052 119.93 41.5611 122.011 41.4963C122.636 41.4957 123.833 41.4321 124.375 41.5838C126.364 41.7796 131.937 41.54 134.23 41.4803C134.814 41.5095 136.258 41.5263 136.738 41.5866C137.058 41.8098 145.68 41.6087 147.005 41.6511ZM85.5156 53.0355C88.3195 52.6918 94.0112 52.4443 96.8262 52.5433C96.5517 49.7548 96.6036 46.9004 96.584 44.0912C92.6861 44.5106 88.9318 43.6768 85.3662 43.7945C85.3643 45.147 85.2536 52.3717 85.5156 53.0355ZM84.906 63.8667C87.0344 64.2213 93.9503 63.7212 96.7892 63.8062C96.6352 62.5365 96.8111 57.149 96.8253 55.6635C95.147 55.6037 93.403 55.662 91.7065 55.6333C89.6963 55.5993 87.5104 55.4129 85.5321 55.5446C85.0351 57.8248 85.8977 61.5224 84.906 63.8667ZM150.144 63.4665C153.081 63.5486 157.077 63.6311 159.987 63.4257C159.685 61.2145 159.693 57.8471 159.64 55.5203C156.434 55.7843 152.891 55.4009 149.805 55.5749C150.057 57.4446 150.082 61.5211 150.144 63.4665ZM109.449 44.0271C106.798 44.1788 101.668 44.1582 98.9733 44.0142C99.3796 46.9016 99.1418 49.7842 99.3243 52.5979C102.734 52.5289 106.144 52.5128 109.554 52.5501C109.313 50.7482 109.368 45.9139 109.449 44.0271ZM117.684 63.7424C119.024 63.6143 120.677 63.65 122.046 63.6454C122.039 60.9331 122.064 58.2208 122.121 55.5092C119.755 55.2776 114.642 55.4862 112.019 55.4619C112.078 58.1854 112.167 61.0528 112.136 63.7697C112.903 63.7628 117.121 63.6617 117.684 63.7424ZM111.923 52.458C115.234 52.5607 118.786 52.4406 122.108 52.3567C121.811 50.3392 121.92 46.3847 121.932 44.2437C118.741 44.1085 115.159 44.2103 111.915 44.1636C111.97 46.005 112.15 50.8044 111.923 52.458ZM149.521 52.4894L152.207 52.4939C154.506 52.4671 157.065 52.3965 159.351 52.5973C159.132 51.0584 159.084 45.6362 159.208 44.0518C158.149 44.0767 156.902 44.0732 155.862 44.1371C154.102 44.1872 151.167 44.2924 149.464 44.1902C149.661 46.577 149.654 50.0707 149.521 52.4894ZM105.979 55.5253C104.189 55.6476 101.304 55.6795 99.513 55.5894C99.5532 57.7011 99.7982 61.8475 99.6626 63.7022C100.928 63.7064 102.226 63.6953 103.487 63.7455C105.149 63.744 108.109 63.8144 109.648 63.6378C109.409 61.5446 109.48 57.6572 109.65 55.4965C108.652 55.5022 106.913 55.4546 105.979 55.5253ZM136.944 52.6025C138.052 52.4252 145.801 52.3978 147.051 52.499C146.742 50.312 146.88 46.3304 146.973 44.0362C144.102 44.5339 139.025 44.0311 136.814 44.433C136.917 47.252 136.866 49.8805 136.944 52.6025ZM124.336 44.2674C124.375 45.7283 124.602 51.3158 124.393 52.4506C125.517 52.6926 132.439 52.4788 134.209 52.5409C134.357 50.9181 134.176 46.7072 134.267 44.6302L134.117 44.4216C133.813 44.2272 125.555 44.3247 124.336 44.2674ZM136.974 55.4559C137.003 58.129 137.095 61.1216 136.985 63.7674C140.103 63.6016 144.046 63.4513 147.17 63.4467C147.322 62.5508 147.319 56.8277 147.283 55.5868C144.207 55.5501 139.809 55.8564 136.974 55.4559ZM125.07 63.8339C127.026 63.615 132.272 63.6773 134.277 63.6945C134.095 61.442 134.25 57.8364 134.285 55.4854C132.327 55.5494 126.089 55.3342 124.79 55.5292C124.861 57.5326 125.191 62.0907 125.07 63.8339Z" fill="#872A02"/>
<path d="M82.9489 41.2989C83.9281 41.2639 84.27 41.2376 85.2435 41.0327L85.311 41.2972C85.1138 41.7926 85.0111 43.3836 85.3662 43.7944C85.3643 45.1469 85.2536 52.3717 85.5156 53.0354C85.2117 53.4755 85.1996 55.1429 85.5321 55.5445C85.0351 57.8247 85.8977 61.5224 84.906 63.8666C84.4547 63.7534 84.334 63.7088 83.8601 63.7533C83.1419 62.7434 83.0818 57.1605 83.0977 55.6919C81.8948 55.6536 74.1466 55.2535 73.7549 54.2484C74.4684 53.6061 81.5967 53.0765 82.9057 53.1181C83.0068 50.0215 82.908 46.8621 83.0404 43.8021C79.9188 43.7719 76.0819 43.4378 73.0947 42.6429C73.0438 42.3211 73.0748 41.9378 73.0862 41.6065C74.5391 41.5196 82.4921 41.4583 82.9489 41.2989Z" fill="#802201"/>
<path d="M159.988 63.4258C160.832 63.3544 161.573 63.4435 162.407 63.5684C164.415 63.4187 170.703 63.4211 172.177 64.6157L172.237 64.9196C171.361 66.0849 164.62 65.8124 162.878 66.1741C162.134 66.4534 161.552 66.4258 160.805 66.2325C160.139 65.6439 160.099 64.3161 159.988 63.4258Z" fill="#802201"/>
<path d="M164.473 55.5874C163.863 55.0635 163.052 55.4287 162.478 54.9709C162.857 53.2476 160.848 52.874 160.82 50.6094C161.23 50.7748 161.392 50.8095 161.832 50.7833L162.174 50.8147C162.441 51.281 162.433 51.7793 162.476 52.3193C164.129 52.3617 170.042 53.0639 170.509 54.9563C169.912 56.1083 165.754 55.7134 164.473 55.5874Z" fill="#802201"/>
<path d="M159.352 37.3384C159.41 36.1435 159.271 34.9134 160.066 34.0839C161.499 33.8624 161.525 37.4079 161.457 38.3284C160.98 37.4752 161.189 37.1574 161.027 36.2874C160.901 36.6073 160.858 36.7842 160.642 37.0474L160.599 36.4763L160.388 36.3903L160.53 36.1192L160.495 36.1295C160.331 36.431 160.25 37.2796 160.015 37.7874C159.848 37.4414 160.029 35.1415 160.057 34.5922C159.758 34.9786 159.874 37.5085 159.544 38.0103L159.352 37.3384Z" fill="#591100"/>
<path d="M96.6562 40.5767C96.6988 39.2891 96.5637 35.1581 97.7322 34.6296L98.0175 34.8077C98.7103 35.9633 98.8584 38.9624 98.9354 40.4014C98.1308 39.2574 98.6495 36.1398 97.7436 35.6646C96.5252 36.4428 97.5902 39.3168 96.6562 40.5767Z" fill="#591100"/>
<path d="M155.862 44.1371C156.903 44.0732 158.15 44.0767 159.208 44.0518C159.085 45.6362 159.133 51.0584 159.352 52.5973C157.065 52.3965 154.506 52.4671 152.207 52.4939L149.522 52.4894C149.654 50.0707 149.662 46.577 149.465 44.1902C151.168 44.2924 154.103 44.1872 155.862 44.1371Z" fill="#984013" fill-opacity="0.01"/>
<path d="M122.12 55.509C123.015 55.5334 123.859 55.5046 124.79 55.5291C124.861 57.5325 125.19 62.0906 125.069 63.8338C123.882 64.5547 119.215 63.9108 117.684 63.7423C119.023 63.6141 120.676 63.6499 122.045 63.6452C122.039 60.933 122.064 58.2207 122.12 55.509Z" fill="#802201"/>
<path d="M134.268 44.63C134.57 44.649 136.337 44.4563 136.815 44.4329C136.918 47.2519 136.867 49.8804 136.946 52.6023C136.4 52.9864 134.795 52.7895 134.211 52.5407C134.359 50.918 134.177 46.7071 134.268 44.63Z" fill="#802201"/>
<path d="M121.932 44.2435C122.425 44.2371 123.927 44.2061 124.336 44.2673C124.375 45.7282 124.602 51.3157 124.393 52.4505C124.083 52.3588 122.63 52.3884 122.108 52.3565C121.811 50.3391 121.92 46.3845 121.932 44.2435Z" fill="#802201"/>
<path d="M17.4614 85.4676C17.3481 85.146 17.2469 84.8202 17.1582 84.4909C16.596 82.3416 17.15 75.5557 18.5575 73.4768C19.7744 71.6792 21.9399 70.5798 24.0252 70.0939C26.3147 69.5604 29.2882 69.8876 31.6389 69.7565C40.6502 69.2541 49.7117 69.0516 58.7403 69.0116C61.9321 68.9974 65.0957 69.2337 68.3805 69.3221C74.2698 69.5624 81.1563 68.6958 86.8529 70.046C90.3671 70.8788 94.2733 76.1172 97.8768 77.3984C100.822 78.4454 103.532 79.7045 104.38 82.9873C104.931 85.1194 104.228 89.9004 101.045 88.0365C99.4098 87.051 98.8101 84.16 98.4753 82.3211C96.2451 80.0066 93.8731 79.2318 91.0068 77.8685L90.9255 80.3612C90.9309 80.9465 90.9008 81.7669 90.9384 82.3222C91.1993 86.1845 89.5917 85.0376 86.9083 85.5992C85.1785 86.3461 75.8995 86.2523 73.6784 86.3182C58.321 86.7683 43.0102 86.2882 27.6537 86.244C24.869 86.236 19.9659 86.4402 17.4614 85.4676ZM86.9208 84.1066C87.3994 84.3935 88.1339 84.652 88.6693 84.8612C88.6929 83.7783 88.5351 82.26 88.4892 81.1061C88.4526 79.4724 88.5829 75.4936 87.2709 74.6061C83.6106 72.1298 75.3607 72.8349 71.1516 72.7129C62.4952 72.4622 54.3393 72.8397 45.7302 72.954C40.2334 73.082 34.6912 72.7023 29.2122 72.8779C27.215 72.9418 23.6966 73.212 22.3094 74.7724C20.4642 76.8479 21.1837 80.292 20.8753 82.8849C22.3057 82.6936 24.0787 82.4222 25.4987 82.3421C26.662 82.2765 28.1212 82.3777 29.3213 82.3615L40.0814 82.2323C53.1136 82.1483 65.9193 82.0684 78.918 83.1443C81.1557 83.3295 84.9182 83.239 86.9208 84.1066Z" fill="#872A02"/>
<path d="M90.9247 80.3613C90.9301 80.9467 90.9001 81.7671 90.9377 82.3224C91.1986 86.1847 89.5909 85.0377 86.9076 85.5993C86.6681 84.8148 86.6293 84.7566 86.9201 84.1067C87.3987 84.3937 88.1331 84.6522 88.6686 84.8614C88.6921 83.7785 88.5344 82.2601 88.4885 81.1062C88.976 82.2515 88.6823 82.6933 89.0295 83.3278C89.6757 83.681 89.7534 83.7946 90.046 84.469L90.2371 84.4393C90.6878 83.1794 90.4555 81.6843 90.9247 80.3613Z" fill="#591100"/>
<path d="M172.722 94.4114C172.879 94.7564 173.009 104.241 173.181 105.679L173.238 105.048C173.334 105.973 173.374 106.658 173.392 107.586C173.278 109.606 173.204 111.627 173.17 113.649C170.16 111.977 169.795 111.506 166.288 111.333C166.527 108.427 166.397 104.394 166.052 101.527C165.909 100.333 165.308 98.8737 165.188 97.553L165.176 97.4119C165.675 96.898 166.698 96.768 167.189 97.2045C166.745 97.5633 166.491 97.2611 165.707 97.5667C165.977 97.679 168.526 97.5938 168.867 97.4906C168.95 97.6277 168.953 97.6511 168.96 97.8027L169.339 97.656L169.644 97.8181L169.892 97.601L169.529 97.2552C169.724 96.6965 170.025 96.5385 170.082 95.9958C169.198 95.7906 166.95 95.7888 165.898 95.7164L167.229 95.6126C169.604 95.6538 170.716 95.8508 172.722 94.4114ZM168.708 98.8886C168.118 98.8814 167.134 98.7909 166.656 99.0553L166.507 99.4359C166.718 99.894 167.197 100.325 167.184 100.793C167.112 103.407 166.94 105.995 166.989 108.618C167.01 109.659 166.655 109.773 167.389 110.503C168.075 110.439 168.472 109.448 169.065 110.309C169.427 111.18 170.784 111.039 172.081 112.44L172.417 112.467C172.579 112.075 172.406 96.8792 172.212 96.0707L172.09 95.9499C171.561 97.4288 169.835 97.9479 168.708 98.8886ZM168.494 98.3909C167.996 98.286 167.192 98.0434 166.762 98.2099L166.955 98.4156C167.526 98.431 167.925 98.4325 168.494 98.3909Z" fill="#984013" fill-opacity="0.0235294"/>
<path d="M191.34 101.137C193.504 100.951 203.786 100.06 205.054 101.114C205.574 101.546 205.891 102.057 205.938 102.738C205.972 103.252 205.838 103.723 205.479 104.104C204.431 105.22 202.219 105.058 200.797 105.07C197.566 105.1 194.411 104.858 191.22 104.354C190.928 103.816 190.951 101.94 191.075 101.307L191.34 101.137Z" fill="#984013"/>
<path d="M72.6977 34.9167C72.8548 36.0212 73.1055 38.558 73.0471 39.6925L73.0847 41.6066C73.0733 41.9379 73.0423 42.3211 73.0931 42.6429C73.2349 46.4111 72.9228 50.907 72.8522 54.7125C72.8434 55.1897 72.2637 57.2117 72.1831 57.9845L71.9165 58.6941C71.7832 59.2128 71.6803 59.9053 71.2912 60.2345C70.8388 60.2938 71.0089 60.3283 70.6321 60.1364C70.6266 58.6091 70.6044 57.082 70.5654 55.555C70.0843 55.0395 69.3901 54.9694 69.1797 54.379C69.613 53.7901 69.905 54.365 70.5836 53.8294C71.3048 52.135 71.1019 44.9801 71.0411 42.8439C71.1435 42.2777 71.1663 42.1713 71.1011 41.5985C71.0572 40.9274 71.2124 39.5415 71.2764 38.8059C71.3975 37.8661 71.369 36.4194 71.3766 35.4314C71.7811 35.479 72.0893 35.5075 72.4098 35.786L72.5033 35.5734L72.6977 34.9167Z" fill="#802201"/>
<path d="M70.5664 55.5549L70.7392 55.105L71.0114 55.2128C71.3631 56.2864 71.4014 57.2723 72.1841 57.9844L71.9175 58.694C71.7842 59.2127 71.6813 59.9052 71.2922 60.2344C70.8398 60.2937 71.0099 60.3282 70.6331 60.1363C70.6276 58.609 70.6054 57.0819 70.5664 55.5549Z" fill="#3D0400"/>
<path d="M70.5664 55.5549L70.7392 55.105L71.0114 55.2128C71.3631 56.2864 71.4014 57.2723 72.1841 57.9844L71.9175 58.694C71.7225 58.1001 71.6909 57.9503 71.3175 57.4525L71.0376 57.4565C70.6938 58.2717 70.7533 59.1823 70.6331 60.1363C70.6276 58.609 70.6054 57.0819 70.5664 55.5549Z" fill="#591100"/>
<path d="M71.3775 35.4314C71.782 35.479 72.0902 35.5075 72.4107 35.786L72.1888 36.0058L71.8627 35.81C71.3256 36.7757 73.1629 38.4148 71.5602 39.7966L71.3924 39.75L71.2773 38.8059C71.3984 37.8661 71.3699 36.4194 71.3775 35.4314Z" fill="#591100"/>
<path d="M72.6982 34.9167C72.8553 36.0212 73.1059 38.558 73.0475 39.6925L72.9109 39.6773C72.6238 39.3314 72.6461 38.9943 72.5517 38.4963L72.4984 38.7077C71.9904 37.7496 72.5375 36.5021 72.5038 35.5734L72.6982 34.9167Z" fill="#3D0400"/>
<path d="M58.5384 155.064C57.911 155.482 57.2241 155.804 56.5009 156.018C53.1634 157.039 46.8689 155.613 43.1914 155.599C42.3197 155.596 40.4631 155.306 39.7171 154.892C38.7665 154.365 38.7946 151.521 40.3124 151.53C41.5957 151.509 42.4411 152.489 43.3046 153.309C46.5592 153.885 53.9926 154.499 56.5573 152.038C56.2726 152.987 55.5633 153.044 55.4897 153.49C55.9795 153.995 55.6838 154.397 56.2987 154.815C57.0153 155.3 57.9064 155.013 58.5384 155.064Z" fill="#802201"/>
<path d="M162.219 48.4398C164.483 48.4555 167.356 47.4053 169.542 48.1469C170.3 48.3725 171.096 48.5976 171.848 48.8352C171.235 49.2327 170.216 49.9503 169.565 50.1741C169.147 50.3148 168.218 50.6552 167.829 50.7322L165.74 51.1141C163.859 50.6196 162.551 50.7501 162.393 48.5071L162.219 48.4398Z" fill="#591100"/>
<path d="M162.391 48.5073C162.745 48.5238 163.207 48.4814 163.458 48.6429C165.294 49.8179 165.538 50.6591 167.827 50.7324L165.738 51.1142C163.857 50.6198 162.549 50.7503 162.391 48.5073Z" fill="#872A02"/>
<path d="M169.54 48.147C170.297 48.3726 171.094 48.5977 171.845 48.8354C171.232 49.2328 170.214 49.9504 169.563 50.1743C169.563 49.415 169.951 49.261 169.854 48.4761L169.52 48.3608L169.54 48.147Z" fill="#3D0400"/>
<path d="M122.555 34.7284C122.998 34.2419 122.86 34.2362 123.385 34.1643C124.003 34.6338 124.082 37.0034 124.08 37.7672C124.31 38.569 124.379 40.6898 124.376 41.5838C123.834 41.4321 122.637 41.4957 122.012 41.4963C122.044 39.1763 122.299 37.0269 122.555 34.7284Z" fill="#591100"/>
<path d="M122.555 34.7284C122.997 34.2419 122.859 34.2362 123.384 34.1643C124.003 34.6338 124.082 37.0034 124.079 37.7672C123.845 37.3447 123.714 36.7905 123.669 36.3117C123.425 36.3342 123.363 36.3119 123.124 36.2732C122.856 35.6688 122.74 35.3621 122.555 34.7284Z" fill="#250100"/>
<path d="M134.23 41.4802C134.254 40.2502 134.514 34.922 135.38 34.2712C136.445 34.8145 136.627 40.2178 136.739 41.5864C136.259 41.5262 134.815 41.5094 134.23 41.4802Z" fill="#802201"/>
<path d="M82.9492 41.299C83.0635 39.774 83.029 34.5727 83.928 33.7866C84.9306 34.4404 85.1416 39.6298 85.2439 41.0328C84.2704 41.2377 83.9284 41.264 82.9492 41.299Z" fill="#802201"/>
<path d="M110.104 36.0367C110.176 35.4959 110.181 35.2747 110.624 34.9893C110.978 35.3255 110.878 35.2976 110.985 35.873C111.327 37.7202 111.536 39.5397 111.801 41.3956L109.574 41.4246C109.61 39.8092 109.965 37.7374 110.104 36.0367Z" fill="#802201"/>
<path d="M110.105 36.0367C110.178 35.4959 110.183 35.2747 110.626 34.9893C110.98 35.3255 110.88 35.2976 110.987 35.873C110.939 36.5749 111.053 36.6023 110.693 37.0654C110.167 36.9549 110.172 36.5071 110.105 36.0367Z" fill="#250100"/>
<path d="M160.805 66.2325C161.552 66.4258 162.134 66.4533 162.878 66.1741C162.87 67.2063 162.995 69.3417 161.556 69.3369C160.714 68.8081 160.509 67.262 160.563 66.3349L160.805 66.2325Z" fill="#802201"/>
<path d="M161.832 50.7834C161.323 50.5613 161.058 50.5113 160.85 49.9885C160.733 49.684 160.75 49.3439 160.898 49.0528C161.189 48.4818 161.524 48.4796 162.053 48.325L162.218 48.4399L162.392 48.5072C162.551 50.7501 163.859 50.6196 165.74 51.1141C163.685 51.3391 162.887 50.2077 162.475 52.3194C162.432 51.7794 162.44 51.2811 162.174 50.8148L161.832 50.7834Z" fill="#984013" fill-opacity="0.988235"/>
<path d="M71.1041 41.5985C71.1692 42.1712 71.1464 42.2776 71.044 42.8439C70.3151 42.8149 68.6373 42.7484 68.3438 42.0225C68.9252 41.4141 70.2945 41.5852 71.1041 41.5985Z" fill="#872A02"/>
<path d="M71.3797 35.4312C71.3398 34.654 71.2021 34.1016 71.7039 33.5298L72.0035 33.5215C72.4807 33.8448 72.5425 34.3493 72.7008 34.9166L72.5064 35.5733L72.4129 35.7858C72.0924 35.5073 71.7842 35.4788 71.3797 35.4312Z" fill="#0E0000"/>
<path d="M119.93 83.1867C120.917 82.2339 121.203 83.2429 121.554 81.9059L121.81 81.8113C121.729 82.435 121.707 83.1904 121.331 83.6694C120.725 83.892 120.414 83.5534 119.93 83.1867Z" fill="#802201" fill-opacity="0.984314"/>
</svg>
