<svg width="229" height="160" viewBox="0 0 229 160" fill="none" xmlns="http://www.w3.org/2000/svg">
<path d="M108.994 1.1562C109.077 1.14441 109.161 1.1336 109.245 1.12378C112.879 0.697418 117.695 2.16132 120.535 4.45139C125.465 8.42659 127.537 11.7548 128.297 18.0669C129.919 17.8123 131.968 17.7087 133.456 17.4516C151.811 14.2791 152.141 32.7356 155.345 45.3952C156.152 48.5861 157.66 52.4178 158.492 55.7248C159.538 59.8853 155.35 59.5386 154.095 56.7353C153.713 55.8811 153.708 55.0134 153.431 54.1684C151.452 48.1234 150.279 41.9116 148.735 35.7627C148.103 33.2523 147.292 30.79 146.311 28.3942C143.815 22.4291 140.816 21.0887 134.543 21.7744C132.832 21.9325 130.649 22.1302 129.01 22.3925C125.755 22.8584 124.017 23.1142 123.825 19.2931C123.628 15.3667 121.516 10.477 118.031 8.42215C114.302 6.29784 111.908 5.26143 107.681 6.0952C101.165 7.38042 97.9608 11.9027 97.1092 18.2523C96.887 19.9086 97.497 22.4062 96.5202 23.9636C94.2419 25.9478 41.025 30.5495 35.2128 30.2561C35.5002 30.3886 35.7858 30.5244 36.07 30.6634C38.3855 31.8011 39.6803 33.9395 41.1058 35.96C45.8161 42.6372 48.2831 49.3261 50.3552 57.1787C51.1197 59.5644 51.9703 61.8739 52.5783 64.3112C55.417 75.6908 57.2197 87.268 60.2403 98.6019C62.3128 106.378 63.7103 114.585 67.1555 121.916C67.7303 123.139 68.0877 124.574 68.7019 125.793C69.8109 127.8 70.8266 130.996 72.0919 132.827C73.5573 134.948 75.2583 137.965 76.7438 139.954C80.0305 144.353 85.6078 151.342 90.5741 153.764C92.0281 153.054 93.7448 151.371 95.3122 150.583C98.5355 148.962 101.824 147.42 105.17 146.071C106.344 145.598 107.991 144.577 109.086 144.2C112.428 143.171 115.828 141.834 119.196 140.925C124.234 139.565 129.648 137.735 134.697 136.597C146.365 133.968 158.266 132.166 170.113 130.59C172.219 130.31 174.307 129.775 176.404 129.435C179.768 128.971 183.371 128.632 186.749 128.415C188.804 128.147 190.312 127.882 192.351 128.207C188.049 120.891 182.499 114.46 178.568 106.889C177.283 104.418 174.144 101.054 174.758 98.0691C174.988 96.9545 176.654 96.7777 177.473 97.3344C179.441 98.6222 180.466 101.562 181.694 103.638C184.498 108.388 187.463 113.039 190.587 117.584C192.662 120.662 195.807 123.614 196.973 127.293C199.071 133.918 190.337 132.603 186.483 133.173C184.032 133.465 181.482 133.757 179.047 134.166C174.316 134.962 168.958 135.526 164.332 136.683C155.348 138.93 146.409 140.995 137.629 143.957C135.688 144.612 133.791 145.593 131.879 146.342C125.924 148.613 120.406 151.29 115.005 154.678C112.559 156.176 110.13 157.947 107.351 158.705C102.47 160.033 98.2477 158.463 93.5553 157.549C91.7158 157.189 89.5403 158.578 87.2555 157.011C82.6078 153.825 78.6369 149.943 75.3566 145.37C73.9206 143.344 71.7559 141.19 70.6331 138.969C68.9605 135.661 66.9483 132.556 65.2111 129.31C62.8745 124.983 61.7806 120.086 60.1486 115.545C55.4816 102.557 54.3173 88.7686 50.4436 75.5464C49.4306 72.0886 49.0359 67.9291 48.0388 64.3206C47.3484 67.5142 46.967 71.838 44.458 74.3345C41.3727 77.4041 39.3866 79.8906 34.8445 80.2217C28.5075 80.6837 25.4923 78.388 20.9561 74.3826C15.1863 68.7886 12.0429 59.0616 11.6526 51.2033C11.2156 42.4022 14.3538 29.5509 24.3329 27.3389C28.5925 26.3945 33.6008 26.9533 37.7902 26.3169C48.0236 24.7628 58.2472 24.1772 68.5484 23.2977C76.4828 22.6466 84.6589 21.2752 92.5823 20.9034C92.1875 10.4095 98.327 2.21079 108.994 1.1562ZM40.7977 44.6162C36.9191 45.3164 33.2097 44.5242 30.5928 48.335C29.3688 50.1175 28.7003 52.2919 29.1233 54.4472C29.9195 58.5045 32.4084 59.1175 33.0794 61.0531C33.2881 61.6553 32.9188 62.5534 32.5927 63.0611C32.3378 63.4576 31.9486 63.7795 31.4702 63.8494C30.632 63.9719 29.5498 63.183 28.9458 62.6873C26.5303 60.7056 25.4152 57.4731 25.1513 54.4489C24.8805 51.3461 25.3349 47.8981 27.4205 45.4501C29.4459 43.0726 32.8409 41.5973 35.9225 41.3898C37.1825 41.3052 38.4725 41.293 39.7248 41.4712C37.8859 38.0078 33.6645 32.8969 29.8005 31.7012C28.8655 31.4119 27.6961 31.0969 26.7128 31.1283C23.2039 31.9341 21.1363 33.4387 19.2224 36.4866C15.5305 42.3659 15.4963 50.767 17.0119 57.3167C18.4408 63.4914 21.9112 70.6717 27.488 74.1161C29.8703 75.5875 32.5522 76.3225 35.3247 75.6612C38.0119 75.0205 40.1117 73.4706 41.5408 71.1178C44.6772 65.9534 45.2855 58.1922 43.8589 52.4153C43.6555 51.5916 43.3363 50.7786 43.1664 49.9516C42.5711 48.1781 41.9208 46.1423 40.7977 44.6162ZM98.4481 154.822C100.689 155.165 103.177 155.677 105.41 155.068C107.955 154.374 110.274 152.435 112.492 151.046C114.042 150.075 115.668 149.171 117.284 148.313C119.962 146.89 122.757 145.565 125.478 144.215C126.11 143.901 126.949 143.711 127.499 143.275C127.586 143.206 127.618 143.14 127.669 143.043L127.531 142.863C126.126 143.294 124.688 143.586 123.289 144.034C119.25 145.329 115.228 146.867 111.227 148.289C108.379 149.3 105.409 150.209 102.694 151.544C101.614 152.075 100.627 152.788 99.5755 153.372C99.0408 153.669 98.1639 153.914 97.8027 154.403L97.8119 154.661C98.0492 154.787 98.1777 154.845 98.4481 154.822Z" fill="#864915"/>
<path d="M205.482 24.1121C207.457 24.0035 209.51 24.1092 211.337 24.936C213.954 26.1202 216.815 28.768 217.827 31.5002C218.908 34.4197 218.299 37.4967 217.051 40.2527C215.36 43.9874 209.293 49.913 206.404 53.0797C204.969 54.6531 203.726 56.4094 202.315 58.0114C201.157 59.3261 199.829 60.4835 198.682 61.8025L175.877 87.9153C172.166 92.2007 168.499 96.5581 164.609 100.683C163.692 101.655 162.649 102.506 161.72 103.47C159.955 105.302 158.275 107.429 156.217 108.941C151.846 112.152 143.313 113.562 138.008 115.562C135.508 116.414 132.871 117.172 130.346 117.973C126.839 118.995 127.667 115.903 128.316 113.902C131.038 105.503 132.807 96.3542 137.181 88.6322C138.763 85.8342 141.602 83.9469 143.529 81.6249C149.984 73.8469 157.504 67.1992 164.574 60.0117C170.779 53.7041 177.082 47.4094 183.362 41.165C184.926 39.6092 187.107 38.2372 188.58 36.6075C192.847 31.8869 198.979 25.2977 205.482 24.1121ZM144.363 92.1899C147.233 89.8439 149.558 86.7833 152.057 84.1449C156.093 79.8847 160.103 75.6153 164.124 71.3416L178.757 55.8232L187.757 46.2181C188.911 44.9763 195.43 37.4152 196.84 37.665C201.908 38.5636 194.566 45.3247 192.857 46.5383C191.782 47.5256 191.033 48.3321 190.237 49.5685C189.365 50.3575 186.712 53.3864 185.697 54.4655L173.997 66.9391L156.39 85.4283C153.408 88.6005 150.283 91.6255 147.576 95.0363C147.986 96.5466 151.686 97.2881 152.657 98.3692C153.8 99.6422 153.74 102.645 155.684 103.308C157.214 103.041 159.714 99.0871 160.963 98.0177C163.615 96.2127 165.497 92.6361 167.622 90.7558C170.982 87.7814 173.012 84.7683 175.915 81.4786L197.232 57.3871C198.915 55.4669 200.487 53.3999 202.304 51.5872C204.088 49.8099 205.463 47.41 207.466 45.9031C204.932 43.7775 202.497 41.3096 200.29 38.8577C199.408 37.8792 197.604 36.5906 197.821 35.1513C199.977 32.0738 207.183 41.833 209.755 42.9513C211.677 42.6135 214.41 36.7906 214.991 34.981C213.951 30.8558 210.44 27.1625 205.835 27.9344C203.182 28.3792 200.408 30.3389 198.368 32.0013C197.051 32.8838 195.932 35.3014 194.821 36.2172C192.174 38.3991 190.132 40.976 187.729 43.3281L157.254 73.4685C154.39 76.3078 151.558 79.1772 148.715 82.0369C146.291 84.4756 144.022 86.8791 141.802 89.511C141.53 89.8331 141.559 89.9121 141.632 90.27C142.191 91.061 143.494 91.708 144.363 92.1899ZM133.377 107.253C132.582 109.606 131.87 112 130.979 114.318C132.359 113.62 133.776 113.23 135.265 112.835C136.41 112.406 137.539 111.989 138.722 111.671C137.285 110.619 134.614 107.895 133.377 107.253ZM135.467 103.572C138.074 105.847 140.009 108.149 142.44 110.509C144.376 109.913 146.37 109.458 148.272 108.761C149.856 108.185 151.286 107.4 152.742 106.558C152.13 105.368 151.646 103.981 150.907 102.877C149.893 101.361 147.944 100.378 146.59 99.1367C145.48 98.9817 144.372 98.8205 143.264 98.6528C142.977 97.6461 142.765 96.6325 142.558 95.6069C141.378 94.9488 139.877 94.2822 138.559 93.9744C137.306 96.6249 136.127 100.676 135.467 103.572Z" fill="#864915"/>
<path d="M202.182 44.2173C202.226 44.2224 202.272 44.2263 202.315 44.2328C202.84 44.3079 203.536 44.5299 203.832 45.0018C204.064 45.3703 204.034 45.8135 203.911 46.2124C203.54 47.4199 202.475 48.7168 201.661 49.6678C200.518 51.0015 199.128 52.1021 197.942 53.3943L183.482 69.032L169.518 84.1415C167.734 86.0454 166.119 88.0517 164.221 89.8604C163.412 90.6317 162.504 91.1499 161.524 91.6698C161.192 91.7068 160.762 91.682 160.442 91.5832C160.135 91.4887 159.856 91.2873 159.705 90.9996C159.485 90.5813 159.547 90.0913 159.709 89.6678C160.183 88.4304 163.755 85.0574 164.929 83.7612L180.136 67.0154C181.576 65.4034 182.817 63.5893 184.287 62.0195L191.829 53.9407C192.831 52.8835 193.964 51.9498 194.947 50.8731C196.104 49.6042 197.053 48.1582 198.276 46.9482C199.457 45.7796 200.659 44.8885 202.182 44.2173Z" fill="#864915"/>
<path d="M129.013 33.6162C130.598 33.4355 132.564 34.0906 133.941 34.8584C135.645 35.8091 136.824 37.3755 137.338 39.2495C138.255 42.59 137.183 45.9555 135.528 48.8761C134.725 50.2947 133.62 51.4912 132.591 52.7467C130.213 55.6487 127.807 59.1023 124.01 60.1527C121.253 59.6728 118.424 57.8553 116.179 56.2677C115.016 55.3853 113.91 54.4067 112.788 53.473C110.025 51.1747 107.446 49.0461 106.702 45.3406C106.269 43.1873 106.476 40.6902 107.736 38.8408C108.771 37.3211 110.407 36.5003 112.178 36.1731C115.591 35.5428 118.771 37.1903 121.507 39.0492C124.01 35.6358 125.052 34.8934 129.013 33.6162Z" fill="#864915"/>
<path d="M108.024 97.974C108.394 97.925 108.79 97.9254 109.152 98.0258C109.709 98.1801 110.262 98.4058 110.528 98.9589C111.768 101.541 106.052 106.31 104.993 109C105.892 109.642 106.379 110.414 106.789 111.437C107.235 112.551 107.474 113.755 107.839 114.898C108.597 117.266 110.21 120.394 109.093 122.869C108.758 123.611 108.45 123.918 107.683 124.191C105.45 124.984 102.707 125.027 100.345 125.372C96.1606 125.982 91.8188 126.965 87.5936 127.045C86.4956 127.066 85.4319 127.001 84.425 126.512C83.8495 126.238 83.3556 125.819 82.9922 125.295C82.4397 124.492 82.1483 123.434 81.7624 122.54C81.1781 121.187 80.5053 119.867 79.9752 118.492C78.8077 115.463 77.8533 112.286 76.8255 109.203C76.2919 107.602 75.3916 104.74 76.295 103.177C76.6196 102.616 77.3669 102.216 77.9697 102.05C81.1139 101.185 84.5675 101.154 87.7867 100.649C90.3713 100.244 92.9002 99.4764 95.5145 99.2542C96.0466 99.209 96.4308 99.1964 96.8983 99.4754C97.4886 99.8278 97.9642 100.415 98.1219 101.092C98.2199 101.513 98.1717 101.968 97.9164 102.326C96.8578 103.811 88.4669 104.305 86.2564 104.648C84.1661 104.887 82.0991 105.239 80.0255 105.591C80.9133 108.341 82.0374 110.963 82.9997 113.681C84.0889 116.757 84.8167 120.424 86.6395 123.158C89.5322 122.852 92.3631 122.321 95.2392 121.926C98.6494 121.457 102.124 121.117 105.495 120.419C104.609 117.481 102.842 114.474 102.422 111.447C100.734 113.45 98.1953 117.723 96.0191 118.954C95.5347 119.228 95.1949 119.258 94.6636 119.091C93.2858 118.659 85.1928 112.939 84.7163 111.811C84.4858 111.266 84.598 110.66 84.8505 110.146C85.135 109.567 85.5969 108.939 86.235 108.728C88.6517 107.932 92.3864 111.986 94.4986 113.09C95.553 112.023 96.6988 111.005 97.647 109.842C99.1728 107.971 100.465 105.904 101.969 104.014C102.854 102.9 103.89 101.916 104.85 100.867C105.84 99.7851 106.713 98.6858 108.024 97.974Z" fill="#864915"/>
<path d="M92.046 72.6313C92.7734 72.4036 92.5515 72.3663 93.2285 72.5401C93.4956 72.7443 93.7171 72.9579 93.8681 73.2633C94.6379 74.8215 96.6571 81.4982 96.8846 83.2449C97.0042 84.1618 97.1023 85.3954 96.5159 86.1752C96.0606 86.7805 95.3624 87.1383 94.6545 87.3629C92.5423 88.033 90.0535 88.1507 87.8521 88.4435C84.5124 88.8877 81.1762 89.3835 77.8326 89.7938C75.6345 90.0635 72.8643 90.3371 71.0107 88.8772C70.4943 88.4705 70.1338 87.9735 69.8462 87.3868C68.8162 85.2849 68.2398 82.7818 67.469 80.5621C66.162 76.7979 64.0878 72.9088 63.6895 68.9179C63.6003 68.0238 63.5099 66.5232 64.111 65.8027C64.5437 65.2841 65.336 65.0233 65.9688 64.8738C67.3003 64.5593 68.7387 64.511 70.0984 64.3588C72.0234 64.1433 73.9506 63.8605 75.8682 63.5877C78.349 63.2347 80.9098 62.4494 83.4096 62.3849C83.9698 62.3704 84.5838 62.6138 84.9907 62.9993C85.3715 63.3601 85.5715 63.8529 85.5659 64.3747C85.5604 64.8783 85.4012 65.3647 85.032 65.7216C83.9226 66.7941 70.4184 68.2671 67.9346 68.4921C68.8857 72.5258 72.0263 83.6111 74.7576 86.3488C77.7699 85.9308 80.8876 85.1913 83.9135 84.7185C86.8873 84.254 89.8479 83.9502 92.8198 83.5232C92.3237 81.4154 90.6343 75.9686 90.6198 74.221C91.1724 73.8274 91.6353 73.1758 92.046 72.6313Z" fill="#864915"/>
<path d="M82.374 76.0247C85.0382 72.4069 87.6964 68.8978 90.8364 65.7022C91.8974 64.2999 94.4289 60.2518 96.6169 61.0189C102.27 63.0016 92.4471 69.5893 91.8665 72.5744C91.295 72.6811 90.7835 73.4213 90.5436 73.9374L90.6193 74.221C85.5375 76.4899 86.0452 87.3738 77.7289 79.3378C75.8969 77.5677 67.4635 72.6144 74.6943 71.3833C77.9775 72.4521 79.5041 74.7635 82.374 76.0247Z" fill="#864915"/>
<path d="M136.328 69.2622C137.271 69.1517 138.807 68.9503 139.621 69.5734C140.046 69.8981 140.281 70.6692 140.365 71.1787C140.441 71.6372 140.372 72.122 140.088 72.5005C139.771 72.923 139.381 73.0958 138.884 73.2341C136.878 73.7922 134.541 73.8967 132.469 74.2394C126.144 75.2851 119.796 76.1537 113.467 77.1673C112.264 77.2842 111.31 77.2703 110.189 76.732C109.739 76.5162 109.559 76.1941 109.395 75.7423C109.391 75.3653 109.465 75.0976 109.691 74.7983C110.214 74.1042 111.177 73.6142 112.001 73.3976C113.848 72.9126 115.879 72.7928 117.773 72.5569C120.247 72.2242 122.717 71.865 125.183 71.4792C127.385 71.132 129.523 70.5008 131.698 70.0266C133.221 69.6947 134.787 69.4951 136.328 69.2622Z" fill="#864915"/>
<path d="M108.918 13.1194C111.277 12.4325 113.744 13.7973 114.416 16.1606C115.088 18.524 113.707 20.9823 111.339 21.6387C108.993 22.2891 106.562 20.9238 105.896 18.582C105.231 16.2401 106.58 13.8001 108.918 13.1194Z" fill="#864915"/>
<path d="M90.6186 74.221L90.543 73.9374C90.7828 73.4213 91.2944 72.6812 91.8658 72.5745L92.0448 72.6313C91.6341 73.1759 91.1712 73.8274 90.6186 74.221Z" fill="#A6704F" fill-opacity="0.968627"/>
</svg>
