<svg width="229" height="160" viewBox="0 0 229 160" fill="none" xmlns="http://www.w3.org/2000/svg">
<path d="M167.072 89.1051C168.95 88.9615 178.013 88.8676 179.43 89.4412C180.291 90.3229 180.147 94.9946 180.174 96.3821C183.088 96.3784 195.808 96.1435 192.517 101.815C191.588 103.416 182.274 104.124 180.245 104.201C179.872 110.794 179.789 119.748 180.545 126.296C185.733 126.882 191.516 125.802 196.431 128.206C199.911 129.908 200.924 135.157 199.214 138.402C198.325 140.091 195.861 140.458 194.15 140.909C193.758 143.136 194.578 146.693 193.07 148.49C192.406 149.282 191.441 149.414 190.464 149.501C187.306 149.784 177.466 149.557 174.91 148.192C173.849 147.626 173.07 146.41 172.406 145.439C171.464 144.059 170.438 141.733 169.139 140.764C167.781 139.752 109.436 140.471 102.204 140.59C99.3833 140.636 96.5778 140.889 93.751 140.905L74.9481 140.895C72.0385 140.891 68.8849 140.829 65.9689 140.993C65.281 141.032 64.9346 141.383 64.5391 141.901C63.6208 143.34 60.8697 147.464 59.7685 148.517C58.0653 150.147 51.1686 149.394 48.7853 149.34C46.371 149.159 42.8941 148.736 41.1652 146.868C40.1886 145.813 40.7599 141.848 40.9052 140.401C39.9261 140.289 38.4644 140.138 37.5422 139.871C32.74 138.476 32.7708 132.845 33.8814 128.906C37.5591 126.026 42.8317 126.747 47.2646 126.207C47.976 126.121 48.8296 126.124 49.5524 126.126C49.5305 118.978 50.1325 111.244 49.1828 104.094C47.1472 104.007 36.9233 102.92 36.1367 101.997C31.5535 96.6226 47.6272 96.8074 49.217 96.8649C49.1691 95.3604 49.1175 90.6023 49.9166 89.8023C50.9983 88.7195 60.4171 89.3624 62.4516 89.3784C64.4721 89.394 66.23 89.8065 68.0905 89.8091L137.42 89.5916L157.292 89.3613C160.655 89.3027 163.722 89.4457 167.072 89.1051ZM52.392 110.889C52.5324 113.28 52.3633 116.296 52.3574 118.769C52.3535 120.406 52.4456 124.482 52.2422 125.938C53.7335 125.938 55.2247 125.947 56.7158 125.964C58.6994 125.929 61.4781 125.805 63.4238 125.926L63.7852 110.461C62.3717 110.459 60.9583 110.478 59.5453 110.518C57.1592 110.608 54.7747 110.731 52.392 110.889ZM93.6316 111.289C93.6358 110.778 93.6103 110.615 93.5253 110.121L93.3806 110.16L93.1627 110.699C93.1728 111.513 93.2908 112.463 92.9347 113.163C92.4239 113.56 91.5742 113.675 91.1508 113.063C90.6627 112.358 91.501 110.092 90.5867 109.695C89.27 110.474 90.2447 112.634 89.0681 113.538C88.521 113.609 88.7439 113.626 88.1694 113.361C87.6853 112.656 87.9567 110.594 88.1025 109.731C87.2161 109.88 85.8166 110.078 84.9894 110.3C84.6511 110.98 84.0016 112.524 83.4217 112.868C82.14 112.425 83.1167 110.424 82.0038 109.622C81.0646 110.334 81.4627 112.235 80.3417 112.844C79.1578 112.441 79.9955 110.494 79.3975 109.64L79.1083 109.602C78.2972 110.325 78.4781 112.806 77.4314 113.27C76.8866 113.131 77.0913 113.227 76.6374 112.779C76.4728 111.961 76.4775 110.377 76.5214 109.511C75.8125 109.633 74.9021 109.818 74.2005 109.859C73.6358 111.01 73.2083 112.069 72.1886 112.88L71.7575 112.877C71.0222 111.936 71.1642 109.629 70.4252 109.514C69.4125 110.531 70.7061 111.745 69.603 112.971C69.181 113.115 69.0778 113.178 68.6597 113.048C67.8388 112.331 68.5714 110.384 68.1461 109.483C66.0955 108.601 66.546 112.68 66.548 113.81C66.5553 117.769 66.3569 121.829 66.5914 125.778C73.0638 125.677 79.5739 125.944 86.0369 125.845C111.788 125.455 137.67 127.013 163.397 126.365C163.358 122.952 163.474 119.492 163.433 116.07C163.41 114.032 163.63 111.968 163.356 109.93C163.072 111.059 163.049 112.697 162.147 113.269L161.835 113.279C160.897 112.291 161.586 110.72 161.055 110.106L160.805 110.126C160.189 111.174 160.352 113.239 159.542 113.74C158.069 113.622 158.499 111.198 158.552 110.091C157.497 110.362 156.599 110.548 155.527 110.748C155.124 111.454 154.385 113.08 153.558 113.269C152.7 112.587 153.296 110.831 152.807 110.116C152.153 110.922 152.103 113.19 151.143 113.723C149.487 113.504 151.018 110.325 149.847 109.854C148.45 110.627 149.606 112.867 148.024 113.848C147.497 113.881 147.686 113.947 147.308 113.621C147.012 112.854 147.204 110.744 147.264 109.877L144.998 110.384C144.443 111.044 143.066 112.786 142.371 113.149C141.161 112.915 141.654 110.419 141.155 109.839C140.141 111.216 140.893 113.581 139.591 113.886C137.436 113.286 139.129 110.499 138.044 109.855C136.549 110.757 138.169 113.881 135.471 113.864C135.189 113.711 135.022 113.697 134.984 113.357C134.876 112.391 134.993 110.999 135.048 110.043C134.003 110.192 132.551 110.444 131.53 110.521C131.382 111.624 131.119 113.318 129.633 113.242C128.509 112.446 129.225 110.464 128.712 109.902C127.403 110.681 128.763 112.853 127.286 113.56C126.902 113.744 126.702 113.877 126.247 113.769C125.012 112.946 125.784 110.532 125.28 109.894C123.864 109.968 125.112 114.427 122.679 113.863C122.002 113.172 122.312 110.79 122.475 109.873C121.457 109.974 120.39 110.064 119.383 110.208C119.152 111.039 118.667 113.111 117.58 113.215C116.675 112.548 117.459 110.842 116.97 109.896L116.665 109.817C115.45 110.694 116.656 112.342 115.463 113.299C114.962 113.317 114.894 113.32 114.477 113.049C113.548 111.856 114.911 110.123 113.734 109.714C113.079 109.843 113.275 109.715 112.829 110.169C112.305 111.522 113.071 112.62 112.111 113.504C111.615 113.592 111.55 113.603 111.079 113.432C110.335 112.745 110.753 110.722 110.854 109.745C110.203 109.814 109.351 109.875 108.735 110.044C108.213 110.58 106.503 112.441 105.93 112.737C105.091 112.022 105.851 109.832 104.865 109.808C103.617 111.097 105.522 112.668 103.382 113.369C102.585 112.895 102.734 110.631 102.148 109.627L101.933 109.506C100.885 110.221 101.712 112.638 100.529 113.552C100.006 113.617 100.22 113.634 99.6794 113.408C99.2992 112.712 99.4814 110.421 99.6125 109.627C98.9716 109.767 98.2531 109.907 97.6247 110.071C96.5088 111.12 95.6117 112.819 94.4721 113.291L94.061 113.263C93.5071 112.622 93.6035 112.176 93.6316 111.289ZM46.3913 129.065C43.9658 129.148 38.6052 128.877 36.5688 130.466C35.1624 131.563 35.7002 135.014 36.426 136.541C39.1025 138.753 48.7771 137.811 52.356 137.608C53.7597 137.714 57.2674 137.535 58.8624 137.529L73.2411 137.574C86.4081 137.714 99.5763 137.725 112.743 137.608C123.632 137.486 134.262 137.166 145.19 137.153C154.754 137.202 164.317 137.359 173.878 137.625C179.339 137.773 191.038 138.752 195.692 137.546C196.745 136.337 196.874 135.793 196.874 134.125C196.903 133.323 196.403 131.252 195.644 130.794C192.745 129.046 186.195 129.51 183.008 129.486C177.949 129.414 172.889 129.4 167.83 129.442L134.595 129.18C114.85 128.907 95.1042 128.811 75.3583 128.894L56.4386 128.976C53.1385 128.998 49.6778 128.942 46.3913 129.065ZM166.806 120.299C169.499 121.178 169.653 123.704 169.602 126.241C172.16 126.129 174.414 126.182 176.985 126.315C177.05 126.24 177.116 126.165 177.181 126.09C177.127 121.926 176.931 113.886 177.078 110.118C173.522 110.274 169.789 109.926 166.244 110.045C165.836 113.751 166.163 116.678 166.806 120.299ZM52.3563 107.77C55.2128 107.971 59.0444 107.989 61.8872 107.548C62.5821 106.462 62.0122 94.3996 61.9864 92.2784C59.6522 92.2401 54.2217 92.3281 52.1486 92.107C52.3139 95.5751 52.3471 99.0581 52.3639 102.531C52.3696 103.713 52.4969 106.752 52.3563 107.77ZM167.964 107.016C169.508 107.047 175.899 107.179 177.027 106.853C177.005 101.938 177.27 96.8535 177.125 91.9951C175.105 92.0156 169.745 92.1745 167.945 91.9998C168.092 96.3691 167.961 100.79 168 105.164C168.006 105.771 168.003 106.414 167.964 107.016ZM120.7 106.414C124.104 106.551 127.627 106.381 130.952 106.531C131.44 101.953 132.039 100.273 131.081 95.6574C127.803 95.604 124.19 95.507 120.935 95.6823C120.794 96.1312 121.057 100.043 121.026 100.993C120.966 102.794 121.019 104.57 120.7 106.414ZM157.335 106.559L164.655 106.681C164.875 103.041 164.806 99.1062 164.806 95.4391C162.624 95.4279 159.416 95.5504 157.341 95.4502C157.58 99.1493 157.578 102.86 157.335 106.559ZM190.7 145.663C191.058 144.735 191.974 141.522 190.753 140.997C189.981 140.664 188.189 140.889 187.32 140.816C184.608 140.589 179.05 141.381 176.649 140.726C176.835 142.466 177.119 144.456 177.045 146.182C181.225 146.211 185.561 146.581 189.713 146.227C190.1 146.194 190.436 145.931 190.7 145.663ZM86.0324 106.079C89.0027 106.151 92.3536 106.284 95.315 106.181C95.3847 104.681 95.6256 103.287 95.7267 101.793C95.8613 99.8049 95.7575 97.8673 95.6231 95.886C92.5586 95.692 89.2192 95.746 86.1263 95.7493C86.3778 99.7407 86.3127 102.098 86.0324 106.079ZM56.3638 146.234L56.8761 144.701C57.3863 143.337 57.7452 142.317 58.5813 141.104C54.9438 140.783 51.3347 140.97 47.6914 140.94C46.2944 140.929 44.158 141.017 42.798 140.841C42.9617 142.598 43.1755 144.269 43.57 145.992C46.3652 146.554 53.4663 146.453 56.3638 146.234ZM97.3652 95.9298C97.8316 98.4852 97.6708 103.468 97.391 106.162C99.9916 106.222 102.593 106.248 105.194 106.241C105.887 106.225 106 106.338 106.493 106.017C107.631 103.554 107.473 98.4604 106.926 95.7759C104.738 95.7265 101.977 95.7191 99.7955 95.8288L97.3652 95.9298ZM41.0731 101.347C43.8085 101.732 46.5464 102.098 49.2871 102.445C49.2152 101.505 49.2185 98.8004 48.746 98.2884L48.226 98.3037C47.2241 98.4249 39.5708 100.167 39.1574 100.672C39.4352 101.075 39.7475 101.11 40.2694 101.208C40.5369 101.257 40.8047 101.304 41.0731 101.347ZM143.094 106.391C143.911 101.8 144.139 100.214 143.57 95.5648C142.293 95.5263 141 95.4707 139.724 95.5191C137.622 95.5737 135.38 95.5948 133.298 95.7632C133.729 99.1488 133.596 103.105 133.13 106.475C134.407 106.508 135.716 106.557 136.991 106.54C139.118 106.546 141.062 106.401 143.094 106.391ZM61.4224 141.292C60.9752 141.843 60.0325 144.308 59.9399 145L60.0641 145.157C60.4722 144.389 61.5672 142.407 61.6911 141.621C61.621 141.529 61.5039 141.36 61.4224 141.292ZM75.0088 106.047C76.1971 106.061 83.398 106.25 83.9394 105.933L83.9853 105.862C84.5902 101.68 84.8242 100.051 84.4189 95.8299C81.5581 95.4752 77.9152 95.5274 75.0003 95.646C75.2125 99.2029 75.2906 102.48 75.0088 106.047ZM65.4499 92.1549L65.3731 92.6363C65.7238 93.1156 66.0145 93.0966 66.6106 93.1727C66.737 92.5913 66.7997 92.7427 66.5686 92.3491C66.0847 92.1679 65.946 92.1754 65.4499 92.1549ZM180.303 102.286C183.274 102.067 184.261 101.802 187.069 101.012L189.364 100.308C185.964 99.5943 183.803 98.6377 180.297 98.5424L180.303 102.286ZM172.594 140.874C172.997 141.837 173.566 143.53 174.652 143.793C174.103 142.621 173.949 141.043 172.594 140.874ZM145.215 106.519C148.071 106.609 150.93 106.615 153.788 106.535C154.498 106.472 154.547 106.591 154.973 106.205C155.968 103.185 155.828 98.5952 155.302 95.492C153.409 95.4221 149.306 95.3049 147.449 95.5113C146.875 95.544 145.856 95.5341 145.393 95.7813C145.343 96.9791 145.68 98.1673 145.647 99.2191C145.577 101.438 145.478 104.329 145.215 106.519ZM166.764 121.48C166.239 122.671 166.131 124.768 166.488 126.027C166.724 126.25 166.736 126.281 167.041 126.356C167.108 125.463 167.445 122.045 166.764 121.48ZM118.699 95.6685C115.403 95.5754 112.104 95.5688 108.807 95.6488C109.093 97.8102 109.067 104.034 108.73 106.253C110.027 106.308 118.021 106.63 118.674 106.235C119.118 101.915 119.498 99.9965 118.699 95.6685ZM66.2821 95.5146C65.6569 95.5695 65.3985 95.4857 64.9567 95.797C64.5199 98.2082 65.1046 103.302 64.9742 105.925C67.5169 105.994 70.1514 106.083 72.6928 105.945L73.0389 105.803C73.8299 102.893 73.6305 98.5431 73.4219 95.5257C71.1269 95.4698 68.5775 95.3965 66.2821 95.5146Z" fill="#853A04"/>
<path d="M66.2831 95.5147C68.5786 95.3965 71.128 95.4698 73.423 95.5258C73.6315 98.5431 73.8309 102.893 73.04 105.803L72.6939 105.945C70.1525 106.083 67.518 105.994 64.9753 105.925C65.1056 103.302 64.5209 98.2083 64.9578 95.797C65.3995 95.4858 65.6579 95.5695 66.2831 95.5147Z" fill="#995828" fill-opacity="0.01"/>
<path d="M157.342 95.4503C159.417 95.5505 162.625 95.428 164.808 95.4392C164.808 99.1062 164.877 103.041 164.656 106.681L157.336 106.559C157.58 102.86 157.581 99.1494 157.342 95.4503Z" fill="#995828" fill-opacity="0.0117647"/>
<path d="M176.648 140.726C179.05 141.381 184.608 140.589 187.32 140.816C188.189 140.888 189.981 140.664 190.753 140.997C191.973 141.522 191.058 144.735 190.7 145.663C190.436 145.931 190.1 146.194 189.712 146.227C185.561 146.581 181.225 146.211 177.045 146.182C177.119 144.456 176.834 142.466 176.648 140.726Z" fill="#995828" fill-opacity="0.105882"/>
<path d="M42.8008 140.842C44.1608 141.017 46.2972 140.929 47.6942 140.94C51.3375 140.97 54.9466 140.783 58.5841 141.104C57.748 142.317 57.3891 143.337 56.8789 144.702L56.3666 146.234C53.4691 146.453 46.368 146.554 43.5728 145.992C43.1783 144.269 42.9645 142.598 42.8008 140.842Z" fill="#995828" fill-opacity="0.0392157"/>
<path d="M61.4239 141.292C61.5055 141.36 61.6225 141.529 61.6927 141.622C61.5688 142.407 60.4738 144.389 60.0656 145.157L59.9414 145C60.0341 144.308 60.9767 141.843 61.4239 141.292Z" fill="#C39B7F" fill-opacity="0.0745098"/>
<path d="M65.4517 92.155C65.9478 92.1755 66.0866 92.168 66.5705 92.3492C66.8016 92.7428 66.7389 92.5914 66.6125 93.1728C66.0164 93.0967 65.7256 93.1157 65.375 92.6364L65.4517 92.155Z" fill="#995828" fill-opacity="0.980392"/>
<path d="M93.1641 110.699L93.382 110.16L93.5267 110.121C93.6117 110.615 93.6372 110.778 93.633 111.29L93.1641 110.699Z" fill="#B28360" fill-opacity="0.384314"/>
<path d="M50.8872 19.3354C50.79 16.2762 50.584 10.648 53.1904 8.60103C56.5243 5.92186 62.9805 6.01355 65.7361 9.41233C67.0113 10.9851 67.5707 17.1293 67.3636 19.1001C69.7985 18.7939 72.2213 19.0458 74.684 19.0033C80.1516 18.9089 85.6005 19.1209 91.0407 19.2014L114.359 19.6184C115.64 19.6384 116.964 19.6645 118.243 19.6431C126.294 19.5303 134.257 20.2818 142.31 20.2522C149.99 20.2237 157.658 20.5792 165.335 20.0818C165.236 17.4604 165.178 12.5919 167.264 10.5665C170.946 6.99213 181.974 7.44053 182.224 14.1181C182.294 16.002 182.711 18.01 182.828 19.9353C185.478 19.5808 192.935 19.4847 195.114 21.2984C196.396 22.3081 197.008 23.7661 197.182 25.3828C198.311 35.8623 189.53 33.717 182.952 34.4689C182.846 39.0234 183.069 43.7129 182.991 48.2772C182.938 51.4093 182.666 54.5822 182.521 57.7097C182.386 61.147 182.282 64.5854 182.207 68.0247L181.969 76.867C181.927 78.4575 182.425 83.0512 180.178 82.9498C179.439 82.5142 179.308 81.6701 179.274 80.8556C179.03 75.1826 179.338 69.42 179.375 63.7548C179.574 50.7776 179.677 37.7992 179.685 24.8204C179.686 22.8633 179.746 20.9067 179.861 18.9528C179.974 16.8293 180.349 14.3823 179.453 12.4273C176.663 11.146 171.864 10.4546 169.311 12.6061C168.108 13.6208 168.146 15.3196 168.216 16.792C169.272 38.7892 170.374 60.8069 170.783 82.8245C170.799 83.72 170.413 85.6504 169.75 86.235L169.438 86.2123C168.855 85.6519 168.466 84.3492 168.402 83.5461C167.372 70.8573 167.227 58.0922 166.627 45.3854C166.449 41.602 166.296 37.8212 165.928 34.1062C161.33 33.9509 156.788 34.257 152.19 34.3583C150.191 34.4023 148.153 34.7159 146.129 34.765L132.103 35.2186C131.303 35.2465 127.767 35.2379 127.342 35.4775C127.81 36.3837 127.779 37.7731 127.769 38.792C127.786 40.4578 127.92 43.7607 127.803 45.2968L127.878 45.9937C128.597 46.6093 131.094 46.3829 132.143 46.3462C132.189 44.1345 132.092 41.6612 132.105 39.3893C132.119 38.5451 131.998 36.1161 132.423 35.6473C132.881 35.6131 132.704 35.5593 133.083 35.8687C133.361 37.1392 133.283 42.294 133.383 43.9881L133.443 46.4256C135.435 46.0025 137.468 46.0992 139.507 46.0964C139.306 44.954 139.388 40.5706 139.396 39.26C139.339 38.2542 139.088 36.3457 139.812 35.5967L140.049 35.7764C140.432 36.7073 140.342 37.4584 140.406 38.4975L140.655 46.1042C143.1 46.0828 145.695 45.914 148.055 45.9159C148.082 43.5243 147.609 37.3022 147.892 35.5239C148.234 35.2132 148.069 35.2773 148.507 35.2659C149.835 36.1815 149.705 43.769 149.89 45.6264C151.624 45.4431 153.238 45.37 154.987 45.1431C156.928 45.1154 157.093 44.5283 156.96 42.6153C156.894 41.685 156.888 40.7931 156.907 39.8609L156.632 35.0904L156.974 34.8945C157.619 35.2529 157.739 39.6709 157.808 40.6739C157.821 42.2006 158.074 43.125 158.197 44.5503C159.33 44.4889 161.928 44.4106 162.507 45.5618C162.357 46.94 159.541 46.9848 158.427 47.1018L158.46 49.8317C158.618 50.6134 158.66 51.4092 158.722 52.2045C158.825 53.3545 158.964 54.3395 159.141 55.4815C161.074 55.3739 161.757 55.6093 163.649 56.1425C162.443 58.442 161.836 58.3625 159.307 58.6267C159.433 59.6104 160.294 65.8254 160.297 66.5351C161.508 66.5179 165.419 66.1926 163.813 68.5636C163.214 69.4481 159.55 69.609 158.427 69.5667C156.997 69.5126 155.086 68.9484 153.705 68.9417C152.667 68.9367 150.999 69.962 149.846 69.8137C147.706 69.8915 145.614 69.2236 143.63 69.6378C142.578 69.8572 141.098 70.5914 140.086 70.9815C137.664 70.4454 135.375 69.2842 132.931 69.5122C131.614 69.6348 129.934 70.3836 128.575 70.2462C126.687 70.0556 125.23 69.2178 123.268 69.3215C121.78 69.4003 120.228 70.4525 118.906 70.395C117.004 70.3123 114.902 69.577 112.954 69.5359C111.297 69.5011 109.569 70.0811 107.939 70.01C106.028 69.9264 104.345 68.6175 102.441 68.484C100.847 68.3723 99.3157 69.4937 97.75 69.1167C95.8111 68.6498 94.5868 66.9347 92.4947 66.7606C90.555 66.5992 88.4949 69.0806 86.8983 67.8595C86.2201 66.7761 86.8804 59.8128 86.8879 57.7343C85.9935 57.7536 83.1822 57.6186 82.718 57.9718L82.6836 58.0517C82.8668 59.0287 82.7921 60.4409 82.7732 61.4709C82.8008 62.0878 82.8461 62.3134 82.5586 62.8609L82.3091 62.8654C82.2413 62.7486 82.0594 62.4542 82.0147 62.3479C81.8354 61.4279 81.8076 61.0733 81.7763 60.1526L81.7275 57.7908C80.4255 57.9056 79.1169 57.9262 77.8118 57.8526C77.896 59.5203 77.9936 62.9183 76.9504 64.1645L76.7093 64.1465C76.18 63.2128 76.1232 59.6081 76.0094 58.3029C75.2857 57.7887 70.941 58.5673 71.271 56.0061C72.0485 54.7701 75.2086 55.5018 76.399 54.9272C76.241 53.6487 76.261 47.6089 76.3274 46.2528C75.5715 45.7625 70.2736 46.6523 71.3768 44.4297C72.6476 43.3887 74.6929 43.7058 76.2683 43.7968C76.2393 40.909 76.3304 37.1057 76.4182 34.2132C74.7005 34.2031 68.4865 33.5414 67.48 34.1881C66.911 35.6122 67.2666 39.8184 67.138 41.6087C66.7282 47.3892 66.9733 53.2084 66.5394 58.9779C66.4761 59.8192 66.1408 63.0079 65.0391 62.7989C63.3168 60.9851 63.8616 52.9665 63.8936 50.3689L64.0852 33.2787C64.3775 31.3672 64.2774 26.8008 64.241 24.7464C64.1669 20.5756 64.9552 14.2658 63.5027 10.4969C60.3424 9.37224 54.5226 8.80195 53.7435 13.2432C53.4997 14.5933 53.7941 21.4897 54.0485 22.9928L54.0555 24.2462C54.2119 26.2986 54.1225 29.6239 54.3586 31.2975C54.3586 32.8568 54.3329 37.0612 54.5525 38.4906C54.5493 42.3214 55.8713 60.7442 54.1796 62.7895C54.0868 62.9017 53.9505 62.8712 53.8119 62.8856C51.9275 61.3036 52.0763 48.8295 51.994 45.8162C51.8799 41.6351 51.5632 37.1276 51.4246 32.9676C47.2504 32.3689 41.6482 34.3068 38.2527 31.3817C35.9574 29.4742 35.9869 23.1754 38.1344 21.3014C40.4533 19.2778 47.8415 19.3193 50.8872 19.3354ZM107.728 36.0062C107.946 39.1631 107.697 42.4664 107.933 45.7215C109.437 45.4608 111.402 45.9722 112.255 45.7739C112.298 45.6681 112.396 45.4462 112.417 45.3467C112.276 43.2304 112.149 41.3179 112.322 39.1876C112.218 38.7967 112.211 36.4809 112.349 35.9806C112.425 35.7042 112.611 35.6981 112.845 35.6151C113.035 36.284 113.023 44.1261 113.15 45.929C115.092 45.8317 116.947 46.0431 118.88 46.1297C118.666 44.4517 118.809 40.4439 118.826 38.5442C118.882 37.5411 118.642 36.3717 118.937 35.4642C118.771 35.2 107.998 34.9207 107.468 35.2781L107.728 36.0062ZM120.019 46.1479C120.932 46.1701 126.261 46.3593 126.928 46.2587C126.672 44.8004 126.392 36.9006 126.714 35.595L126.56 35.3906C125.902 35.1904 119.825 35.1222 119.404 35.4718L119.595 35.9745C119.759 37.2104 119.725 39.4318 119.766 40.7545C119.82 42.5187 119.989 44.4148 120.019 46.1479ZM99.8725 44.8404C101.926 44.8487 104.614 45.1953 106.734 45.3647C106.711 43.032 106.878 40.8282 106.872 38.557C106.801 37.3881 106.639 36.2536 106.879 35.1192C105.993 34.7943 101.155 34.9787 99.6882 34.8243C99.6805 37.8797 99.5647 41.8815 99.8725 44.8404ZM150.31 56.0647C152.49 55.8079 155.26 55.8637 157.532 55.7575C157.525 55.0389 157.547 53.392 157.444 52.7657C157.294 51.4114 157.278 50.0353 157.243 48.6722L157.199 47.01C154.572 46.9637 152.41 47.3142 149.83 47.4111C149.987 48.3097 150.004 49.2167 150.003 50.1265C150 52.1143 150.158 54.0837 150.31 56.0647ZM165.53 31.0851C165.378 28.4575 165.314 25.8254 165.336 23.1936C163.372 23.0792 160.746 23.2023 158.732 23.227C155.358 23.2584 151.984 23.2675 148.611 23.2543C140.062 23.2398 131.589 22.9428 123.037 22.9261C122.055 22.7297 117.001 22.7353 115.823 22.7684C114.443 22.5968 110.497 22.6798 108.933 22.6654C105.168 22.6286 101.403 22.5239 97.6421 22.3515C94.1729 22.1236 89.8194 22.1465 86.3097 22.1843C80.1408 22.0628 73.4735 21.8379 67.3494 21.8368C67.6918 24.3814 67.2322 28.5936 67.6219 30.7292C68.554 31.46 99.2127 31.4215 102.828 31.5743C118.004 32.2154 133.541 32.0911 148.733 31.5547C151.131 31.47 154.247 31.6242 156.588 31.3186C156.691 31.3054 156.793 31.2898 156.894 31.2717C157.95 31.1493 164.255 31.0761 165.53 31.0851ZM93.7652 44.7768L98.9677 44.9925C98.9533 44.2401 98.9138 43.3684 98.9672 42.6275C98.9236 41.3545 98.8208 36.0107 99.238 34.9909C98.7522 34.6592 94.7136 34.6536 93.5482 34.4903C93.7069 35.7267 93.6261 37.0414 93.5843 38.292C93.6596 39.4987 93.6941 40.7076 93.6879 41.9165L93.7652 44.7768ZM112.523 59.0343C111.739 58.9868 109.041 58.7189 108.499 58.8664C108.123 60.1061 108.608 65.2803 108.773 66.81C111.539 67.1353 115.706 67.2843 118.529 67.1578C119.125 63.8387 118.719 62.0358 119.057 59.2868C117.715 59.3129 114.216 59.044 113.382 59.1317L113.225 59.3311C113.416 61.1656 113.428 65.6958 113.117 67.4492C112.524 65.2047 112.512 61.437 112.523 59.0343ZM133.525 53.3714C133.61 54.2975 133.774 55.7293 133.77 56.6334C134.475 56.9259 138.523 56.6764 139.571 56.6148C139.56 54.2615 139.38 50.3039 139.547 48.082C138.564 48.1147 133.822 47.9223 133.305 48.0856C133.597 49.8126 133.329 51.6917 133.525 53.3714ZM93.0438 54.9865C92.8319 53.4164 92.8936 47.7753 92.9869 46.0764C91.8161 46.2178 89.6719 46.0962 88.4229 46.0609C88.4838 48.974 88.7918 51.9834 88.7452 54.8365C89.9305 54.802 91.8777 54.7486 93.0438 54.9865ZM100.322 66.1893C101.976 66.0433 105.018 66.3772 106.533 67.0808C107.219 66.3886 106.87 59.9984 106.877 58.5978C105.095 58.4542 101.867 58.2822 100.219 57.975C100.041 60.4442 100.562 64.2498 100.322 66.1893ZM155.827 58.7908C154.194 58.9073 151.974 58.9853 150.408 59.1612C150.53 61.9556 150.697 63.722 151.155 66.5028L152.875 66.6087C154.318 66.6479 156.407 66.6423 157.764 66.9329C157.828 64.3529 157.971 61.2158 157.827 58.6889C157.327 58.7134 156.28 58.7312 155.827 58.7908ZM98.125 66.2203C99.0283 62.5487 98.7936 61.5265 98.8979 57.8909C97.3518 57.8326 95.2121 57.8434 93.7627 57.7279C93.6708 59.2801 93.5702 60.7686 93.5893 62.3268C93.6475 63.5467 93.5772 64.3195 93.4694 65.5434L93.4536 65.4839C92.7346 62.6962 92.8813 60.6508 92.9885 57.794C91.7879 57.8673 90.1135 57.8628 88.9072 57.7759C89.1563 60.2289 89.0674 62.8658 89.2565 65.4003C92.6933 65.305 95.1775 66.5698 98.125 66.2203ZM118.987 56.4889C118.955 53.4851 118.976 50.6462 118.84 47.6287C117.639 47.6461 113.737 47.19 113.1 47.4461C113.324 49.0492 113.274 54.5164 113.272 56.3256C114.802 56.2511 117.37 56.4214 118.987 56.4889ZM93.1668 34.9164L92.866 34.5953C91.9385 34.6473 88.1219 34.4442 87.7327 34.8106C88.1986 36.7464 88.4547 42.3047 88.4602 44.4433C90.1163 44.2633 92.1882 44.8622 92.9388 44.3C92.9565 44.005 92.9799 43.6979 92.9843 43.4034C92.7557 42.4547 92.8857 35.9428 93.1668 34.9164ZM93.704 50.7568L93.7513 54.9808C95.51 55.15 97.0905 55.1868 98.8529 55.2318C98.7827 53.7225 98.8566 47.9551 99.0291 46.5798C97.3911 46.4503 95.5458 46.0389 94.0211 46.3993C93.6016 46.8115 93.7338 46.7753 93.6769 47.5292C93.6701 48.6051 93.6791 49.6812 93.704 50.7568ZM82.4911 45.9672L82.385 46.1484C82.3886 47.1339 82.3565 48.5211 82.4344 49.469C82.5419 51.0568 82.4976 53.4329 82.5226 55.0867C84.0871 55.1418 85.3276 55.0489 86.8788 54.9403C87.0022 51.792 86.9768 49.2384 86.943 46.1014C85.3111 46.0128 84.138 45.8993 82.4911 45.9672ZM128.316 54.5204C128.319 55.1667 128.264 55.9264 128.516 56.5059C128.913 56.7351 128.73 56.6879 129.246 56.6303C130.272 56.6812 131.472 56.67 132.514 56.6868C132.473 55.6893 132.48 54.6681 132.474 53.6684L132.406 51.8547C132.368 50.6481 132.284 49.1686 132.344 47.9864C131.026 47.9836 129.297 47.9883 127.993 47.7778C128.262 49.7736 128.157 52.3751 128.316 54.5204ZM106.796 46.8995L99.8938 46.6715C100.037 49.5045 99.7969 52.164 100.117 55.1826C101.694 55.5643 105.291 55.9273 106.881 55.9445C106.878 52.9481 106.908 49.8886 106.796 46.8995ZM77.4208 46.0417C77.3843 48.8397 77.6438 51.8247 77.6111 54.5612C77.7197 54.7386 77.7427 54.8628 77.8943 54.899C78.6632 55.0828 80.9225 55.3067 81.5897 54.9818L81.7452 54.7264C81.4829 53.7309 81.5458 47.0737 81.7211 45.9111C80.6057 46.1461 78.5804 46.0686 77.4208 46.0417ZM140.923 59.497C141.047 61.5328 141.487 65.6398 141.247 67.4011L144.728 67.2548C145.5 67.2253 148.089 67.2676 148.381 66.7595C149.321 65.1279 148.998 61.1768 148.986 59.3745C147.725 59.3773 146.185 59.3417 144.949 59.4303C143.591 59.4748 142.283 59.5211 140.923 59.497ZM127.564 67.2833C127.862 64.4022 127.853 62.3712 127.605 59.4726C125.866 59.4268 121.669 59.5429 120.307 59.3314C120.333 61.8381 120.358 64.4634 120.588 66.9561C122.159 67.0686 126.074 67.5523 127.343 67.5553C127.409 67.4811 127.526 67.3629 127.564 67.2833ZM112.519 47.2675C111.28 47.3115 109.253 47.19 108.027 46.972C107.929 50.1278 107.992 52.872 108.127 56.0283C109.166 56.0495 111.627 56.1543 112.571 56.0564C112.509 55.1086 112.553 53.8054 112.561 52.8286C112.5 51.1137 112.439 48.9878 112.519 47.2675ZM122.393 47.7147L120.157 47.7278C120.169 50.667 120.221 53.6059 120.315 56.5437C121.925 56.4883 123.507 56.4443 125.119 56.5225L127.196 56.5937C127.121 53.6486 127.082 50.6137 126.833 47.682C125.211 47.619 123.978 47.6989 122.393 47.7147ZM81.704 44.0454C81.5371 42.8645 81.3843 35.9373 81.9483 35.1853L82.185 35.1679C82.5574 35.9582 82.3582 41.3289 82.4283 42.7578C82.4654 43.494 82.3422 43.5836 82.7161 44.0568C83.881 44.4978 85.4483 44.2011 86.8947 44.2362C86.9993 40.959 86.8691 37.9123 86.8951 34.67C83.6355 34.389 79.9577 34.5675 76.8515 34.2201C77.465 36.817 77.0465 40.99 77.3802 44.0311C78.4518 43.9314 81.2177 44.1318 81.704 44.0454ZM145.288 47.6953C143.879 47.8123 141.995 48.0342 140.643 47.8175C140.83 49.7134 140.975 54.669 140.94 56.7128C141.83 56.6479 142.742 56.5689 143.632 56.5434C145.316 56.509 147.148 56.4823 148.795 56.1467C148.746 53.1964 148.387 50.5148 148.253 47.627L145.288 47.6953ZM132.859 59.5003C131.54 59.5268 130.038 59.4751 128.705 59.4611C128.841 61.5156 128.896 64.7904 130.2 66.4376C131.021 67.4743 133.333 67.2672 134.546 67.3653C136.059 67.4876 137.625 67.6151 139.151 67.6897C139.672 65.1986 139.651 62.1565 139.719 59.5587C137.82 59.5725 135.921 59.5486 134.022 59.4867C134.079 60.8972 134.058 62.8789 133.969 64.2559C133.95 64.8709 133.993 65.574 133.686 66.0897L133.46 66.1261C133.085 65.6615 133.026 64.9625 132.919 64.3603C132.723 63.4359 132.833 60.5767 132.859 59.5003ZM184.886 22.2498C184.263 22.2628 183.541 22.2964 182.927 22.2822C183.119 24.7918 183.055 29.0562 183.024 31.7197C185.214 31.7182 189.525 31.6979 191.641 31.0534C194.285 29.599 195.275 26.9706 194.149 24.2248C193.152 21.7929 186.95 22.1679 184.886 22.2498ZM50.1682 21.61C47.2643 21.7837 41.8276 21.7297 39.5313 23.1826C38.8769 24.9237 38.8936 27.4856 39.3072 29.2747C39.8249 29.794 40.1257 30.1267 40.7577 30.5211C42.1618 30.999 49.4754 30.8703 51.2363 30.694C51.2893 29.3425 51.2591 22.42 50.6654 21.605C50.4958 21.5968 50.3272 21.5725 50.1682 21.61Z" fill="#853A04"/>
<path d="M126.711 35.5948C126.814 35.6064 127.212 35.5056 127.339 35.4773C127.807 36.3835 127.776 37.7729 127.766 38.7918C127.783 40.4576 127.917 43.7606 127.8 45.2967C127.656 45.9589 127.786 45.8668 127.35 46.2034L126.925 46.2585C126.669 44.8003 126.389 36.9004 126.711 35.5948Z" fill="#0E0000"/>
<path d="M126.711 35.595C126.872 37.2372 126.632 43.5717 127.156 44.3411L127.452 44.3381C128.052 43.3298 127.301 40.1815 127.766 38.792C127.783 40.4578 127.917 43.7608 127.8 45.2968C127.656 45.959 127.786 45.867 127.35 46.2036L126.925 46.2587C126.669 44.8004 126.389 36.9006 126.711 35.595Z" fill="#4B1100"/>
<path d="M132.103 39.3893C132.117 38.5451 131.997 36.1161 132.421 35.6473C132.879 35.6131 132.702 35.5593 133.081 35.8687C133.359 37.1392 133.282 42.294 133.381 43.9881C133.339 44.559 133.278 45.9192 132.71 46.1547C131.949 45.1356 132.604 40.2192 132.103 39.3893Z" fill="#5C2403"/>
<path d="M139.393 39.26C139.336 38.2542 139.085 36.3457 139.809 35.5967L140.045 35.7764C140.429 36.7073 140.339 37.4584 140.402 38.4975C140.345 39.2601 140.304 40.5529 140.018 41.204C139.407 40.7787 139.585 39.8939 139.393 39.26Z" fill="#4B1100"/>
<path d="M106.877 35.1191C107.074 35.1799 107.264 35.2513 107.466 35.278L107.726 36.0062C107.649 37.7415 107.749 40.1713 107.539 41.767L107.41 41.206L107.401 41.2035L107.505 41.5299L107.073 41.6166C106.899 40.482 107.121 39.4957 106.87 38.557C106.798 37.388 106.637 36.2535 106.877 35.1191Z" fill="#300800"/>
<path d="M81.7734 60.1526C81.8875 59.3657 81.6995 58.6582 81.9787 57.9112L82.247 57.8083L82.6808 58.0516C82.8639 59.0287 82.7892 60.4408 82.7703 61.4708C82.798 62.0877 82.8433 62.3133 82.5558 62.8608L82.3062 62.8654C82.2384 62.7485 82.0566 62.4541 82.0119 62.3479C81.8325 61.4279 81.8047 61.0732 81.7734 60.1526Z" fill="#4B1100"/>
<path d="M82.0117 62.3478C82.087 61.7346 81.9159 59.93 82.3511 59.4888C82.6577 59.9749 82.6795 60.8464 82.7702 61.4708C82.7978 62.0877 82.8431 62.3133 82.5556 62.8608L82.3061 62.8653C82.2383 62.7485 82.0564 62.4541 82.0117 62.3478Z" fill="#300800"/>
<path d="M156.629 35.0902L156.971 34.8943C157.616 35.2527 157.737 39.6707 157.805 40.6737L157.587 40.7818C157.262 40.186 157.626 39.6073 157.384 39.1119C157.204 39.619 157.191 41.3248 157.168 41.9569C157.138 41.4154 157.149 40.2977 156.904 39.8607L156.629 35.0902Z" fill="#5C2403"/>
<path d="M112.322 39.1876L112.655 39.0713L112.594 37.6304L112.798 38.4651C112.81 39.5583 113.044 45.2546 112.662 45.7796C112.524 45.5846 112.504 45.5671 112.416 45.3466C112.276 43.2304 112.149 41.3179 112.322 39.1876Z" fill="#4B1100"/>
<path d="M118.825 38.5441C118.881 37.541 118.641 36.3716 118.935 35.4641L119.402 35.4718L119.593 35.9744C119.524 37.0872 119.749 39.8468 119.278 40.5782C118.651 40.3771 118.828 39.1288 118.825 38.5441Z" fill="#300800"/>
<path d="M157.242 48.6721C157.691 49.3393 157.369 49.6825 157.753 50.201C157.75 50.2149 158.05 49.2143 158 49.7021C158.039 49.321 158.127 48.5944 158.184 48.2275C158.25 48.6844 158.333 49.4119 158.459 49.8316C158.617 50.6133 158.659 51.4091 158.722 52.2044C158.116 52.2155 158.297 52.2161 157.72 51.8766C157.489 52.2433 157.505 52.3228 157.444 52.7657C157.294 51.4113 157.278 50.0352 157.242 48.6721Z" fill="#5C2403"/>
<path d="M112.32 39.1875C112.215 38.7966 112.208 36.4808 112.347 35.9805C112.423 35.7041 112.609 35.698 112.843 35.615C112.802 36.5644 112.787 37.5147 112.796 38.465L112.592 37.6303L112.653 39.0712L112.32 39.1875Z" fill="#300800"/>
<path d="M67.6211 30.729C67.8316 30.3656 67.7939 30.208 67.7306 29.8014L67.9028 29.5767C68.2364 29.625 68.2253 30.3372 68.5936 30.4337C70.9337 31.0476 71.3072 29.5203 72.507 29.0815C72.815 29.2015 72.9339 29.2934 73.2117 29.4762C74.7659 29.4434 83.327 29.879 83.9858 29.6211C83.7959 29.4908 83.6044 29.3626 83.4113 29.237C83.9133 29.0787 93.2759 31.0089 95.7569 30.0197C96.2639 30.4995 96.965 29.8012 97.965 29.9592C100.12 30.2819 102.427 29.8247 104.535 29.8617C107.862 29.92 110.661 30.4584 113.896 29.3367C113.959 29.315 116.51 29.387 116.838 29.4162C119.187 29.6248 123.012 29.1254 125.195 29.5664C121.367 30.3479 118.554 29.1456 115.098 29.9978C120.311 29.7779 126.313 30.049 131.569 30.0979C133.781 30.1184 137.776 29.5009 139.639 29.5973C139.545 30.2408 139.435 30.5961 140.098 31.0208C140.833 30.9889 142.158 30.7897 142.794 30.8295C147.485 31.122 152.082 30.9467 156.765 30.8797L156.785 31.0331C156.353 31.1559 156.265 31.1687 155.815 31.1765L156.893 31.2715C156.792 31.2897 156.69 31.3053 156.587 31.3184C154.246 31.624 151.13 31.4698 148.732 31.5545C133.54 32.0909 118.003 32.2153 102.827 31.5742C99.2119 31.4214 68.5531 31.4598 67.6211 30.729Z" fill="#A26439" fill-opacity="0.0117647"/>
<path d="M132.402 51.8545C132.516 50.9001 132.27 48.5117 132.802 47.9856L133.301 48.0854C133.594 49.8125 133.325 51.6915 133.522 53.3712C133.607 54.2973 133.771 55.7292 133.766 56.6333C133.553 56.6165 132.876 56.6922 132.51 56.6867C132.47 55.6892 132.477 54.6679 132.471 53.6682L132.402 51.8545Z" fill="#4B1100"/>
<path d="M132.473 53.6684C132.636 54.3773 132.666 54.5304 133.047 55.1413L133.249 55.1367C133.448 54.5973 133.473 53.9513 133.524 53.3713C133.608 54.2974 133.773 55.7293 133.768 56.6334C133.555 56.6167 132.878 56.6923 132.512 56.6868C132.471 55.6893 132.478 54.6681 132.473 53.6684Z" fill="#5C2403"/>
<path d="M81.7038 44.0452C81.5369 42.8643 81.3841 35.9371 81.9482 35.1851L82.1849 35.1677C82.5572 35.958 82.358 41.3287 82.4282 42.7576C82.2996 43.4016 82.28 43.5327 82.3171 44.1857L82.0283 44.2751L81.7038 44.0452Z" fill="#4B1100"/>
<path d="M81.7188 45.9109C82.1383 45.8856 81.9774 45.86 82.3827 46.1483C82.3863 47.1337 82.3541 48.5209 82.4321 49.4689C82.353 50.6542 82.5196 54.2928 82.1296 55.0273C81.8059 54.9523 81.9396 55.0375 81.7429 54.7262C81.4805 53.7308 81.5435 47.0736 81.7188 45.9109Z" fill="#4B1100"/>
<path d="M92.9844 46.0762L93.3632 46.0785C93.7383 46.5165 93.6783 46.8871 93.6744 47.529C93.6676 48.6049 93.6766 49.681 93.7015 50.7566C93.6796 51.9984 93.6994 53.6082 93.5051 54.8015C93.2137 55.0162 93.3688 54.9705 93.0413 54.9863C92.8294 53.4162 92.8912 47.7751 92.9844 46.0762Z" fill="#4B1100"/>
<path d="M93.1629 34.9163C93.7589 35.8408 93.2678 37.263 93.5804 38.2919C93.6558 39.4986 93.6903 40.7075 93.684 41.9164C93.6406 42.57 93.6042 44.0113 93.3806 44.5563C93.0954 44.3933 93.0426 43.7452 92.9804 43.4033C92.7518 42.4545 92.8819 35.9427 93.1629 34.9163Z" fill="#4B1100"/>
<path d="M112.557 52.8286C112.705 51.5183 112.4 47.7709 112.858 47.1558L113.096 47.4461C113.321 49.0492 113.271 54.5164 113.268 56.3256C113.045 56.3064 112.784 56.1573 112.567 56.0564C112.506 55.1086 112.55 53.8054 112.557 52.8286Z" fill="#5C2403"/>
<path d="M132.918 64.3602C133.017 63.3666 132.87 61.1528 133.157 60.3603L133.804 60.2891C134.026 61.3989 133.782 62.8089 133.968 64.2558C133.949 64.8708 133.992 65.5739 133.685 66.0895L133.459 66.1259C133.084 65.6614 133.025 64.9623 132.918 64.3602Z" fill="#300800"/>
<path d="M112.521 59.0342C112.904 59.097 112.945 59.0845 113.224 59.3309C113.415 61.1654 113.426 65.6956 113.115 67.449C112.523 65.2045 112.511 61.4368 112.521 59.0342Z" fill="#300800"/>
<path d="M99.2363 34.9907C99.7895 35.7654 99.3187 41.6238 99.3106 42.9934L99.0035 43.1103L99.0251 43.1931L99.2967 43.2374L99.1759 43.6539C99.002 43.2403 99.0082 43.0654 98.9656 42.6273C98.922 41.3543 98.8192 36.0106 99.2363 34.9907Z" fill="#4B1100"/>
<path d="M92.9882 57.7939C93.8269 58.4986 93.3105 61.0841 93.589 62.3268C93.6472 63.5466 93.5769 64.3194 93.4691 65.5433L93.4533 65.4838C92.7343 62.6961 92.881 60.6507 92.9882 57.7939Z" fill="#5C2403"/>
<path d="M81.7031 44.0454L82.0277 44.2753L82.3164 44.1859C82.3927 44.7112 82.3966 45.574 82.4903 45.9671L82.3842 46.1484C81.9789 45.8601 82.1398 45.8857 81.7203 45.911C81.8398 45.1724 81.7769 44.7965 81.7031 44.0454Z" fill="#5C2403"/>
<path d="M26.9232 83.6462C25.9786 83.8506 25.0033 84.1076 24.0397 84.1933C23.4802 84.2429 22.8371 84.1925 22.4025 83.7939C21.5441 83.0064 21.878 79.9187 21.8913 78.7664C21.9235 75.9547 21.8077 71.423 24.0138 69.3287C28.0797 65.4686 48.8933 65.0381 55.063 65.1744C61.9974 65.3275 68.9214 65.6906 75.7624 66.9231C78.7663 67.4644 81.7064 68.314 84.6863 68.9678C88.9522 69.9037 94.4275 70.4412 97.6041 73.7623C97.79 75.8356 97.5797 77.1612 96.858 79.1806C96.1663 81.1664 94.8075 85.1864 92.8416 86.1794C90.5149 87.3547 84.9038 85.8359 82.4096 85.278C75.674 83.7503 69.0619 82.873 62.1605 82.6986C61.4797 82.665 60.7954 82.547 60.1147 82.5234C55.2107 82.3525 56.0358 81.5106 54.8196 85.8342C53.7572 84.7117 53.4669 84.0181 53.4399 82.4587C51.873 82.3869 50.4249 82.3198 48.8514 82.344C44.598 82.2489 30.6375 82.6253 26.9232 83.6462ZM57.8872 79.332C63.0516 79.5237 68.1977 80.052 73.2933 80.9134C78.7514 81.8762 84.1957 82.9459 89.7182 83.6647C92.9722 84.0883 93.7983 77.6834 94.7418 75.3286C95.3685 73.7642 88.5025 72.9784 87.7283 72.6345C76.8758 69.6026 65.873 68.2425 54.5544 68.1067C50.5789 67.478 43.3121 68.3983 39.2432 68.6905C38.4791 68.7453 35.053 69.0481 34.463 69.1933C33.815 69.2526 32.0733 69.3756 31.5199 69.5058C30.0911 69.6019 26.5363 70.0359 25.5132 71.0761L25.3468 71.5339C24.8247 73.6836 24.9669 78.7526 24.9958 81.0973C26.1196 81.0139 27.2072 80.9626 28.3086 80.7209L28.4396 80.73C31.1791 80.4961 34.0571 79.8167 36.88 79.6428C44.0729 79.1361 50.7158 79.413 57.8872 79.332Z" fill="#853A04"/>
<path d="M149.995 72.2595C150.519 72.2801 150.498 72.4453 150.877 72.7019C152.877 74.2089 148.597 79.5862 150.452 80.8111C152.734 81.7953 155.874 80.9058 158.347 80.0806C161.461 79.042 165.93 79.7958 164.278 84.1183C164.005 84.8308 163.239 85.0506 162.419 85.0747C160.955 84.4048 160.658 84.2045 159.665 82.977C157.081 84.0578 154.967 85.67 152.036 85.6236C144.501 85.5045 146.128 75.8834 149.995 72.2595Z" fill="#853A04"/>
<path d="M126.544 73.3773C130.986 73.2084 126.29 80.2399 127.422 81.4068C130.535 84.617 135.813 79.3855 139.57 80.9455C141.868 81.9001 142.638 85.0868 140.144 86.153C137.869 86.0887 138.446 85.157 136.907 84.3455C135.796 84.2238 134.73 84.8673 133.711 85.2377C129.002 86.9493 125.607 86.7723 123.629 81.5544C123.804 79.2227 124.822 75.1332 126.544 73.3773Z" fill="#853A04"/>
<path d="M53.7422 13.2431C54.5213 8.80186 60.3411 9.37214 63.5014 10.4968C64.9539 14.2657 64.1656 20.5755 64.2397 24.7463C64.2761 26.8007 64.3762 31.3671 64.0839 33.2786C63.9586 32.545 63.9716 30.5083 63.9619 29.6972C63.9022 29.8949 63.9061 30.9442 63.9333 31.1971C64.2078 33.7503 63.2342 32.196 61.7931 33.7017C61.6628 33.3892 62.0586 31.453 62.1045 30.7775L61.9286 30.9066C61.5764 30.6366 61.235 30.6636 60.7786 30.6264C63.2794 28.5205 63.1497 26.6452 62.8037 23.7117C62.8369 23.4814 62.8819 23.2935 62.9341 23.0689C63.0205 23.2825 63.1056 23.4958 63.1791 23.7142L63.3208 23.6007C63.4091 23.0639 63.2709 22.0863 63.1572 21.5475C63.132 21.8899 63.0981 22.2019 63.0567 22.5427L62.8622 22.4802C62.5631 22.0552 62.763 21.7419 62.71 21.2719C62.3603 18.1671 63.9339 11.9527 58.6069 13.4348C57.5923 13.8806 57.1533 13.7812 56.1383 13.9453C55.8769 13.9875 55.4481 14.8989 54.6291 14.6876C54.5252 14.3338 54.4994 14.1845 54.4544 13.8181L53.9819 15.9666C53.8155 15.0582 53.8122 14.1731 53.7422 13.2431Z" fill="#995828" fill-opacity="0.0196078"/>
<path d="M54.133 22.4268C54.1297 21.836 54.0744 20.4621 54.3086 19.978L54.4528 20.248C54.4791 20.899 54.5556 21.6879 54.3916 22.3038L54.133 22.4268Z" fill="#995828" fill-opacity="0.0588235"/>
</svg>
